<svg xmlns="http://www.w3.org/2000/svg" xmlns:xlink="http://www.w3.org/1999/xlink" width="1000" zoomAndPan="magnify" viewBox="0 0 750 749.999995" height="1000" preserveAspectRatio="xMidYMid meet" version="1.0"><defs><clipPath id="81813ff733"><path d="M 408 234 L 642.890625 234 L 642.890625 444 L 408 444 Z M 408 234 " clip-rule="nonzero"/></clipPath></defs><path fill="#fdca80" d="M 416.148438 452.027344 C 416.507812 448.945312 417.714844 446.035156 418.921875 443.175781 C 419.222656 442.460938 419.527344 441.75 419.832031 441.039062 C 404.960938 437.03125 412.386719 398.183594 416.652344 382.964844 C 421.046875 367.28125 421.675781 340.933594 421.046875 317.722656 C 420.617188 301.792969 420.777344 272.558594 420.921875 255.792969 C 420.964844 250.339844 423.773438 245.464844 428.101562 242.613281 C 424.71875 238.394531 418.292969 237.363281 412.679688 236.855469 C 405.140625 236.171875 390.589844 235.933594 381.558594 236.238281 C 378.707031 236.335938 377.445312 239.828125 379.554688 241.742188 C 385.445312 247.097656 390.089844 253.785156 393.007812 261.367188 C 398.835938 276.515625 405.117188 299.082031 406.054688 327.46875 C 407.867188 382.203125 396.09375 436.425781 382.574219 451.800781 C 379.785156 454.972656 375.167969 457.683594 369.210938 460.074219 C 369.285156 460.707031 369.394531 461.335938 369.558594 461.957031 C 371.324219 468.679688 377.9375 472.746094 383.847656 476.414062 C 389.757812 480.082031 396.082031 484.984375 396.5625 491.917969 C 397.183594 500.863281 387.851562 507.371094 385.644531 516.0625 C 385.347656 517.230469 385.222656 518.589844 385.972656 519.535156 C 386.667969 520.414062 387.894531 520.648438 389.015625 520.742188 C 400.75 521.734375 412.132812 513.933594 417.429688 503.429688 C 422.730469 492.921875 422.632812 480.320312 419.410156 469.007812 C 417.816406 463.421875 415.476562 457.796875 416.148438 452.027344 Z M 416.148438 452.027344 " fill-opacity="1" fill-rule="nonzero"/><path fill="#efb467" d="M 417.429688 503.429688 C 422.730469 492.925781 422.632812 480.324219 419.410156 469.007812 C 417.816406 463.421875 415.476562 457.796875 416.148438 452.027344 C 416.507812 448.945312 417.714844 446.035156 418.921875 443.175781 C 419.222656 442.460938 419.527344 441.75 419.832031 441.039062 C 404.960938 437.03125 412.386719 398.183594 416.652344 382.964844 C 416.929688 381.96875 417.195312 380.921875 417.445312 379.839844 C 413.746094 384.890625 410.210938 390.070312 407.617188 395.941406 C 403.300781 405.707031 401.039062 416.628906 402.875 427.144531 C 403.621094 431.398438 405.023438 435.574219 405.027344 439.890625 C 405.035156 447.828125 400.320312 455.195312 400.324219 463.132812 C 400.324219 472.910156 407.476562 482.039062 405.867188 491.6875 C 404.847656 497.789062 400.460938 502.78125 395.722656 506.761719 C 392.597656 509.390625 389.230469 511.765625 386.148438 514.429688 C 385.953125 514.964844 385.785156 515.507812 385.644531 516.0625 C 385.347656 517.230469 385.222656 518.589844 385.972656 519.535156 C 386.671875 520.414062 387.894531 520.648438 389.015625 520.742188 C 400.75 521.734375 412.132812 513.933594 417.433594 503.429688 Z M 417.429688 503.429688 " fill-opacity="1" fill-rule="nonzero"/><path fill="#9b4b54" d="M 393.007812 261.367188 C 387.75 247.710938 376.917969 236.9375 363.253906 231.667969 C 332.207031 219.6875 270.453125 199.375 228.582031 208.523438 C 170.628906 221.183594 134.121094 252.238281 119.921875 299.867188 C 110.703125 330.792969 107.542969 397.777344 126.957031 478.039062 C 127.648438 480.898438 127.59375 483.886719 126.8125 486.726562 C 123.699219 498.039062 117.269531 529.074219 137.128906 538.625 C 161.574219 550.378906 222.242188 491.59375 267.515625 481.648438 C 312.789062 471.699219 369.054688 467.175781 382.574219 451.800781 C 396.097656 436.429688 407.867188 382.203125 406.054688 327.46875 C 405.117188 299.082031 398.835938 276.515625 393.007812 261.367188 Z M 393.007812 261.367188 " fill-opacity="1" fill-rule="nonzero"/><path fill="#b76e79" d="M 138.726562 527.5 C 139.578125 524.40625 139.636719 521.148438 138.882812 518.027344 C 117.71875 430.527344 121.164062 357.5 131.214844 323.785156 C 146.695312 271.863281 186.496094 238.007812 249.671875 224.207031 C 289.464844 215.511719 345.722656 231.222656 381.925781 244.046875 C 376.730469 238.675781 370.382812 234.417969 363.253906 231.667969 C 332.207031 219.6875 270.449219 199.375 228.582031 208.523438 C 170.628906 221.183594 134.121094 252.238281 119.921875 299.867188 C 110.703125 330.792969 107.542969 397.777344 126.957031 478.039062 C 127.648438 480.898438 127.589844 483.886719 126.8125 486.726562 C 123.742188 497.882812 117.449219 528.210938 136.316406 538.210938 C 137.066406 533.925781 137.984375 530.199219 138.726562 527.5 Z M 138.726562 527.5 " fill-opacity="1" fill-rule="nonzero"/><path fill="#893a45" d="M 406.054688 327.46875 C 405.117188 299.082031 398.835938 276.515625 393.007812 261.367188 C 387.75 247.710938 376.917969 236.9375 363.253906 231.664062 C 360.296875 230.527344 357.0625 229.308594 353.597656 228.050781 C 358.296875 242.566406 362.578125 261.769531 363.339844 284.804688 C 365.148438 339.539062 353.378906 393.761719 339.855469 409.136719 C 326.335938 424.511719 270.074219 429.035156 224.800781 438.980469 C 193.515625 445.855469 154.882812 476.046875 125.925781 490.167969 C 122.765625 503.367188 119.027344 529.917969 137.128906 538.621094 C 161.574219 550.378906 222.242188 491.59375 267.515625 481.648438 C 312.789062 471.699219 369.050781 467.175781 382.574219 451.800781 C 396.09375 436.429688 407.867188 382.203125 406.054688 327.46875 Z M 406.054688 327.46875 " fill-opacity="1" fill-rule="nonzero"/><path fill="#7a2b38" d="M 406.054688 327.46875 C 405.117188 299.082031 398.835938 276.515625 393.007812 261.367188 C 388.902344 250.707031 381.394531 241.816406 371.800781 235.917969 C 373.449219 238.59375 374.875 241.421875 376.019531 244.402344 C 381.847656 259.550781 388.128906 282.117188 389.066406 310.503906 C 390.878906 365.238281 379.109375 419.460938 365.585938 434.835938 C 352.066406 450.210938 295.804688 454.730469 250.527344 464.679688 C 207.914062 474.042969 151.664062 526.667969 124.816406 523.011719 C 126.648438 529.625 130.363281 535.371094 137.125 538.625 C 161.574219 550.378906 222.242188 491.59375 267.515625 481.648438 C 312.789062 471.699219 369.050781 467.175781 382.574219 451.800781 C 396.09375 436.429688 407.867188 382.203125 406.054688 327.46875 Z M 406.054688 327.46875 " fill-opacity="1" fill-rule="nonzero"/><path fill="#250b48" d="M 144.613281 542.550781 C 141.5 542.550781 138.652344 541.988281 136.097656 540.757812 C 126.707031 536.242188 121.621094 527.054688 120.984375 513.449219 C 120.480469 502.675781 122.984375 491.6875 124.523438 486.097656 C 125.199219 483.644531 125.242188 481.046875 124.648438 478.59375 C 115.824219 442.097656 110.871094 404.714844 110.328125 370.488281 C 109.71875 331.859375 114.652344 309.238281 117.648438 299.191406 C 124.867188 274.976562 137.875 254.816406 156.316406 239.273438 C 174.78125 223.703125 198.925781 212.578125 228.074219 206.207031 C 246.738281 202.128906 271.105469 203.359375 300.488281 209.859375 C 325.335938 215.355469 348.800781 223.550781 364.109375 229.457031 C 378.40625 234.972656 389.746094 246.292969 395.21875 260.515625 C 400.707031 274.777344 407.453125 297.953125 408.425781 327.390625 C 409.28125 353.292969 407.140625 380.804688 402.390625 404.855469 C 397.792969 428.140625 391.390625 445.371094 384.355469 453.367188 C 374.15625 464.964844 343.625 470.257812 308.269531 476.386719 C 294.835938 478.714844 280.945312 481.125 268.027344 483.960938 C 248.09375 488.34375 225.246094 502.292969 203.152344 515.789062 C 179.9375 529.964844 159.332031 542.550781 144.613281 542.550781 Z M 252.136719 208.644531 C 242.050781 208.644531 234.480469 209.660156 229.089844 210.839844 C 172.199219 223.269531 136.238281 253.449219 122.195312 300.542969 C 112.378906 333.476562 110.753906 400.960938 129.261719 477.480469 C 130.042969 480.714844 129.988281 484.128906 129.097656 487.355469 C 126.546875 496.632812 119.65625 527.589844 138.15625 536.488281 C 150.464844 542.40625 174.855469 527.511719 200.679688 511.742188 C 223.105469 498.046875 246.296875 483.882812 267.007812 479.332031 C 280.027344 476.472656 293.972656 474.054688 307.460938 471.714844 C 340.492188 465.988281 371.695312 460.582031 380.792969 450.238281 C 393.335938 435.976562 405.527344 383.269531 403.683594 327.546875 C 402.730469 298.769531 396.148438 276.136719 390.792969 262.21875 C 385.796875 249.242188 375.449219 238.910156 362.398438 233.878906 C 310.371094 213.804688 274.871094 208.644531 252.136719 208.644531 Z M 252.136719 208.644531 " fill-opacity="1" fill-rule="nonzero"/><path fill="#d1939c" d="M 208.691406 248.082031 C 175.214844 265.769531 152.835938 292.867188 142.179688 328.621094 C 140.648438 333.757812 143.574219 339.160156 148.714844 340.6875 C 149.640625 340.960938 150.570312 341.09375 151.488281 341.09375 C 155.675781 341.09375 159.539062 338.371094 160.792969 334.160156 C 169.910156 303.582031 189.082031 280.394531 217.777344 265.230469 C 222.515625 262.726562 224.328125 256.855469 221.820312 252.121094 C 219.3125 247.386719 213.433594 245.578125 208.691406 248.082031 Z M 208.691406 248.082031 " fill-opacity="1" fill-rule="nonzero"/><path fill="#d1939c" d="M 307.789062 229.671875 C 288.609375 227.25 271.882812 227.554688 258.066406 230.570312 C 252.828125 231.714844 249.507812 236.886719 250.65625 242.121094 C 251.648438 246.65625 255.667969 249.75 260.132812 249.75 C 260.820312 249.75 261.519531 249.675781 262.21875 249.523438 C 273.863281 246.980469 288.378906 246.777344 305.351562 248.917969 C 310.675781 249.589844 315.535156 245.828125 316.207031 240.511719 C 316.878906 235.195312 313.109375 230.34375 307.789062 229.671875 Z M 307.789062 229.671875 " fill-opacity="1" fill-rule="nonzero"/><path fill="#9b4b54" d="M 434.132812 240.21875 C 426.539062 241.527344 420.988281 248.097656 420.921875 255.792969 C 420.777344 272.558594 420.617188 301.792969 421.046875 317.722656 C 421.675781 340.9375 421.046875 367.285156 416.652344 382.964844 C 412.253906 398.648438 404.503906 439.425781 421.253906 441.308594 C 438.007812 443.191406 490.765625 434.40625 521.542969 409.941406 C 552.320312 385.476562 562.996094 369.164062 581.210938 355.363281 C 599.425781 341.5625 640.359375 326.507812 640.359375 305.175781 C 640.359375 283.847656 600.054688 256.871094 533.476562 243.070312 C 488.054688 233.65625 452.28125 237.085938 434.132812 240.21875 Z M 434.132812 240.21875 " fill-opacity="1" fill-rule="nonzero"/><path fill="#893a45" d="M 606.652344 268.285156 C 606.664062 268.554688 606.675781 268.820312 606.675781 269.089844 C 606.675781 290.417969 565.742188 305.472656 547.527344 319.273438 C 529.3125 333.078125 518.632812 349.386719 487.859375 373.851562 C 466.777344 390.613281 435.382812 400.011719 412.308594 403.664062 C 409.804688 420.789062 409.871094 440.03125 421.253906 441.308594 C 438.007812 443.191406 490.765625 434.40625 521.542969 409.941406 C 552.320312 385.476562 562.996094 369.164062 581.210938 355.363281 C 599.425781 341.5625 640.359375 326.507812 640.359375 305.175781 C 640.359375 293.542969 628.363281 280.226562 606.652344 268.285156 Z M 606.652344 268.285156 " fill-opacity="1" fill-rule="nonzero"/><path fill="#7a2b38" d="M 621.238281 277.574219 C 624.230469 282.042969 625.785156 286.441406 625.785156 290.621094 C 625.785156 311.949219 584.851562 327.003906 566.636719 340.808594 C 548.421875 354.609375 537.746094 370.917969 506.96875 395.386719 C 478.65625 417.890625 431.75 427.125 411.375 426.996094 C 412.335938 434.84375 415.1875 440.628906 421.253906 441.308594 C 438.007812 443.191406 490.765625 434.410156 521.542969 409.945312 C 552.320312 385.476562 562.996094 369.167969 581.210938 355.367188 C 599.425781 341.5625 640.359375 326.507812 640.359375 305.179688 C 640.359375 296.488281 633.667969 286.863281 621.238281 277.574219 Z M 621.238281 277.574219 " fill-opacity="1" fill-rule="nonzero"/><g clip-path="url(#81813ff733)"><path fill="#250b48" d="M 426.328125 443.917969 C 424.265625 443.917969 422.476562 443.832031 420.988281 443.664062 C 417.503906 443.273438 414.691406 441.523438 412.628906 438.46875 C 402.851562 423.972656 413.890625 384.019531 414.367188 382.328125 C 418.929688 366.046875 419.230469 338.242188 418.675781 317.789062 C 418.242188 301.714844 418.410156 272.03125 418.546875 255.769531 C 418.625 246.910156 425.007812 239.386719 433.726562 237.882812 L 434.132812 240.21875 L 433.726562 237.882812 C 451.339844 234.84375 487.777344 231.175781 533.960938 240.75 C 565.828125 247.355469 593.199219 257.21875 613.117188 269.273438 C 632.214844 280.835938 642.734375 293.585938 642.734375 305.179688 C 642.734375 321.828125 621.054688 334.277344 601.925781 345.257812 C 594.605469 349.460938 587.691406 353.429688 582.648438 357.25 C 574.503906 363.421875 567.847656 370.148438 560.140625 377.933594 C 550.664062 387.507812 539.921875 398.363281 523.023438 411.796875 C 505.582031 425.660156 482.792969 433.589844 466.742188 437.796875 C 450.152344 442.148438 435.554688 443.917969 426.328125 443.917969 Z M 474.738281 239.320312 C 457.234375 239.320312 443.433594 241.019531 434.535156 242.554688 C 428.078125 243.667969 423.347656 249.246094 423.292969 255.8125 C 423.15625 272.042969 422.984375 301.660156 423.417969 317.660156 C 423.980469 338.441406 423.660156 366.753906 418.933594 383.605469 C 414.5 399.429688 410.207031 426.394531 416.5625 435.820312 C 417.832031 437.695312 419.449219 438.722656 421.519531 438.953125 C 437.167969 440.710938 489.570312 432.328125 520.066406 408.085938 C 536.742188 394.828125 547.378906 384.082031 556.765625 374.601562 C 564.597656 366.6875 571.363281 359.851562 579.777344 353.476562 C 585.0625 349.46875 592.105469 345.429688 599.558594 341.148438 C 617.570312 330.808594 637.988281 319.085938 637.988281 305.175781 C 637.988281 295.449219 628.023438 283.839844 610.65625 273.328125 C 591.195312 261.550781 564.339844 251.890625 532.996094 245.390625 C 510.972656 240.828125 491.214844 239.320312 474.738281 239.320312 Z M 474.738281 239.320312 " fill-opacity="1" fill-rule="nonzero"/></g><path fill="#d1939c" d="M 495.363281 255.585938 L 495.328125 255.585938 C 479.707031 255.652344 467.328125 257.238281 459.691406 258.554688 C 449.238281 260.359375 441.582031 269.375 441.492188 279.988281 C 441.453125 284.742188 441.410156 290.640625 441.382812 296.917969 C 441.367188 301.382812 444.976562 305.015625 449.445312 305.035156 L 449.476562 305.035156 C 453.933594 305.035156 457.554688 301.4375 457.570312 296.984375 C 457.597656 290.734375 457.640625 284.859375 457.679688 280.125 C 457.703125 277.332031 459.707031 274.957031 462.449219 274.484375 C 469.476562 273.273438 480.894531 271.8125 495.398438 271.753906 C 499.867188 271.734375 503.476562 268.097656 503.457031 263.632812 C 503.4375 259.179688 499.816406 255.585938 495.363281 255.585938 Z M 495.363281 255.585938 " fill-opacity="1" fill-rule="nonzero"/><path fill="#d1939c" d="M 554.914062 262.347656 C 552.996094 261.914062 551.035156 261.488281 549.082031 261.085938 C 541.710938 259.554688 534.226562 258.328125 526.839844 257.4375 C 522.398438 256.902344 518.367188 260.058594 517.832031 264.492188 C 517.296875 268.925781 520.457031 272.949219 524.894531 273.488281 C 531.832031 274.324219 538.863281 275.476562 545.792969 276.914062 C 547.652344 277.296875 549.515625 277.703125 551.339844 278.113281 C 551.941406 278.25 552.542969 278.316406 553.132812 278.316406 C 556.832031 278.316406 560.167969 275.769531 561.019531 272.015625 C 562.007812 267.660156 559.273438 263.332031 554.914062 262.347656 Z M 554.914062 262.347656 " fill-opacity="1" fill-rule="nonzero"/><path fill="#250b48" d="M 390.976562 523.195312 C 390.253906 523.195312 389.535156 523.164062 388.816406 523.105469 C 387.925781 523.027344 385.554688 522.828125 384.113281 521.007812 C 383.019531 519.632812 382.761719 517.773438 383.34375 515.480469 C 384.386719 511.378906 386.757812 507.863281 389.054688 504.46875 C 391.851562 500.324219 394.496094 496.40625 394.195312 492.085938 C 393.78125 486.101562 387.777344 481.644531 382.597656 478.429688 L 382.46875 478.351562 C 376.277344 474.507812 369.253906 470.148438 367.265625 462.558594 C 367.082031 461.871094 366.949219 461.148438 366.851562 460.359375 L 366.636719 458.554688 L 368.324219 457.878906 C 374.21875 455.511719 378.414062 452.941406 380.792969 450.238281 C 393.335938 435.976562 405.527344 383.269531 403.683594 327.546875 C 402.734375 298.769531 396.148438 276.136719 390.792969 262.21875 C 388.058594 255.117188 383.621094 248.644531 377.957031 243.496094 C 376.277344 241.96875 375.695312 239.605469 376.476562 237.476562 C 377.253906 235.363281 379.21875 233.949219 381.480469 233.871094 C 391.148438 233.546875 405.535156 233.832031 412.894531 234.496094 C 419.152344 235.058594 426.070312 236.289062 429.957031 241.132812 L 431.585938 243.160156 L 429.410156 244.59375 C 425.621094 247.089844 423.332031 251.285156 423.292969 255.8125 C 423.15625 272.042969 422.988281 301.660156 423.421875 317.660156 C 423.984375 338.441406 423.660156 366.753906 418.9375 383.605469 C 414.675781 398.808594 410.410156 425.070312 416.132812 435.117188 C 417.25 437.082031 418.664062 438.269531 420.449219 438.75 L 423.078125 439.460938 L 421.613281 442.90625 C 421.445312 443.304688 421.273438 443.699219 421.105469 444.097656 C 420.039062 446.625 418.832031 449.488281 418.503906 452.304688 C 418.019531 456.453125 419.316406 460.632812 420.691406 465.050781 C 421.027344 466.132812 421.375 467.25 421.691406 468.359375 C 425.4375 481.503906 424.675781 494.335938 419.550781 504.496094 C 413.871094 515.757812 402.355469 523.195312 390.976562 523.195312 Z M 371.898438 461.523438 C 373.480469 467.191406 379.324219 470.816406 384.976562 474.324219 L 385.101562 474.402344 C 391.242188 478.214844 398.367188 483.628906 398.929688 491.757812 C 399.34375 497.707031 396.113281 502.492188 392.988281 507.117188 C 390.824219 510.320312 388.78125 513.34375 387.945312 516.644531 C 387.667969 517.734375 387.832031 518.066406 387.832031 518.070312 C 387.851562 518.085938 388.082031 518.285156 389.214844 518.378906 C 399.382812 519.242188 410.117188 512.65625 415.3125 502.363281 C 419.898438 493.265625 420.542969 481.652344 417.125 469.65625 C 416.824219 468.601562 416.484375 467.511719 416.15625 466.457031 C 414.699219 461.757812 413.191406 456.902344 413.789062 451.753906 C 414.195312 448.292969 415.527344 445.121094 416.710938 442.3125 C 414.820312 441.261719 413.246094 439.636719 412.007812 437.460938 C 403.332031 422.222656 413.910156 383.949219 414.367188 382.328125 C 418.929688 366.046875 419.230469 338.246094 418.675781 317.789062 C 418.242188 301.714844 418.410156 272.035156 418.546875 255.773438 C 418.589844 250.65625 420.761719 245.855469 424.46875 242.453125 C 421.410156 240.3125 416.773438 239.605469 412.464844 239.214844 C 405.390625 238.578125 390.984375 238.292969 381.636719 238.609375 C 381.199219 238.625 381.011719 238.894531 380.929688 239.117188 C 380.859375 239.304688 380.796875 239.667969 381.152344 239.992188 C 387.359375 245.632812 392.222656 252.730469 395.222656 260.519531 C 400.707031 274.777344 407.453125 297.953125 408.425781 327.390625 C 409.285156 353.292969 407.140625 380.804688 402.390625 404.855469 C 397.792969 428.140625 391.390625 445.371094 384.355469 453.367188 C 381.714844 456.375 377.625 459.050781 371.898438 461.527344 Z M 371.898438 461.523438 " fill-opacity="1" fill-rule="nonzero"/><path fill="#f8adaa" d="M 186.992188 369.9375 C 186.992188 370.351562 186.910156 370.765625 186.742188 371.175781 C 186.574219 371.585938 186.324219 371.980469 185.992188 372.367188 C 185.660156 372.753906 185.253906 373.117188 184.777344 373.464844 C 184.296875 373.8125 183.75 374.132812 183.140625 374.429688 C 182.527344 374.722656 181.863281 374.988281 181.144531 375.21875 C 180.425781 375.449219 179.667969 375.644531 178.867188 375.804688 C 178.070312 375.964844 177.246094 376.085938 176.398438 376.167969 C 175.550781 376.25 174.695312 376.289062 173.832031 376.289062 C 172.96875 376.289062 172.109375 376.25 171.261719 376.167969 C 170.414062 376.085938 169.59375 375.964844 168.792969 375.804688 C 167.996094 375.644531 167.238281 375.449219 166.519531 375.21875 C 165.800781 374.988281 165.136719 374.722656 164.523438 374.429688 C 163.914062 374.132812 163.367188 373.8125 162.886719 373.464844 C 162.40625 373.117188 162 372.753906 161.671875 372.367188 C 161.339844 371.980469 161.089844 371.585938 160.921875 371.175781 C 160.753906 370.765625 160.667969 370.351562 160.667969 369.9375 C 160.667969 369.519531 160.753906 369.105469 160.921875 368.695312 C 161.089844 368.285156 161.339844 367.890625 161.671875 367.503906 C 162 367.117188 162.40625 366.753906 162.886719 366.40625 C 163.367188 366.058594 163.914062 365.738281 164.523438 365.441406 C 165.136719 365.148438 165.800781 364.882812 166.519531 364.652344 C 167.238281 364.421875 167.996094 364.226562 168.792969 364.066406 C 169.59375 363.90625 170.414062 363.785156 171.261719 363.703125 C 172.109375 363.621094 172.96875 363.582031 173.832031 363.582031 C 174.695312 363.582031 175.550781 363.621094 176.398438 363.703125 C 177.246094 363.785156 178.070312 363.90625 178.867188 364.066406 C 179.667969 364.226562 180.425781 364.421875 181.144531 364.652344 C 181.863281 364.882812 182.527344 365.148438 183.140625 365.441406 C 183.75 365.738281 184.296875 366.058594 184.777344 366.40625 C 185.253906 366.753906 185.660156 367.117188 185.992188 367.503906 C 186.324219 367.890625 186.574219 368.285156 186.742188 368.695312 C 186.910156 369.105469 186.992188 369.519531 186.992188 369.9375 Z M 186.992188 369.9375 " fill-opacity="1" fill-rule="nonzero"/><path fill="#250b48" d="M 203.902344 339.949219 C 191.164062 339.949219 180.050781 333.625 174.179688 324.25 C 172.910156 322.226562 169.742188 323.132812 169.738281 325.519531 C 169.738281 325.546875 169.738281 325.574219 169.738281 325.605469 C 169.738281 342.71875 185.035156 356.59375 203.902344 356.59375 C 222.773438 356.59375 238.070312 342.71875 238.070312 325.605469 C 238.070312 325.574219 238.070312 325.546875 238.070312 325.519531 C 238.0625 323.132812 234.894531 322.226562 233.628906 324.25 C 227.753906 333.625 216.644531 339.949219 203.902344 339.949219 Z M 203.902344 339.949219 " fill-opacity="1" fill-rule="nonzero"/><path fill="#250b48" d="M 211.394531 297.730469 C 207.113281 305.65625 199.195312 311.332031 189.867188 312.511719 C 187.929688 312.757812 186.664062 314.46875 187.070312 316.378906 L 187.09375 316.492188 C 187.382812 317.859375 188.515625 318.898438 189.910156 319.03125 C 190.816406 319.117188 191.738281 319.164062 192.667969 319.164062 C 204.628906 319.164062 214.867188 311.820312 219.121094 301.402344 C 220.0625 299.097656 218.808594 296.476562 216.429688 295.726562 C 214.488281 295.113281 212.359375 295.9375 211.394531 297.730469 Z M 211.394531 297.730469 " fill-opacity="1" fill-rule="nonzero"/><path fill="#f8adaa" d="M 360.078125 369.9375 C 360.078125 370.351562 359.992188 370.765625 359.824219 371.175781 C 359.65625 371.585938 359.40625 371.980469 359.074219 372.367188 C 358.746094 372.753906 358.339844 373.117188 357.859375 373.464844 C 357.378906 373.8125 356.832031 374.132812 356.222656 374.429688 C 355.613281 374.722656 354.945312 374.988281 354.226562 375.21875 C 353.507812 375.449219 352.75 375.644531 351.953125 375.804688 C 351.152344 375.964844 350.332031 376.085938 349.484375 376.167969 C 348.636719 376.25 347.78125 376.289062 346.914062 376.289062 C 346.050781 376.289062 345.195312 376.25 344.347656 376.167969 C 343.5 376.085938 342.675781 375.964844 341.878906 375.804688 C 341.078125 375.644531 340.320312 375.449219 339.601562 375.21875 C 338.882812 374.988281 338.21875 374.722656 337.609375 374.429688 C 336.996094 374.132812 336.453125 373.8125 335.972656 373.464844 C 335.492188 373.117188 335.085938 372.753906 334.753906 372.367188 C 334.425781 371.980469 334.175781 371.585938 334.007812 371.175781 C 333.835938 370.765625 333.753906 370.351562 333.753906 369.9375 C 333.753906 369.519531 333.835938 369.105469 334.007812 368.695312 C 334.175781 368.285156 334.425781 367.890625 334.753906 367.503906 C 335.085938 367.117188 335.492188 366.753906 335.972656 366.40625 C 336.453125 366.058594 336.996094 365.738281 337.609375 365.441406 C 338.21875 365.148438 338.882812 364.882812 339.601562 364.652344 C 340.320312 364.421875 341.078125 364.226562 341.878906 364.066406 C 342.675781 363.90625 343.5 363.785156 344.347656 363.703125 C 345.195312 363.621094 346.050781 363.582031 346.914062 363.582031 C 347.78125 363.582031 348.636719 363.621094 349.484375 363.703125 C 350.332031 363.785156 351.152344 363.90625 351.953125 364.066406 C 352.75 364.226562 353.507812 364.421875 354.226562 364.652344 C 354.945312 364.882812 355.613281 365.148438 356.222656 365.441406 C 356.832031 365.738281 357.378906 366.058594 357.859375 366.40625 C 358.339844 366.753906 358.746094 367.117188 359.074219 367.503906 C 359.40625 367.890625 359.65625 368.285156 359.824219 368.695312 C 359.992188 369.105469 360.078125 369.519531 360.078125 369.9375 Z M 360.078125 369.9375 " fill-opacity="1" fill-rule="nonzero"/><path fill="#250b48" d="M 316.84375 339.949219 C 329.585938 339.949219 340.695312 333.625 346.570312 324.25 C 347.835938 322.226562 351.003906 323.132812 351.011719 325.519531 C 351.011719 325.546875 351.011719 325.574219 351.011719 325.605469 C 351.011719 342.71875 335.714844 356.59375 316.84375 356.59375 C 297.972656 356.59375 282.675781 342.71875 282.675781 325.605469 C 282.675781 325.574219 282.675781 325.546875 282.675781 325.519531 C 282.683594 323.132812 285.851562 322.226562 287.117188 324.25 C 292.992188 333.625 304.101562 339.949219 316.84375 339.949219 Z M 316.84375 339.949219 " fill-opacity="1" fill-rule="nonzero"/><path fill="#250b48" d="M 309.351562 297.730469 C 313.632812 305.65625 321.554688 311.332031 330.878906 312.511719 C 332.820312 312.757812 334.082031 314.46875 333.679688 316.378906 L 333.65625 316.492188 C 333.367188 317.859375 332.230469 318.898438 330.839844 319.03125 C 329.929688 319.117188 329.011719 319.164062 328.078125 319.164062 C 316.121094 319.164062 305.882812 311.820312 301.625 301.402344 C 300.683594 299.097656 301.9375 296.476562 304.316406 295.726562 C 306.257812 295.113281 308.386719 295.9375 309.351562 297.730469 Z M 309.351562 297.730469 " fill-opacity="1" fill-rule="nonzero"/><path fill="#250b48" d="M 260.375 367.28125 C 267.515625 367.28125 273.773438 370.109375 277.25 374.347656 C 278.207031 375.515625 280.140625 374.832031 280.148438 373.320312 C 280.148438 373.304688 280.148438 373.289062 280.148438 373.273438 C 280.148438 365.121094 271.292969 358.507812 260.375 358.507812 C 249.453125 358.507812 240.601562 365.121094 240.601562 373.273438 C 240.601562 373.289062 240.601562 373.304688 240.601562 373.320312 C 240.605469 374.832031 242.539062 375.515625 243.5 374.347656 C 246.972656 370.109375 253.230469 367.28125 260.375 367.28125 Z M 260.375 367.28125 " fill-opacity="1" fill-rule="nonzero"/><path fill="#ffdeb3" d="M 148.554688 429.582031 L 178.953125 399.222656 C 179.15625 399.019531 179.375 398.839844 179.609375 398.683594 C 179.847656 398.523438 180.097656 398.390625 180.359375 398.28125 C 180.621094 398.175781 180.894531 398.09375 181.171875 398.035156 C 181.449219 397.980469 181.730469 397.953125 182.015625 397.953125 C 182.300781 397.953125 182.582031 397.980469 182.863281 398.035156 C 183.140625 398.09375 183.414062 398.175781 183.675781 398.28125 C 183.9375 398.390625 184.1875 398.523438 184.425781 398.683594 C 184.660156 398.839844 184.878906 399.019531 185.082031 399.222656 L 190.917969 405.050781 C 191.117188 405.25 191.296875 405.46875 191.457031 405.707031 C 191.613281 405.941406 191.746094 406.191406 191.855469 406.453125 C 191.964844 406.71875 192.046875 406.988281 192.101562 407.265625 C 192.160156 407.546875 192.1875 407.828125 192.1875 408.109375 C 192.1875 408.394531 192.160156 408.675781 192.101562 408.953125 C 192.046875 409.234375 191.964844 409.503906 191.855469 409.765625 C 191.746094 410.027344 191.613281 410.277344 191.457031 410.515625 C 191.296875 410.75 191.117188 410.96875 190.917969 411.171875 L 160.519531 441.535156 C 160.316406 441.734375 160.097656 441.914062 159.859375 442.070312 C 159.625 442.230469 159.375 442.363281 159.113281 442.472656 C 158.847656 442.582031 158.578125 442.664062 158.300781 442.71875 C 158.019531 442.773438 157.738281 442.800781 157.453125 442.800781 C 157.167969 442.800781 156.886719 442.773438 156.609375 442.71875 C 156.328125 442.664062 156.058594 442.582031 155.796875 442.472656 C 155.53125 442.363281 155.28125 442.230469 155.046875 442.070312 C 154.808594 441.914062 154.589844 441.734375 154.390625 441.535156 L 148.554688 435.703125 C 148.351562 435.503906 148.171875 435.285156 148.015625 435.046875 C 147.855469 434.8125 147.722656 434.5625 147.613281 434.300781 C 147.503906 434.039062 147.421875 433.765625 147.367188 433.488281 C 147.3125 433.210938 147.285156 432.929688 147.285156 432.644531 C 147.285156 432.359375 147.3125 432.078125 147.367188 431.800781 C 147.421875 431.519531 147.503906 431.25 147.613281 430.988281 C 147.722656 430.726562 147.855469 430.476562 148.015625 430.238281 C 148.171875 430.003906 148.351562 429.785156 148.554688 429.582031 Z M 148.554688 429.582031 " fill-opacity="1" fill-rule="nonzero"/><path fill="#fdca80" d="M 148.554688 405.050781 L 154.390625 399.21875 C 154.589844 399.019531 154.808594 398.839844 155.046875 398.683594 C 155.28125 398.523438 155.53125 398.390625 155.796875 398.28125 C 156.058594 398.171875 156.328125 398.089844 156.609375 398.035156 C 156.886719 397.980469 157.167969 397.953125 157.453125 397.953125 C 157.738281 397.953125 158.019531 397.980469 158.300781 398.035156 C 158.578125 398.089844 158.847656 398.171875 159.113281 398.28125 C 159.375 398.390625 159.625 398.523438 159.859375 398.683594 C 160.097656 398.839844 160.316406 399.019531 160.519531 399.21875 L 190.917969 429.582031 C 191.117188 429.785156 191.296875 430.003906 191.457031 430.238281 C 191.613281 430.476562 191.746094 430.726562 191.855469 430.988281 C 191.964844 431.25 192.046875 431.519531 192.101562 431.800781 C 192.160156 432.078125 192.1875 432.359375 192.1875 432.644531 C 192.1875 432.925781 192.160156 433.210938 192.101562 433.488281 C 192.046875 433.765625 191.964844 434.035156 191.855469 434.300781 C 191.746094 434.5625 191.613281 434.8125 191.457031 435.046875 C 191.296875 435.285156 191.117188 435.503906 190.917969 435.703125 L 185.082031 441.53125 C 184.878906 441.734375 184.660156 441.914062 184.425781 442.070312 C 184.1875 442.230469 183.9375 442.363281 183.675781 442.472656 C 183.414062 442.578125 183.140625 442.660156 182.863281 442.71875 C 182.582031 442.773438 182.300781 442.800781 182.015625 442.800781 C 181.730469 442.800781 181.449219 442.773438 181.171875 442.71875 C 180.890625 442.660156 180.621094 442.578125 180.359375 442.472656 C 180.097656 442.363281 179.847656 442.230469 179.609375 442.070312 C 179.375 441.914062 179.152344 441.734375 178.953125 441.53125 L 148.554688 411.171875 C 148.351562 410.96875 148.171875 410.75 148.015625 410.515625 C 147.855469 410.277344 147.722656 410.027344 147.613281 409.765625 C 147.503906 409.503906 147.421875 409.234375 147.367188 408.953125 C 147.3125 408.675781 147.285156 408.394531 147.285156 408.109375 C 147.285156 407.824219 147.3125 407.542969 147.367188 407.265625 C 147.421875 406.988281 147.503906 406.714844 147.613281 406.453125 C 147.722656 406.191406 147.855469 405.941406 148.015625 405.707031 C 148.171875 405.46875 148.351562 405.25 148.554688 405.050781 Z M 148.554688 405.050781 " fill-opacity="1" fill-rule="nonzero"/><path fill="#250b48" d="M 437.179688 269.269531 L 437.179688 279.328125 C 437.179688 284.339844 441.246094 288.402344 446.265625 288.402344 L 448.050781 288.402344 C 448.703125 306.355469 444.726562 320.574219 436.46875 329.648438 C 429.976562 336.789062 422.992188 338.355469 422.855469 338.386719 C 421.257812 338.710938 420.222656 340.269531 420.539062 341.867188 C 420.824219 343.277344 422.0625 344.25 423.445312 344.25 C 423.636719 344.25 423.832031 344.230469 424.03125 344.191406 C 424.382812 344.121094 432.730469 342.378906 440.554688 333.964844 C 452.269531 321.371094 454.472656 302.882812 453.984375 288.402344 L 455.429688 288.402344 C 460.449219 288.402344 464.519531 284.339844 464.519531 279.324219 L 464.519531 269.269531 Z M 437.179688 269.269531 " fill-opacity="1" fill-rule="nonzero"/><path fill="#fed5b5" d="M 360.511719 247.59375 C 361.144531 256.390625 362.859375 266.519531 370.535156 270.875 C 373.371094 272.484375 376.664062 273.042969 379.886719 273.542969 C 422.738281 280.164062 466.550781 280.578125 509.519531 274.765625 C 513.808594 274.183594 518.382812 273.402344 521.5 270.410156 C 524.394531 267.632812 525.453125 263.488281 526.136719 259.539062 C 527.871094 249.550781 528.035156 239.296875 526.628906 229.257812 C 525.609375 221.996094 523.316406 214.175781 517.203125 210.113281 C 513.105469 207.390625 507.980469 206.84375 503.078125 206.417969 C 460.71875 202.734375 418.058594 202.523438 375.667969 205.789062 C 367.871094 206.390625 359.882812 206.933594 358.898438 215.34375 C 357.707031 225.507812 359.777344 237.386719 360.511719 247.59375 Z M 360.511719 247.59375 " fill-opacity="1" fill-rule="nonzero"/><path fill="#250b48" d="M 442.226562 249.429688 L 430.550781 249.429688 L 430.550781 245.433594 L 438.675781 245.433594 C 441.15625 245.433594 443.167969 243.421875 443.167969 240.941406 C 443.167969 238.464844 441.15625 236.453125 438.675781 236.453125 L 430.550781 236.453125 L 430.550781 232.457031 L 442.226562 232.457031 C 444.707031 232.457031 446.722656 230.445312 446.722656 227.96875 C 446.722656 225.488281 444.707031 223.476562 442.226562 223.476562 L 426.058594 223.476562 C 423.574219 223.476562 421.5625 225.488281 421.5625 227.96875 L 421.5625 253.917969 C 421.5625 256.398438 423.574219 258.40625 426.058594 258.40625 L 442.226562 258.40625 C 444.707031 258.40625 446.722656 256.394531 446.722656 253.917969 C 446.722656 251.4375 444.707031 249.429688 442.226562 249.429688 Z M 442.226562 249.429688 " fill-opacity="1" fill-rule="nonzero"/><path fill="#250b48" d="M 498.257812 223.328125 L 490.390625 223.328125 C 487.910156 223.328125 485.894531 225.339844 485.894531 227.820312 L 485.894531 254.066406 C 485.894531 256.542969 487.910156 258.554688 490.390625 258.554688 C 492.875 258.554688 494.886719 256.542969 494.886719 254.066406 L 494.886719 246.195312 L 498.257812 246.195312 C 504.570312 246.195312 509.703125 241.066406 509.703125 234.761719 C 509.703125 228.457031 504.570312 223.328125 498.257812 223.328125 Z M 498.257812 237.21875 L 494.886719 237.21875 L 494.886719 232.308594 L 498.257812 232.308594 C 499.613281 232.308594 500.714844 233.410156 500.714844 234.761719 C 500.714844 236.117188 499.613281 237.21875 498.257812 237.21875 Z M 498.257812 237.21875 " fill-opacity="1" fill-rule="nonzero"/><path fill="#250b48" d="M 474.335938 249.574219 L 464.1875 249.574219 L 464.1875 227.820312 C 464.1875 225.339844 462.175781 223.332031 459.695312 223.332031 C 457.210938 223.332031 455.199219 225.339844 455.199219 227.820312 L 455.199219 254.0625 C 455.199219 256.542969 457.210938 258.554688 459.695312 258.554688 L 474.335938 258.554688 C 476.816406 258.554688 478.828125 256.542969 478.828125 254.0625 C 478.828125 251.585938 476.816406 249.574219 474.335938 249.574219 Z M 474.335938 249.574219 " fill-opacity="1" fill-rule="nonzero"/><path fill="#250b48" d="M 406.824219 223.332031 C 404.339844 223.332031 402.328125 225.339844 402.328125 227.820312 L 402.328125 235.589844 L 392.1875 235.589844 L 392.1875 227.820312 C 392.1875 225.339844 390.171875 223.332031 387.691406 223.332031 C 385.207031 223.332031 383.195312 225.339844 383.195312 227.820312 L 383.195312 254.0625 C 383.195312 256.542969 385.207031 258.554688 387.691406 258.554688 C 390.171875 258.554688 392.1875 256.542969 392.1875 254.0625 L 392.1875 244.570312 L 402.328125 244.570312 L 402.328125 254.0625 C 402.328125 256.542969 404.339844 258.554688 406.824219 258.554688 C 409.304688 258.554688 411.316406 256.542969 411.316406 254.0625 L 411.316406 227.820312 C 411.316406 225.339844 409.304688 223.332031 406.824219 223.332031 Z M 406.824219 223.332031 " fill-opacity="1" fill-rule="nonzero"/></svg>