<svg xmlns="http://www.w3.org/2000/svg" xmlns:xlink="http://www.w3.org/1999/xlink" width="1000" zoomAndPan="magnify" viewBox="0 0 750 749.999995" height="1000" preserveAspectRatio="xMidYMid meet" version="1.0"><defs><clipPath id="b729e7753a"><path d="M 56 490 L 695 490 L 695 650.863281 L 56 650.863281 Z M 56 490 " clip-rule="nonzero"/></clipPath><clipPath id="32c34639da"><path d="M 258 98.863281 L 448 98.863281 L 448 247 L 258 247 Z M 258 98.863281 " clip-rule="nonzero"/></clipPath></defs><path fill="#78bdbc" d="M 676.257812 588.503906 C 649.738281 590.023438 589.632812 585.710938 570.523438 585.03125 C 545.402344 584.140625 498.730469 581.445312 467.320312 584.136719 C 435.90625 586.824219 362.316406 583.238281 311.746094 576.417969 C 289.214844 573.378906 256.722656 566.042969 227.375 558.789062 C 219.921875 556.949219 212.667969 555.113281 205.828125 553.355469 L 205.824219 553.355469 C 179.171875 546.5 158.890625 540.828125 157.699219 540.613281 C 157.105469 540.503906 154.773438 538.984375 151.394531 536.558594 C 159.925781 529.207031 167.433594 524.996094 172.957031 525.859375 C 172.957031 525.859375 174.492188 525.328125 177.429688 524.394531 C 174.574219 521.664062 172.226562 518.636719 171.183594 516.710938 C 167.539062 509.960938 165.128906 502.4375 165.53125 494.691406 C 165.980469 485.976562 168.785156 477.253906 171.148438 468.894531 C 173.621094 460.136719 176.28125 451.375 177.777344 442.378906 C 179.191406 433.847656 179.699219 425.234375 181.597656 416.769531 C 183.386719 408.792969 185.910156 400.96875 189.515625 393.617188 C 193.046875 386.414062 197.242188 379.179688 203.21875 373.699219 C 212.917969 364.796875 225.441406 361.347656 237.070312 355.84375 C 253.289062 335.234375 276.382812 315.617188 308.136719 308.230469 C 305.269531 302.117188 302.359375 296.007812 299.347656 289.957031 L 302.417969 289.582031 L 312.148438 288.378906 L 312.730469 288.308594 L 320.082031 287.40625 L 320.703125 287.328125 L 327.445312 286.496094 L 327.949219 286.4375 L 340.6875 284.863281 L 341.261719 284.792969 L 354.214844 283.195312 L 358.375 282.683594 L 358.378906 282.683594 L 359.253906 282.574219 L 363.9375 282 C 363.945312 282 363.945312 282 363.945312 282 L 364.96875 281.871094 L 373.78125 280.789062 L 374.347656 280.714844 L 389.46875 278.851562 L 390.058594 278.777344 L 406.234375 276.789062 L 406.851562 276.710938 L 418.296875 275.300781 L 418.824219 275.230469 L 438.832031 272.769531 L 440.554688 272.554688 L 446.488281 271.824219 L 452.285156 284.0625 C 471.195312 282.640625 535.855469 280.324219 575.867188 310.652344 C 578.050781 312.308594 580.140625 314.046875 582.128906 315.851562 C 582.542969 315.4375 583.179688 315.265625 583.84375 315.65625 C 586.445312 317.167969 589.78125 317.257812 592.660156 317.878906 C 595.597656 318.519531 598.429688 319.515625 601.183594 320.71875 C 608.089844 323.738281 614.304688 328.285156 621.261719 331.128906 C 633.039062 335.921875 645.015625 342.820312 652.835938 353.054688 C 666.210938 370.5625 668.675781 393.996094 667.78125 415.335938 C 667.167969 430.210938 663.949219 444.898438 664.128906 459.792969 C 664.351562 477.417969 667.589844 494.929688 667.128906 512.566406 C 666.78125 525.96875 663.851562 546.320312 652.453125 555.625 C 662.558594 564.753906 671.421875 575.734375 676.257812 588.503906 Z M 676.257812 588.503906 " fill-opacity="1" fill-rule="nonzero"/><path fill="#cce5df" d="M 623.628906 419.972656 C 623.628906 419.972656 607.992188 436.945312 589.175781 457.484375 C 580.15625 467.316406 570.417969 477.96875 561.316406 487.964844 C 555.253906 494.625 549.476562 500.992188 544.390625 506.632812 C 537.039062 514.777344 531.125 521.40625 527.839844 525.234375 C 526.023438 527.359375 525.007812 528.617188 525.007812 528.796875 C 525.007812 530.59375 504.066406 536.570312 495.09375 539.558594 C 486.117188 542.546875 365.792969 537.765625 364.328125 539.558594 C 362.859375 541.351562 352.621094 539.785156 342.488281 540.566406 C 332.347656 541.351562 277.449219 530.589844 277.449219 530.589844 L 263.96875 527.226562 L 263.964844 527.226562 L 258.667969 520.429688 L 251.089844 505.992188 L 233.582031 472.660156 L 223.835938 454.085938 L 204.597656 417.460938 C 204.609375 417.421875 204.621094 417.382812 204.636719 417.34375 C 205.222656 415.328125 213.472656 387.929688 233.386719 360.714844 C 234.570312 359.085938 235.800781 357.460938 237.074219 355.84375 C 253.292969 335.230469 276.386719 315.617188 308.140625 308.230469 C 309.109375 307.996094 310.09375 307.789062 311.078125 307.585938 C 311.394531 307.519531 311.71875 307.453125 312.042969 307.386719 C 312.222656 307.351562 312.402344 307.316406 312.585938 307.285156 C 314.191406 306.976562 315.820312 306.699219 317.464844 306.453125 C 318.089844 306.359375 318.726562 306.269531 319.347656 306.171875 C 319.542969 306.140625 319.734375 306.113281 319.925781 306.089844 C 322.015625 305.78125 324.078125 305.46875 326.113281 305.164062 C 326.316406 305.132812 326.519531 305.097656 326.722656 305.074219 C 331.910156 304.289062 336.9375 303.519531 341.800781 302.765625 C 342 302.734375 342.195312 302.707031 342.394531 302.675781 C 348.570312 301.722656 354.480469 300.789062 360.125 299.890625 C 360.3125 299.855469 360.503906 299.828125 360.703125 299.796875 C 365.476562 299.03125 370.058594 298.289062 374.453125 297.566406 C 374.695312 297.53125 374.929688 297.488281 375.164062 297.453125 C 376.378906 297.25 377.570312 297.054688 378.753906 296.855469 L 378.761719 296.855469 C 379.207031 296.78125 379.644531 296.710938 380.082031 296.640625 C 380.28125 296.605469 380.476562 296.570312 380.671875 296.539062 L 380.679688 296.539062 C 386.101562 295.636719 391.207031 294.777344 395.972656 293.957031 C 396.164062 293.921875 396.34375 293.890625 396.53125 293.855469 L 396.535156 293.855469 C 402.246094 292.875 407.472656 291.960938 412.226562 291.113281 C 412.421875 291.078125 412.613281 291.039062 412.808594 291.011719 C 416.472656 290.351562 419.847656 289.738281 422.929688 289.175781 C 423.113281 289.136719 423.292969 289.101562 423.472656 289.074219 C 425.753906 288.652344 427.867188 288.261719 429.816406 287.890625 L 429.824219 287.890625 C 430.066406 287.847656 430.300781 287.800781 430.542969 287.757812 C 432.179688 287.445312 433.695312 287.160156 435.089844 286.890625 C 435.746094 286.765625 436.382812 286.644531 436.984375 286.527344 C 437.171875 286.492188 437.347656 286.453125 437.53125 286.417969 L 437.535156 286.417969 C 437.765625 286.375 437.984375 286.335938 438.207031 286.292969 C 444.003906 285.167969 446.9375 284.554688 446.9375 284.554688 C 446.9375 284.554688 448.863281 284.324219 452.292969 284.0625 C 471.199219 282.640625 535.863281 280.328125 575.875 310.652344 C 578.054688 312.308594 580.148438 314.046875 582.132812 315.855469 C 583.5 317.089844 584.824219 318.363281 586.097656 319.667969 C 623.207031 357.492188 623.628906 419.972656 623.628906 419.972656 Z M 623.628906 419.972656 " fill-opacity="1" fill-rule="nonzero"/><g clip-path="url(#b729e7753a)"><path fill="#697a78" d="M 57.019531 650.304688 C 55.636719 647.46875 57.191406 644.398438 58.589844 641.929688 C 62.207031 635.519531 68.636719 632.5 73.59375 627.375 C 79.039062 621.730469 79.234375 613.351562 84.144531 607.414062 C 89.378906 601.078125 97.566406 597.765625 102.316406 591.007812 C 106.488281 585.097656 108.910156 578.28125 112.558594 572.085938 C 114.367188 569.023438 116.445312 566 119.070312 563.570312 C 121.699219 561.140625 124.777344 559.339844 127.566406 557.105469 C 130.367188 554.863281 133.132812 552.195312 134.800781 548.96875 C 136.289062 546.085938 138.109375 543.265625 140.496094 541.039062 C 143.152344 538.566406 146.121094 537.140625 149.273438 535.429688 C 151.679688 534.125 154.179688 533.003906 156.796875 532.234375 C 161.132812 529.054688 165.105469 526.90625 168.578125 526.101562 C 175.726562 521.589844 185.683594 518.402344 194.132812 518.933594 C 194.453125 518.953125 194.730469 519.058594 194.945312 519.214844 C 197.34375 518.550781 199.917969 517.84375 202.667969 517.125 C 204.039062 516.761719 205.449219 516.386719 206.90625 516.011719 L 206.910156 516.011719 C 218.957031 512.898438 233.867188 509.390625 251.085938 505.992188 C 261.167969 503.996094 272.046875 502.046875 283.597656 500.246094 C 343.042969 490.953125 420.496094 485.476562 500.761719 498.007812 C 515.246094 500.265625 529.816406 503.113281 544.386719 506.632812 C 554.023438 508.960938 563.664062 511.578125 573.28125 514.511719 C 581.058594 516.886719 588.820312 519.46875 596.550781 522.273438 C 596.550781 522.273438 600.597656 523.726562 606.902344 526.601562 C 607.53125 526.886719 608.179688 527.183594 608.859375 527.503906 C 619.296875 532.394531 634.746094 540.683594 648.59375 552.269531 C 649.117188 552.707031 649.640625 553.148438 650.160156 553.597656 C 650.933594 554.261719 651.695312 554.933594 652.453125 555.621094 C 655.242188 558.144531 657.9375 560.816406 660.484375 563.617188 C 660.636719 563.851562 660.8125 564.070312 660.996094 564.28125 C 661.050781 564.34375 661.113281 564.40625 661.171875 564.46875 C 661.3125 564.613281 661.457031 564.757812 661.605469 564.898438 C 661.691406 564.972656 661.777344 565.050781 661.859375 565.125 C 661.902344 565.160156 661.945312 565.199219 661.988281 565.234375 C 662.167969 565.382812 662.351562 565.53125 662.542969 565.671875 C 662.929688 566.253906 663.328125 566.828125 663.742188 567.390625 C 664.699219 568.566406 665.636719 569.757812 666.53125 570.980469 C 671.410156 576.875 677.027344 582.199219 681.054688 588.746094 C 683.527344 592.769531 685.855469 597.539062 686.257812 602.328125 C 686.523438 605.472656 685.761719 608.324219 685.101562 611.367188 C 684.320312 614.945312 684.449219 617.835938 686 621.15625 C 687.085938 623.46875 688.414062 625.761719 689.121094 628.230469 C 689.828125 630.699219 689.769531 633.046875 689.886719 635.589844 C 690.144531 641.019531 692.664062 644.921875 694.441406 649.890625 C 694.546875 650.191406 694.660156 650.511719 694.777344 650.84375 L 57.308594 650.84375 C 57.210938 650.667969 57.109375 650.496094 57.019531 650.304688 Z M 57.019531 650.304688 " fill-opacity="1" fill-rule="nonzero"/></g><path fill="#fedebd" d="M 456.824219 293.632812 C 452.574219 300.933594 446.9375 306.046875 441.230469 309.636719 C 441.039062 309.753906 440.847656 309.875 440.65625 309.988281 C 439.117188 310.929688 437.574219 311.757812 436.058594 312.488281 C 435.449219 312.78125 434.84375 313.0625 434.25 313.320312 C 433.6875 313.566406 433.128906 313.800781 432.578125 314.023438 C 432.40625 314.09375 432.226562 314.167969 432.050781 314.234375 C 423.527344 317.570312 416.632812 317.945312 416.632812 317.945312 L 401.804688 309.6875 L 401.050781 309.269531 L 381.484375 298.378906 L 380.636719 297.902344 L 378.757812 296.855469 L 378.753906 296.855469 L 373.335938 293.84375 L 372.273438 293.242188 L 357.945312 285.269531 L 357.40625 284.96875 L 354.214844 283.195312 L 338.617188 274.507812 L 337.015625 273.613281 L 335.746094 272.914062 L 334.550781 272.242188 L 323.71875 266.210938 L 323.15625 265.902344 L 318.710938 263.425781 L 317.6875 260.886719 L 317.382812 260.136719 L 314.769531 253.640625 L 313.996094 251.722656 L 299.292969 215.234375 L 298.648438 213.632812 L 297.046875 209.652344 C 296.003906 207.066406 293.019531 191.3125 292.117188 177.714844 C 292.117188 177.714844 292.117188 177.714844 292.117188 177.710938 C 291.746094 172 291.734375 166.683594 292.382812 162.867188 C 294.113281 152.800781 355.820312 146.785156 389.46875 149.878906 C 389.648438 149.894531 389.832031 149.90625 390.007812 149.933594 C 399.199219 150.808594 406.21875 152.386719 409.234375 154.761719 C 415.355469 159.59375 419.578125 174.8125 422.390625 190.429688 C 422.390625 190.433594 422.390625 190.433594 422.390625 190.433594 C 426.113281 187.707031 430.296875 185.820312 433.59375 187.546875 C 441 191.421875 450.457031 226.609375 428.050781 232.910156 L 433.847656 245.136719 L 434.097656 245.671875 L 436.363281 250.449219 L 437.265625 252.355469 L 442.058594 262.464844 L 443.132812 264.738281 L 446.492188 271.824219 L 452.289062 284.0625 Z M 456.824219 293.632812 " fill-opacity="1" fill-rule="nonzero"/><path fill="#78bdbc" d="M 434.121094 376.863281 C 434.058594 378.5 434.128906 380.324219 434.121094 382.15625 C 435.085938 382.140625 436.050781 382.195312 437.007812 382.332031 C 437.480469 381.847656 438.550781 382.050781 438.550781 382.941406 L 438.550781 383.675781 C 438.550781 384.542969 437.539062 384.765625 437.035156 384.328125 C 436.964844 384.269531 436.902344 384.191406 436.863281 384.105469 C 435.933594 383.964844 435.011719 383.910156 434.085938 383.921875 C 434.027344 385.476562 433.859375 386.996094 433.464844 388.363281 C 433.140625 389.46875 431.410156 388.996094 431.738281 387.882812 C 432.046875 386.816406 432.171875 385.453125 432.226562 384.019531 C 429.066406 384.316406 425.914062 385.160156 422.796875 385.503906 C 422.34375 385.558594 421.890625 385.601562 421.4375 385.644531 C 420.753906 385.703125 420.066406 385.75 419.375 385.78125 C 419.207031 385.789062 419.039062 385.796875 418.871094 385.804688 C 418.664062 385.8125 418.457031 385.816406 418.25 385.824219 C 417.960938 385.828125 417.667969 385.832031 417.378906 385.832031 C 417.253906 385.832031 417.132812 385.832031 417.011719 385.832031 C 416.570312 385.828125 416.125 385.8125 415.6875 385.792969 C 415.65625 385.789062 415.625 385.789062 415.59375 385.785156 C 415.1875 385.765625 414.78125 385.734375 414.375 385.695312 C 414.277344 385.6875 414.175781 385.675781 414.078125 385.667969 C 413.726562 385.632812 413.378906 385.585938 413.027344 385.539062 C 412.925781 385.523438 412.824219 385.511719 412.722656 385.496094 C 412.285156 385.429688 411.851562 385.355469 411.417969 385.265625 C 407.519531 384.464844 404.070312 383.007812 400.539062 381.242188 C 396.214844 379.085938 392.707031 378.707031 388.636719 381.519531 C 381.828125 386.210938 374.558594 385.207031 366.703125 385.367188 C 362.371094 385.453125 358.527344 385.128906 354.863281 387.910156 C 351.996094 390.085938 349.554688 392.746094 346.359375 394.472656 C 345.851562 394.753906 345.207031 394.507812 345.042969 393.941406 C 344.589844 392.339844 344.148438 390.734375 343.703125 389.132812 C 343.660156 388.972656 343.617188 388.820312 343.574219 388.660156 C 343.402344 388.054688 343.234375 387.445312 343.0625 386.839844 C 342.914062 386.324219 342.765625 385.804688 342.617188 385.289062 C 342.492188 384.859375 342.367188 384.429688 342.242188 384.003906 C 341.980469 383.132812 341.714844 382.269531 341.441406 381.40625 C 341.417969 381.335938 341.398438 381.265625 341.375 381.195312 C 341.371094 381.179688 341.363281 381.152344 341.359375 381.136719 C 341.226562 380.992188 341.117188 380.8125 341.039062 380.601562 C 340.8125 379.957031 340.566406 379.320312 340.3125 378.679688 C 339.945312 377.769531 339.582031 376.863281 339.210938 375.953125 C 332.585938 359.71875 324.800781 343.882812 317.371094 328.019531 C 315.820312 324.71875 314.28125 321.414062 312.75 318.105469 C 312.570312 317.726562 312.390625 317.335938 312.210938 316.953125 C 310.859375 314.042969 309.503906 311.136719 308.136719 308.234375 C 305.273438 302.117188 302.359375 296.007812 299.347656 289.960938 C 298.101562 287.453125 296.839844 284.957031 295.554688 282.476562 C 294.988281 281.382812 295.835938 280.371094 296.757812 280.234375 C 301.828125 275.8125 303.472656 268.132812 306.488281 262.371094 C 306.730469 261.910156 306.980469 261.449219 307.238281 260.992188 C 307.296875 260.890625 307.359375 260.789062 307.417969 260.6875 C 307.621094 260.332031 307.828125 259.976562 308.039062 259.628906 C 308.113281 259.507812 308.191406 259.386719 308.265625 259.265625 C 308.46875 258.9375 308.671875 258.609375 308.886719 258.28125 C 308.96875 258.160156 309.050781 258.035156 309.132812 257.914062 C 309.34375 257.59375 309.5625 257.273438 309.78125 256.957031 C 309.863281 256.839844 309.949219 256.71875 310.035156 256.601562 C 310.261719 256.28125 310.492188 255.964844 310.726562 255.648438 C 310.808594 255.542969 310.890625 255.429688 310.972656 255.320312 C 311.21875 255 311.46875 254.679688 311.722656 254.363281 C 311.796875 254.269531 311.875 254.171875 311.953125 254.078125 C 312.222656 253.742188 312.5 253.414062 312.78125 253.089844 C 312.84375 253.015625 312.90625 252.941406 312.972656 252.867188 C 313.28125 252.511719 313.59375 252.164062 313.914062 251.816406 C 313.941406 251.789062 313.96875 251.757812 313.996094 251.726562 C 314.007812 251.714844 314.019531 251.699219 314.035156 251.6875 C 314.257812 251.445312 314.492188 251.203125 314.722656 250.96875 C 314.835938 250.851562 314.953125 250.730469 315.066406 250.617188 C 315.265625 250.417969 315.464844 250.222656 315.664062 250.03125 C 315.816406 249.882812 315.96875 249.738281 316.121094 249.589844 C 316.304688 249.421875 316.492188 249.25 316.679688 249.078125 C 316.851562 248.921875 317.023438 248.769531 317.199219 248.617188 C 317.382812 248.457031 317.5625 248.300781 317.742188 248.144531 C 317.929688 247.988281 318.113281 247.835938 318.300781 247.683594 C 318.484375 247.535156 318.664062 247.386719 318.847656 247.242188 C 319.042969 247.085938 319.242188 246.9375 319.441406 246.785156 C 319.621094 246.648438 319.800781 246.511719 319.980469 246.378906 C 320.199219 246.21875 320.425781 246.058594 320.652344 245.902344 C 320.816406 245.785156 320.976562 245.667969 321.140625 245.558594 C 321.53125 245.292969 321.925781 245.03125 322.324219 244.78125 C 325.78125 242.609375 330 242.050781 333.492188 239.898438 C 336.941406 237.777344 338.765625 233.992188 341.6875 231.269531 C 346.132812 227.121094 352.253906 226.09375 358.117188 227.058594 C 358.378906 227.101562 358.554688 227.226562 358.65625 227.386719 C 360.703125 227.375 362.882812 228.109375 364.761719 228.679688 C 367.992188 229.65625 371.222656 230.746094 374.417969 231.84375 C 378.617188 233.292969 382.746094 234.917969 386.933594 236.375 C 391.597656 238 395.933594 238.738281 400.890625 238.621094 C 408.691406 238.445312 415.714844 238.527344 422.140625 243.4375 C 424.558594 245.28125 426.863281 247.421875 429.566406 248.84375 C 429.824219 248.980469 430.082031 249.101562 430.335938 249.21875 C 430.394531 249.246094 430.457031 249.273438 430.515625 249.296875 C 430.753906 249.398438 430.988281 249.496094 431.222656 249.582031 C 431.242188 249.585938 431.257812 249.59375 431.273438 249.601562 C 431.535156 249.695312 431.789062 249.773438 432.050781 249.847656 C 432.097656 249.863281 432.144531 249.875 432.195312 249.890625 C 432.421875 249.953125 432.648438 250.007812 432.875 250.058594 C 432.90625 250.066406 432.941406 250.074219 432.976562 250.082031 C 433.230469 250.136719 433.488281 250.183594 433.742188 250.222656 C 433.789062 250.230469 433.839844 250.238281 433.886719 250.246094 C 434.101562 250.277344 434.3125 250.304688 434.527344 250.328125 C 434.585938 250.335938 434.644531 250.34375 434.707031 250.347656 C 434.949219 250.375 435.199219 250.394531 435.449219 250.410156 C 435.511719 250.414062 435.574219 250.417969 435.636719 250.417969 C 435.832031 250.429688 436.03125 250.441406 436.230469 250.445312 C 436.304688 250.449219 436.375 250.453125 436.449219 250.453125 C 437.308594 250.476562 438.1875 250.472656 439.109375 250.457031 C 443.742188 250.394531 447.335938 251.578125 445.703125 256.855469 C 445.320312 258.09375 444.921875 259.332031 444.519531 260.574219 C 444.398438 260.933594 444.28125 261.296875 444.160156 261.660156 C 443.675781 263.132812 443.183594 264.609375 442.691406 266.085938 C 442.621094 266.300781 442.550781 266.515625 442.476562 266.730469 C 442.230469 267.46875 441.984375 268.210938 441.738281 268.949219 C 441.453125 269.816406 441.171875 270.683594 440.890625 271.554688 C 440.753906 271.960938 440.621094 272.371094 440.488281 272.785156 C 440.441406 272.933594 440.390625 273.085938 440.347656 273.234375 C 440.074219 274.089844 439.8125 274.945312 439.550781 275.800781 C 439.480469 276.03125 439.414062 276.261719 439.34375 276.492188 C 439.101562 277.304688 438.863281 278.117188 438.636719 278.933594 C 438.574219 279.152344 438.511719 279.367188 438.449219 279.585938 C 438.171875 280.601562 437.898438 281.617188 437.648438 282.636719 C 437.527344 283.113281 437.429688 283.597656 437.339844 284.089844 C 437.292969 284.339844 437.257812 284.597656 437.214844 284.851562 C 437.175781 285.125 437.128906 285.394531 437.09375 285.667969 C 437.082031 285.738281 437.074219 285.804688 437.066406 285.871094 C 437.023438 286.214844 436.988281 286.558594 436.957031 286.90625 C 436.902344 287.445312 436.859375 287.992188 436.820312 288.542969 C 436.808594 288.714844 436.792969 288.886719 436.785156 289.058594 C 436.746094 289.761719 436.710938 290.472656 436.6875 291.183594 C 436.679688 291.386719 436.675781 291.589844 436.667969 291.792969 C 436.648438 292.484375 436.628906 293.179688 436.609375 293.871094 C 436.59375 294.640625 436.574219 295.410156 436.550781 296.175781 C 436.402344 300.992188 436.257812 305.808594 436.121094 310.625 C 436.007812 314.660156 435.890625 318.691406 435.777344 322.726562 C 435.6875 325.925781 435.597656 329.125 435.507812 332.324219 C 435.328125 338.671875 435.148438 345.023438 434.960938 351.375 C 434.84375 355.132812 434.738281 358.894531 434.617188 362.652344 C 434.601562 363.085938 434.589844 363.523438 434.574219 363.960938 C 434.570312 364.078125 434.566406 364.199219 434.5625 364.316406 C 434.441406 368.003906 434.320312 371.695312 434.179688 375.386719 C 434.175781 375.625 434.164062 375.867188 434.15625 376.109375 C 434.140625 376.359375 434.132812 376.609375 434.121094 376.863281 Z M 434.121094 376.863281 " fill-opacity="1" fill-rule="nonzero"/><path fill="#fedebd" d="M 354.222656 334.992188 C 355.828125 340.640625 356.703125 346.636719 355.945312 352.460938 C 355.265625 357.699219 354.023438 362.945312 351.980469 367.902344 C 350.089844 372.476562 347.539062 377.136719 343.292969 380.371094 C 298.144531 500.902344 245.34375 549.003906 237.121094 555.984375 C 236.523438 556.222656 235.910156 556.433594 235.273438 556.601562 C 234.625 556.773438 234.152344 557.101562 233.828125 557.515625 C 209.394531 563.953125 199.265625 549.625 195.109375 535.195312 C 195.109375 535.195312 179.074219 484.910156 206.597656 411.980469 C 206.597656 411.980469 239.507812 397.238281 262.996094 412.414062 C 288.78125 387.308594 312.402344 367.648438 315.292969 365.257812 C 315.246094 363.800781 315.132812 362.339844 314.996094 360.886719 C 314.796875 358.835938 314.539062 356.785156 314.421875 354.734375 C 314.273438 352.125 314.492188 349.511719 314.421875 346.902344 C 314.238281 340.371094 312.265625 334.082031 312.082031 327.554688 C 311.894531 321.003906 312.566406 314.441406 312.070312 307.898438 C 311.449219 299.734375 311.753906 291.589844 312.582031 283.441406 C 313.109375 278.292969 313.546875 273.078125 314.730469 268.003906 C 315.542969 264.527344 316.539062 260.167969 319.429688 257.496094 C 322.347656 254.792969 325.714844 256.585938 328.082031 258.921875 C 328.714844 258.390625 329.324219 257.835938 330.246094 258.007812 C 331.96875 258.320312 333.320312 259.273438 334.28125 260.515625 C 334.476562 260.929688 334.648438 261.347656 334.8125 261.765625 C 334.855469 261.875 334.894531 261.988281 334.941406 262.097656 C 335.066406 262.4375 335.183594 262.777344 335.289062 263.121094 C 335.316406 263.199219 335.34375 263.285156 335.371094 263.367188 C 335.632812 264.238281 335.835938 265.109375 335.992188 265.992188 C 336 266.023438 336.007812 266.050781 336.011719 266.082031 C 336.007812 266.070312 336.003906 266.054688 336 266.039062 C 336.378906 268.1875 336.476562 270.363281 336.4375 272.589844 C 336.4375 272.640625 336.4375 272.691406 336.4375 272.746094 C 336.40625 274.238281 336.320312 275.746094 336.21875 277.285156 C 336.214844 277.347656 336.226562 277.402344 336.242188 277.453125 C 336.242188 277.554688 336.273438 277.664062 336.355469 277.761719 C 336.640625 278.085938 337.125 278.097656 337.496094 278.28125 C 338.527344 278.789062 339.394531 280.0625 339.992188 280.980469 C 340.15625 281.230469 340.308594 281.496094 340.445312 281.761719 C 340.445312 281.757812 340.445312 281.753906 340.445312 281.75 C 340.464844 281.789062 340.480469 281.832031 340.5 281.875 C 340.609375 282.09375 340.710938 282.316406 340.804688 282.542969 C 340.839844 282.625 340.875 282.707031 340.90625 282.792969 C 341.011719 283.074219 341.113281 283.359375 341.195312 283.652344 C 341.296875 285.117188 341.34375 286.585938 341.394531 288.054688 C 341.523438 291.476562 341.816406 294.902344 342.046875 298.324219 C 342.503906 305.347656 343.332031 312.3125 346.261719 318.886719 C 346.351562 318.894531 346.425781 318.929688 346.46875 319.011719 C 347.195312 320.363281 347.855469 321.664062 348.734375 322.945312 C 349.582031 324.179688 350.351562 325.464844 351.011719 326.78125 C 352.355469 329.425781 353.421875 332.179688 354.222656 334.992188 Z M 623.628906 419.972656 C 594.3125 394.867188 527.703125 411.976562 527.691406 411.980469 L 446.910156 352.195312 C 447.089844 345.375 445.753906 338.558594 444.324219 331.882812 C 443.445312 327.769531 442.484375 323.671875 441.957031 319.511719 C 441.429688 315.367188 441.273438 311.195312 441.140625 307.035156 C 440.984375 301.867188 440.890625 296.703125 440.328125 291.550781 C 440.042969 288.949219 438.597656 285.105469 435.207031 284.601562 C 431.617188 284.0625 429.265625 288.257812 428.5625 290.707031 C 427.539062 294.261719 427.96875 298.035156 428.019531 301.667969 C 427.222656 299.5625 426.414062 297.453125 425.617188 295.347656 C 422.832031 287.996094 421.210938 280.335938 417.917969 273.128906 C 416.082031 269.097656 413.648438 265.597656 410.597656 262.210938 C 407.824219 259.136719 404.476562 255.695312 400.277344 254.132812 C 397.636719 253.148438 395.359375 253.828125 393.90625 255.707031 C 391.582031 252.585938 389.167969 249.511719 386.75 246.46875 C 384.179688 243.234375 378.875 238.46875 374.457031 242.480469 C 371.910156 244.792969 372.402344 248.949219 373.375 251.980469 C 373.152344 251.832031 372.917969 251.699219 372.679688 251.578125 C 370.503906 250.503906 368.359375 251.824219 366.894531 253.21875 C 362.855469 257.0625 364.300781 262.480469 366.355469 266.808594 C 368.765625 271.890625 372.40625 276.449219 374.128906 281.777344 C 376.867188 290.246094 381.03125 298.28125 384.335938 306.574219 C 384.308594 306.609375 384.289062 306.652344 384.289062 306.703125 C 384.285156 306.722656 384.285156 306.738281 384.285156 306.757812 C 384.894531 308.308594 385.390625 309.953125 385.265625 311.605469 C 385.246094 311.859375 385.070312 312.070312 384.800781 312.070312 C 384.363281 312.070312 384.019531 311.722656 383.734375 311.285156 C 383.71875 311.398438 383.703125 311.511719 383.679688 311.621094 C 382.464844 309.796875 381.140625 308.023438 380.046875 306.238281 C 376.445312 300.332031 373.527344 294.191406 370.46875 288.0625 C 369.398438 285.921875 368.050781 283.820312 365.898438 282.394531 C 364.292969 281.328125 361.804688 280.636719 359.914062 281.453125 C 356.824219 282.785156 357.039062 287.390625 357.265625 290.261719 C 357.222656 290.261719 357.179688 290.269531 357.140625 290.285156 C 357.140625 290.433594 357.136719 290.582031 357.132812 290.730469 C 357.25 291.167969 357.34375 291.609375 357.410156 292.058594 C 359.625 299.425781 362.84375 306.503906 365.992188 313.589844 C 369.332031 321.101562 372.214844 328.761719 375.511719 336.28125 C 381.550781 350.0625 390.144531 362.617188 401.574219 373.429688 C 404.460938 376.160156 407.503906 378.78125 410.917969 380.996094 C 413.390625 382.585938 416.285156 384.058594 419.371094 384.398438 L 419.378906 384.398438 C 419.378906 384.398438 533.160156 577.324219 586.996094 544.945312 C 634.621094 532.402344 623.628906 419.972656 623.628906 419.972656 Z M 623.628906 419.972656 " fill-opacity="1" fill-rule="nonzero"/><g clip-path="url(#32c34639da)"><path fill="#697a78" d="M 447.609375 202.988281 C 447.597656 211.609375 446.597656 219.925781 443.902344 228.136719 C 442.738281 231.6875 441.792969 235.585938 439.976562 238.882812 C 438.375 241.78125 435.757812 243.789062 433.589844 246.21875 C 433.601562 246.242188 433.613281 246.257812 433.621094 246.28125 C 433.578125 246.292969 433.539062 246.296875 433.5 246.3125 C 433.324219 246.363281 433.160156 246.433594 432.992188 246.519531 C 432.949219 246.410156 432.914062 246.308594 432.867188 246.199219 C 432.8125 246.074219 432.742188 245.964844 432.652344 245.855469 C 432.703125 245.855469 432.757812 245.859375 432.800781 245.882812 C 432.074219 244.425781 431.445312 242.902344 430.828125 241.394531 C 429.65625 238.53125 427.886719 235.804688 427.25 232.753906 C 427.246094 232.746094 427.246094 232.746094 427.246094 232.742188 L 427.246094 232.734375 C 427.207031 232.625 427.234375 232.5 427.371094 232.433594 C 427.929688 232.152344 428.5 231.875 429.097656 231.667969 C 429.171875 231.640625 429.230469 231.648438 429.28125 231.667969 C 431.753906 230.492188 434.308594 229.253906 436.082031 227.109375 C 438.410156 224.292969 439.898438 220.613281 440.628906 217.058594 C 442.144531 209.71875 440.90625 201.609375 438.476562 194.574219 C 437.542969 191.867188 435.882812 188.339844 432.804688 187.558594 C 430.613281 186.996094 428.480469 187.964844 426.753906 189.285156 C 423.1875 192.027344 420.53125 195.960938 418.347656 199.84375 C 418.273438 199.96875 418.152344 200 418.042969 199.960938 L 418.039062 199.960938 C 418.003906 199.976562 417.972656 199.980469 417.925781 199.980469 C 417.882812 199.980469 417.84375 199.976562 417.808594 199.960938 C 417.789062 200.011719 417.738281 200.019531 417.65625 199.980469 C 413.527344 197.855469 409.816406 194.25 406.921875 190.679688 C 403.902344 186.953125 400.984375 183.109375 398.601562 178.941406 C 396.175781 174.699219 394.191406 170.222656 392.5625 165.609375 C 391.886719 163.691406 391.382812 161.738281 390.886719 159.773438 C 390.902344 159.730469 390.914062 159.6875 390.917969 159.644531 C 390.917969 159.628906 390.914062 159.617188 390.914062 159.605469 C 390.914062 159.574219 390.910156 159.542969 390.90625 159.515625 C 390.898438 159.5 390.898438 159.488281 390.890625 159.472656 C 390.886719 159.457031 390.878906 159.441406 390.871094 159.425781 C 390.855469 159.398438 390.839844 159.371094 390.824219 159.34375 C 390.8125 159.328125 390.796875 159.316406 390.785156 159.300781 C 390.765625 159.28125 390.742188 159.257812 390.71875 159.238281 C 390.707031 159.230469 390.695312 159.222656 390.683594 159.214844 C 390.65625 159.199219 390.632812 159.183594 390.601562 159.171875 C 390.585938 159.167969 390.574219 159.160156 390.5625 159.15625 C 390.519531 159.144531 390.476562 159.136719 390.429688 159.136719 C 390.460938 159.105469 390.492188 159.074219 390.523438 159.042969 C 390.351562 159.085938 390.171875 159.125 390.003906 159.167969 C 389.917969 159.070312 389.816406 158.984375 389.714844 158.902344 C 389.640625 158.84375 389.566406 158.785156 389.484375 158.734375 C 389.085938 158.472656 388.59375 158.304688 387.992188 158.304688 C 386.933594 158.304688 386.191406 158.789062 385.757812 159.46875 C 385.757812 159.46875 385.761719 159.46875 385.765625 159.46875 C 385.640625 159.660156 385.53125 159.863281 385.460938 160.082031 C 382.359375 160.578125 379.207031 160.882812 376.121094 161.242188 C 370.820312 161.867188 365.476562 162.152344 360.136719 161.984375 C 355.292969 161.832031 350.453125 161.390625 345.714844 160.335938 C 345.484375 160.285156 345.25 160.230469 345.015625 160.179688 C 341.636719 163.113281 337.226562 164.128906 332.910156 164.921875 C 330.472656 165.367188 328.003906 165.75 325.628906 166.445312 C 323.175781 167.164062 321.078125 168.269531 318.945312 169.648438 C 314.3125 172.644531 309.652344 176.019531 304.234375 177.445312 C 300.574219 178.40625 296.480469 178.675781 292.660156 178.019531 C 292.695312 184.355469 293.445312 190.679688 294.574219 196.910156 C 295.144531 200.0625 295.800781 203.203125 296.546875 206.324219 C 296.925781 207.894531 297.257812 209.484375 297.859375 210.996094 C 298.378906 212.304688 298.96875 213.589844 299.46875 214.910156 C 299.574219 215.199219 299.207031 215.34375 299.019531 215.175781 C 298.992188 215.210938 298.953125 215.238281 298.910156 215.253906 C 297.59375 215.738281 296 215.28125 294.738281 214.839844 C 292.863281 214.183594 291.054688 213.308594 289.347656 212.292969 C 285.703125 210.132812 282.660156 207.359375 280.671875 203.601562 C 280.648438 203.578125 280.632812 203.558594 280.621094 203.523438 C 280.601562 203.492188 280.59375 203.457031 280.578125 203.421875 C 280.5625 203.394531 280.550781 203.367188 280.53125 203.339844 C 280.519531 203.320312 280.507812 203.296875 280.507812 203.277344 C 280.507812 203.269531 280.507812 203.265625 280.503906 203.257812 C 279.363281 200.550781 277.957031 195.042969 281.820312 194.5 C 280.554688 193.628906 279.375 192.65625 278.21875 191.617188 C 275.066406 188.78125 271.746094 185.390625 270.339844 181.296875 C 269.359375 178.449219 269.25 172.984375 273.136719 172.183594 C 273.5625 172.097656 273.984375 172.066406 274.394531 172.070312 C 273.269531 170.816406 271.722656 169.832031 270.484375 168.738281 C 269.1875 167.59375 267.933594 166.394531 266.832031 165.070312 C 264.832031 162.660156 263.335938 159.976562 262.078125 157.117188 C 260.019531 152.464844 257.6875 146.546875 259.089844 141.390625 C 259.695312 139.195312 261.117188 136.96875 263.34375 136.132812 C 266.042969 135.128906 269.039062 135.878906 271.625 136.878906 C 274.476562 137.984375 277.261719 139.378906 279.960938 140.808594 C 280.566406 141.128906 281.171875 141.449219 281.789062 141.742188 C 281.332031 141.207031 280.960938 140.648438 280.753906 140.328125 C 277.148438 134.8125 276.339844 126.972656 279.058594 120.921875 C 280.371094 118.011719 282.351562 114.816406 285.359375 113.429688 C 286.839844 112.75 288.40625 112.351562 289.980469 111.945312 C 291.636719 111.519531 293.15625 111.050781 294.894531 111.171875 C 299.023438 111.457031 303.160156 110.960938 307.277344 111.480469 C 309.523438 111.761719 311.746094 112.25 314.007812 112.421875 C 316.074219 112.585938 318.160156 112.660156 320.242188 112.738281 C 321.101562 112.773438 321.96875 112.808594 322.828125 112.828125 C 322.800781 112.796875 322.773438 112.757812 322.746094 112.71875 C 322.640625 112.535156 322.53125 112.355469 322.457031 112.15625 C 322.269531 111.632812 322.144531 111.082031 322.109375 110.523438 C 322.03125 109.199219 322.152344 107.761719 322.625 106.507812 C 323.597656 103.902344 325.972656 101.960938 328.546875 101.042969 C 332.261719 99.714844 336.601562 99.445312 340.519531 99.191406 C 344.867188 98.90625 349.222656 98.921875 353.570312 99.277344 C 362.304688 99.988281 371.011719 101.652344 379.570312 103.523438 C 383.550781 104.390625 387.527344 105.414062 391.328125 106.90625 C 394.921875 108.308594 398.222656 110.171875 401.535156 112.113281 C 407.441406 115.589844 413.59375 119.410156 417.4375 125.25 C 419.445312 128.304688 421.609375 132.480469 421.726562 136.449219 C 431.207031 140.199219 436.726562 149.78125 440.125 158.960938 C 442.335938 164.929688 443.921875 171.125 445.089844 177.378906 C 446.675781 185.820312 447.625 194.40625 447.609375 202.988281 Z M 447.609375 202.988281 " fill-opacity="1" fill-rule="nonzero"/></g><path fill="#cce5df" d="M 392.753906 180.558594 C 391.445312 183.117188 389.007812 185.070312 386.273438 185.960938 C 382.027344 187.347656 377.628906 188.132812 373.1875 188.554688 C 363.527344 189.476562 353.867188 189.726562 344.253906 191.210938 C 335.105469 192.621094 326.1875 194.839844 317.296875 197.390625 C 313.425781 198.507812 309.496094 199.667969 305.878906 201.484375 C 304.0625 202.40625 302.230469 203.445312 300.707031 204.820312 C 299.582031 205.839844 298.570312 207.007812 297.378906 207.953125 C 297.308594 208.066406 297.191406 208.15625 297.015625 208.242188 C 297.007812 208.246094 297 208.246094 296.996094 208.253906 C 296.980469 208.265625 296.96875 208.261719 296.953125 208.269531 C 296.945312 208.273438 296.933594 208.28125 296.925781 208.285156 C 296.921875 208.285156 296.917969 208.285156 296.914062 208.285156 C 296.847656 208.304688 296.78125 208.304688 296.726562 208.273438 C 296.714844 208.273438 296.703125 208.265625 296.695312 208.253906 C 296.691406 208.253906 296.683594 208.246094 296.671875 208.242188 C 296.652344 208.230469 296.640625 208.21875 296.628906 208.203125 C 294.285156 205.59375 292.945312 202.589844 292.320312 199.148438 C 291.679688 195.613281 291.234375 192.21875 289.910156 188.855469 C 287.578125 182.914062 284.464844 175.570312 289.878906 170.28125 C 295.433594 164.859375 302.667969 161.128906 309.757812 158.128906 C 317.527344 154.839844 325.875 153.183594 334.113281 151.542969 C 338.710938 150.621094 343.25 149.460938 347.835938 148.503906 C 352.230469 147.589844 356.640625 146.945312 361.105469 146.441406 C 365.339844 145.96875 369.648438 145.515625 373.917969 145.890625 C 377.226562 146.183594 380.984375 146.714844 383.691406 148.777344 C 388.199219 152.199219 390.035156 158.816406 391.476562 164 C 392.910156 169.121094 395.394531 175.410156 392.753906 180.558594 Z M 392.753906 180.558594 " fill-opacity="1" fill-rule="nonzero"/><path fill="#3d3f3f" d="M 274.097656 172.136719 C 273.8125 171.875 274.238281 171.453125 274.519531 171.714844 C 274.746094 171.921875 275.035156 171.722656 275.257812 171.867188 C 275.761719 172.199219 276.277344 172.519531 276.820312 172.785156 C 277.9375 173.324219 279.089844 173.773438 280.28125 174.117188 C 282.410156 174.738281 284.582031 175.167969 286.753906 175.625 C 287.128906 175.703125 286.972656 176.277344 286.59375 176.199219 C 283.964844 175.652344 281.28125 175.179688 278.753906 174.246094 C 277.710938 173.863281 276.664062 173.445312 275.714844 172.867188 C 275.199219 172.550781 274.535156 172.542969 274.097656 172.136719 Z M 281.535156 194.703125 C 284.660156 196.492188 288.519531 196.089844 291.707031 197.6875 C 291.859375 197.765625 292.003906 197.703125 292.085938 197.601562 C 292.039062 197.429688 291.980469 197.273438 291.898438 197.121094 C 288.726562 195.582031 284.917969 195.949219 281.839844 194.183594 C 281.503906 193.992188 281.203125 194.511719 281.535156 194.703125 Z M 289.597656 144.601562 C 293.613281 145.238281 298.011719 144.929688 302.03125 144.527344 C 311.195312 143.613281 320.199219 141.710938 329.078125 139.289062 C 333.695312 138.027344 338.332031 136.824219 343 135.757812 C 347.722656 134.679688 352.535156 133.609375 357.382812 133.320312 C 362.214844 133.03125 367.078125 133.554688 371.828125 134.410156 C 376.214844 135.199219 380.53125 136.40625 384.519531 138.425781 C 387.132812 139.746094 389.054688 141.460938 391.035156 143.5625 C 391.464844 144.019531 395.089844 147.9375 394.972656 149.082031 C 395.140625 149.214844 395.195312 149.445312 395.140625 149.628906 L 395.136719 149.628906 C 395.109375 149.722656 395.050781 149.796875 394.960938 149.84375 C 394.933594 149.859375 394.910156 149.871094 394.878906 149.878906 C 394.890625 149.886719 394.90625 149.882812 394.925781 149.886719 C 392.511719 152.761719 390.839844 156.164062 390.882812 159.96875 C 390.886719 160.351562 391.484375 160.351562 391.480469 159.96875 C 391.4375 155.8125 393.476562 152.214844 396.285156 149.261719 C 396.304688 149.390625 396.394531 149.507812 396.566406 149.503906 C 400.011719 149.402344 403.140625 153.234375 405.136719 155.726562 C 407.839844 159.101562 410.09375 162.96875 412.167969 166.75 C 414.480469 170.96875 416.273438 175.457031 417.917969 179.964844 C 419.496094 184.285156 420.914062 188.644531 422.007812 193.109375 C 422.195312 193.324219 422.296875 193.628906 422.367188 193.902344 C 422.472656 193.757812 422.589844 193.621094 422.71875 193.492188 C 421.566406 188.664062 420.015625 183.96875 418.3125 179.304688 C 416.582031 174.566406 414.628906 169.910156 412.160156 165.507812 C 410.121094 161.855469 407.890625 158.214844 405.277344 154.945312 C 404.0625 153.433594 402.695312 151.988281 401.140625 150.820312 C 400.351562 150.226562 399.53125 149.699219 398.652344 149.246094 C 398.261719 149.042969 397.851562 148.878906 397.445312 148.71875 C 397.332031 148.671875 396.90625 148.777344 396.683594 148.847656 C 398.488281 147.035156 400.566406 145.472656 402.601562 144.183594 C 403.472656 143.628906 404.375 143.070312 405.292969 142.515625 C 405.445312 142.542969 405.605469 142.472656 405.636719 142.304688 C 407.128906 141.410156 408.679688 140.542969 410.273438 139.773438 C 410.34375 139.90625 410.507812 139.992188 410.679688 139.898438 C 411.382812 139.507812 412.828125 140.820312 413.316406 141.199219 C 414.433594 142.0625 415.46875 143.042969 416.488281 144.023438 C 418.601562 146.046875 420.535156 148.136719 422.261719 150.507812 C 427.320312 157.457031 430.847656 165.695312 434.023438 173.636719 C 437.4375 182.167969 439.96875 191.066406 441.402344 200.144531 C 442.824219 209.140625 443.664062 219.109375 440.425781 227.804688 C 438.457031 233.089844 434.675781 237.40625 430.660156 241.257812 C 430.78125 241.492188 430.894531 241.734375 430.996094 241.976562 C 431.007812 241.972656 431.015625 241.96875 431.023438 241.960938 C 431.097656 241.898438 431.140625 241.835938 431.15625 241.742188 C 431.167969 241.691406 431.164062 241.648438 431.152344 241.605469 C 436.921875 236.042969 441.277344 229.820312 442.648438 221.757812 C 443.375 217.484375 443.234375 213.089844 442.960938 208.78125 C 442.683594 204.371094 442.058594 199.980469 441.214844 195.640625 C 439.5 186.828125 436.730469 178.136719 433.121094 169.917969 C 429.785156 162.332031 426.398438 154.671875 421.203125 148.136719 C 419.433594 145.910156 417.316406 143.902344 415.199219 142.003906 C 414.472656 141.351562 412.75 139.554688 411.347656 139.269531 C 413.238281 138.425781 415.191406 137.746094 417.175781 137.347656 C 417.1875 137.359375 417.203125 137.371094 417.210938 137.382812 C 417.28125 137.339844 417.355469 137.304688 417.457031 137.304688 C 417.570312 137.304688 417.6875 137.3125 417.800781 137.320312 C 417.804688 137.296875 417.808594 137.273438 417.804688 137.246094 C 417.804688 137.242188 417.804688 137.234375 417.800781 137.226562 C 418.972656 137.027344 420.152344 136.921875 421.339844 136.945312 C 421.367188 136.976562 421.394531 137.003906 421.429688 137.039062 C 421.59375 137.191406 421.863281 137.128906 421.929688 136.90625 C 421.949219 136.847656 421.964844 136.789062 421.984375 136.730469 C 422.035156 136.539062 421.882812 136.359375 421.691406 136.351562 C 420.355469 136.296875 419.027344 136.402344 417.71875 136.625 C 417.320312 133.613281 416.851562 130.921875 415.339844 128.160156 C 413.675781 125.117188 411.28125 122.480469 408.835938 120.050781 C 406.324219 117.550781 403.660156 115.125 400.816406 113.003906 C 397.453125 110.480469 393.761719 108.417969 390.132812 106.304688 C 389.796875 106.109375 389.496094 106.628906 389.832031 106.820312 C 393.164062 108.757812 396.507812 110.675781 399.660156 112.898438 C 402.574219 114.945312 405.210938 117.390625 407.773438 119.851562 C 410.25 122.222656 412.5625 124.785156 414.375 127.703125 C 415.28125 129.15625 415.984375 130.71875 416.472656 132.355469 C 416.820312 133.511719 416.9375 134.714844 417.054688 135.914062 C 417.351562 136.148438 417.261719 136.742188 416.78125 136.742188 L 416.621094 136.742188 C 416.628906 136.769531 416.648438 136.800781 416.671875 136.832031 C 412.773438 137.695312 409.039062 139.585938 405.566406 141.652344 C 405.238281 138.972656 404.085938 136.140625 402.816406 133.820312 C 401.433594 131.289062 399.523438 129.070312 397.410156 127.125 C 392.929688 123.007812 387.328125 120.230469 381.691406 118.070312 C 375.765625 115.796875 369.523438 114.164062 363.292969 112.992188 C 354.066406 111.257812 344.640625 111.746094 335.324219 112.15625 C 333.292969 112.242188 331.257812 112.183594 329.234375 112.417969 C 327.25 112.648438 325.230469 113.066406 323.246094 112.652344 C 322.867188 112.574219 322.707031 113.152344 323.082031 113.226562 C 324.804688 113.589844 326.535156 113.363281 328.261719 113.140625 C 330.4375 112.859375 332.585938 112.851562 334.773438 112.777344 C 339.503906 112.609375 344.203125 112.320312 348.945312 112.367188 C 357.117188 112.449219 365.011719 113.707031 372.882812 115.851562 C 384.585938 119.042969 398.554688 124.542969 403.496094 136.636719 C 404.066406 138.039062 404.648438 139.714844 404.910156 141.28125 C 405.050781 141.488281 405.109375 141.710938 405.042969 141.964844 C 405.039062 141.976562 405.039062 141.992188 405.035156 142.007812 C 405.015625 142.074219 404.980469 142.132812 404.941406 142.179688 C 404.820312 142.316406 404.636719 142.351562 404.472656 142.3125 C 404.464844 142.3125 404.460938 142.316406 404.457031 142.316406 C 403.59375 142.84375 402.746094 143.378906 401.921875 143.902344 C 399.699219 145.3125 397.460938 147.074219 395.582031 149.128906 C 395.679688 147.070312 390.550781 142.1875 389.855469 141.503906 C 385.035156 136.738281 377.910156 134.898438 371.425781 133.726562 C 366.976562 132.925781 362.453125 132.527344 357.929688 132.6875 C 353.410156 132.851562 348.925781 133.847656 344.519531 134.800781 C 335.246094 136.804688 326.191406 139.683594 316.90625 141.625 C 310.398438 142.984375 303.742188 144.046875 297.085938 144.234375 C 294.285156 144.3125 291.386719 144.355469 288.628906 143.824219 C 286.441406 143.402344 283.675781 142.828125 281.890625 141.421875 C 281.589844 141.1875 281.164062 141.605469 281.46875 141.847656 C 283.644531 143.554688 286.949219 144.183594 289.597656 144.601562 Z M 434.050781 196.84375 C 434.300781 197.136719 434.722656 196.710938 434.472656 196.421875 C 430.9375 192.285156 424.933594 203.816406 424.199219 206.316406 C 424.179688 206.390625 424.191406 206.457031 424.21875 206.515625 C 424.242188 206.589844 424.304688 206.660156 424.410156 206.683594 C 428.683594 207.714844 428.972656 212.632812 428.976562 216.160156 C 428.976562 216.546875 429.574219 216.546875 429.574219 216.160156 C 429.574219 212.449219 429.132812 207.457031 424.867188 206.203125 C 425.839844 203.484375 431.246094 193.5625 434.050781 196.84375 Z M 425.566406 233.382812 C 426.148438 233.207031 426.75 233.164062 427.335938 233.039062 C 427.28125 232.851562 427.25 232.664062 427.242188 232.464844 C 426.636719 232.601562 426.003906 232.628906 425.40625 232.808594 C 425.039062 232.917969 425.195312 233.496094 425.566406 233.382812 Z M 292.808594 190.441406 C 292.148438 188.570312 291.101562 186.867188 290.445312 185.007812 C 289.738281 183.019531 289.078125 180.644531 289.300781 178.4375 C 289.273438 178.367188 289.269531 178.285156 289.308594 178.199219 C 289.320312 178.171875 289.324219 178.144531 289.335938 178.117188 C 289.398438 177.664062 289.503906 177.21875 289.65625 176.785156 C 289.769531 175.886719 289.777344 174.964844 290.15625 174.128906 C 290.976562 171.488281 293.84375 169.605469 296.171875 168.300781 C 298.027344 167.253906 299.976562 166.382812 301.847656 165.363281 C 304.296875 164.027344 306.679688 162.6875 309.296875 161.6875 C 312.546875 160.445312 315.886719 159.492188 319.238281 158.558594 C 322.515625 157.644531 325.78125 156.429688 329.128906 155.808594 C 330.996094 155.464844 332.890625 155.242188 334.757812 154.890625 C 336.621094 154.535156 338.433594 153.980469 340.289062 153.570312 C 343.757812 152.804688 347.257812 152.136719 350.753906 151.503906 C 358.886719 150.035156 367.53125 148.558594 375.796875 149.816406 C 378.125 150.171875 381.210938 150.921875 382.308594 153.292969 C 384.054688 157.050781 382.273438 161.402344 383.691406 165.269531 C 384.824219 168.367188 387.207031 171.316406 386.976562 174.78125 C 386.800781 177.433594 385.667969 180.207031 382.910156 181.035156 C 379.855469 181.945312 376.195312 181.660156 373.050781 181.691406 C 368.089844 181.746094 363.351562 182.292969 358.476562 183.203125 C 341.304688 186.410156 323.429688 187.828125 307.390625 195.300781 C 305.429688 196.214844 303.539062 197.234375 301.644531 198.269531 C 300.5 198.894531 299.300781 199.589844 298.027344 199.914062 C 295.714844 200.507812 294.15625 199.359375 293.828125 196.976562 C 293.53125 194.824219 293.542969 192.507812 292.808594 190.441406 Z M 292.601562 188.300781 C 293.382812 190.101562 293.816406 191.875 294.0625 193.820312 C 294.253906 195.351562 294.039062 199.054688 296.144531 199.460938 C 297.699219 199.761719 299.351562 198.828125 300.671875 198.121094 C 302.503906 197.136719 304.296875 196.105469 306.171875 195.214844 C 309.890625 193.453125 313.734375 191.96875 317.664062 190.742188 C 325.910156 188.171875 334.414062 186.558594 342.933594 185.195312 C 347.300781 184.496094 351.679688 183.875 356.027344 183.058594 C 360.546875 182.207031 365.074219 181.261719 369.6875 181.148438 C 372.132812 181.089844 374.578125 181.097656 377.019531 180.992188 C 378.503906 180.921875 380.03125 181 381.5 180.746094 C 383.175781 180.457031 384.726562 179.738281 385.519531 178.132812 C 386.464844 176.226562 386.660156 173.976562 385.996094 171.945312 C 384.835938 168.390625 382.515625 165.515625 382.449219 161.621094 C 382.378906 157.703125 383.324219 152.769531 378.730469 151.136719 C 375.496094 149.984375 371.777344 149.96875 368.386719 150.035156 C 363.464844 150.132812 358.585938 150.75 353.742188 151.578125 C 349.117188 152.375 344.46875 153.207031 339.898438 154.273438 C 337.484375 154.832031 335.136719 155.457031 332.683594 155.828125 C 330.40625 156.175781 328.144531 156.535156 325.945312 157.226562 C 321.785156 158.539062 317.535156 159.554688 313.382812 160.890625 C 309.394531 162.167969 305.832031 163.917969 302.152344 165.878906 C 299.761719 167.152344 297.253906 168.222656 294.980469 169.714844 C 293.703125 170.550781 292.351562 171.507812 291.476562 172.785156 C 291.351562 172.96875 291.015625 173.730469 290.75 174.46875 C 290.71875 174.46875 290.683594 174.476562 290.65625 174.484375 C 290.132812 175.683594 290.363281 177.097656 289.886719 178.332031 C 289.394531 181.699219 291.34375 185.40625 292.601562 188.300781 Z M 379.964844 195.261719 C 372.960938 193.945312 366.078125 196.722656 360.054688 200.070312 C 358.113281 201.148438 346.726562 209.09375 345.742188 203.691406 C 345.675781 203.3125 345.097656 203.472656 345.167969 203.847656 C 346.023438 208.554688 353.472656 204.703125 355.722656 203.328125 C 362.859375 198.964844 371.105469 194.199219 379.804688 195.839844 C 380.179688 195.910156 380.339844 195.332031 379.964844 195.261719 Z M 325.375 212.636719 C 326.773438 212.617188 327.636719 211.800781 328.148438 210.5625 C 328.292969 210.207031 327.714844 210.050781 327.570312 210.402344 C 326.597656 212.769531 324.039062 211.90625 322.042969 211.796875 C 319.734375 211.667969 317.394531 211.722656 315.128906 212.222656 C 311.636719 212.988281 307.75 214.125 305.609375 217.207031 C 305.390625 217.523438 305.910156 217.820312 306.128906 217.507812 C 308.71875 213.773438 314.535156 212.589844 318.785156 212.359375 C 321.003906 212.242188 323.175781 212.667969 325.375 212.636719 Z M 375.222656 208.113281 C 368.953125 209.398438 363.777344 213.3125 358.582031 216.808594 C 358.339844 216.972656 358.457031 217.308594 358.667969 217.367188 C 358.699219 217.429688 358.757812 217.484375 358.851562 217.507812 C 364.796875 218.933594 371.011719 218.078125 376.941406 219.59375 C 377.316406 219.6875 377.476562 219.109375 377.101562 219.015625 C 371.550781 217.597656 365.75 218.257812 360.15625 217.179688 C 365.554688 216.328125 370.835938 214.820312 376.277344 214.226562 C 376.65625 214.1875 376.660156 213.589844 376.277344 213.632812 C 370.761719 214.230469 365.410156 215.757812 359.941406 216.609375 C 364.742188 213.335938 369.585938 209.878906 375.378906 208.6875 C 375.757812 208.613281 375.597656 208.035156 375.222656 208.113281 Z M 319.554688 234.738281 C 322.621094 232.320312 325.789062 230.027344 328.894531 227.65625 C 329.183594 227.695312 329.382812 227.269531 329.085938 227.105469 C 324.914062 224.753906 319.878906 225.199219 315.277344 225.324219 C 314.890625 225.335938 314.890625 225.933594 315.277344 225.925781 C 319.523438 225.808594 324.183594 225.378906 328.117188 227.273438 C 327.140625 227.574219 326.054688 227.554688 325.050781 227.660156 C 323.714844 227.800781 322.40625 228.042969 321.09375 228.355469 C 318.613281 228.941406 316.082031 229.789062 313.894531 231.125 C 313.566406 231.324219 313.867188 231.84375 314.199219 231.640625 C 316.667969 230.128906 319.542969 229.296875 322.351562 228.679688 C 323.90625 228.335938 325.707031 228.40625 327.335938 228.089844 C 324.59375 230.160156 321.824219 232.191406 319.128906 234.3125 C 318.828125 234.554688 319.253906 234.972656 319.554688 234.738281 Z M 334.429688 209.359375 C 334.300781 209 333.722656 209.152344 333.855469 209.515625 C 335.191406 213.195312 336.933594 216.714844 338.324219 220.382812 C 338.996094 222.167969 339.523438 224.011719 340.238281 225.78125 C 340.859375 227.316406 341.679688 228.964844 341.621094 230.660156 C 341.605469 231.042969 342.207031 231.042969 342.21875 230.660156 C 342.265625 229.308594 341.765625 228.019531 341.28125 226.78125 C 340.578125 224.96875 339.953125 223.136719 339.296875 221.304688 C 337.839844 217.25 335.902344 213.398438 334.429688 209.359375 Z M 343.644531 207.65625 C 341.585938 207.109375 339.601562 205.207031 339.21875 203.078125 C 339.148438 202.703125 338.570312 202.863281 338.640625 203.238281 C 339.058594 205.5625 341.242188 207.640625 343.488281 208.230469 C 343.859375 208.328125 344.019531 207.75 343.644531 207.65625 Z M 401.445312 305.546875 C 400.574219 300.648438 397.746094 296.378906 395.484375 292.035156 C 392.878906 287.03125 390.953125 281.652344 388.578125 276.539062 C 386.097656 271.210938 383.054688 266.335938 379.910156 261.382812 C 378.699219 259.480469 377.546875 257.578125 376.503906 255.582031 C 375.71875 254.078125 374.867188 252.308594 373.382812 251.367188 C 373.058594 251.164062 372.757812 251.679688 373.082031 251.882812 C 373.632812 252.234375 374.089844 252.71875 374.496094 253.265625 C 373.054688 253 371.148438 254.125 369.972656 254.691406 C 367.683594 255.796875 366.023438 257.457031 364.996094 259.796875 C 364.84375 260.148438 365.359375 260.449219 365.515625 260.097656 C 366.390625 258.097656 367.746094 256.519531 369.695312 255.496094 C 370.914062 254.863281 373.328125 253.367188 374.75 253.960938 C 374.832031 253.996094 374.90625 253.988281 374.964844 253.957031 C 375.5 254.828125 375.9375 255.785156 376.363281 256.609375 C 376.507812 256.886719 376.664062 257.15625 376.816406 257.425781 C 376.75 257.53125 376.742188 257.664062 376.863281 257.769531 C 377.804688 258.632812 376.722656 260.851562 376.261719 261.683594 C 375.464844 263.113281 374.109375 264.132812 372.503906 264.441406 C 369.5 265.023438 367.199219 262.6875 365.964844 260.246094 C 365.789062 259.902344 365.273438 260.203125 365.449219 260.546875 C 367 263.617188 369.902344 265.867188 373.476562 264.824219 C 375.183594 264.324219 376.429688 262.761719 377.171875 261.230469 C 377.429688 260.699219 377.71875 259.894531 377.792969 259.125 C 378.511719 260.316406 379.265625 261.492188 380.015625 262.664062 C 382.960938 267.289062 385.730469 271.875 388.058594 276.84375 C 390.320312 281.667969 392.195312 286.675781 394.523438 291.464844 C 396.792969 296.128906 399.945312 300.507812 400.867188 305.707031 C 400.933594 306.085938 401.507812 305.925781 401.445312 305.546875 Z M 405.882812 278.574219 C 403.9375 274.523438 402.09375 270.402344 399.921875 266.464844 C 398.847656 264.523438 397.738281 262.589844 396.507812 260.746094 C 395.496094 259.226562 395.003906 257.386719 393.761719 256.023438 C 393.503906 255.738281 393.925781 255.3125 394.183594 255.601562 C 395.054688 256.558594 395.527344 257.722656 396.089844 258.84375 C 396.332031 256.371094 398.734375 254.828125 401.074219 254.429688 C 401.121094 254.421875 401.160156 254.425781 401.199219 254.433594 C 401.273438 254.296875 401.433594 254.210938 401.605469 254.308594 C 404.113281 255.757812 405.914062 258.320312 405.261719 261.328125 C 404.917969 262.898438 404.363281 263.546875 403.078125 264.496094 C 402.171875 265.164062 401.210938 265.726562 400.117188 265.585938 C 400.132812 265.617188 400.152344 265.644531 400.167969 265.671875 C 402.433594 269.777344 404.375 274.046875 406.398438 278.273438 C 410.40625 286.640625 413.863281 295.152344 416.800781 303.953125 C 416.921875 304.316406 416.34375 304.472656 416.226562 304.113281 C 413.304688 295.363281 409.875 286.886719 405.882812 278.574219 Z M 396.800781 260.109375 C 397.835938 261.660156 398.796875 263.265625 399.714844 264.886719 C 399.722656 264.890625 399.730469 264.886719 399.738281 264.890625 C 401.125 265.355469 402.386719 264.351562 403.375 263.488281 C 404.308594 262.671875 404.742188 261.691406 404.773438 260.429688 C 404.835938 257.941406 403.484375 256.125 401.414062 254.890625 C 401.378906 254.949219 401.324219 254.992188 401.234375 255.003906 C 399.007812 255.382812 396.617188 256.839844 396.667969 259.347656 C 396.671875 259.488281 396.59375 259.570312 396.5 259.613281 C 396.59375 259.78125 396.691406 259.945312 396.800781 260.109375 Z M 440.941406 309.8125 C 440.964844 305.027344 441.234375 300.320312 440.527344 295.566406 C 440.527344 295.546875 440.523438 295.527344 440.519531 295.511719 C 438.789062 296.675781 436.253906 297.042969 434.5625 295.648438 C 432.703125 294.121094 432.582031 291.769531 432.417969 289.539062 C 432.40625 289.402344 432.476562 289.320312 432.566406 289.28125 C 432.542969 289.195312 432.558594 289.101562 432.652344 289.027344 C 434.222656 287.777344 435.929688 286.902344 437.929688 286.855469 C 437.613281 286.371094 437.253906 285.917969 436.839844 285.515625 C 436.566406 285.242188 436.988281 284.820312 437.265625 285.09375 C 439.738281 287.515625 440.515625 291.46875 441.011719 294.785156 C 441.070312 294.867188 441.09375 294.980469 441.054688 295.074219 C 441.78125 300.003906 441.5625 304.847656 441.539062 309.808594 C 441.539062 310.199219 440.941406 310.199219 440.941406 309.8125 Z M 440.449219 295.046875 C 440.449219 295.035156 440.449219 295.023438 440.445312 295.015625 C 440.429688 294.992188 440.410156 294.960938 440.386719 294.921875 C 440.320312 294.8125 440.335938 294.710938 440.386719 294.632812 C 440.015625 292.242188 439.503906 289.585938 438.296875 287.445312 C 436.300781 287.390625 434.613281 288.226562 433.078125 289.449219 C 433.050781 289.46875 433.027344 289.476562 433.003906 289.488281 C 433.007812 289.507812 433.011719 289.519531 433.015625 289.539062 C 433.136719 291.226562 433.125 293.421875 434.417969 294.714844 C 435.484375 295.785156 437.035156 296.25 438.507812 295.785156 C 439.066406 295.609375 439.621094 295.402344 440.105469 295.070312 C 440.273438 294.960938 440.394531 295.011719 440.449219 295.046875 Z M 427.59375 301.324219 C 428.285156 303.171875 428.957031 305.03125 429.585938 306.902344 C 429.707031 307.265625 430.285156 307.109375 430.164062 306.742188 C 429.535156 304.871094 428.859375 303.011719 428.167969 301.164062 C 428.035156 300.808594 427.457031 300.964844 427.59375 301.324219 Z M 320.84375 287.269531 C 320.617188 292.773438 320.601562 298.304688 320.660156 303.816406 C 320.71875 309.355469 321.023438 314.914062 322.464844 320.292969 C 322.5625 320.667969 321.988281 320.824219 321.886719 320.453125 C 320.339844 314.679688 320.066406 308.679688 320.054688 302.730469 C 320.042969 296.433594 320.007812 290.121094 320.429688 283.835938 C 320.820312 278.085938 321.253906 271.953125 322.914062 266.402344 C 323.515625 264.390625 324.351562 262.496094 325.703125 260.867188 C 326.015625 260.484375 327.414062 258.417969 328.109375 258.941406 C 328.417969 259.171875 328.117188 259.691406 327.808594 259.460938 C 327.75 259.414062 327.582031 259.554688 327.359375 259.789062 C 327.363281 259.789062 327.367188 259.792969 327.371094 259.796875 C 328.070312 260.875 328.417969 262.125 329.097656 263.210938 C 329.699219 264.175781 330.578125 264.984375 331.109375 265.984375 C 331.957031 267.570312 331.554688 269.328125 330.527344 270.753906 C 329.457031 272.242188 327.996094 273.015625 326.183594 272.34375 C 324.617188 271.761719 323.832031 270.109375 322.945312 268.808594 C 322.839844 269.3125 322.742188 269.820312 322.652344 270.328125 C 321.671875 275.933594 321.078125 281.582031 320.84375 287.269531 Z M 324.871094 263.113281 C 324.019531 264.714844 323.476562 266.433594 323.078125 268.191406 C 323.167969 268.1875 323.265625 268.222656 323.332031 268.316406 C 324.222656 269.566406 325.054688 271.570312 326.738281 271.914062 C 328.804688 272.332031 330.441406 270.554688 330.871094 268.644531 C 331.347656 266.519531 329.832031 265.519531 328.824219 263.90625 C 328.097656 262.742188 327.664062 261.425781 326.945312 260.261719 C 326.121094 261.269531 324.996094 262.882812 324.871094 263.113281 Z M 519.402344 393.34375 C 520.296875 398.585938 521.542969 403.792969 523.699219 408.660156 C 523.667969 408.679688 523.644531 408.699219 523.621094 408.722656 C 523.722656 408.929688 523.820312 409.132812 523.898438 409.34375 C 524.203125 409.308594 524.476562 409.460938 524.671875 409.695312 C 524.714844 409.628906 524.734375 409.550781 524.699219 409.460938 C 524.6875 409.433594 524.675781 409.417969 524.664062 409.394531 C 524.667969 409.390625 524.667969 409.390625 524.671875 409.390625 C 523.316406 406.539062 522.320312 403.574219 521.527344 400.546875 C 521.5625 400.535156 521.597656 400.515625 521.632812 400.484375 C 523.957031 398.316406 527.890625 397.933594 530.882812 397.378906 C 534.894531 396.636719 538.886719 395.988281 542.933594 395.457031 C 547.480469 394.859375 552.003906 394.066406 556.582031 393.710938 C 561.300781 393.347656 566.050781 393.367188 570.773438 393.597656 C 579.242188 394.003906 587.78125 395.121094 596.125 396.597656 C 603.863281 397.96875 611.628906 400.019531 618.527344 403.871094 C 619.570312 404.453125 620.570312 405.09375 621.554688 405.765625 C 621.707031 405.871094 622.589844 406.375 622.78125 406.617188 C 622.722656 406.28125 622.648438 405.953125 622.566406 405.621094 C 622.078125 405.277344 621.488281 405 621.121094 404.753906 C 619.496094 403.671875 617.773438 402.742188 616.015625 401.898438 C 612.640625 400.269531 609.070312 399.0625 605.464844 398.0625 C 598.15625 396.039062 590.640625 395.152344 583.144531 394.148438 C 573.800781 392.898438 564.308594 392.410156 554.90625 393.253906 C 550.34375 393.660156 545.820312 394.476562 541.285156 395.074219 C 537.601562 395.5625 533.980469 396.199219 530.332031 396.875 C 527.394531 397.421875 523.714844 397.871094 521.363281 399.925781 C 520.0625 394.714844 519.359375 389.324219 518.570312 384.027344 C 517.128906 374.308594 515.453125 364.625 514.929688 354.792969 C 513.992188 337.125 514.34375 319.042969 518.351562 301.742188 C 519.441406 297.058594 520.851562 292.449219 522.601562 287.972656 C 522.742188 287.613281 522.164062 287.457031 522.027344 287.8125 C 515.691406 304.019531 514.027344 321.683594 513.957031 338.957031 C 513.917969 348.15625 514.277344 357.367188 515.398438 366.503906 C 516.496094 375.46875 517.882812 384.445312 519.402344 393.34375 Z M 453.589844 287.882812 C 457.121094 287.28125 461.066406 287.820312 462.824219 291.332031 C 464.824219 295.332031 462.445312 300.425781 460.324219 303.878906 C 456.03125 310.863281 449.027344 316.210938 441.988281 320.214844 C 441.652344 320.402344 441.957031 320.921875 442.289062 320.730469 C 450.15625 316.25 458.0625 310.054688 462.160156 301.792969 C 464.007812 298.066406 465.253906 293.257812 462.488281 289.660156 C 460.410156 286.953125 456.507812 286.78125 453.429688 287.304688 C 453.050781 287.371094 453.210938 287.949219 453.589844 287.882812 Z M 562.160156 439.632812 C 557.644531 435.03125 552.726562 430.9375 547.828125 426.769531 C 544.027344 423.539062 540.234375 420.304688 536.335938 417.199219 C 534.261719 415.542969 532.15625 413.894531 529.933594 412.441406 C 529.660156 412.265625 529.253906 411.964844 528.792969 411.691406 C 528.507812 411.734375 528.21875 411.796875 527.9375 411.859375 C 528.789062 412.257812 529.832031 413.089844 530.175781 413.320312 C 532.160156 414.652344 534.042969 416.132812 535.910156 417.621094 C 539.816406 420.722656 543.605469 423.960938 547.40625 427.191406 C 552.304688 431.363281 557.207031 435.46875 561.734375 440.058594 C 568.183594 446.585938 574.039062 453.746094 578.925781 461.519531 C 583.359375 468.570312 587.707031 475.867188 590.210938 483.851562 C 590.328125 484.21875 590.90625 484.0625 590.792969 483.691406 C 588.164062 475.332031 583.5625 467.691406 578.882812 460.332031 C 574.117188 452.839844 568.367188 445.96875 562.160156 439.632812 Z M 262.980469 412.082031 C 261.324219 415.191406 258.21875 417.46875 255.722656 419.875 C 252.628906 422.855469 249.902344 426.242188 246.90625 429.328125 C 243.84375 432.480469 240.539062 435.371094 237.421875 438.464844 C 234.1875 441.675781 231.066406 444.996094 228.011719 448.382812 C 221.980469 455.074219 216.28125 462.0625 210.671875 469.109375 C 205.898438 475.105469 200.910156 481.523438 199.527344 489.265625 C 199.457031 489.640625 200.035156 489.804688 200.105469 489.421875 C 201.574219 481.210938 207.097656 474.542969 212.152344 468.207031 C 217.757812 461.179688 223.484375 454.246094 229.53125 447.59375 C 232.476562 444.351562 235.511719 441.191406 238.628906 438.109375 C 241.75 435.027344 245.035156 432.125 248.085938 428.964844 C 250.921875 426.027344 253.511719 422.828125 256.453125 420 C 258.894531 417.640625 261.871094 415.433594 263.496094 412.382812 C 263.679688 412.042969 263.160156 411.742188 262.980469 412.082031 Z M 213.726562 395.152344 C 218.980469 392.519531 224.871094 392.128906 230.652344 392.378906 C 233.457031 392.5 236.25 392.800781 239.039062 393.105469 C 242.066406 393.441406 245.121094 393.628906 248.132812 394.070312 C 253.214844 394.816406 258.015625 396.605469 262.714844 398.609375 C 264.449219 399.351562 266.164062 400.148438 267.828125 401.042969 C 268.65625 401.484375 271.390625 402.683594 271.316406 403.867188 C 271.292969 404.25 271.890625 404.25 271.914062 403.867188 C 271.976562 402.851562 270.675781 402.089844 269.964844 401.609375 C 268.257812 400.460938 266.347656 399.585938 264.476562 398.734375 C 259.769531 396.601562 254.910156 394.75 249.828125 393.757812 C 246.90625 393.1875 243.914062 393.046875 240.957031 392.722656 C 237.695312 392.363281 234.429688 391.992188 231.148438 391.808594 C 225.117188 391.464844 218.90625 391.890625 213.425781 394.640625 C 213.082031 394.808594 213.386719 395.328125 213.726562 395.152344 Z M 272.265625 403.125 C 272.980469 402.785156 272.945312 400.160156 273.027344 399.511719 C 273.351562 396.972656 273.605469 394.421875 273.820312 391.871094 C 274.492188 383.992188 275.054688 376.160156 276.191406 368.324219 C 277.878906 356.714844 279.9375 345.222656 282.742188 333.832031 C 283.722656 329.863281 284.734375 325.902344 285.824219 321.960938 C 286.210938 320.570312 286.609375 319.183594 287.046875 317.804688 C 287.191406 317.359375 287.339844 316.910156 287.507812 316.472656 C 287.667969 316.046875 287.898438 315.953125 287.589844 315.878906 C 287.964844 315.972656 288.125 315.394531 287.75 315.304688 C 286.714844 315.050781 285.554688 320.710938 285.386719 321.316406 C 284.035156 326.109375 282.824219 330.945312 281.648438 335.785156 C 278.777344 347.601562 276.742188 359.613281 275.125 371.664062 C 274.234375 378.300781 273.785156 384.933594 273.246094 391.601562 C 273.0625 393.855469 272.832031 396.105469 272.570312 398.351562 C 272.453125 399.359375 272.324219 400.371094 272.167969 401.371094 C 272.128906 401.648438 271.917969 402.632812 271.960938 402.609375 C 271.613281 402.769531 271.917969 403.289062 272.265625 403.125 Z M 329 289.242188 C 328.878906 291.453125 328.882812 293.679688 328.878906 295.855469 C 328.871094 299.894531 328.953125 303.992188 329.476562 308.003906 C 329.992188 311.960938 331.03125 315.816406 331.9375 319.695312 C 332.023438 320.070312 331.449219 320.230469 331.359375 319.855469 C 330.308594 315.367188 329.09375 310.90625 328.703125 306.296875 C 328.296875 301.476562 328.183594 296.636719 328.359375 291.800781 C 328.476562 288.554688 328.28125 284.652344 329.796875 281.660156 C 330.386719 280.492188 331.214844 279.398438 332.359375 278.726562 C 333.375 278.125 334.898438 277.175781 336.117188 277.582031 C 336.480469 277.703125 336.324219 278.277344 335.957031 278.15625 C 334.808594 277.777344 333.128906 278.730469 331.964844 279.769531 C 332.820312 280.820312 333.929688 281.484375 335.085938 282.164062 C 335.71875 282.539062 336.398438 282.921875 336.789062 283.574219 C 337.640625 284.988281 337.601562 286.695312 336.976562 288.195312 C 336.402344 289.582031 334.550781 290.621094 333.113281 290.769531 C 332.304688 290.851562 331.289062 290.871094 330.550781 290.441406 C 330.292969 290.289062 329.328125 289.355469 329 289.242188 Z M 329.464844 284.773438 C 329.253906 286.042969 329.121094 287.332031 329.035156 288.628906 C 329.480469 288.699219 329.894531 289.175781 330.210938 289.445312 C 331.960938 290.945312 335.855469 290.078125 336.546875 287.683594 C 337.15625 285.566406 336.753906 283.832031 334.785156 282.679688 C 333.574219 281.972656 332.425781 281.28125 331.535156 280.183594 C 331.535156 280.183594 331.535156 280.179688 331.53125 280.175781 C 331.25 280.464844 331.019531 280.746094 330.863281 280.992188 C 330.128906 282.144531 329.6875 283.429688 329.464844 284.773438 Z M 315.609375 265.90625 C 316.550781 267.316406 317.871094 268.425781 319.644531 268.488281 C 321.375 268.550781 322.390625 266.929688 323.027344 265.566406 C 323.671875 264.1875 324.285156 262.46875 323.660156 260.984375 C 323.332031 260.207031 322.59375 259.78125 322.117188 259.121094 C 321.597656 258.390625 321.175781 257.582031 320.589844 256.898438 C 320.339844 256.605469 319.917969 257.03125 320.167969 257.320312 C 320.777344 258.035156 321.125 259.078125 321.8125 259.710938 C 323.167969 260.953125 323.527344 261.941406 323.082031 263.757812 C 322.773438 265.023438 322.082031 266.417969 321.144531 267.328125 C 319.273438 269.148438 316.765625 266.738281 315.851562 265.179688 C 315.683594 264.890625 315.183594 265.082031 315.304688 265.410156 C 315.304688 265.457031 315.304688 265.503906 315.304688 265.546875 C 315.21875 265.777344 315.417969 265.921875 315.609375 265.90625 Z M 357.257812 288.917969 C 357.082031 288.871094 356.945312 288.6875 357.070312 288.488281 C 358.300781 286.515625 359.605469 285.441406 361.765625 284.546875 C 363.699219 283.75 365.875 283.011719 367.796875 284.199219 C 367.828125 284.214844 367.84375 284.238281 367.863281 284.257812 C 367.871094 284.253906 367.878906 284.25 367.882812 284.242188 C 368.015625 284.128906 368.273438 284.117188 368.355469 284.304688 C 369.707031 287.339844 369.980469 292.035156 366.5 293.832031 C 362.648438 295.816406 357.898438 293.503906 357.1875 289.167969 C 357.171875 289.066406 357.203125 288.980469 357.257812 288.917969 Z M 357.585938 288.792969 C 357.582031 288.796875 357.578125 288.800781 357.574219 288.804688 C 357.664062 288.824219 357.742188 288.886719 357.765625 289.011719 C 358.414062 292.988281 363.59375 295.8125 366.917969 292.828125 C 369.175781 290.796875 369.035156 287.535156 367.96875 284.921875 C 367.917969 284.949219 367.867188 284.976562 367.796875 285.015625 C 367.527344 285.160156 367.289062 284.867188 367.367188 284.644531 C 365.398438 283.542969 363.082031 284.613281 361.203125 285.441406 C 359.523438 286.179688 358.539062 287.265625 357.585938 288.792969 Z M 373.804688 250.34375 C 373.667969 250.300781 373.570312 250.179688 373.640625 250.007812 C 374.726562 247.40625 375.058594 244.917969 377.875 243.570312 C 378.875 243.089844 379.917969 242.746094 381.027344 242.636719 C 381.496094 242.589844 382.332031 242.386719 382.8125 242.609375 C 382.902344 242.472656 383.09375 242.40625 383.269531 242.550781 C 383.3125 242.589844 383.355469 242.625 383.402344 242.660156 C 383.449219 242.703125 383.46875 242.753906 383.480469 242.808594 C 384.832031 244.480469 386.394531 246.625 386.230469 248.859375 C 386.089844 250.824219 384.917969 252.539062 383.296875 253.636719 C 381.765625 254.675781 379.90625 255.367188 378.113281 254.523438 C 376.304688 253.671875 375.097656 252.113281 373.871094 250.59375 C 373.804688 250.515625 373.789062 250.425781 373.804688 250.34375 Z M 374.234375 250.125 C 374.253906 250.140625 374.273438 250.152344 374.292969 250.171875 C 376.28125 252.625 378.828125 255.660156 382.265625 253.585938 C 383.863281 252.621094 385.691406 250.90625 385.632812 248.859375 C 385.570312 246.734375 384.425781 244.953125 383.140625 243.34375 C 383.011719 243.375 382.875 243.316406 382.804688 243.210938 C 382.742188 243.222656 382.671875 243.214844 382.605469 243.167969 C 382.234375 242.925781 380.902344 243.222656 380.507812 243.304688 C 379.554688 243.5 378.601562 243.785156 377.769531 244.308594 C 375.449219 245.761719 375.191406 247.816406 374.234375 250.125 Z M 386.683594 314.714844 C 386.289062 313.714844 385.960938 312.597656 385.210938 311.792969 C 384.949219 311.511719 384.527344 311.933594 384.789062 312.214844 C 385.460938 312.941406 385.75 313.976562 386.105469 314.875 C 386.246094 315.230469 386.824219 315.074219 386.683594 314.714844 Z M 633.695312 422.335938 C 634.839844 431.570312 635.054688 440.894531 634.003906 450.148438 C 633.070312 458.332031 630.960938 466.339844 628.949219 474.3125 C 626.953125 482.226562 624.90625 490.125 623.351562 498.140625 C 622.089844 504.628906 621.226562 511.285156 620.867188 517.890625 C 620.554688 523.671875 620.8125 529.796875 623.214844 535.152344 C 623.496094 535.203125 623.765625 535.296875 624.011719 535.433594 C 620.652344 528.488281 621.117188 520.210938 621.871094 512.742188 C 622.746094 504.101562 624.347656 495.621094 626.355469 487.175781 C 628.570312 477.890625 631.171875 468.695312 633.117188 459.351562 C 635 450.3125 635.601562 441.070312 635.136719 431.855469 C 634.742188 424.019531 633.316406 416.316406 632.460938 408.527344 C 631.585938 400.578125 631.203125 392.570312 631.429688 384.570312 C 631.644531 376.964844 632.277344 369.210938 634.347656 361.867188 C 635.332031 358.371094 636.648438 354.710938 638.625 351.644531 C 638.855469 351.285156 639.109375 350.933594 639.375 350.59375 C 649.785156 363.484375 655.105469 379.488281 656.785156 395.828125 C 658.59375 413.402344 655.332031 430.824219 654.660156 448.367188 C 654.320312 457.277344 655.1875 466 655.996094 474.859375 C 656.824219 483.910156 657.339844 492.988281 657.203125 502.078125 C 657.070312 510.550781 656.421875 518.964844 654.132812 527.148438 C 651.992188 534.777344 648.585938 542.054688 644.128906 548.605469 C 644.121094 548.570312 644.105469 548.539062 644.09375 548.507812 C 644.089844 548.578125 644.078125 548.648438 644.074219 548.71875 C 644.144531 548.75 644.210938 548.796875 644.261719 548.867188 C 644.34375 548.929688 644.394531 549.019531 644.421875 549.128906 C 644.4375 549.140625 644.457031 549.148438 644.472656 549.164062 C 649.152344 542.34375 652.617188 534.769531 654.847656 526.808594 C 657.261719 518.195312 657.742188 509.226562 657.820312 500.324219 C 657.910156 490.664062 657.207031 481.015625 656.273438 471.40625 C 655.800781 466.574219 655.292969 461.769531 655.179688 456.914062 C 655.070312 452.179688 655.25 447.441406 655.546875 442.71875 C 656.113281 433.742188 657.21875 424.808594 657.753906 415.835938 C 658.222656 407.875 657.988281 399.871094 656.925781 391.964844 C 654.894531 376.796875 649.4375 362.078125 639.75 350.113281 C 641.222656 348.277344 642.9375 346.574219 643.769531 344.363281 C 643.902344 344 643.324219 343.847656 643.1875 344.203125 C 642.5 346.035156 641.085938 347.523438 639.863281 349.019531 C 638.589844 350.578125 637.5625 352.175781 636.6875 353.996094 C 634.902344 357.691406 633.660156 361.625 632.796875 365.628906 C 630.851562 374.664062 630.59375 384.175781 630.816406 393.378906 C 631.058594 403.136719 632.503906 412.679688 633.695312 422.335938 Z M 439.632812 256.089844 C 435.71875 256.359375 431.621094 254.859375 428.226562 253.03125 C 426.425781 252.058594 424.714844 250.925781 423.035156 249.753906 C 421.355469 248.582031 419.777344 247.195312 417.867188 246.402344 C 414.339844 244.9375 410.480469 243.925781 406.664062 243.773438 C 402.058594 243.59375 397.539062 243.324219 392.980469 242.566406 C 388.253906 241.78125 383.628906 240.203125 379.050781 238.824219 C 374.457031 237.433594 369.886719 235.925781 365.253906 234.660156 C 361.519531 233.640625 357.632812 233.109375 353.769531 233.480469 C 350.648438 233.777344 347.679688 234.847656 345.035156 236.519531 C 342.367188 238.207031 340.347656 240.597656 338.011719 242.675781 C 335.320312 245.070312 331.675781 246.25 328.433594 247.707031 C 325.144531 249.1875 322 250.785156 319.207031 253.085938 C 314.601562 256.875 311.589844 262.15625 309.304688 267.574219 C 307.886719 270.941406 306.726562 274.34375 304.867188 277.507812 C 303.851562 279.234375 302.71875 280.988281 301.335938 282.441406 C 300.074219 283.765625 298.648438 284.921875 297.433594 286.289062 C 297.175781 286.574219 297.597656 287 297.855469 286.710938 C 299.183594 285.21875 300.734375 283.941406 302.113281 282.496094 C 303.519531 281.015625 304.617188 279.117188 305.644531 277.363281 C 307.71875 273.832031 308.886719 269.914062 310.558594 266.195312 C 313.8125 258.964844 318.59375 253.183594 325.773438 249.613281 C 329.5625 247.730469 333.953125 246.488281 337.371094 243.964844 C 340.363281 241.757812 342.585938 238.777344 345.769531 236.765625 C 353.601562 231.800781 362.800781 234.496094 370.945312 236.972656 C 378.144531 239.160156 385.398438 241.835938 392.824219 243.140625 C 396.027344 243.703125 399.320312 244.09375 402.570312 244.269531 C 406.195312 244.460938 409.605469 244.355469 413.109375 245.492188 C 414.371094 245.902344 415.660156 246.21875 416.910156 246.660156 C 418.613281 247.257812 419.992188 248.296875 421.4375 249.34375 C 424.195312 251.347656 427.070312 253.3125 430.210938 254.667969 C 432.769531 255.769531 435.492188 256.507812 438.269531 256.726562 C 439.921875 256.855469 443.164062 255.867188 444.425781 257.375 C 444.273438 257.527344 444.34375 257.878906 444.632812 257.902344 C 444.679688 257.921875 444.726562 257.9375 444.773438 257.957031 C 444.957031 258.210938 445.460938 258.0625 445.320312 257.726562 C 445.308594 257.699219 445.296875 257.679688 445.285156 257.65625 C 445.289062 257.65625 445.289062 257.65625 445.292969 257.65625 C 445.285156 257.648438 445.28125 257.644531 445.273438 257.636719 C 444.328125 255.5625 441.515625 255.960938 439.632812 256.089844 Z M 401.039062 373.296875 C 400.910156 373.125 400.804688 372.941406 400.722656 372.742188 C 396.375 371.515625 392.476562 369.492188 387.980469 371.476562 C 385.621094 372.519531 383.492188 373.976562 381.253906 375.242188 C 378.40625 376.855469 375.449219 377.417969 372.199219 377.410156 C 366.726562 377.394531 361.289062 375.980469 355.949219 377.820312 C 351.101562 379.496094 346.636719 382.644531 342.90625 386.113281 C 342.621094 386.375 343.046875 386.796875 343.328125 386.535156 C 347.132812 383.007812 351.632812 379.941406 356.558594 378.242188 C 361.738281 376.457031 367.398438 377.996094 372.710938 378.011719 C 374.9375 378.015625 377.363281 377.75 379.410156 376.832031 C 381.765625 375.777344 383.898438 374.320312 386.140625 373.054688 C 388.605469 371.664062 391.054688 370.816406 393.898438 371.304688 C 396.199219 371.703125 398.359375 372.675781 400.597656 373.324219 C 400.578125 373.339844 400.5625 373.359375 400.546875 373.378906 C 400.703125 373.328125 400.871094 373.304688 401.039062 373.296875 Z M 616.246094 373.855469 C 617.046875 369.324219 617.859375 364.789062 618.800781 360.285156 C 619.53125 356.753906 620.949219 353.460938 622.289062 350.121094 C 624.363281 344.96875 626.609375 339.890625 628.980469 334.871094 C 629.144531 334.523438 628.628906 334.222656 628.464844 334.570312 C 626.230469 339.289062 624.121094 344.070312 622.140625 348.902344 C 620.675781 352.488281 619.078125 356.070312 618.277344 359.867188 C 617.304688 364.457031 616.484375 369.078125 615.667969 373.695312 C 615.601562 374.070312 616.179688 374.234375 616.246094 373.855469 Z M 184.605469 519.09375 C 184.792969 519.203125 184.945312 519.347656 185.085938 519.503906 C 185.175781 519.613281 185.253906 519.730469 185.34375 519.84375 C 185.53125 520.070312 185.953125 519.828125 185.84375 519.550781 C 185.726562 519.257812 185.589844 519.097656 185.410156 518.953125 C 180.996094 513.214844 180.433594 505.652344 180.738281 498.648438 C 180.898438 495.007812 181.339844 491.382812 181.796875 487.765625 C 182.28125 483.929688 182.628906 480.066406 183.1875 476.238281 C 184.527344 467.035156 187.398438 458.132812 189.730469 449.152344 C 192.101562 440.007812 193.839844 430.710938 196.195312 421.558594 C 199.089844 410.285156 202.601562 399.199219 206.230469 388.144531 C 207.742188 383.535156 209.332031 378.949219 210.847656 374.339844 C 211.355469 372.800781 211.816406 371.246094 212.238281 369.6875 C 212.335938 369.316406 212.929688 367.917969 212.523438 367.566406 C 212.421875 367.480469 212.28125 367.445312 212.160156 367.519531 C 212.152344 367.523438 212.140625 367.53125 212.132812 367.535156 C 211.804688 367.738281 212.105469 368.253906 212.433594 368.054688 C 211.960938 368.339844 212.097656 367.613281 211.984375 368.207031 C 211.945312 368.402344 211.898438 368.597656 211.851562 368.785156 C 211.722656 369.320312 211.574219 369.855469 211.425781 370.382812 C 211.042969 371.757812 210.621094 373.113281 210.175781 374.46875 C 208.933594 378.253906 207.621094 382.019531 206.371094 385.804688 C 203.363281 394.914062 200.398438 404.039062 197.804688 413.273438 C 195.253906 422.339844 193.0625 431.5 191.097656 440.703125 C 189.140625 449.863281 186.296875 458.789062 184.183594 467.910156 C 183.035156 472.863281 182.40625 477.832031 181.816406 482.871094 C 181.304688 487.246094 180.660156 491.605469 180.308594 495.996094 C 179.691406 503.6875 179.898438 512.234375 184.503906 518.726562 C 184.464844 518.851562 184.484375 518.996094 184.605469 519.09375 Z M 689.25 630.609375 C 689.019531 630.210938 688.769531 629.832031 688.5 629.472656 C 688.472656 629.3125 688.429688 629.121094 688.382812 628.886719 C 688.332031 628.640625 688.0625 628.628906 687.910156 628.753906 C 686.164062 626.734375 683.875 625.238281 681.890625 623.417969 C 679.019531 620.785156 676.007812 618.316406 672.921875 615.941406 C 668.824219 612.789062 664.523438 609.910156 660.066406 607.28125 C 659.722656 605.105469 658.90625 603.089844 658.042969 601.074219 C 657.503906 599.816406 656.976562 598.558594 656.53125 597.269531 C 656.03125 595.820312 656.253906 593.972656 656.410156 592.472656 C 656.683594 589.894531 657.050781 587.410156 656.941406 584.804688 C 656.839844 582.304688 656.339844 579.828125 655.785156 577.394531 C 654.722656 572.742188 653.125 568.164062 652.742188 563.382812 C 652.601562 561.570312 652.472656 559.753906 652.226562 557.953125 C 652.082031 556.925781 651.910156 555.800781 651.496094 554.808594 C 651.160156 554.664062 650.828125 554.511719 650.554688 554.304688 C 651.371094 555.597656 651.550781 557.324219 651.742188 558.796875 C 651.976562 560.644531 652.0625 562.507812 652.230469 564.363281 C 652.640625 569.011719 654.292969 573.546875 655.328125 578.078125 C 655.90625 580.632812 656.320312 583.21875 656.375 585.835938 C 656.433594 588.429688 655.929688 590.953125 655.714844 593.523438 C 655.304688 598.371094 658.460938 602.289062 659.386719 606.886719 C 657.152344 605.585938 654.886719 604.34375 652.585938 603.167969 C 638.9375 596.203125 623.976562 591.878906 608.710938 590.558594 C 607.707031 590.472656 606.699219 590.40625 605.699219 590.351562 C 605.054688 582.242188 601.484375 574.785156 598.535156 567.324219 C 596.917969 563.230469 595.839844 559.28125 595.511719 554.875 C 595.21875 550.921875 595.226562 546.941406 594.300781 543.066406 C 594.214844 542.691406 593.632812 542.847656 593.726562 543.226562 C 594.675781 547.210938 594.648438 551.332031 594.949219 555.394531 C 595.242188 559.296875 596.203125 562.859375 597.582031 566.507812 C 600.523438 574.289062 604.417969 581.90625 605.09375 590.328125 C 598.183594 590.007812 591.308594 590.449219 584.425781 591.292969 C 575.898438 592.339844 567.304688 592.28125 558.773438 591.347656 C 551.214844 590.523438 543.515625 589.15625 536.070312 587.332031 C 535.289062 582.539062 533.277344 578.046875 532.25 573.3125 C 531.097656 568.007812 531.785156 562.273438 531.992188 556.890625 C 532.1875 551.613281 532.324219 546.339844 531.957031 541.070312 C 531.65625 536.699219 531.699219 532.164062 530.484375 527.921875 C 530.378906 527.550781 529.800781 527.707031 529.90625 528.082031 C 531.148438 532.40625 531.082031 537.042969 531.390625 541.503906 C 531.757812 546.8125 531.570312 552.136719 531.367188 557.449219 C 531.175781 562.582031 530.636719 567.894531 531.570312 572.972656 C 532.457031 577.808594 534.582031 582.332031 535.429688 587.179688 C 534.226562 586.878906 533.023438 586.566406 531.835938 586.242188 C 523.296875 583.914062 514.515625 582.609375 505.753906 581.453125 C 489.550781 579.308594 473.417969 576.941406 457.324219 574.140625 C 456.71875 570.457031 455.992188 566.800781 455.625 563.078125 C 455.246094 559.230469 455.566406 555.550781 455.960938 551.726562 C 456.808594 543.457031 456.707031 535.117188 456.691406 526.816406 C 456.6875 522.820312 456.640625 518.828125 456.460938 514.835938 C 456.3125 511.601562 455.839844 508.378906 455.777344 505.148438 C 455.730469 502.734375 455.800781 500.328125 455.691406 497.917969 C 455.621094 496.449219 455.660156 494.300781 454.617188 493.121094 C 454.359375 492.828125 453.9375 493.253906 454.191406 493.542969 C 455.355469 494.859375 455.097656 497.695312 455.140625 499.316406 C 455.203125 501.621094 455.113281 503.925781 455.214844 506.230469 C 455.359375 509.675781 455.800781 513.113281 455.933594 516.570312 C 456.089844 520.539062 456.097656 524.515625 456.097656 528.488281 C 456.101562 536.765625 456.269531 545.164062 455.148438 553.382812 C 454.199219 560.367188 455.574219 567.175781 456.703125 574.03125 C 454.570312 573.660156 452.433594 573.28125 450.300781 572.890625 C 441.320312 571.253906 432.363281 569.53125 423.453125 567.5625 C 415.324219 565.769531 407.03125 564.882812 398.710938 564.996094 C 392.007812 565.089844 385.394531 565.972656 378.824219 567.183594 C 378.996094 560.691406 379.367188 554.351562 380.351562 547.917969 C 381.332031 541.523438 382.421875 535.136719 383.488281 528.753906 C 385.5625 516.347656 388.441406 503.976562 388.488281 491.335938 C 388.488281 490.949219 387.890625 490.949219 387.886719 491.335938 C 387.84375 504.097656 384.917969 516.601562 382.820312 529.128906 C 381.753906 535.519531 380.667969 541.921875 379.6875 548.332031 C 378.714844 554.652344 378.386719 560.914062 378.222656 567.300781 C 367.628906 569.285156 357.132812 572.09375 346.535156 573.820312 C 338.175781 575.183594 329.769531 576.269531 321.378906 577.414062 C 321.980469 573.472656 324.195312 570.289062 325.925781 566.773438 C 327.671875 563.230469 328.234375 559.253906 328.925781 555.40625 C 329.628906 551.492188 330.332031 547.640625 330.671875 543.667969 C 331.050781 539.234375 331.164062 534.78125 331.34375 530.339844 C 331.515625 526.113281 331.832031 521.902344 332.21875 517.695312 C 332.40625 515.609375 332.617188 513.523438 332.832031 511.445312 C 333.046875 509.40625 333.109375 507.273438 333.53125 505.269531 C 333.992188 503.105469 334.460938 500.941406 334.777344 498.75 C 334.933594 497.675781 335.554688 495.179688 334.546875 494.316406 C 334.257812 494.066406 333.832031 494.488281 334.125 494.738281 C 334.605469 495.152344 334.417969 496.304688 334.386719 496.855469 C 334.316406 498.105469 334.09375 499.347656 333.878906 500.582031 C 333.503906 502.671875 332.941406 504.730469 332.71875 506.84375 C 331.832031 515.25 331.003906 523.640625 330.675781 532.089844 C 330.519531 536.144531 330.371094 540.199219 330.027344 544.242188 C 329.660156 548.507812 328.804688 552.652344 328.0625 556.859375 C 327.355469 560.859375 326.449219 564.625 324.507812 568.21875 C 322.875 571.242188 321.269531 574.0625 320.769531 577.496094 C 320.304688 577.558594 319.84375 577.621094 319.378906 577.6875 C 310.214844 578.941406 301.246094 581.296875 292.15625 583.015625 C 280.324219 585.246094 268.308594 586.433594 256.28125 587.328125 C 256.964844 584.09375 258.628906 581.367188 260.238281 578.511719 C 261.960938 575.453125 263.738281 572.425781 265.285156 569.273438 C 266.753906 566.28125 267.914062 563.15625 268.660156 559.902344 C 269.546875 556.046875 269.992188 552.058594 270.746094 548.171875 C 272.257812 540.421875 273.847656 532.75 276.351562 525.253906 C 278.652344 518.363281 281.234375 511.417969 281.589844 504.09375 C 281.609375 503.707031 281.007812 503.710938 280.992188 504.09375 C 280.632812 511.539062 277.941406 518.609375 275.605469 525.605469 C 273.160156 532.925781 271.65625 540.449219 270.171875 548.011719 C 269.4375 551.742188 268.933594 555.515625 268.195312 559.238281 C 267.484375 562.785156 266.144531 566.171875 264.554688 569.410156 C 263.003906 572.570312 261.191406 575.601562 259.464844 578.667969 C 257.875 581.488281 256.289062 584.160156 255.65625 587.375 C 248.761719 587.882812 241.863281 588.304688 234.988281 588.777344 C 225.878906 589.410156 216.75 589.902344 207.617188 590.105469 C 208.734375 583.265625 210.953125 576.65625 213.691406 570.304688 C 214.5625 568.285156 215.425781 566.253906 216.3125 564.242188 C 216.941406 562.820312 217.480469 560.914062 218.472656 559.695312 C 218.714844 559.398438 218.292969 558.972656 218.050781 559.273438 C 217.082031 560.460938 216.554688 562.230469 215.941406 563.609375 C 215 565.734375 214.101562 567.875 213.171875 570 C 210.367188 576.433594 208.121094 583.175781 207.007812 590.117188 C 197.457031 590.3125 187.898438 590.183594 178.359375 589.535156 C 166.425781 588.722656 154.730469 586.515625 142.765625 586.152344 C 141.460938 586.113281 140.152344 586.082031 138.835938 586.0625 C 140.832031 582.933594 143.210938 580.070312 145.359375 577.050781 C 147.472656 574.082031 149.421875 570.996094 151.121094 567.765625 C 153.804688 562.667969 155.578125 557.179688 157.109375 551.644531 C 158.464844 546.742188 159.726562 541.808594 161.542969 537.046875 C 163.003906 533.222656 165.261719 527.5 169.675781 526.296875 C 170.046875 526.195312 169.890625 525.617188 169.515625 525.71875 C 165.59375 526.789062 163.421875 531.183594 161.910156 534.585938 C 159.753906 539.449219 158.394531 544.644531 157 549.765625 C 155.4375 555.539062 153.707031 561.265625 151.027344 566.636719 C 149.410156 569.882812 147.472656 572.960938 145.410156 575.941406 C 143.042969 579.355469 140.335938 582.53125 138.128906 586.050781 C 128.964844 585.921875 119.601562 586.335938 110.734375 588.519531 C 106.894531 589.46875 102.007812 591.007812 100 594.746094 C 99.816406 595.082031 100.332031 595.386719 100.515625 595.046875 C 102.378906 591.574219 106.8125 590.199219 110.355469 589.234375 C 115.59375 587.808594 121.089844 587.292969 126.492188 586.957031 C 130.351562 586.714844 134.238281 586.605469 138.125 586.617188 C 138.21875 586.667969 138.339844 586.675781 138.4375 586.617188 C 144.625 586.648438 150.820312 586.996094 156.933594 587.683594 C 164.460938 588.527344 171.902344 589.691406 179.472656 590.207031 C 188.859375 590.84375 198.277344 590.910156 207.675781 590.707031 C 226.652344 590.300781 245.574219 588.582031 264.492188 587.121094 C 273.484375 586.429688 282.339844 585.402344 291.222656 583.789062 C 300.308594 582.140625 309.273438 579.683594 318.417969 578.414062 C 336.824219 575.859375 355.015625 573.1875 373.132812 569.011719 C 391.0625 564.878906 408.695312 564.644531 426.617188 568.90625 C 444.230469 573.089844 462.382812 575.808594 480.265625 578.566406 C 489.445312 579.988281 498.65625 581.09375 507.863281 582.332031 C 517.0625 583.570312 525.960938 585.585938 535.003906 587.621094 C 535.214844 587.667969 535.417969 587.710938 535.625 587.757812 C 535.664062 587.78125 535.707031 587.785156 535.753906 587.785156 C 552.277344 591.46875 568.597656 593.832031 585.546875 591.757812 C 618.777344 587.683594 651.492188 598.828125 677.089844 620.027344 C 679.074219 621.671875 680.996094 623.394531 682.886719 625.152344 C 683.640625 625.855469 684.226562 626.464844 685.117188 626.972656 C 685.882812 627.476562 686.578125 628.0625 687.195312 628.734375 C 687.492188 629.03125 687.738281 629.308594 687.933594 629.539062 C 688.105469 630.070312 688.363281 630.515625 688.773438 630.96875 C 689.011719 631.226562 689.414062 630.898438 689.25 630.609375 Z M 689.25 630.609375 " fill-opacity="1" fill-rule="nonzero"/></svg>