<svg xmlns="http://www.w3.org/2000/svg" xmlns:xlink="http://www.w3.org/1999/xlink" width="1000" zoomAndPan="magnify" viewBox="0 0 750 749.999995" height="1000" preserveAspectRatio="xMidYMid meet" version="1.0"><defs><clipPath id="5546744964"><path d="M 396 75 L 636 75 L 636 679 L 396 679 Z M 396 75 " clip-rule="nonzero"/></clipPath><clipPath id="a7f2fb4633"><path d="M 683 677 L 686.15625 677 L 686.15625 679.5 L 683 679.5 Z M 683 677 " clip-rule="nonzero"/></clipPath><clipPath id="2b48505b7b"><path d="M 674 677 L 679 677 L 679 679.5 L 674 679.5 Z M 674 677 " clip-rule="nonzero"/></clipPath><clipPath id="1736b1b437"><path d="M 665 677 L 670 677 L 670 679.5 L 665 679.5 Z M 665 677 " clip-rule="nonzero"/></clipPath><clipPath id="ab4efc1b1e"><path d="M 656 677 L 661 677 L 661 679.5 L 656 679.5 Z M 656 677 " clip-rule="nonzero"/></clipPath><clipPath id="c491066262"><path d="M 647 677 L 652 677 L 652 679.5 L 647 679.5 Z M 647 677 " clip-rule="nonzero"/></clipPath><clipPath id="6c59a43cd0"><path d="M 638 677 L 644 677 L 644 679.5 L 638 679.5 Z M 638 677 " clip-rule="nonzero"/></clipPath><clipPath id="66332375e0"><path d="M 629 677 L 635 677 L 635 679.5 L 629 679.5 Z M 629 677 " clip-rule="nonzero"/></clipPath><clipPath id="dcb6e50f46"><path d="M 620 677 L 626 677 L 626 679.5 L 620 679.5 Z M 620 677 " clip-rule="nonzero"/></clipPath><clipPath id="9030fa9e3f"><path d="M 611 677 L 617 677 L 617 679.5 L 611 679.5 Z M 611 677 " clip-rule="nonzero"/></clipPath><clipPath id="a21ad8e9c7"><path d="M 602 677 L 608 677 L 608 679.5 L 602 679.5 Z M 602 677 " clip-rule="nonzero"/></clipPath><clipPath id="0dbf8a5747"><path d="M 593 677 L 599 677 L 599 679.5 L 593 679.5 Z M 593 677 " clip-rule="nonzero"/></clipPath><clipPath id="37d4f00692"><path d="M 584 677 L 590 677 L 590 679.5 L 584 679.5 Z M 584 677 " clip-rule="nonzero"/></clipPath><clipPath id="d7f61cd640"><path d="M 575 677 L 581 677 L 581 679.5 L 575 679.5 Z M 575 677 " clip-rule="nonzero"/></clipPath><clipPath id="b26e8f6b6e"><path d="M 418 677 L 513 677 L 513 679.5 L 418 679.5 Z M 418 677 " clip-rule="nonzero"/></clipPath><clipPath id="c18ffd8b9e"><path d="M 514 390 L 517 390 L 517 679.5 L 514 679.5 Z M 514 390 " clip-rule="nonzero"/></clipPath><clipPath id="3d4e72451d"><path d="M 459 341 L 573 341 L 573 679.5 L 459 679.5 Z M 459 341 " clip-rule="nonzero"/></clipPath><clipPath id="6bb971df37"><path d="M 112 75 L 352 75 L 352 679 L 112 679 Z M 112 75 " clip-rule="nonzero"/></clipPath><clipPath id="0a6f78b12c"><path d="M 189 314 L 193 314 L 193 679.5 L 189 679.5 Z M 189 314 " clip-rule="nonzero"/></clipPath><clipPath id="f9cc95f417"><path d="M 64 677 L 186 677 L 186 679.5 L 64 679.5 Z M 64 677 " clip-rule="nonzero"/></clipPath><clipPath id="06fd9558af"><path d="M 63.65625 75 L 66 75 L 66 679.5 L 63.65625 679.5 Z M 63.65625 75 " clip-rule="nonzero"/></clipPath></defs><g clip-path="url(#5546744964)"><path fill="#ecbbb4" d="M 634.605469 378.867188 C 632.125 373.175781 628.082031 361.894531 626.402344 357.144531 C 623.984375 349 620.378906 335.410156 617.238281 317.648438 C 611.921875 287.613281 609.46875 287.480469 603.371094 275.164062 C 597.277344 262.847656 590.242188 232.414062 588.351562 218.191406 C 585.664062 191.957031 576.742188 186.007812 565.761719 183.792969 C 565.511719 183.742188 565.261719 183.691406 565.019531 183.640625 L 563.519531 183.335938 C 553.363281 181.25 540.101562 176.695312 533.78125 169.964844 C 533.332031 169.488281 532.96875 168.960938 532.667969 168.402344 C 531.316406 164.847656 531.554688 160.199219 531.570312 159.8125 C 534.824219 156.449219 537.214844 152.410156 538.734375 149.394531 C 540.152344 146.824219 540.695312 144.964844 540.695312 144.964844 C 542.492188 145.332031 544.105469 144.382812 544.996094 142.710938 C 545.972656 140.871094 547.859375 136.960938 549.054688 132.578125 C 550.585938 126.945312 547.679688 125.402344 545.636719 126.230469 C 545.636719 126.230469 548.605469 117.0625 548.03125 106.296875 C 547.058594 87.964844 534.238281 74.992188 515.878906 74.992188 C 497.519531 74.992188 484.699219 87.964844 483.726562 106.296875 C 483.15625 117.0625 486.125 126.230469 486.125 126.230469 C 484.078125 125.402344 481.171875 126.945312 482.707031 132.578125 C 483.902344 136.960938 485.785156 140.871094 486.761719 142.710938 C 487.652344 144.382812 489.265625 145.332031 491.066406 144.964844 C 491.066406 144.964844 491.605469 146.824219 493.023438 149.394531 C 494.542969 152.410156 496.9375 156.449219 500.1875 159.8125 C 500.207031 160.199219 500.441406 164.847656 499.09375 168.402344 C 498.792969 168.957031 498.425781 169.488281 497.980469 169.964844 C 491.660156 176.695312 478.394531 181.25 468.238281 183.335938 L 466.742188 183.640625 C 466.496094 183.691406 466.246094 183.742188 466 183.792969 C 455.015625 186.007812 446.097656 191.957031 443.40625 218.191406 C 441.515625 232.414062 434.480469 262.847656 428.386719 275.164062 C 422.289062 287.480469 419.835938 287.613281 414.519531 317.648438 C 411.644531 333.914062 408.378906 346.671875 405.992188 354.964844 C 405.898438 355.242188 400.1875 371.605469 397.023438 378.867188 C 395.867188 381.519531 397.21875 383.929688 397.21875 383.929688 L 399.71875 394.171875 C 399.71875 394.171875 399.65625 397.402344 399.765625 400.535156 C 399.878906 403.839844 405.601562 408.246094 405.601562 408.246094 C 406.886719 410.71875 411.054688 418.574219 412.066406 419.902344 C 412.765625 420.828125 414.070312 419.449219 414.390625 418.628906 C 414.785156 417.605469 415.027344 416.148438 414.289062 414.261719 C 414.742188 414.585938 415.828125 414.101562 416.011719 412.894531 C 416.324219 410.832031 415.164062 406.351562 412.746094 404.289062 C 412.746094 404.289062 411.882812 400.664062 410.109375 396.910156 C 410.097656 396.882812 410.082031 396.863281 410.070312 396.835938 C 410.085938 396.695312 410.101562 396.554688 410.109375 396.410156 C 410.332031 393.25 410.328125 390.625 410.214844 388.492188 C 410.703125 387.1875 411.164062 385.828125 411.523438 384.507812 C 413 379.09375 414.808594 379.960938 415.109375 383.285156 C 415.511719 387.757812 416.449219 390.851562 416.449219 390.851562 C 416.449219 390.851562 416.144531 394.273438 417.03125 396.949219 C 417.554688 398.519531 418.394531 399.617188 419.582031 400.257812 C 420.671875 400.851562 422.796875 400.59375 422.933594 398.988281 C 423.066406 397.457031 422.90625 394.058594 422.90625 393.6875 C 422.902344 391.515625 422.949219 389.183594 423.363281 387.316406 C 424.328125 382.980469 424.808594 377.117188 424.425781 374.273438 C 423.78125 369.484375 422.121094 358.765625 422.121094 358.765625 C 423.007812 355.222656 425.390625 347.503906 431.453125 335.21875 C 441.226562 315.417969 448.738281 302.121094 450.460938 289.621094 C 451.464844 282.382812 462.796875 249.449219 466.761719 232.160156 L 469.195312 232.160156 C 470.730469 248.695312 474.058594 307.855469 473.398438 312.007812 C 472.84375 315.488281 465.464844 373.570312 465.464844 389.199219 C 465.464844 432.9375 477.519531 505.222656 475.742188 514.609375 C 471.460938 537.285156 468.109375 555.238281 475.066406 585.621094 C 477.101562 594.5 488.914062 645.863281 490.410156 655.351562 C 490.675781 657.007812 489.527344 661.546875 489.527344 661.546875 L 480.789062 673.226562 C 480.789062 673.226562 476.433594 673.425781 475.386719 675.398438 C 474.257812 677.527344 475.589844 678.800781 476.320312 678.800781 L 507.460938 678.800781 C 508.664062 678.800781 509.578125 678.152344 509.578125 674.554688 C 509.578125 670.863281 508.75 659.816406 508.75 659.816406 L 509.136719 617.265625 C 509.390625 607.671875 510.558594 581.042969 510.65625 578.539062 C 511.777344 550.058594 507.933594 535.460938 507.933594 527.582031 C 507.933594 518.96875 510.351562 510.707031 510.351562 487.675781 C 510.351562 474.609375 510.457031 388.976562 510.457031 388.976562 L 521.308594 388.976562 C 521.308594 388.976562 521.414062 474.609375 521.414062 487.675781 C 521.414062 510.707031 523.832031 518.96875 523.832031 527.582031 C 523.832031 535.460938 519.988281 550.058594 521.109375 578.539062 C 521.207031 581.042969 522.371094 607.671875 522.628906 617.265625 L 523.015625 659.816406 C 523.015625 659.816406 522.1875 670.863281 522.1875 674.554688 C 522.1875 678.152344 523.105469 678.800781 524.304688 678.800781 L 555.445312 678.800781 C 556.171875 678.800781 557.507812 677.527344 556.378906 675.398438 C 555.332031 673.421875 550.976562 673.226562 550.976562 673.226562 L 542.238281 661.546875 C 542.238281 661.546875 541.089844 657.007812 541.355469 655.351562 C 542.855469 645.863281 554.664062 594.5 556.699219 585.621094 C 563.660156 555.238281 560.304688 537.285156 556.023438 514.609375 C 554.246094 505.222656 566.300781 432.9375 566.300781 389.199219 C 566.300781 373.570312 558.921875 315.484375 558.367188 312.007812 C 557.710938 307.855469 561.039062 248.695312 562.570312 232.160156 L 565.003906 232.160156 C 568.972656 249.449219 580.304688 282.382812 581.304688 289.621094 C 583.027344 302.121094 590.542969 315.417969 600.3125 335.21875 C 606.359375 347.472656 608.746094 355.179688 609.640625 358.738281 L 609.515625 358.765625 C 609.515625 358.765625 607.855469 369.484375 607.210938 374.273438 C 606.828125 377.117188 607.308594 382.980469 608.273438 387.316406 C 608.6875 389.1875 608.734375 391.515625 608.730469 393.6875 C 608.730469 394.058594 608.570312 397.457031 608.703125 398.988281 C 608.839844 400.59375 610.964844 400.851562 612.054688 400.257812 C 613.246094 399.617188 614.082031 398.519531 614.605469 396.949219 C 615.492188 394.273438 615.1875 390.851562 615.1875 390.851562 C 615.1875 390.851562 616.125 387.757812 616.53125 383.285156 C 616.828125 379.960938 618.636719 379.09375 620.113281 384.507812 C 620.476562 385.828125 620.933594 387.1875 621.421875 388.492188 C 621.308594 390.625 621.304688 393.25 621.527344 396.410156 C 621.535156 396.554688 621.550781 396.695312 621.570312 396.835938 C 621.554688 396.863281 621.539062 396.882812 621.527344 396.910156 C 619.753906 400.664062 618.890625 404.289062 618.890625 404.289062 C 616.472656 406.351562 615.3125 410.832031 615.628906 412.894531 C 615.808594 414.101562 616.890625 414.585938 617.34375 414.261719 C 616.609375 416.148438 616.851562 417.609375 617.246094 418.628906 C 617.5625 419.449219 618.867188 420.828125 619.570312 419.902344 C 620.578125 418.574219 624.746094 410.71875 626.035156 408.246094 C 626.035156 408.246094 631.753906 403.839844 631.871094 400.535156 C 631.980469 397.402344 631.917969 394.171875 631.917969 394.171875 L 634.417969 383.929688 C 634.410156 383.933594 635.757812 381.519531 634.605469 378.867188 Z M 634.605469 378.867188 " fill-opacity="1" fill-rule="nonzero"/></g><path fill="#ffffff" d="M 562.09375 342.195312 L 469.664062 342.195312 L 466.3125 372.988281 C 466.3125 372.988281 475.4375 385.355469 510.453125 388.976562 L 521.304688 388.976562 C 556.316406 385.355469 565.445312 372.988281 565.445312 372.988281 Z M 562.09375 342.195312 " fill-opacity="1" fill-rule="nonzero"/><path fill="#4b5f73" d="M 473.335938 310.351562 L 558.417969 310.351562 L 558.417969 312.589844 L 473.335938 312.589844 Z M 473.335938 310.351562 " fill-opacity="1" fill-rule="nonzero"/><g clip-path="url(#a7f2fb4633)"><path fill="#708ba6" d="M 683.320312 677.15625 L 686.109375 677.15625 L 686.109375 679.394531 L 683.320312 679.394531 Z M 683.320312 677.15625 " fill-opacity="1" fill-rule="nonzero"/></g><g clip-path="url(#2b48505b7b)"><path fill="#708ba6" d="M 674.363281 677.15625 L 678.84375 677.15625 L 678.84375 679.394531 L 674.363281 679.394531 Z M 674.363281 677.15625 " fill-opacity="1" fill-rule="nonzero"/></g><g clip-path="url(#1736b1b437)"><path fill="#708ba6" d="M 665.40625 677.15625 L 669.886719 677.15625 L 669.886719 679.394531 L 665.40625 679.394531 Z M 665.40625 677.15625 " fill-opacity="1" fill-rule="nonzero"/></g><g clip-path="url(#ab4efc1b1e)"><path fill="#708ba6" d="M 656.449219 677.15625 L 660.925781 677.15625 L 660.925781 679.394531 L 656.449219 679.394531 Z M 656.449219 677.15625 " fill-opacity="1" fill-rule="nonzero"/></g><g clip-path="url(#c491066262)"><path fill="#708ba6" d="M 647.492188 677.15625 L 651.972656 677.15625 L 651.972656 679.394531 L 647.492188 679.394531 Z M 647.492188 677.15625 " fill-opacity="1" fill-rule="nonzero"/></g><g clip-path="url(#6c59a43cd0)"><path fill="#708ba6" d="M 638.53125 677.15625 L 643.015625 677.15625 L 643.015625 679.394531 L 638.53125 679.394531 Z M 638.53125 677.15625 " fill-opacity="1" fill-rule="nonzero"/></g><g clip-path="url(#66332375e0)"><path fill="#708ba6" d="M 629.574219 677.15625 L 634.054688 677.15625 L 634.054688 679.394531 L 629.574219 679.394531 Z M 629.574219 677.15625 " fill-opacity="1" fill-rule="nonzero"/></g><g clip-path="url(#dcb6e50f46)"><path fill="#708ba6" d="M 620.621094 677.15625 L 625.097656 677.15625 L 625.097656 679.394531 L 620.621094 679.394531 Z M 620.621094 677.15625 " fill-opacity="1" fill-rule="nonzero"/></g><g clip-path="url(#9030fa9e3f)"><path fill="#708ba6" d="M 611.667969 677.15625 L 616.140625 677.15625 L 616.140625 679.394531 L 611.667969 679.394531 Z M 611.667969 677.15625 " fill-opacity="1" fill-rule="nonzero"/></g><g clip-path="url(#a21ad8e9c7)"><path fill="#708ba6" d="M 602.707031 677.15625 L 607.1875 677.15625 L 607.1875 679.394531 L 602.707031 679.394531 Z M 602.707031 677.15625 " fill-opacity="1" fill-rule="nonzero"/></g><g clip-path="url(#0dbf8a5747)"><path fill="#708ba6" d="M 593.761719 677.15625 L 598.234375 677.15625 L 598.234375 679.394531 L 593.761719 679.394531 Z M 593.761719 677.15625 " fill-opacity="1" fill-rule="nonzero"/></g><g clip-path="url(#37d4f00692)"><path fill="#708ba6" d="M 584.800781 677.15625 L 589.28125 677.15625 L 589.28125 679.394531 L 584.800781 679.394531 Z M 584.800781 677.15625 " fill-opacity="1" fill-rule="nonzero"/></g><g clip-path="url(#d7f61cd640)"><path fill="#708ba6" d="M 575.808594 677.15625 L 580.289062 677.15625 L 580.289062 679.394531 L 575.808594 679.394531 Z M 575.808594 677.15625 " fill-opacity="1" fill-rule="nonzero"/></g><g clip-path="url(#b26e8f6b6e)"><path fill="#708ba6" d="M 508.34375 679.394531 L 508.34375 677.160156 L 512.820312 677.160156 L 512.820312 679.394531 Z M 499.386719 679.394531 L 499.386719 677.160156 L 503.863281 677.160156 L 503.863281 679.394531 Z M 490.429688 679.394531 L 490.429688 677.160156 L 494.910156 677.160156 L 494.910156 679.394531 Z M 481.472656 679.394531 L 481.472656 677.160156 L 485.949219 677.160156 L 485.949219 679.394531 Z M 472.515625 679.394531 L 472.515625 677.160156 L 476.996094 677.160156 L 476.996094 679.394531 Z M 463.558594 679.394531 L 463.558594 677.160156 L 468.035156 677.160156 L 468.035156 679.394531 Z M 454.597656 679.394531 L 454.597656 677.160156 L 459.082031 677.160156 L 459.082031 679.394531 Z M 445.648438 679.394531 L 445.648438 677.160156 L 450.121094 677.160156 L 450.121094 679.394531 Z M 436.691406 679.394531 L 436.691406 677.160156 L 441.167969 677.160156 L 441.167969 679.394531 Z M 427.734375 679.394531 L 427.734375 677.160156 L 432.210938 677.160156 L 432.210938 679.394531 Z M 418.777344 679.394531 L 418.777344 677.160156 L 423.253906 677.160156 L 423.253906 679.394531 Z M 418.777344 679.394531 " fill-opacity="1" fill-rule="nonzero"/></g><path fill="#4b5f73" d="M 499.167969 166.464844 L 532.585938 166.464844 L 532.585938 168.699219 L 499.167969 168.699219 Z M 499.167969 166.464844 " fill-opacity="1" fill-rule="nonzero"/><path fill="#4b5f73" d="M 514.757812 342.792969 L 514.757812 166.707031 L 516.992188 166.707031 L 516.992188 225.785156 L 516.996094 342.792969 Z M 514.757812 342.792969 " fill-opacity="1" fill-rule="nonzero"/><path fill="#4b5f73" d="M 569.074219 247.410156 L 594.863281 247.410156 L 594.863281 249.648438 L 569.074219 249.648438 Z M 569.074219 247.410156 " fill-opacity="1" fill-rule="nonzero"/><g clip-path="url(#c18ffd8b9e)"><path fill="#4b5f73" d="M 514.757812 390.027344 L 516.996094 390.027344 L 516.996094 679.394531 L 514.757812 679.394531 Z M 514.757812 390.027344 " fill-opacity="1" fill-rule="nonzero"/></g><path fill="#708ba6" d="M 676.34375 166.460938 L 680.824219 166.460938 L 680.824219 168.699219 L 676.34375 168.699219 Z M 676.34375 166.460938 " fill-opacity="1" fill-rule="nonzero"/><path fill="#708ba6" d="M 667.386719 166.460938 L 671.867188 166.460938 L 671.867188 168.699219 L 667.386719 168.699219 Z M 667.386719 166.460938 " fill-opacity="1" fill-rule="nonzero"/><path fill="#708ba6" d="M 658.429688 166.460938 L 662.910156 166.460938 L 662.910156 168.699219 L 658.429688 168.699219 Z M 658.429688 166.460938 " fill-opacity="1" fill-rule="nonzero"/><path fill="#708ba6" d="M 649.472656 166.460938 L 653.953125 166.460938 L 653.953125 168.699219 L 649.472656 168.699219 Z M 649.472656 166.460938 " fill-opacity="1" fill-rule="nonzero"/><path fill="#708ba6" d="M 640.515625 166.460938 L 644.992188 166.460938 L 644.992188 168.699219 L 640.515625 168.699219 Z M 640.515625 166.460938 " fill-opacity="1" fill-rule="nonzero"/><path fill="#708ba6" d="M 631.558594 166.460938 L 636.035156 166.460938 L 636.035156 168.699219 L 631.558594 168.699219 Z M 631.558594 166.460938 " fill-opacity="1" fill-rule="nonzero"/><path fill="#708ba6" d="M 622.601562 166.460938 L 627.078125 166.460938 L 627.078125 168.699219 L 622.601562 168.699219 Z M 622.601562 166.460938 " fill-opacity="1" fill-rule="nonzero"/><path fill="#708ba6" d="M 613.644531 166.460938 L 618.121094 166.460938 L 618.121094 168.699219 L 613.644531 168.699219 Z M 613.644531 166.460938 " fill-opacity="1" fill-rule="nonzero"/><path fill="#708ba6" d="M 604.6875 166.460938 L 609.164062 166.460938 L 609.164062 168.699219 L 604.6875 168.699219 Z M 604.6875 166.460938 " fill-opacity="1" fill-rule="nonzero"/><path fill="#708ba6" d="M 595.726562 166.460938 L 600.207031 166.460938 L 600.207031 168.699219 L 595.726562 168.699219 Z M 595.726562 166.460938 " fill-opacity="1" fill-rule="nonzero"/><path fill="#708ba6" d="M 586.773438 166.460938 L 591.253906 166.460938 L 591.253906 168.699219 L 586.773438 168.699219 Z M 586.773438 166.460938 " fill-opacity="1" fill-rule="nonzero"/><path fill="#708ba6" d="M 577.816406 166.460938 L 582.296875 166.460938 L 582.296875 168.699219 L 577.816406 168.699219 Z M 577.816406 166.460938 " fill-opacity="1" fill-rule="nonzero"/><path fill="#708ba6" d="M 568.859375 166.460938 L 573.335938 166.460938 L 573.335938 168.699219 L 568.859375 168.699219 Z M 568.859375 166.460938 " fill-opacity="1" fill-rule="nonzero"/><path fill="#708ba6" d="M 559.902344 166.460938 L 564.382812 166.460938 L 564.382812 168.699219 L 559.902344 168.699219 Z M 559.902344 166.460938 " fill-opacity="1" fill-rule="nonzero"/><path fill="#708ba6" d="M 550.945312 166.460938 L 555.421875 166.460938 L 555.421875 168.699219 L 550.945312 168.699219 Z M 550.945312 166.460938 " fill-opacity="1" fill-rule="nonzero"/><path fill="#708ba6" d="M 541.96875 166.460938 L 546.445312 166.460938 L 546.445312 168.699219 L 541.96875 168.699219 Z M 541.96875 166.460938 " fill-opacity="1" fill-rule="nonzero"/><path fill="#708ba6" d="M 676.367188 341.882812 L 680.824219 341.882812 L 680.824219 344.121094 L 676.367188 344.121094 Z M 676.367188 341.882812 " fill-opacity="1" fill-rule="nonzero"/><path fill="#708ba6" d="M 667.40625 341.882812 L 671.886719 341.882812 L 671.886719 344.121094 L 667.40625 344.121094 Z M 667.40625 341.882812 " fill-opacity="1" fill-rule="nonzero"/><path fill="#708ba6" d="M 658.449219 341.882812 L 662.929688 341.882812 L 662.929688 344.121094 L 658.449219 344.121094 Z M 658.449219 341.882812 " fill-opacity="1" fill-rule="nonzero"/><path fill="#708ba6" d="M 649.492188 341.882812 L 653.96875 341.882812 L 653.96875 344.121094 L 649.492188 344.121094 Z M 649.492188 341.882812 " fill-opacity="1" fill-rule="nonzero"/><path fill="#708ba6" d="M 640.535156 341.882812 L 645.011719 341.882812 L 645.011719 344.121094 L 640.535156 344.121094 Z M 640.535156 341.882812 " fill-opacity="1" fill-rule="nonzero"/><path fill="#708ba6" d="M 631.578125 341.882812 L 636.054688 341.882812 L 636.054688 344.121094 L 631.578125 344.121094 Z M 631.578125 341.882812 " fill-opacity="1" fill-rule="nonzero"/><path fill="#708ba6" d="M 622.625 341.882812 L 627.097656 341.882812 L 627.097656 344.121094 L 622.625 344.121094 Z M 622.625 341.882812 " fill-opacity="1" fill-rule="nonzero"/><path fill="#708ba6" d="M 613.664062 341.882812 L 618.144531 341.882812 L 618.144531 344.121094 L 613.664062 344.121094 Z M 613.664062 341.882812 " fill-opacity="1" fill-rule="nonzero"/><path fill="#708ba6" d="M 604.707031 341.882812 L 609.1875 341.882812 L 609.1875 344.121094 L 604.707031 344.121094 Z M 604.707031 341.882812 " fill-opacity="1" fill-rule="nonzero"/><path fill="#708ba6" d="M 595.75 341.882812 L 600.230469 341.882812 L 600.230469 344.121094 L 595.75 344.121094 Z M 595.75 341.882812 " fill-opacity="1" fill-rule="nonzero"/><path fill="#708ba6" d="M 586.871094 341.882812 L 591.351562 341.882812 L 591.351562 344.121094 L 586.871094 344.121094 Z M 586.871094 341.882812 " fill-opacity="1" fill-rule="nonzero"/><path fill="#708ba6" d="M 577.914062 341.882812 L 582.394531 341.882812 L 582.394531 344.121094 L 577.914062 344.121094 Z M 577.914062 341.882812 " fill-opacity="1" fill-rule="nonzero"/><path fill="#708ba6" d="M 676.351562 247.410156 L 680.824219 247.410156 L 680.824219 249.648438 L 676.351562 249.648438 Z M 676.351562 247.410156 " fill-opacity="1" fill-rule="nonzero"/><path fill="#708ba6" d="M 667.390625 247.410156 L 671.871094 247.410156 L 671.871094 249.648438 L 667.390625 249.648438 Z M 667.390625 247.410156 " fill-opacity="1" fill-rule="nonzero"/><path fill="#708ba6" d="M 658.4375 247.410156 L 662.914062 247.410156 L 662.914062 249.648438 L 658.4375 249.648438 Z M 658.4375 247.410156 " fill-opacity="1" fill-rule="nonzero"/><path fill="#708ba6" d="M 649.476562 247.410156 L 653.957031 247.410156 L 653.957031 249.648438 L 649.476562 249.648438 Z M 649.476562 247.410156 " fill-opacity="1" fill-rule="nonzero"/><path fill="#708ba6" d="M 640.523438 247.410156 L 645 247.410156 L 645 249.648438 L 640.523438 249.648438 Z M 640.523438 247.410156 " fill-opacity="1" fill-rule="nonzero"/><path fill="#708ba6" d="M 631.5625 247.410156 L 636.039062 247.410156 L 636.039062 249.648438 L 631.5625 249.648438 Z M 631.5625 247.410156 " fill-opacity="1" fill-rule="nonzero"/><path fill="#708ba6" d="M 622.609375 247.410156 L 627.082031 247.410156 L 627.082031 249.648438 L 622.609375 249.648438 Z M 622.609375 247.410156 " fill-opacity="1" fill-rule="nonzero"/><path fill="#708ba6" d="M 613.652344 247.410156 L 618.132812 247.410156 L 618.132812 249.648438 L 613.652344 249.648438 Z M 613.652344 247.410156 " fill-opacity="1" fill-rule="nonzero"/><path fill="#708ba6" d="M 604.695312 247.410156 L 609.171875 247.410156 L 609.171875 249.648438 L 604.695312 249.648438 Z M 604.695312 247.410156 " fill-opacity="1" fill-rule="nonzero"/><path fill="#708ba6" d="M 677.050781 296.367188 L 680.824219 296.367188 L 680.824219 298.605469 L 677.050781 298.605469 Z M 677.050781 296.367188 " fill-opacity="1" fill-rule="nonzero"/><path fill="#708ba6" d="M 668.09375 296.367188 L 672.574219 296.367188 L 672.574219 298.605469 L 668.09375 298.605469 Z M 668.09375 296.367188 " fill-opacity="1" fill-rule="nonzero"/><path fill="#708ba6" d="M 659.136719 296.367188 L 663.617188 296.367188 L 663.617188 298.605469 L 659.136719 298.605469 Z M 659.136719 296.367188 " fill-opacity="1" fill-rule="nonzero"/><path fill="#708ba6" d="M 650.175781 296.367188 L 654.65625 296.367188 L 654.65625 298.605469 L 650.175781 298.605469 Z M 650.175781 296.367188 " fill-opacity="1" fill-rule="nonzero"/><path fill="#708ba6" d="M 641.222656 296.367188 L 645.699219 296.367188 L 645.699219 298.605469 L 641.222656 298.605469 Z M 641.222656 296.367188 " fill-opacity="1" fill-rule="nonzero"/><path fill="#708ba6" d="M 632.261719 296.367188 L 636.742188 296.367188 L 636.742188 298.605469 L 632.261719 298.605469 Z M 632.261719 296.367188 " fill-opacity="1" fill-rule="nonzero"/><path fill="#708ba6" d="M 623.308594 296.367188 L 627.785156 296.367188 L 627.785156 298.605469 L 623.308594 298.605469 Z M 623.308594 296.367188 " fill-opacity="1" fill-rule="nonzero"/><path fill="#708ba6" d="M 614.355469 296.367188 L 618.828125 296.367188 L 618.828125 298.605469 L 614.355469 298.605469 Z M 614.355469 296.367188 " fill-opacity="1" fill-rule="nonzero"/><path fill="#708ba6" d="M 605.394531 296.367188 L 609.871094 296.367188 L 609.871094 298.605469 L 605.394531 298.605469 Z M 605.394531 296.367188 " fill-opacity="1" fill-rule="nonzero"/><path fill="#708ba6" d="M 596.4375 296.367188 L 600.917969 296.367188 L 600.917969 298.605469 L 596.4375 298.605469 Z M 596.4375 296.367188 " fill-opacity="1" fill-rule="nonzero"/><path fill="#708ba6" d="M 587.480469 296.367188 L 591.957031 296.367188 L 591.957031 298.605469 L 587.480469 298.605469 Z M 587.480469 296.367188 " fill-opacity="1" fill-rule="nonzero"/><path fill="#708ba6" d="M 578.523438 296.367188 L 583 296.367188 L 583 298.605469 L 578.523438 298.605469 Z M 578.523438 296.367188 " fill-opacity="1" fill-rule="nonzero"/><path fill="#708ba6" d="M 569.570312 296.367188 L 574.046875 296.367188 L 574.046875 298.605469 L 569.570312 298.605469 Z M 569.570312 296.367188 " fill-opacity="1" fill-rule="nonzero"/><g clip-path="url(#3d4e72451d)"><path fill="#4b5f73" d="M 570.222656 679.394531 L 570.222656 344.117188 L 461.402344 344.117188 L 461.410156 504.179688 L 459.164062 504.179688 L 459.164062 341.882812 L 572.460938 341.882812 L 572.460938 679.394531 Z M 570.222656 679.394531 " fill-opacity="1" fill-rule="nonzero"/></g><path fill="#708ba6" d="M 459.164062 562.316406 L 459.164062 557.832031 L 461.402344 557.832031 L 461.402344 562.316406 Z M 459.164062 553.355469 L 459.164062 548.878906 L 461.402344 548.878906 L 461.402344 553.355469 Z M 459.164062 544.402344 L 459.164062 539.925781 L 461.402344 539.925781 L 461.402344 544.402344 Z M 459.164062 535.445312 L 459.164062 530.96875 L 461.402344 530.96875 L 461.402344 535.445312 Z M 459.164062 526.496094 L 459.164062 522.015625 L 461.402344 522.015625 L 461.402344 526.496094 Z M 459.164062 517.539062 L 459.164062 513.0625 L 461.402344 513.0625 L 461.402344 517.539062 Z M 459.164062 517.539062 " fill-opacity="1" fill-rule="nonzero"/><g clip-path="url(#6bb971df37)"><path fill="#ecbbb4" d="M 351.007812 378.867188 C 348.53125 373.175781 344.484375 361.894531 342.804688 357.144531 C 340.386719 349 336.785156 335.410156 333.640625 317.648438 C 328.324219 287.613281 325.871094 287.480469 319.777344 275.164062 C 313.679688 262.847656 306.644531 232.414062 304.757812 218.191406 C 302.0625 191.957031 293.148438 186.007812 282.164062 183.792969 C 281.914062 183.742188 281.667969 183.691406 281.421875 183.640625 L 279.921875 183.335938 C 269.769531 181.25 256.503906 176.695312 250.183594 169.964844 C 249.738281 169.488281 249.371094 168.960938 249.070312 168.402344 C 247.722656 164.847656 247.957031 160.199219 247.976562 159.8125 C 251.226562 156.449219 253.621094 152.410156 255.136719 149.394531 C 256.554688 146.824219 257.097656 144.964844 257.097656 144.964844 C 258.894531 145.332031 260.507812 144.382812 261.398438 142.710938 C 262.375 140.871094 264.261719 136.960938 265.453125 132.578125 C 266.988281 126.945312 264.082031 125.402344 262.039062 126.230469 C 262.039062 126.230469 265.007812 117.0625 264.433594 106.296875 C 263.460938 87.964844 250.640625 74.992188 232.28125 74.992188 C 213.921875 74.992188 201.101562 87.964844 200.128906 106.296875 C 199.554688 117.0625 202.527344 126.230469 202.527344 126.230469 C 200.480469 125.402344 197.574219 126.945312 199.109375 132.578125 C 200.304688 136.960938 202.1875 140.871094 203.164062 142.710938 C 204.054688 144.382812 205.667969 145.332031 207.46875 144.964844 C 207.46875 144.964844 208.007812 146.824219 209.425781 149.394531 C 210.945312 152.410156 213.339844 156.449219 216.589844 159.8125 C 216.609375 160.199219 216.84375 164.847656 215.496094 168.402344 C 215.195312 168.957031 214.828125 169.488281 214.382812 169.964844 C 208.0625 176.695312 194.796875 181.25 184.644531 183.335938 L 183.144531 183.640625 C 182.898438 183.691406 182.648438 183.742188 182.402344 183.792969 C 171.414062 186.007812 162.496094 191.957031 159.804688 218.191406 C 157.917969 232.414062 150.878906 262.847656 144.785156 275.164062 C 138.691406 287.480469 136.234375 287.613281 130.921875 317.648438 C 128.042969 333.914062 124.78125 346.671875 122.394531 354.964844 C 122.296875 355.242188 116.585938 371.605469 113.425781 378.867188 C 112.269531 381.519531 113.617188 383.929688 113.617188 383.929688 L 116.117188 394.171875 C 116.117188 394.171875 116.054688 397.402344 116.164062 400.535156 C 116.28125 403.839844 122 408.246094 122 408.246094 C 123.289062 410.71875 127.457031 418.574219 128.464844 419.902344 C 129.167969 420.828125 130.472656 419.449219 130.789062 418.628906 C 131.1875 417.605469 131.425781 416.148438 130.691406 414.261719 C 131.144531 414.585938 132.226562 414.101562 132.410156 412.894531 C 132.722656 410.832031 131.566406 406.351562 129.148438 404.289062 C 129.148438 404.289062 128.28125 400.664062 126.511719 396.910156 C 126.5 396.882812 126.480469 396.863281 126.46875 396.835938 C 126.484375 396.695312 126.5 396.554688 126.511719 396.410156 C 126.734375 393.25 126.726562 390.625 126.613281 388.492188 C 127.105469 387.1875 127.5625 385.828125 127.921875 384.507812 C 129.402344 379.09375 131.210938 379.960938 131.507812 383.285156 C 131.914062 387.757812 132.847656 390.851562 132.847656 390.851562 C 132.847656 390.851562 132.546875 394.273438 133.433594 396.949219 C 133.953125 398.519531 134.792969 399.617188 135.980469 400.257812 C 137.070312 400.851562 139.199219 400.59375 139.335938 398.988281 C 139.46875 397.457031 139.304688 394.058594 139.304688 393.6875 C 139.300781 391.515625 139.351562 389.183594 139.761719 387.316406 C 140.730469 382.980469 141.210938 377.117188 140.824219 374.273438 C 140.179688 369.484375 138.519531 358.765625 138.519531 358.765625 C 139.40625 355.222656 141.792969 347.503906 147.855469 335.21875 C 157.625 315.417969 165.140625 302.121094 166.863281 289.621094 C 167.863281 282.382812 179.195312 249.449219 183.164062 232.160156 L 184.339844 232.160156 C 185.871094 248.695312 190.457031 307.855469 189.796875 312.007812 C 189.246094 315.488281 181.867188 373.570312 181.867188 389.199219 C 181.867188 432.9375 193.921875 505.222656 192.144531 514.609375 C 187.863281 537.285156 184.507812 555.238281 191.46875 585.621094 C 193.503906 594.5 205.3125 645.863281 206.8125 655.351562 C 207.078125 657.007812 205.929688 661.546875 205.929688 661.546875 L 197.191406 673.226562 C 197.191406 673.226562 192.835938 673.425781 191.789062 675.398438 C 190.660156 677.527344 191.992188 678.800781 192.722656 678.800781 L 223.863281 678.800781 C 225.0625 678.800781 225.980469 678.152344 225.980469 674.554688 C 225.980469 670.863281 225.152344 659.816406 225.152344 659.816406 L 225.539062 617.265625 C 225.792969 607.671875 226.960938 581.042969 227.058594 578.539062 C 228.179688 550.058594 224.335938 535.460938 224.335938 527.582031 C 224.335938 518.96875 226.753906 510.707031 226.753906 487.675781 C 226.753906 474.609375 226.859375 388.976562 226.859375 388.976562 L 237.710938 388.976562 C 237.710938 388.976562 237.816406 474.609375 237.816406 487.675781 C 237.816406 510.707031 240.234375 518.96875 240.234375 527.582031 C 240.234375 535.460938 236.390625 550.058594 237.511719 578.539062 C 237.609375 581.042969 238.773438 607.671875 239.03125 617.265625 L 239.417969 659.816406 C 239.417969 659.816406 238.589844 670.863281 238.589844 674.554688 C 238.589844 678.152344 239.507812 678.800781 240.707031 678.800781 L 271.847656 678.800781 C 272.574219 678.800781 273.910156 677.527344 272.78125 675.398438 C 271.734375 673.421875 267.378906 673.226562 267.378906 673.226562 L 258.640625 661.546875 C 258.640625 661.546875 257.492188 657.007812 257.757812 655.351562 C 259.253906 645.863281 271.066406 594.5 273.101562 585.621094 C 280.0625 555.238281 276.707031 537.285156 272.425781 514.609375 C 270.652344 505.222656 282.703125 432.9375 282.703125 389.199219 C 282.703125 373.570312 275.324219 315.484375 274.769531 312.007812 C 274.113281 307.855469 278.699219 248.695312 280.230469 232.160156 L 281.40625 232.160156 C 285.375 249.449219 296.707031 282.382812 297.707031 289.621094 C 299.429688 302.121094 306.945312 315.417969 316.714844 335.21875 C 322.761719 347.472656 325.148438 355.179688 326.042969 358.738281 L 325.917969 358.765625 C 325.917969 358.765625 324.257812 369.484375 323.613281 374.273438 C 323.230469 377.117188 323.710938 382.980469 324.675781 387.316406 C 325.089844 389.1875 325.136719 391.515625 325.132812 393.6875 C 325.132812 394.058594 324.972656 397.457031 325.105469 398.988281 C 325.242188 400.59375 327.367188 400.851562 328.457031 400.257812 C 329.644531 399.617188 330.484375 398.519531 331.007812 396.949219 C 331.894531 394.273438 331.589844 390.851562 331.589844 390.851562 C 331.589844 390.851562 332.527344 387.757812 332.929688 383.285156 C 333.230469 379.960938 335.039062 379.09375 336.515625 384.507812 C 336.875 385.828125 337.335938 387.1875 337.824219 388.492188 C 337.710938 390.625 337.707031 393.25 337.929688 396.410156 C 337.9375 396.554688 337.953125 396.695312 337.972656 396.835938 C 337.957031 396.863281 337.941406 396.882812 337.929688 396.910156 C 336.15625 400.664062 335.292969 404.289062 335.292969 404.289062 C 332.875 406.351562 331.714844 410.832031 332.03125 412.894531 C 332.210938 414.101562 333.292969 414.585938 333.746094 414.261719 C 333.011719 416.148438 333.253906 417.609375 333.648438 418.628906 C 333.964844 419.449219 335.269531 420.828125 335.972656 419.902344 C 336.980469 418.574219 341.148438 410.71875 342.4375 408.246094 C 342.4375 408.246094 348.15625 403.839844 348.273438 400.535156 C 348.382812 397.402344 348.320312 394.171875 348.320312 394.171875 L 350.820312 383.929688 C 350.8125 383.933594 352.164062 381.519531 351.007812 378.867188 Z M 351.007812 378.867188 " fill-opacity="1" fill-rule="nonzero"/></g><path fill="#ffffff" d="M 278.496094 342.195312 L 186.066406 342.195312 L 182.714844 372.988281 L 226.855469 388.980469 L 237.707031 388.980469 L 281.847656 372.988281 Z M 278.496094 342.195312 " fill-opacity="1" fill-rule="nonzero"/><path fill="#d6a39d" d="M 200.457031 241.140625 C 198.820312 241.140625 197.488281 242.265625 197.488281 243.65625 C 197.488281 245.042969 198.820312 246.171875 200.457031 246.171875 C 202.097656 246.171875 203.429688 245.042969 203.429688 243.65625 C 203.425781 242.265625 202.097656 241.140625 200.457031 241.140625 Z M 263.972656 241.140625 C 262.332031 241.140625 261.003906 242.265625 261.003906 243.65625 C 261.003906 245.042969 262.332031 246.171875 263.972656 246.171875 C 265.609375 246.171875 266.941406 245.042969 266.941406 243.65625 C 266.941406 242.265625 265.609375 241.140625 263.972656 241.140625 Z M 263.972656 241.140625 " fill-opacity="1" fill-rule="nonzero"/><path fill="#4b5f73" d="M 164.933594 185.441406 L 209.953125 168.28125 L 210.75 170.367188 L 165.734375 187.535156 Z M 164.933594 185.441406 " fill-opacity="1" fill-rule="nonzero"/><path fill="#708ba6" d="M 124.082031 201.039062 L 128.265625 199.441406 L 129.0625 201.535156 L 124.882812 203.132812 Z M 132.449219 197.84375 L 136.632812 196.246094 L 137.429688 198.335938 L 133.246094 199.933594 Z M 140.816406 194.644531 L 145 193.046875 L 145.796875 195.140625 L 141.613281 196.738281 Z M 149.183594 191.449219 L 153.367188 189.851562 L 154.164062 191.941406 L 149.980469 193.535156 Z M 157.550781 188.25 L 161.734375 186.652344 L 162.53125 188.746094 L 158.347656 190.34375 Z M 157.550781 188.25 " fill-opacity="1" fill-rule="nonzero"/><g clip-path="url(#0a6f78b12c)"><path fill="#4b5f73" d="M 189.8125 314.757812 L 192.050781 314.757812 L 192.050781 679.394531 L 189.8125 679.394531 Z M 189.8125 314.757812 " fill-opacity="1" fill-rule="nonzero"/></g><path fill="#708ba6" d="M 181.265625 656.007812 L 181.265625 653.769531 L 185.742188 653.769531 L 185.742188 656.007812 Z M 172.304688 656.007812 L 172.304688 653.769531 L 176.789062 653.769531 L 176.789062 656.007812 Z M 163.347656 656.007812 L 163.347656 653.769531 L 167.828125 653.769531 L 167.828125 656.007812 Z M 154.390625 656.007812 L 154.390625 653.769531 L 158.871094 653.769531 L 158.871094 656.007812 Z M 145.433594 656.007812 L 145.433594 653.769531 L 149.914062 653.769531 L 149.914062 656.007812 Z M 136.472656 656.007812 L 136.472656 653.769531 L 140.957031 653.769531 L 140.957031 656.007812 Z M 127.519531 656.007812 L 127.519531 653.769531 L 131.996094 653.769531 L 131.996094 656.007812 Z M 118.5625 656.007812 L 118.5625 653.769531 L 123.042969 653.769531 L 123.042969 656.007812 Z M 109.605469 656.007812 L 109.605469 653.769531 L 114.082031 653.769531 L 114.082031 656.007812 Z M 100.648438 656.007812 L 100.648438 653.769531 L 105.128906 653.769531 L 105.128906 656.007812 Z M 91.691406 656.007812 L 91.691406 653.769531 L 96.167969 653.769531 L 96.167969 656.007812 Z M 82.734375 656.007812 L 82.734375 653.769531 L 87.214844 653.769531 L 87.214844 656.007812 Z M 73.78125 656.007812 L 73.78125 653.769531 L 78.257812 653.769531 L 78.257812 656.007812 Z M 64.820312 656.007812 L 64.820312 653.769531 L 69.296875 653.769531 L 69.296875 656.007812 Z M 64.820312 656.007812 " fill-opacity="1" fill-rule="nonzero"/><path fill="#708ba6" d="M 199.171875 653.769531 L 203.65625 653.769531 L 203.65625 656.007812 L 199.171875 656.007812 Z M 199.171875 653.769531 " fill-opacity="1" fill-rule="nonzero"/><path fill="#708ba6" d="M 190.21875 653.769531 L 194.695312 653.769531 L 194.695312 656.007812 L 190.21875 656.007812 Z M 190.21875 653.769531 " fill-opacity="1" fill-rule="nonzero"/><g clip-path="url(#f9cc95f417)"><path fill="#708ba6" d="M 181.265625 679.394531 L 181.265625 677.15625 L 185.742188 677.15625 L 185.742188 679.394531 Z M 172.304688 679.394531 L 172.304688 677.15625 L 176.789062 677.15625 L 176.789062 679.394531 Z M 163.347656 679.394531 L 163.347656 677.15625 L 167.828125 677.15625 L 167.828125 679.394531 Z M 154.390625 679.394531 L 154.390625 677.15625 L 158.871094 677.15625 L 158.871094 679.394531 Z M 145.433594 679.394531 L 145.433594 677.15625 L 149.914062 677.15625 L 149.914062 679.394531 Z M 136.472656 679.394531 L 136.472656 677.15625 L 140.957031 677.15625 L 140.957031 679.394531 Z M 127.519531 679.394531 L 127.519531 677.15625 L 131.996094 677.15625 L 131.996094 679.394531 Z M 118.5625 679.394531 L 118.5625 677.15625 L 123.042969 677.15625 L 123.042969 679.394531 Z M 109.605469 679.394531 L 109.605469 677.15625 L 114.082031 677.15625 L 114.082031 679.394531 Z M 100.648438 679.394531 L 100.648438 677.15625 L 105.128906 677.15625 L 105.128906 679.394531 Z M 91.691406 679.394531 L 91.691406 677.15625 L 96.167969 677.15625 L 96.167969 679.394531 Z M 82.734375 679.394531 L 82.734375 677.15625 L 87.214844 677.15625 L 87.214844 679.394531 Z M 73.78125 679.394531 L 73.78125 677.15625 L 78.257812 677.15625 L 78.257812 679.394531 Z M 64.820312 679.394531 L 64.820312 677.15625 L 69.296875 677.15625 L 69.296875 679.394531 Z M 64.820312 679.394531 " fill-opacity="1" fill-rule="nonzero"/></g><path fill="#708ba6" d="M 181.265625 507.113281 L 181.265625 504.875 L 185.742188 504.875 L 185.742188 507.113281 Z M 172.304688 507.113281 L 172.304688 504.875 L 176.789062 504.875 L 176.789062 507.113281 Z M 163.347656 507.113281 L 163.347656 504.875 L 167.828125 504.875 L 167.828125 507.113281 Z M 154.390625 507.113281 L 154.390625 504.875 L 158.871094 504.875 L 158.871094 507.113281 Z M 145.433594 507.113281 L 145.433594 504.875 L 149.914062 504.875 L 149.914062 507.113281 Z M 136.472656 507.113281 L 136.472656 504.875 L 140.957031 504.875 L 140.957031 507.113281 Z M 127.519531 507.113281 L 127.519531 504.875 L 131.996094 504.875 L 131.996094 507.113281 Z M 118.5625 507.113281 L 118.5625 504.875 L 123.042969 504.875 L 123.042969 507.113281 Z M 109.605469 507.113281 L 109.605469 504.875 L 114.082031 504.875 L 114.082031 507.113281 Z M 100.648438 507.113281 L 100.648438 504.875 L 105.128906 504.875 L 105.128906 507.113281 Z M 91.691406 507.113281 L 91.691406 504.875 L 96.167969 504.875 L 96.167969 507.113281 Z M 82.734375 507.113281 L 82.734375 504.875 L 87.214844 504.875 L 87.214844 507.113281 Z M 73.78125 507.113281 L 73.78125 504.875 L 78.257812 504.875 L 78.257812 507.113281 Z M 64.820312 507.113281 L 64.820312 504.875 L 69.296875 504.875 L 69.296875 507.113281 Z M 64.820312 507.113281 " fill-opacity="1" fill-rule="nonzero"/><path fill="#708ba6" d="M 387.625 342.195312 L 392.101562 342.195312 L 392.101562 344.433594 L 387.625 344.433594 Z M 387.625 342.195312 " fill-opacity="1" fill-rule="nonzero"/><path fill="#708ba6" d="M 378.664062 342.195312 L 383.148438 342.195312 L 383.148438 344.433594 L 378.664062 344.433594 Z M 378.664062 342.195312 " fill-opacity="1" fill-rule="nonzero"/><path fill="#708ba6" d="M 369.710938 342.195312 L 374.1875 342.195312 L 374.1875 344.433594 L 369.710938 344.433594 Z M 369.710938 342.195312 " fill-opacity="1" fill-rule="nonzero"/><path fill="#708ba6" d="M 360.75 342.195312 L 365.230469 342.195312 L 365.230469 344.433594 L 360.75 344.433594 Z M 360.75 342.195312 " fill-opacity="1" fill-rule="nonzero"/><path fill="#708ba6" d="M 351.796875 342.195312 L 356.273438 342.195312 L 356.273438 344.433594 L 351.796875 344.433594 Z M 351.796875 342.195312 " fill-opacity="1" fill-rule="nonzero"/><path fill="#708ba6" d="M 342.835938 342.195312 L 347.320312 342.195312 L 347.320312 344.433594 L 342.835938 344.433594 Z M 342.835938 342.195312 " fill-opacity="1" fill-rule="nonzero"/><path fill="#708ba6" d="M 333.882812 342.195312 L 338.359375 342.195312 L 338.359375 344.433594 L 333.882812 344.433594 Z M 333.882812 342.195312 " fill-opacity="1" fill-rule="nonzero"/><path fill="#708ba6" d="M 324.925781 342.195312 L 329.402344 342.195312 L 329.402344 344.433594 L 324.925781 344.433594 Z M 324.925781 342.195312 " fill-opacity="1" fill-rule="nonzero"/><path fill="#708ba6" d="M 315.96875 342.195312 L 320.445312 342.195312 L 320.445312 344.433594 L 315.96875 344.433594 Z M 315.96875 342.195312 " fill-opacity="1" fill-rule="nonzero"/><path fill="#708ba6" d="M 307.011719 342.195312 L 311.488281 342.195312 L 311.488281 344.433594 L 307.011719 344.433594 Z M 307.011719 342.195312 " fill-opacity="1" fill-rule="nonzero"/><path fill="#708ba6" d="M 298.054688 342.195312 L 302.53125 342.195312 L 302.53125 344.433594 L 298.054688 344.433594 Z M 298.054688 342.195312 " fill-opacity="1" fill-rule="nonzero"/><path fill="#708ba6" d="M 289.097656 342.195312 L 293.574219 342.195312 L 293.574219 344.433594 L 289.097656 344.433594 Z M 289.097656 342.195312 " fill-opacity="1" fill-rule="nonzero"/><path fill="#4b5f73" d="M 192.183594 504.875 L 226.199219 504.875 L 226.199219 507.113281 L 192.183594 507.113281 Z M 192.183594 504.875 " fill-opacity="1" fill-rule="nonzero"/><g clip-path="url(#06fd9558af)"><path fill="#4b5f73" d="M 63.699219 75.839844 L 65.941406 75.839844 L 65.941406 679.488281 L 63.699219 679.488281 Z M 63.699219 75.839844 " fill-opacity="1" fill-rule="nonzero"/></g><path fill="#4b5f73" d="M 106.386719 367.640625 L 159.503906 194.667969 L 161.648438 195.320312 L 108.53125 368.296875 Z M 106.386719 367.640625 " fill-opacity="1" fill-rule="nonzero"/><path fill="#708ba6" d="M 88.335938 426.480469 L 89.652344 422.199219 L 91.785156 422.859375 L 90.476562 427.140625 Z M 90.960938 417.921875 L 92.277344 413.640625 L 94.417969 414.296875 L 93.105469 418.578125 Z M 93.589844 409.359375 L 94.90625 405.078125 L 97.050781 405.734375 L 95.734375 410.015625 Z M 96.222656 400.792969 L 97.535156 396.515625 L 99.675781 397.175781 L 98.359375 401.457031 Z M 98.847656 392.234375 L 100.164062 387.953125 L 102.304688 388.609375 L 100.988281 392.890625 Z M 101.476562 383.671875 L 102.792969 379.390625 L 104.929688 380.050781 L 103.621094 384.335938 Z M 104.109375 375.117188 L 105.417969 370.839844 L 107.558594 371.492188 L 106.246094 375.777344 Z M 104.109375 375.117188 " fill-opacity="1" fill-rule="nonzero"/><path fill="#4b5f73" d="M 206.609375 653.769531 L 224.890625 653.769531 L 224.890625 656.007812 L 206.609375 656.007812 Z M 206.609375 653.769531 " fill-opacity="1" fill-rule="nonzero"/><path fill="#4b5f73" d="M 183.011719 231.8125 L 281.546875 231.8125 L 281.546875 234.050781 L 183.011719 234.050781 Z M 183.011719 231.8125 " fill-opacity="1" fill-rule="nonzero"/><path fill="#4b5f73" d="M 189.8125 310.351562 L 274.746094 310.351562 L 274.746094 312.589844 L 189.8125 312.589844 Z M 189.8125 310.351562 " fill-opacity="1" fill-rule="nonzero"/><path fill="#4b5f73" d="M 185.957031 342.195312 L 278.601562 342.195312 L 278.601562 344.429688 L 185.957031 344.429688 Z M 185.957031 342.195312 " fill-opacity="1" fill-rule="nonzero"/><path fill="#708ba6" d="M 389.371094 298.609375 L 389.371094 296.363281 L 392.101562 296.363281 L 392.101562 298.609375 Z M 380.414062 298.609375 L 380.414062 296.363281 L 384.890625 296.363281 L 384.890625 298.609375 Z M 371.460938 298.609375 L 371.460938 296.363281 L 375.933594 296.363281 L 375.933594 298.609375 Z M 362.5 298.609375 L 362.5 296.363281 L 366.980469 296.363281 L 366.980469 298.609375 Z M 353.542969 298.609375 L 353.542969 296.363281 L 358.023438 296.363281 L 358.023438 298.609375 Z M 344.589844 298.609375 L 344.589844 296.363281 L 349.066406 296.363281 L 349.066406 298.609375 Z M 335.632812 298.609375 L 335.632812 296.363281 L 340.105469 296.363281 L 340.105469 298.609375 Z M 326.667969 298.609375 L 326.667969 296.363281 L 331.152344 296.363281 L 331.152344 298.609375 Z M 317.714844 298.609375 L 317.714844 296.363281 L 322.195312 296.363281 L 322.195312 298.609375 Z M 308.757812 298.609375 L 308.757812 296.363281 L 313.238281 296.363281 L 313.238281 298.609375 Z M 299.800781 298.609375 L 299.800781 296.363281 L 304.28125 296.363281 L 304.28125 298.609375 Z M 290.847656 298.609375 L 290.847656 296.363281 L 295.320312 296.363281 L 295.320312 298.609375 Z M 290.847656 298.609375 " fill-opacity="1" fill-rule="nonzero"/><path fill="#4b5f73" d="M 325.589844 356.207031 L 342.527344 356.207031 L 342.527344 358.441406 L 325.589844 358.441406 Z M 325.589844 356.207031 " fill-opacity="1" fill-rule="nonzero"/><path fill="#708ba6" d="M 387.621094 234.164062 L 387.621094 231.929688 L 392.105469 231.929688 L 392.105469 234.164062 Z M 378.664062 234.164062 L 378.664062 231.929688 L 383.140625 231.929688 L 383.140625 234.164062 Z M 369.707031 234.164062 L 369.707031 231.929688 L 374.1875 231.929688 L 374.1875 234.164062 Z M 360.75 234.164062 L 360.75 231.929688 L 365.226562 231.929688 L 365.226562 234.164062 Z M 351.792969 234.164062 L 351.792969 231.929688 L 356.273438 231.929688 L 356.273438 234.164062 Z M 342.835938 234.164062 L 342.835938 231.929688 L 347.316406 231.929688 L 347.316406 234.164062 Z M 333.882812 234.164062 L 333.882812 231.929688 L 338.359375 231.929688 L 338.359375 234.164062 Z M 324.921875 234.164062 L 324.921875 231.929688 L 329.402344 231.929688 L 329.402344 234.164062 Z M 315.96875 234.164062 L 315.96875 231.929688 L 320.445312 231.929688 L 320.445312 234.164062 Z M 307.011719 234.164062 L 307.011719 231.929688 L 311.488281 231.929688 L 311.488281 234.164062 Z M 298.050781 234.164062 L 298.050781 231.929688 L 302.53125 231.929688 L 302.53125 234.164062 Z M 298.050781 234.164062 " fill-opacity="1" fill-rule="nonzero"/><path fill="#708ba6" d="M 387.859375 245 L 387.859375 242.765625 L 392.101562 242.765625 L 392.101562 245 Z M 378.902344 245 L 378.902344 242.765625 L 383.382812 242.765625 L 383.382812 245 Z M 369.945312 245 L 369.945312 242.765625 L 374.425781 242.765625 L 374.425781 245 Z M 360.988281 245 L 360.988281 242.765625 L 365.464844 242.765625 L 365.464844 245 Z M 352.035156 245 L 352.035156 242.765625 L 356.507812 242.765625 L 356.507812 245 Z M 343.078125 245 L 343.078125 242.765625 L 347.550781 242.765625 L 347.550781 245 Z M 334.117188 245 L 334.117188 242.765625 L 338.597656 242.765625 L 338.597656 245 Z M 325.160156 245 L 325.160156 242.765625 L 329.640625 242.765625 L 329.640625 245 Z M 316.207031 245 L 316.207031 242.765625 L 320.679688 242.765625 L 320.679688 245 Z M 307.25 245 L 307.25 242.765625 L 311.722656 242.765625 L 311.722656 245 Z M 298.289062 245 L 298.289062 242.765625 L 302.769531 242.765625 L 302.769531 245 Z M 298.289062 245 " fill-opacity="1" fill-rule="nonzero"/><path fill="#708ba6" d="M 387.859375 356.207031 L 392.101562 356.207031 L 392.101562 358.445312 L 387.859375 358.445312 Z M 387.859375 356.207031 " fill-opacity="1" fill-rule="nonzero"/><path fill="#708ba6" d="M 378.902344 356.207031 L 383.382812 356.207031 L 383.382812 358.445312 L 378.902344 358.445312 Z M 378.902344 356.207031 " fill-opacity="1" fill-rule="nonzero"/><path fill="#708ba6" d="M 369.945312 356.207031 L 374.425781 356.207031 L 374.425781 358.445312 L 369.945312 358.445312 Z M 369.945312 356.207031 " fill-opacity="1" fill-rule="nonzero"/><path fill="#708ba6" d="M 360.988281 356.207031 L 365.464844 356.207031 L 365.464844 358.445312 L 360.988281 358.445312 Z M 360.988281 356.207031 " fill-opacity="1" fill-rule="nonzero"/><path fill="#708ba6" d="M 352.035156 356.207031 L 356.507812 356.207031 L 356.507812 358.445312 L 352.035156 358.445312 Z M 352.035156 356.207031 " fill-opacity="1" fill-rule="nonzero"/><path fill="#4b5f73" d="M 185.515625 242.863281 L 279.046875 242.863281 L 279.046875 245.097656 L 185.515625 245.097656 Z M 185.515625 242.863281 " fill-opacity="1" fill-rule="nonzero"/></svg>