<svg xmlns="http://www.w3.org/2000/svg" xmlns:xlink="http://www.w3.org/1999/xlink" width="1000" zoomAndPan="magnify" viewBox="0 0 750 749.999995" height="1000" preserveAspectRatio="xMidYMid meet" version="1.0"><defs><clipPath id="74ef76e2cf"><path d="M 350 113.4375 L 435 113.4375 L 435 190 L 350 190 Z M 350 113.4375 " clip-rule="nonzero"/></clipPath><clipPath id="84a608211f"><path d="M 628 394 L 712.5 394 L 712.5 471 L 628 471 Z M 628 394 " clip-rule="nonzero"/></clipPath><clipPath id="9549976d5d"><path d="M 37.5 401 L 139 401 L 139 504 L 37.5 504 Z M 37.5 401 " clip-rule="nonzero"/></clipPath><clipPath id="6b4ee6e07f"><path d="M 182 267 L 548.925781 267 L 548.925781 636.558594 L 182 636.558594 Z M 182 267 " clip-rule="nonzero"/></clipPath><clipPath id="28b6293e89"><path d="M 443 198.820312 L 471 198.820312 L 471 227 L 443 227 Z M 443 198.820312 " clip-rule="nonzero"/></clipPath><clipPath id="422a9ac69d"><path d="M 557 519 L 572.03125 519 L 572.03125 534 L 557 534 Z M 557 519 " clip-rule="nonzero"/></clipPath><clipPath id="2d8db3df84"><path d="M 183 625 L 328 625 L 328 636.820312 L 183 636.820312 Z M 183 625 " clip-rule="nonzero"/></clipPath></defs><path fill="#004aad" d="M 167.679688 234.703125 L 154.308594 247.226562 L 169.625 264.15625 L 176.183594 271.28125 L 182.988281 264.410156 L 237.921875 207.945312 L 224.796875 194.9375 L 176.667969 244.527344 L 167.679688 234.703125 " fill-opacity="1" fill-rule="nonzero"/><path fill="#004aad" d="M 365.523438 223.164062 C 379.375 223.164062 392.015625 217.519531 401.25 208.191406 C 410.488281 199.113281 416.074219 186.34375 416.074219 172.105469 C 416.074219 167.199219 415.347656 162.53125 414.128906 158.113281 L 397.601562 174.804688 C 396.875 182.90625 393.472656 189.777344 388.367188 195.183594 C 382.53125 201.074219 374.515625 204.75 365.523438 204.75 C 356.527344 204.75 348.507812 201.074219 342.671875 195.183594 C 336.84375 189.289062 333.195312 181.191406 333.195312 172.105469 C 333.195312 163.023438 336.84375 154.921875 342.671875 149.03125 C 348.507812 143.136719 356.527344 139.453125 365.523438 139.453125 C 371.351562 139.453125 376.945312 141.167969 381.804688 143.875 L 394.929688 130.621094 C 386.667969 124.476562 376.457031 121.046875 365.523438 121.046875 C 351.425781 121.046875 338.785156 126.691406 329.789062 136.015625 C 320.554688 145.34375 314.96875 158.113281 314.96875 172.105469 C 314.96875 186.34375 320.554688 199.113281 329.789062 208.191406 C 338.785156 217.519531 351.425781 223.164062 365.523438 223.164062 " fill-opacity="1" fill-rule="nonzero"/><g clip-path="url(#74ef76e2cf)"><path fill="#004aad" d="M 364.304688 153.199219 L 350.933594 165.722656 L 366.496094 182.660156 L 373.054688 189.535156 L 379.613281 182.660156 L 434.792969 126.445312 L 421.667969 113.433594 L 373.296875 163.023438 L 364.304688 153.199219 " fill-opacity="1" fill-rule="nonzero"/></g><g clip-path="url(#84a608211f)"><path fill="#004aad" d="M 641.867188 434.527344 L 628.503906 447.050781 L 644.058594 463.988281 L 650.617188 470.859375 L 657.183594 463.988281 L 712.355469 407.773438 L 699.230469 394.761719 L 650.863281 444.34375 L 641.867188 434.527344 " fill-opacity="1" fill-rule="nonzero"/></g><path fill="#004aad" d="M 559.71875 234.703125 L 546.347656 247.226562 L 561.664062 264.15625 L 568.222656 271.28125 L 575.027344 264.410156 L 629.960938 207.945312 L 616.835938 194.9375 L 568.710938 244.527344 L 559.71875 234.703125 " fill-opacity="1" fill-rule="nonzero"/><g clip-path="url(#9549976d5d)"><path fill="#004aad" d="M 120.527344 451.957031 L 120.527344 452.203125 C 120.527344 461.28125 116.875 469.382812 111.050781 475.28125 C 105.214844 481.171875 97.191406 484.855469 88.203125 484.855469 C 79.207031 484.855469 71.1875 481.171875 65.355469 475.28125 C 59.519531 469.382812 55.871094 461.28125 55.871094 452.203125 C 55.871094 443.121094 59.519531 435.019531 65.355469 429.128906 C 71.1875 423.234375 79.207031 419.550781 88.203125 419.550781 C 93.304688 419.550781 98.164062 420.78125 102.539062 422.988281 L 115.910156 409.488281 C 107.886719 404.335938 98.410156 401.144531 88.203125 401.144531 C 74.105469 401.144531 61.703125 406.789062 52.46875 416.113281 C 43.234375 425.445312 37.644531 438.210938 37.644531 452.203125 C 37.644531 466.441406 43.234375 479.203125 52.46875 488.289062 C 61.703125 497.617188 74.105469 503.265625 88.203125 503.265625 C 102.054688 503.265625 114.691406 497.617188 123.929688 488.289062 C 133.164062 479.203125 138.753906 466.441406 138.753906 452.203125 C 138.753906 446.558594 137.78125 441.152344 136.082031 436.003906 L 120.527344 451.957031 " fill-opacity="1" fill-rule="nonzero"/></g><path fill="#004aad" d="M 612.21875 254.097656 C 612.21875 249.1875 611.488281 244.035156 609.789062 239.121094 L 593.746094 255.570312 C 593.5 263.425781 590.34375 271.28125 584.265625 277.171875 C 578.191406 283.554688 569.929688 286.746094 561.664062 286.746094 C 553.398438 286.746094 545.136719 283.554688 538.816406 277.171875 C 532.496094 270.789062 529.339844 262.441406 529.339844 254.097656 C 529.339844 245.75 532.496094 237.402344 538.816406 231.019531 C 545.136719 224.882812 553.398438 221.691406 561.664062 221.691406 C 566.765625 221.691406 572.113281 222.917969 576.980469 225.621094 L 590.097656 212.121094 C 581.59375 205.980469 571.625 203.035156 561.664062 203.035156 C 548.539062 203.035156 535.652344 208.191406 525.9375 218.011719 C 515.96875 228.074219 511.109375 241.085938 511.109375 254.097656 C 511.109375 267.351562 515.96875 280.363281 525.9375 290.1875 C 535.652344 300.246094 548.539062 305.15625 561.664062 305.15625 C 574.542969 305.15625 587.429688 300.246094 597.390625 290.1875 C 607.113281 280.363281 612.21875 267.351562 612.21875 254.097656 " fill-opacity="1" fill-rule="nonzero"/><path fill="#004aad" d="M 674.683594 456.621094 C 673.710938 463.988281 670.546875 470.371094 665.6875 475.28125 C 659.855469 481.171875 651.589844 484.855469 642.839844 484.855469 C 633.847656 484.855469 625.824219 481.171875 619.992188 475.28125 C 614.164062 469.382812 610.515625 461.28125 610.515625 452.203125 C 610.515625 443.121094 614.164062 435.019531 619.992188 429.128906 C 625.824219 423.234375 633.847656 419.550781 642.839844 419.550781 C 649.160156 419.550781 654.992188 421.519531 659.855469 424.707031 L 672.980469 411.207031 C 664.476562 404.820312 654.019531 401.144531 642.839844 401.144531 C 628.742188 401.144531 616.109375 406.789062 607.113281 416.113281 C 597.875 425.445312 592.289062 438.210938 592.289062 452.203125 C 592.289062 466.441406 597.875 479.203125 607.113281 488.289062 C 616.109375 497.617188 628.742188 503.265625 642.839844 503.265625 C 656.695312 503.265625 669.335938 497.617188 678.574219 488.289062 C 687.808594 479.203125 693.394531 466.441406 693.394531 452.203125 C 693.394531 447.78125 692.664062 443.367188 691.699219 439.195312 L 674.683594 456.621094 " fill-opacity="1" fill-rule="nonzero"/><g clip-path="url(#6b4ee6e07f)"><path fill="#004aad" d="M 365.523438 622.8125 C 304.757812 622.8125 251.285156 590.40625 221.632812 541.554688 C 226.738281 498.601562 243.269531 479.941406 296.742188 460.796875 C 312.535156 481.664062 337.328125 495.164062 365.523438 495.164062 C 393.472656 495.164062 418.503906 481.664062 434.304688 460.796875 C 487.773438 479.941406 504.300781 498.601562 509.410156 541.554688 C 479.507812 590.40625 426.28125 622.8125 365.523438 622.8125 Z M 365.523438 328.230469 C 409.269531 328.230469 444.753906 364.074219 444.753906 408.261719 C 444.753906 452.449219 409.269531 488.289062 365.523438 488.289062 C 321.773438 488.289062 286.285156 452.449219 286.285156 408.261719 C 286.285156 364.074219 321.773438 328.230469 365.523438 328.230469 Z M 365.523438 267.84375 C 264.65625 267.84375 182.988281 350.324219 182.988281 452.203125 C 182.988281 554.078125 264.65625 636.558594 365.523438 636.558594 C 466.382812 636.558594 548.050781 554.078125 548.050781 452.203125 C 548.050781 350.324219 466.382812 267.84375 365.523438 267.84375 " fill-opacity="1" fill-rule="nonzero"/></g><path fill="#004aad" d="M 92.089844 444.34375 L 83.09375 434.527344 L 69.730469 447.050781 L 85.285156 463.988281 L 91.84375 470.859375 L 98.410156 463.988281 L 153.582031 407.773438 L 140.457031 394.761719 L 92.089844 444.34375 " fill-opacity="1" fill-rule="nonzero"/><path fill="#004aad" d="M 219.933594 254.097656 C 219.933594 249.1875 219.207031 244.035156 217.742188 239.121094 L 201.707031 255.570312 C 201.222656 263.425781 198.058594 271.28125 192.226562 277.171875 C 185.90625 283.554688 177.640625 286.746094 169.378906 286.746094 C 161.113281 286.746094 152.847656 283.554688 146.53125 277.171875 C 140.210938 270.789062 137.054688 262.441406 137.054688 254.097656 C 137.054688 245.75 140.210938 237.402344 146.53125 231.019531 C 152.847656 224.882812 161.113281 221.691406 169.378906 221.691406 C 174.726562 221.691406 180.070312 222.917969 184.933594 225.621094 L 198.058594 212.121094 C 189.554688 206.226562 179.347656 203.035156 169.378906 203.035156 C 156.5 203.035156 143.613281 208.191406 133.652344 218.011719 C 123.6875 228.074219 118.828125 241.085938 118.828125 254.097656 C 118.828125 267.351562 123.6875 280.363281 133.652344 290.1875 C 143.613281 300.246094 156.5 305.15625 169.378906 305.15625 C 182.261719 305.15625 195.382812 300.246094 205.105469 290.1875 C 215.074219 280.363281 219.933594 267.351562 219.933594 254.097656 " fill-opacity="1" fill-rule="nonzero"/><path fill="#e9eff0" d="M 204.78125 342.5625 C 210.046875 323.144531 215.546875 303.238281 227.457031 287.035156 C 239.371094 270.832031 259.308594 258.929688 279.109375 262.359375 C 297.039062 265.472656 310.503906 279.789062 324.226562 291.761719 C 337.945312 303.730469 356.210938 314.519531 373.46875 308.738281 C 388.664062 303.652344 396.957031 287.84375 407.734375 275.980469 C 434.214844 246.828125 483.476562 241.820312 514.777344 265.714844 C 546.078125 289.609375 554.050781 339.265625 531.148438 371.3125 C 519.738281 387.28125 501.839844 399.320312 496.199219 418.125 C 491.152344 434.957031 497.386719 453.175781 506.214844 468.359375 C 515.046875 483.542969 526.550781 497.238281 533.496094 513.378906 C 540.441406 529.515625 541.980469 549.628906 531.308594 563.582031 C 516.378906 583.101562 486.078125 581.164062 463.417969 571.683594 C 440.757812 562.199219 419.535156 546.984375 395.011719 545.664062 C 356.003906 543.554688 324.746094 574.730469 290.117188 587.664062 C 260.636719 598.675781 226.816406 602.09375 196.90625 590.703125 C 172.007812 581.222656 152.273438 561.980469 142.265625 537.25 C 134.308594 517.585938 125.03125 465.414062 144.6875 449.851562 C 152.296875 443.828125 163.296875 448.632812 171.578125 442.695312 C 178.4375 437.765625 180.921875 428.21875 183.554688 420.730469 C 192.429688 395.5 197.777344 368.382812 204.78125 342.5625 Z M 204.78125 342.5625 " fill-opacity="1" fill-rule="nonzero"/><path fill="#c6cbcc" d="M 156.71875 368.488281 C 156.019531 368.488281 155.328125 368.558594 154.640625 368.695312 C 153.953125 368.832031 153.289062 369.035156 152.640625 369.304688 C 151.996094 369.574219 151.382812 369.902344 150.800781 370.289062 C 150.21875 370.679688 149.679688 371.121094 149.183594 371.617188 C 148.691406 372.113281 148.25 372.652344 147.859375 373.234375 C 147.472656 373.820312 147.144531 374.433594 146.875 375.082031 C 146.609375 375.726562 146.40625 376.394531 146.269531 377.082031 C 146.132812 377.769531 146.066406 378.464844 146.066406 379.164062 C 146.066406 379.863281 146.136719 380.558594 146.273438 381.246094 C 146.410156 381.933594 146.609375 382.601562 146.878906 383.246094 C 147.148438 383.894531 147.476562 384.507812 147.863281 385.089844 C 148.253906 385.675781 148.695312 386.210938 149.191406 386.707031 C 149.683594 387.203125 150.222656 387.644531 150.804688 388.035156 C 151.386719 388.421875 152 388.753906 152.648438 389.019531 C 153.296875 389.289062 153.960938 389.492188 154.648438 389.625 C 155.335938 389.761719 156.027344 389.832031 156.726562 389.832031 C 157.425781 389.832031 158.121094 389.761719 158.804688 389.625 C 159.492188 389.488281 160.160156 389.285156 160.804688 389.019531 C 161.453125 388.75 162.066406 388.421875 162.648438 388.03125 C 163.230469 387.644531 163.769531 387.199219 164.261719 386.707031 C 164.757812 386.210938 165.199219 385.671875 165.589844 385.089844 C 165.976562 384.507812 166.304688 383.890625 166.574219 383.242188 C 166.839844 382.597656 167.042969 381.929688 167.179688 381.242188 C 167.316406 380.554688 167.382812 379.859375 167.382812 379.160156 C 167.382812 378.460938 167.316406 377.765625 167.179688 377.078125 C 167.042969 376.390625 166.839844 375.722656 166.570312 375.074219 C 166.304688 374.429688 165.976562 373.8125 165.585938 373.230469 C 165.195312 372.648438 164.753906 372.109375 164.261719 371.613281 C 163.765625 371.117188 163.226562 370.675781 162.644531 370.285156 C 162.0625 369.898438 161.445312 369.570312 160.800781 369.300781 C 160.152344 369.03125 159.488281 368.832031 158.800781 368.695312 C 158.113281 368.558594 157.417969 368.488281 156.71875 368.488281 Z M 156.71875 388.207031 C 156.125 388.207031 155.539062 388.148438 154.957031 388.035156 C 154.375 387.917969 153.808594 387.746094 153.261719 387.519531 C 152.714844 387.292969 152.191406 387.011719 151.699219 386.683594 C 151.207031 386.351562 150.75 385.976562 150.332031 385.558594 C 149.910156 385.136719 149.535156 384.679688 149.207031 384.1875 C 148.875 383.691406 148.597656 383.171875 148.371094 382.621094 C 148.144531 382.074219 147.972656 381.507812 147.855469 380.925781 C 147.742188 380.34375 147.683594 379.753906 147.683594 379.160156 C 147.683594 378.566406 147.742188 377.976562 147.855469 377.394531 C 147.972656 376.8125 148.144531 376.246094 148.371094 375.699219 C 148.597656 375.148438 148.875 374.628906 149.207031 374.132812 C 149.535156 373.640625 149.910156 373.183594 150.332031 372.765625 C 150.75 372.34375 151.207031 371.96875 151.699219 371.640625 C 152.191406 371.308594 152.714844 371.03125 153.261719 370.800781 C 153.808594 370.574219 154.375 370.402344 154.957031 370.289062 C 155.539062 370.171875 156.125 370.113281 156.71875 370.113281 C 157.3125 370.113281 157.902344 370.171875 158.484375 370.289062 C 159.066406 370.402344 159.628906 370.574219 160.179688 370.800781 C 160.726562 371.03125 161.246094 371.308594 161.738281 371.640625 C 162.234375 371.96875 162.691406 372.34375 163.109375 372.765625 C 163.527344 373.183594 163.902344 373.640625 164.234375 374.132812 C 164.5625 374.628906 164.839844 375.148438 165.066406 375.699219 C 165.296875 376.246094 165.464844 376.8125 165.582031 377.394531 C 165.699219 377.976562 165.757812 378.566406 165.757812 379.160156 C 165.757812 379.753906 165.699219 380.34375 165.582031 380.925781 C 165.464844 381.507812 165.296875 382.074219 165.066406 382.621094 C 164.839844 383.171875 164.5625 383.691406 164.234375 384.1875 C 163.902344 384.679688 163.527344 385.136719 163.109375 385.558594 C 162.691406 385.976562 162.234375 386.351562 161.738281 386.683594 C 161.246094 387.011719 160.726562 387.292969 160.179688 387.519531 C 159.628906 387.746094 159.066406 387.917969 158.484375 388.035156 C 157.902344 388.148438 157.3125 388.207031 156.71875 388.207031 Z M 156.71875 388.207031 " fill-opacity="1" fill-rule="nonzero"/><g clip-path="url(#28b6293e89)"><path fill="#c6cbcc" d="M 456.984375 198.910156 C 456.097656 198.910156 455.214844 199 454.34375 199.171875 C 453.472656 199.34375 452.628906 199.601562 451.808594 199.941406 C 450.988281 200.28125 450.207031 200.699219 449.46875 201.195312 C 448.730469 201.6875 448.046875 202.25 447.417969 202.878906 C 446.789062 203.507812 446.226562 204.191406 445.734375 204.929688 C 445.242188 205.671875 444.824219 206.453125 444.484375 207.273438 C 444.144531 208.09375 443.886719 208.941406 443.714844 209.8125 C 443.542969 210.6875 443.453125 211.566406 443.453125 212.457031 C 443.453125 213.347656 443.539062 214.226562 443.714844 215.097656 C 443.886719 215.972656 444.144531 216.820312 444.484375 217.640625 C 444.824219 218.460938 445.242188 219.242188 445.734375 219.984375 C 446.226562 220.722656 446.789062 221.40625 447.417969 222.035156 C 448.046875 222.664062 448.730469 223.226562 449.46875 223.71875 C 450.207031 224.214844 450.984375 224.632812 451.808594 224.972656 C 452.628906 225.3125 453.472656 225.570312 454.34375 225.742188 C 455.214844 225.914062 456.097656 226.003906 456.984375 226.003906 C 457.871094 226.003906 458.753906 225.914062 459.625 225.742188 C 460.496094 225.570312 461.339844 225.3125 462.164062 224.972656 C 462.984375 224.632812 463.761719 224.214844 464.5 223.71875 C 465.238281 223.226562 465.921875 222.664062 466.550781 222.035156 C 467.179688 221.40625 467.742188 220.722656 468.234375 219.980469 C 468.726562 219.242188 469.144531 218.460938 469.484375 217.640625 C 469.824219 216.820312 470.082031 215.972656 470.253906 215.097656 C 470.425781 214.226562 470.515625 213.347656 470.515625 212.457031 C 470.515625 211.566406 470.425781 210.6875 470.253906 209.8125 C 470.082031 208.941406 469.824219 208.09375 469.484375 207.273438 C 469.144531 206.453125 468.726562 205.671875 468.234375 204.933594 C 467.738281 204.191406 467.179688 203.507812 466.550781 202.878906 C 465.921875 202.25 465.238281 201.6875 464.5 201.195312 C 463.761719 200.699219 462.984375 200.285156 462.164062 199.941406 C 461.339844 199.601562 460.496094 199.347656 459.625 199.171875 C 458.753906 199 457.875 198.914062 456.984375 198.910156 Z M 456.984375 223.941406 C 456.230469 223.941406 455.484375 223.867188 454.746094 223.71875 C 454.007812 223.574219 453.292969 223.355469 452.59375 223.066406 C 451.898438 222.777344 451.238281 222.421875 450.613281 222.003906 C 449.984375 221.585938 449.40625 221.109375 448.875 220.578125 C 448.339844 220.042969 447.867188 219.464844 447.449219 218.835938 C 447.027344 218.210938 446.675781 217.546875 446.386719 216.851562 C 446.097656 216.15625 445.882812 215.4375 445.734375 214.695312 C 445.585938 213.957031 445.515625 213.210938 445.515625 212.457031 C 445.515625 211.703125 445.585938 210.957031 445.734375 210.214844 C 445.882812 209.476562 446.097656 208.757812 446.386719 208.0625 C 446.675781 207.363281 447.027344 206.703125 447.449219 206.078125 C 447.867188 205.449219 448.339844 204.871094 448.875 204.335938 C 449.40625 203.804688 449.984375 203.328125 450.613281 202.90625 C 451.238281 202.488281 451.898438 202.136719 452.59375 201.847656 C 453.292969 201.558594 454.007812 201.339844 454.746094 201.191406 C 455.484375 201.046875 456.230469 200.972656 456.984375 200.972656 C 457.738281 200.972656 458.484375 201.046875 459.222656 201.191406 C 459.960938 201.339844 460.679688 201.558594 461.375 201.847656 C 462.070312 202.136719 462.730469 202.488281 463.359375 202.90625 C 463.984375 203.328125 464.5625 203.804688 465.097656 204.335938 C 465.628906 204.871094 466.105469 205.449219 466.523438 206.078125 C 466.941406 206.703125 467.292969 207.363281 467.582031 208.0625 C 467.871094 208.757812 468.089844 209.476562 468.234375 210.214844 C 468.382812 210.957031 468.457031 211.703125 468.457031 212.457031 C 468.457031 213.210938 468.382812 213.957031 468.234375 214.695312 C 468.089844 215.4375 467.871094 216.15625 467.582031 216.851562 C 467.292969 217.546875 466.941406 218.210938 466.523438 218.835938 C 466.105469 219.464844 465.628906 220.042969 465.097656 220.578125 C 464.5625 221.109375 463.984375 221.585938 463.359375 222.003906 C 462.730469 222.421875 462.070312 222.777344 461.375 223.066406 C 460.679688 223.355469 459.960938 223.574219 459.222656 223.71875 C 458.484375 223.867188 457.738281 223.941406 456.984375 223.941406 Z M 456.984375 223.941406 " fill-opacity="1" fill-rule="nonzero"/></g><g clip-path="url(#422a9ac69d)"><path fill="#c6cbcc" d="M 564.949219 519.414062 C 564.484375 519.414062 564.023438 519.457031 563.570312 519.550781 C 563.113281 519.640625 562.667969 519.773438 562.238281 519.953125 C 561.808594 520.132812 561.402344 520.347656 561.015625 520.609375 C 560.628906 520.867188 560.269531 521.160156 559.941406 521.488281 C 559.613281 521.820312 559.320312 522.175781 559.058594 522.566406 C 558.800781 522.953125 558.582031 523.359375 558.40625 523.789062 C 558.226562 524.222656 558.09375 524.664062 558.003906 525.121094 C 557.910156 525.578125 557.867188 526.039062 557.867188 526.503906 C 557.867188 526.96875 557.910156 527.429688 558 527.886719 C 558.09375 528.34375 558.226562 528.789062 558.40625 529.21875 C 558.582031 529.648438 558.800781 530.058594 559.058594 530.445312 C 559.316406 530.832031 559.613281 531.191406 559.941406 531.519531 C 560.269531 531.847656 560.628906 532.144531 561.015625 532.402344 C 561.402344 532.660156 561.808594 532.878906 562.238281 533.058594 C 562.667969 533.234375 563.109375 533.371094 563.566406 533.460938 C 564.023438 533.550781 564.484375 533.597656 564.949219 533.597656 C 565.414062 533.597656 565.875 533.550781 566.332031 533.460938 C 566.789062 533.371094 567.230469 533.234375 567.660156 533.058594 C 568.089844 532.878906 568.5 532.660156 568.886719 532.402344 C 569.273438 532.144531 569.628906 531.847656 569.957031 531.519531 C 570.289062 531.191406 570.582031 530.832031 570.839844 530.445312 C 571.097656 530.058594 571.316406 529.648438 571.496094 529.21875 C 571.671875 528.789062 571.808594 528.34375 571.898438 527.890625 C 571.988281 527.433594 572.035156 526.972656 572.035156 526.503906 C 572.035156 526.039062 571.988281 525.578125 571.898438 525.121094 C 571.808594 524.664062 571.671875 524.222656 571.496094 523.792969 C 571.316406 523.359375 571.097656 522.953125 570.839844 522.566406 C 570.582031 522.179688 570.289062 521.820312 569.960938 521.492188 C 569.628906 521.160156 569.273438 520.867188 568.886719 520.609375 C 568.5 520.351562 568.089844 520.132812 567.660156 519.953125 C 567.230469 519.773438 566.789062 519.640625 566.332031 519.550781 C 565.875 519.457031 565.414062 519.414062 564.949219 519.414062 Z M 564.949219 532.519531 C 564.554688 532.519531 564.164062 532.480469 563.777344 532.402344 C 563.390625 532.324219 563.015625 532.210938 562.652344 532.058594 C 562.289062 531.910156 561.941406 531.722656 561.613281 531.503906 C 561.285156 531.285156 560.984375 531.035156 560.703125 530.757812 C 560.425781 530.476562 560.175781 530.175781 559.957031 529.84375 C 559.738281 529.515625 559.554688 529.171875 559.402344 528.804688 C 559.25 528.441406 559.136719 528.066406 559.058594 527.679688 C 558.984375 527.289062 558.945312 526.898438 558.945312 526.503906 C 558.945312 526.109375 558.984375 525.71875 559.058594 525.332031 C 559.136719 524.945312 559.25 524.570312 559.402344 524.203125 C 559.554688 523.839844 559.738281 523.492188 559.957031 523.164062 C 560.175781 522.835938 560.425781 522.53125 560.703125 522.253906 C 560.984375 521.976562 561.285156 521.726562 561.613281 521.507812 C 561.941406 521.285156 562.289062 521.101562 562.652344 520.949219 C 563.015625 520.800781 563.390625 520.683594 563.777344 520.609375 C 564.164062 520.53125 564.554688 520.492188 564.949219 520.492188 C 565.34375 520.492188 565.734375 520.53125 566.121094 520.609375 C 566.507812 520.683594 566.882812 520.800781 567.25 520.949219 C 567.613281 521.101562 567.960938 521.285156 568.289062 521.507812 C 568.613281 521.726562 568.917969 521.972656 569.199219 522.253906 C 569.476562 522.53125 569.726562 522.835938 569.945312 523.164062 C 570.164062 523.492188 570.347656 523.839844 570.5 524.203125 C 570.648438 524.570312 570.765625 524.945312 570.839844 525.332031 C 570.917969 525.71875 570.957031 526.109375 570.957031 526.503906 C 570.957031 526.898438 570.917969 527.289062 570.839844 527.679688 C 570.765625 528.066406 570.648438 528.441406 570.5 528.804688 C 570.347656 529.171875 570.164062 529.515625 569.945312 529.84375 C 569.726562 530.171875 569.476562 530.476562 569.199219 530.757812 C 568.917969 531.035156 568.613281 531.285156 568.289062 531.503906 C 567.960938 531.722656 567.613281 531.910156 567.25 532.058594 C 566.882812 532.210938 566.507812 532.324219 566.121094 532.402344 C 565.734375 532.480469 565.34375 532.519531 564.949219 532.519531 Z M 564.949219 532.519531 " fill-opacity="1" fill-rule="nonzero"/></g><g clip-path="url(#2d8db3df84)"><path fill="#d5dadb" d="M 327.519531 631.273438 C 327.519531 631.449219 327.402344 631.628906 327.171875 631.808594 C 326.9375 631.984375 326.59375 632.160156 326.132812 632.335938 C 325.671875 632.511719 325.097656 632.683594 324.410156 632.855469 C 323.726562 633.027344 322.929688 633.195312 322.027344 633.359375 C 321.121094 633.527344 320.113281 633.6875 319 633.84375 C 317.886719 634.003906 316.671875 634.15625 315.359375 634.304688 C 314.046875 634.453125 312.640625 634.597656 311.140625 634.734375 C 309.640625 634.875 308.058594 635.003906 306.386719 635.132812 C 304.714844 635.257812 302.96875 635.378906 301.140625 635.492188 C 299.3125 635.605469 297.417969 635.710938 295.453125 635.8125 C 293.488281 635.910156 291.464844 636.003906 289.378906 636.085938 C 287.296875 636.171875 285.164062 636.246094 282.980469 636.316406 C 280.796875 636.382812 278.574219 636.445312 276.3125 636.496094 C 274.050781 636.546875 271.761719 636.589844 269.445312 636.625 C 267.128906 636.660156 264.792969 636.6875 262.441406 636.703125 C 260.089844 636.722656 257.734375 636.730469 255.371094 636.730469 C 253.007812 636.730469 250.648438 636.722656 248.296875 636.703125 C 245.945312 636.6875 243.613281 636.660156 241.292969 636.625 C 238.976562 636.589844 236.6875 636.546875 234.425781 636.496094 C 232.164062 636.445312 229.945312 636.382812 227.761719 636.316406 C 225.578125 636.246094 223.445312 636.171875 221.359375 636.085938 C 219.277344 636.003906 217.25 635.910156 215.285156 635.8125 C 213.324219 635.710938 211.425781 635.605469 209.601562 635.492188 C 207.773438 635.378906 206.023438 635.257812 204.355469 635.132812 C 202.683594 635.003906 201.097656 634.875 199.597656 634.734375 C 198.101562 634.597656 196.695312 634.453125 195.382812 634.304688 C 194.070312 634.15625 192.855469 634.003906 191.742188 633.84375 C 190.628906 633.6875 189.617188 633.527344 188.714844 633.359375 C 187.808594 633.195312 187.015625 633.027344 186.328125 632.855469 C 185.644531 632.683594 185.070312 632.511719 184.609375 632.335938 C 184.148438 632.160156 183.800781 631.984375 183.570312 631.808594 C 183.339844 631.628906 183.222656 631.449219 183.222656 631.273438 C 183.222656 631.09375 183.339844 630.914062 183.570312 630.738281 C 183.800781 630.558594 184.148438 630.382812 184.609375 630.207031 C 185.070312 630.03125 185.644531 629.859375 186.328125 629.6875 C 187.015625 629.515625 187.808594 629.347656 188.714844 629.183594 C 189.617188 629.015625 190.628906 628.855469 191.742188 628.699219 C 192.855469 628.539062 194.070312 628.386719 195.382812 628.238281 C 196.695312 628.089844 198.101562 627.945312 199.597656 627.808594 C 201.097656 627.667969 202.683594 627.539062 204.355469 627.410156 C 206.023438 627.285156 207.773438 627.164062 209.601562 627.050781 C 211.425781 626.9375 213.324219 626.832031 215.285156 626.730469 C 217.25 626.632812 219.277344 626.539062 221.359375 626.457031 C 223.445312 626.371094 225.578125 626.296875 227.761719 626.226562 C 229.945312 626.160156 232.164062 626.097656 234.425781 626.046875 C 236.6875 625.996094 238.976562 625.953125 241.292969 625.917969 C 243.613281 625.882812 245.945312 625.855469 248.296875 625.839844 C 250.648438 625.820312 253.007812 625.8125 255.371094 625.8125 C 257.734375 625.8125 260.089844 625.820312 262.441406 625.839844 C 264.792969 625.855469 267.128906 625.882812 269.445312 625.917969 C 271.761719 625.953125 274.050781 625.996094 276.3125 626.046875 C 278.574219 626.097656 280.796875 626.160156 282.980469 626.226562 C 285.164062 626.296875 287.296875 626.371094 289.378906 626.457031 C 291.464844 626.539062 293.488281 626.632812 295.453125 626.730469 C 297.417969 626.832031 299.3125 626.9375 301.140625 627.050781 C 302.96875 627.164062 304.714844 627.285156 306.386719 627.410156 C 308.058594 627.539062 309.640625 627.667969 311.140625 627.808594 C 312.640625 627.945312 314.046875 628.089844 315.359375 628.238281 C 316.671875 628.386719 317.886719 628.539062 319 628.699219 C 320.113281 628.855469 321.121094 629.015625 322.027344 629.183594 C 322.929688 629.347656 323.726562 629.515625 324.410156 629.6875 C 325.097656 629.859375 325.671875 630.03125 326.132812 630.207031 C 326.59375 630.382812 326.9375 630.558594 327.171875 630.738281 C 327.402344 630.914062 327.519531 631.09375 327.519531 631.273438 Z M 327.519531 631.273438 " fill-opacity="1" fill-rule="nonzero"/></g><path fill="#2a2a3b" d="M 263.570312 433.414062 C 260.519531 431.167969 255.714844 431.863281 253.429688 434.890625 C 251.972656 436.828125 251.492188 439.453125 249.726562 441.109375 C 248.707031 442.070312 247.359375 442.597656 246.128906 443.265625 C 240.261719 446.429688 236.863281 452.78125 234.59375 459.054688 C 233.339844 462.523438 232.316406 466.109375 232.085938 469.789062 C 231.855469 473.46875 232.449219 477.273438 234.273438 480.476562 C 235.6875 482.96875 237.96875 485.128906 240.78125 485.683594 C 244.171875 486.355469 247.570312 484.613281 250.320312 482.519531 C 252.164062 481.117188 253.914062 479.46875 254.878906 477.363281 C 256.917969 472.910156 255.03125 467.640625 255.917969 462.820312 C 256.410156 460.136719 257.738281 457.695312 259.058594 455.308594 C 262.007812 449.953125 270.960938 438.863281 263.570312 433.414062 Z M 263.570312 433.414062 " fill-opacity="1" fill-rule="nonzero"/><path fill="#ca8f7a" d="M 325.746094 468.597656 C 327.035156 467.761719 327.703125 466.597656 329.253906 466.558594 C 331.160156 466.511719 333.886719 466.273438 335.765625 465.390625 C 335.925781 465.3125 336.058594 465.203125 336.167969 465.0625 C 336.273438 464.917969 336.339844 464.761719 336.371094 464.585938 C 336.402344 464.410156 336.386719 464.238281 336.332031 464.066406 C 336.277344 463.898438 336.1875 463.75 336.0625 463.625 C 334.292969 461.816406 330.269531 458.242188 322.941406 465.667969 Z M 325.746094 468.597656 " fill-opacity="1" fill-rule="nonzero"/><path fill="#3c3e48" d="M 211.890625 624.644531 C 212.480469 623.574219 212.613281 621.691406 210.140625 618.65625 C 208.9375 617.183594 208.308594 615.3125 208.511719 613.433594 C 208.582031 612.796875 208.738281 612.253906 209.042969 611.980469 L 206.296875 609.164062 C 206.296875 609.164062 202.53125 613.6875 200.261719 615.496094 C 200.125 615.601562 200.054688 615.742188 200.050781 615.914062 C 200.046875 616.085938 200.109375 616.230469 200.238281 616.34375 L 202.007812 617.894531 C 202.214844 618.074219 202.433594 618.09375 202.667969 617.953125 L 204.726562 616.402344 C 204.480469 616.605469 202.867188 618.335938 209.761719 624.957031 C 209.914062 625.101562 210.089844 625.207031 210.289062 625.273438 C 210.488281 625.335938 210.695312 625.351562 210.902344 625.324219 C 211.109375 625.292969 211.300781 625.21875 211.472656 625.097656 C 211.648438 624.980469 211.785156 624.828125 211.890625 624.644531 Z M 211.890625 624.644531 " fill-opacity="1" fill-rule="nonzero"/><path fill="#3c3e48" d="M 288.960938 631.410156 C 288.617188 630.242188 287.367188 628.8125 283.449219 628.386719 C 281.550781 628.179688 279.773438 627.292969 278.578125 625.820312 C 278.171875 625.320312 277.894531 624.828125 277.917969 624.421875 L 273.964844 624.339844 C 273.964844 624.339844 274.519531 630.171875 274.199219 633.039062 C 274.179688 633.210938 274.230469 633.359375 274.347656 633.484375 C 274.46875 633.609375 274.613281 633.667969 274.785156 633.65625 L 277.144531 633.523438 C 277.417969 633.507812 277.585938 633.367188 277.65625 633.105469 L 278.007812 630.570312 C 277.976562 630.882812 278.070312 633.238281 287.675781 633.121094 C 287.886719 633.117188 288.085938 633.070312 288.273438 632.976562 C 288.460938 632.882812 288.617188 632.753906 288.742188 632.585938 C 288.871094 632.417969 288.953125 632.230469 288.988281 632.023438 C 289.027344 631.816406 289.019531 631.613281 288.960938 631.410156 Z M 288.960938 631.410156 " fill-opacity="1" fill-rule="nonzero"/><path fill="#e3be5f" d="M 281.042969 584.148438 C 280.824219 583.242188 280.710938 582.324219 280.707031 581.394531 C 280.652344 573.167969 281.390625 532.675781 269.496094 518.523438 L 240.597656 519.628906 C 240.597656 519.628906 232.429688 536.269531 234.066406 577.453125 C 234.082031 577.796875 233.953125 578.078125 233.683594 578.289062 C 231.328125 580.144531 219.046875 590.128906 205.019531 607.023438 C 204.792969 607.292969 204.683594 607.605469 204.6875 607.953125 C 204.6875 608.304688 204.804688 608.613281 205.03125 608.878906 L 209.101562 613.632812 C 209.226562 613.777344 209.371094 613.890625 209.539062 613.980469 C 209.710938 614.066406 209.890625 614.121094 210.078125 614.140625 C 210.269531 614.15625 210.453125 614.140625 210.636719 614.085938 C 210.820312 614.03125 210.984375 613.945312 211.132812 613.828125 C 215.578125 610.308594 232.332031 596.945312 242.214844 587.636719 C 242.613281 587.265625 242.984375 586.867188 243.332031 586.445312 C 244.460938 585.078125 246.078125 582.910156 246.941406 580.820312 C 249.859375 572.609375 255.3125 553.261719 255.976562 542.707031 C 255.976562 542.707031 258.628906 562.445312 267.585938 581.355469 C 268.375 583.019531 268.765625 584.769531 268.757812 586.613281 C 268.742188 592.664062 268.976562 607.871094 271.3125 625.605469 C 271.335938 625.800781 271.402344 625.984375 271.503906 626.152344 C 271.605469 626.324219 271.734375 626.46875 271.894531 626.582031 C 272.054688 626.699219 272.230469 626.78125 272.425781 626.828125 C 272.617188 626.871094 272.808594 626.878906 273.003906 626.84375 L 280.242188 625.621094 C 280.554688 625.570312 280.820312 625.429688 281.042969 625.203125 C 281.265625 624.976562 281.398438 624.707031 281.441406 624.394531 C 282.113281 619.53125 284.660156 598.832031 281.042969 584.148438 Z M 281.042969 584.148438 " fill-opacity="1" fill-rule="nonzero"/><path fill="#ba9c4e" d="M 256.761719 541.128906 C 256.453125 540.242188 256.335938 539.335938 256.40625 538.402344 C 256.476562 537.46875 256.730469 536.585938 257.171875 535.761719 C 257.238281 535.632812 257.136719 535.46875 257.011719 535.421875 C 256.851562 535.367188 256.738281 535.421875 256.671875 535.578125 C 256.207031 536.472656 255.941406 537.421875 255.871094 538.425781 C 255.804688 539.429688 255.941406 540.40625 256.28125 541.355469 C 256.394531 541.671875 256.875 541.445312 256.761719 541.128906 Z M 256.761719 541.128906 " fill-opacity="1" fill-rule="nonzero"/><path fill="#94acb8" d="M 326.996094 466.980469 L 326.921875 465.445312 C 326.90625 465.15625 326.835938 464.882812 326.707031 464.625 C 326.582031 464.363281 326.40625 464.140625 326.1875 463.953125 C 325.96875 463.765625 325.722656 463.628906 325.445312 463.542969 C 325.171875 463.457031 324.890625 463.425781 324.605469 463.457031 C 316.199219 464.261719 300.476562 467.808594 300.476562 467.808594 C 294.726562 468.519531 280.117188 463.777344 280.117188 463.777344 C 278.960938 463.4375 277.777344 463.054688 276.644531 462.714844 C 272.613281 461.492188 267.1875 460.015625 263.246094 458.972656 C 260.632812 458.273438 257.976562 458.023438 255.28125 458.226562 C 252.582031 458.429688 249.996094 459.074219 247.515625 460.15625 L 247.261719 460.273438 C 241.113281 463.03125 237.386719 469.316406 237.941406 475.96875 C 238.152344 478.484375 238.496094 480.683594 238.761719 482.171875 C 239.128906 484.15625 239.304688 486.15625 239.289062 488.175781 C 239.15625 502.257812 237.734375 520.84375 236.898438 523.40625 C 236.824219 523.625 236.890625 523.789062 237.089844 523.898438 C 252.757812 532.710938 271.96875 524.910156 274.972656 523.871094 C 275.1875 523.796875 275.277344 523.648438 275.25 523.425781 C 272.210938 500.300781 275.328125 475.160156 275.328125 475.160156 C 288.042969 477.839844 299.300781 477.113281 302.011719 476.875 C 302.394531 476.84375 302.769531 476.792969 303.144531 476.71875 C 314.667969 474.441406 322.933594 470.488281 325.878906 468.9375 C 326.238281 468.746094 326.523438 468.476562 326.722656 468.121094 C 326.925781 467.769531 327.015625 467.390625 326.996094 466.980469 Z M 326.996094 466.980469 " fill-opacity="1" fill-rule="nonzero"/><path fill="#bd8672" d="M 263.386719 459.113281 C 263.097656 458.0625 262.628906 455.507812 263.535156 451.90625 L 256.359375 450.492188 C 256.917969 451.085938 256.246094 456.179688 254.238281 458.3125 C 254.238281 458.3125 263.480469 468.5 263.59375 460.671875 C 263.597656 460.144531 263.53125 459.625 263.386719 459.113281 Z M 263.386719 459.113281 " fill-opacity="1" fill-rule="nonzero"/><path fill="#ca8f7a" d="M 256.230469 445.777344 C 256.230469 445.777344 258.175781 442.632812 261.113281 440.625 C 261.917969 440.085938 262.558594 439.394531 263.042969 438.558594 L 263.261719 438.171875 C 263.316406 438.070312 263.402344 438.019531 263.519531 438.019531 C 263.632812 438.019531 263.71875 438.070312 263.777344 438.171875 C 265.308594 440.929688 272.777344 455.308594 263.023438 456.820312 C 262.226562 456.9375 261.433594 456.894531 260.652344 456.691406 C 259.871094 456.488281 259.160156 456.136719 258.519531 455.644531 L 258.03125 455.273438 C 256.871094 454.402344 256.015625 453.292969 255.472656 451.949219 C 255.226562 451.347656 255.089844 450.722656 255.066406 450.078125 C 255.066406 450.078125 251.710938 441.179688 256.230469 445.777344 Z M 256.230469 445.777344 " fill-opacity="1" fill-rule="nonzero"/><path fill="#2a2a3b" d="M 256.429688 430.117188 C 256.710938 430.652344 256.90625 431.207031 257.019531 431.777344 C 257.132812 432.347656 257.15625 432.890625 257.085938 433.410156 C 257.015625 433.925781 256.863281 434.378906 256.621094 434.765625 C 256.382812 435.148438 256.074219 435.441406 255.695312 435.636719 C 255.320312 435.832031 254.90625 435.917969 254.453125 435.894531 C 253.996094 435.871094 253.539062 435.738281 253.074219 435.5 C 252.613281 435.257812 252.179688 434.929688 251.777344 434.507812 C 251.378906 434.089844 251.039062 433.609375 250.757812 433.074219 C 250.480469 432.539062 250.285156 431.984375 250.171875 431.417969 C 250.054688 430.847656 250.035156 430.300781 250.101562 429.785156 C 250.171875 429.265625 250.328125 428.816406 250.566406 428.429688 C 250.808594 428.042969 251.117188 427.75 251.492188 427.554688 C 251.867188 427.359375 252.285156 427.273438 252.738281 427.296875 C 253.191406 427.320312 253.648438 427.453125 254.113281 427.695312 C 254.578125 427.933594 255.007812 428.265625 255.410156 428.683594 C 255.8125 429.105469 256.152344 429.582031 256.429688 430.117188 Z M 256.429688 430.117188 " fill-opacity="1" fill-rule="nonzero"/><path fill="#34384d" d="M 290.917969 391.71875 C 291.519531 392.320312 292.058594 392.976562 292.53125 393.683594 C 293.003906 394.394531 293.402344 395.140625 293.726562 395.925781 C 294.054688 396.714844 294.296875 397.523438 294.464844 398.359375 C 294.628906 399.195312 294.714844 400.039062 294.714844 400.890625 C 294.714844 401.742188 294.628906 402.585938 294.464844 403.417969 C 294.296875 404.253906 294.054688 405.066406 293.726562 405.851562 C 293.402344 406.640625 293.003906 407.386719 292.53125 408.09375 C 292.058594 408.804688 291.519531 409.457031 290.917969 410.058594 C 290.316406 410.660156 289.664062 411.199219 288.957031 411.671875 C 288.25 412.144531 287.503906 412.546875 286.71875 412.871094 C 285.929688 413.195312 285.121094 413.441406 284.285156 413.609375 C 283.453125 413.773438 282.609375 413.859375 281.757812 413.859375 C 280.910156 413.859375 280.066406 413.773438 279.234375 413.609375 C 278.398438 413.441406 277.589844 413.195312 276.800781 412.871094 C 276.015625 412.546875 275.269531 412.144531 274.5625 411.671875 C 273.855469 411.199219 273.203125 410.660156 272.601562 410.058594 C 272 409.457031 271.460938 408.804688 270.988281 408.09375 C 270.515625 407.386719 270.117188 406.640625 269.792969 405.851562 C 269.464844 405.066406 269.222656 404.253906 269.054688 403.417969 C 268.890625 402.585938 268.804688 401.742188 268.804688 400.890625 C 268.804688 400.039062 268.890625 399.195312 269.054688 398.359375 C 269.222656 397.523438 269.464844 396.714844 269.792969 395.925781 C 270.117188 395.140625 270.515625 394.394531 270.988281 393.683594 C 271.460938 392.976562 272 392.320312 272.601562 391.71875 C 273.203125 391.117188 273.855469 390.578125 274.5625 390.105469 C 275.269531 389.632812 276.015625 389.234375 276.800781 388.910156 C 277.589844 388.582031 278.398438 388.335938 279.234375 388.171875 C 280.066406 388.003906 280.910156 387.921875 281.757812 387.921875 C 282.609375 387.921875 283.453125 388.003906 284.285156 388.171875 C 285.121094 388.335938 285.929688 388.582031 286.71875 388.910156 C 287.503906 389.234375 288.25 389.632812 288.957031 390.105469 C 289.664062 390.578125 290.316406 391.117188 290.917969 391.71875 Z M 290.917969 391.71875 " fill-opacity="1" fill-rule="nonzero"/><path fill="#a1bac6" d="M 285.199219 409.136719 L 276.277344 398.714844 C 276.140625 398.558594 276.042969 398.382812 275.980469 398.1875 C 275.914062 397.992188 275.890625 397.789062 275.90625 397.585938 C 275.921875 397.378906 275.976562 397.183594 276.070312 397 C 276.160156 396.816406 276.285156 396.660156 276.441406 396.523438 C 276.597656 396.390625 276.773438 396.292969 276.96875 396.226562 C 277.167969 396.164062 277.367188 396.140625 277.570312 396.15625 C 277.777344 396.171875 277.972656 396.226562 278.15625 396.320312 C 278.335938 396.414062 278.496094 396.539062 278.628906 396.695312 L 284.738281 403.824219 L 298.035156 381.246094 C 298.140625 381.070312 298.273438 380.917969 298.4375 380.796875 C 298.601562 380.671875 298.785156 380.582031 298.984375 380.53125 C 299.179688 380.480469 299.382812 380.46875 299.585938 380.496094 C 299.789062 380.527344 299.980469 380.59375 300.15625 380.699219 C 300.335938 380.800781 300.484375 380.9375 300.609375 381.101562 C 300.730469 381.265625 300.820312 381.445312 300.871094 381.644531 C 300.921875 381.847656 300.933594 382.046875 300.90625 382.25 C 300.875 382.453125 300.808594 382.644531 300.707031 382.824219 Z M 285.199219 409.136719 " fill-opacity="1" fill-rule="nonzero"/><path fill="#34384d" d="M 273.644531 405.4375 C 273.644531 405.4375 274.453125 409.472656 265.847656 413.511719 C 265.847656 413.511719 273.105469 414.855469 279.828125 411.355469 Z M 273.644531 405.4375 " fill-opacity="1" fill-rule="nonzero"/><path fill="#2a2d3f" d="M 366.605469 462.035156 L 339.882812 459.355469 L 363.792969 418.003906 L 383.492188 427.71875 Z M 366.605469 462.035156 " fill-opacity="1" fill-rule="nonzero"/><path fill="#2a2d3f" d="M 328.320312 458.007812 L 389.347656 458.007812 C 389.441406 458.007812 389.492188 458.054688 389.492188 458.148438 L 389.492188 463.378906 C 389.492188 463.414062 389.472656 463.429688 389.4375 463.429688 L 328.230469 463.429688 C 328.195312 463.429688 328.179688 463.414062 328.179688 463.378906 L 328.179688 458.148438 C 328.179688 458.054688 328.226562 458.007812 328.320312 458.007812 Z M 328.320312 458.007812 " fill-opacity="1" fill-rule="nonzero"/><path fill="#32364c" d="M 455.164062 340.949219 L 314.019531 340.949219 C 313.867188 340.949219 313.722656 340.976562 313.582031 341.035156 C 313.441406 341.09375 313.316406 341.179688 313.207031 341.285156 C 313.097656 341.394531 313.015625 341.519531 312.957031 341.660156 C 312.898438 341.800781 312.871094 341.949219 312.871094 342.101562 L 312.871094 429.730469 C 312.871094 429.882812 312.898438 430.03125 312.957031 430.171875 C 313.015625 430.3125 313.097656 430.4375 313.207031 430.546875 C 313.316406 430.652344 313.441406 430.738281 313.582031 430.796875 C 313.722656 430.855469 313.867188 430.882812 314.019531 430.882812 L 455.164062 430.882812 C 455.316406 430.882812 455.464844 430.855469 455.605469 430.796875 C 455.746094 430.738281 455.871094 430.652344 455.976562 430.546875 C 456.085938 430.4375 456.167969 430.3125 456.226562 430.171875 C 456.285156 430.03125 456.316406 429.882812 456.316406 429.730469 L 456.316406 342.101562 C 456.316406 341.949219 456.285156 341.800781 456.226562 341.660156 C 456.167969 341.519531 456.085938 341.394531 455.976562 341.285156 C 455.871094 341.179688 455.746094 341.09375 455.605469 341.035156 C 455.464844 340.976562 455.316406 340.949219 455.164062 340.949219 Z M 455.164062 340.949219 " fill-opacity="1" fill-rule="nonzero"/><path fill="#91abb8" d="M 318.546875 343.734375 L 450.636719 343.734375 C 450.800781 343.734375 450.960938 343.765625 451.113281 343.828125 C 451.265625 343.890625 451.398438 343.980469 451.515625 344.097656 C 451.628906 344.210938 451.71875 344.347656 451.78125 344.5 C 451.84375 344.648438 451.875 344.808594 451.875 344.972656 L 451.875 424.933594 C 451.875 425.097656 451.84375 425.257812 451.78125 425.40625 C 451.71875 425.558594 451.628906 425.695312 451.515625 425.808594 C 451.398438 425.925781 451.265625 426.015625 451.113281 426.078125 C 450.960938 426.140625 450.800781 426.171875 450.636719 426.171875 L 318.546875 426.171875 C 318.382812 426.171875 318.226562 426.140625 318.074219 426.078125 C 317.921875 426.015625 317.789062 425.925781 317.671875 425.808594 C 317.554688 425.695312 317.464844 425.558594 317.402344 425.40625 C 317.339844 425.257812 317.308594 425.097656 317.308594 424.933594 L 317.308594 344.972656 C 317.308594 344.808594 317.339844 344.648438 317.402344 344.5 C 317.464844 344.347656 317.554688 344.210938 317.671875 344.097656 C 317.789062 343.980469 317.921875 343.890625 318.074219 343.828125 C 318.226562 343.765625 318.382812 343.734375 318.546875 343.734375 Z M 318.546875 343.734375 " fill-opacity="1" fill-rule="nonzero"/><path fill="#bbcdd4" d="M 451.875 350.984375 L 451.875 424.933594 C 451.875 425.097656 451.84375 425.257812 451.78125 425.40625 C 451.71875 425.558594 451.628906 425.695312 451.511719 425.808594 C 451.398438 425.925781 451.261719 426.015625 451.109375 426.078125 C 450.960938 426.140625 450.800781 426.171875 450.636719 426.171875 L 318.546875 426.171875 C 318.382812 426.171875 318.226562 426.140625 318.074219 426.078125 C 317.921875 426.015625 317.789062 425.925781 317.671875 425.808594 C 317.554688 425.695312 317.464844 425.558594 317.402344 425.40625 C 317.339844 425.257812 317.308594 425.097656 317.308594 424.933594 L 317.308594 350.984375 Z M 451.875 350.984375 " fill-opacity="1" fill-rule="nonzero"/><path fill="#d57891" d="M 324.066406 347.449219 C 324.066406 347.65625 324.027344 347.851562 323.949219 348.039062 C 323.871094 348.226562 323.757812 348.394531 323.613281 348.539062 C 323.46875 348.683594 323.304688 348.792969 323.117188 348.871094 C 322.925781 348.949219 322.730469 348.988281 322.527344 348.988281 C 322.324219 348.988281 322.125 348.949219 321.9375 348.871094 C 321.75 348.792969 321.582031 348.683594 321.441406 348.539062 C 321.296875 348.394531 321.183594 348.226562 321.105469 348.039062 C 321.027344 347.851562 320.988281 347.65625 320.988281 347.449219 C 320.988281 347.246094 321.027344 347.050781 321.105469 346.859375 C 321.183594 346.671875 321.296875 346.507812 321.441406 346.363281 C 321.582031 346.21875 321.75 346.105469 321.9375 346.027344 C 322.125 345.949219 322.324219 345.910156 322.527344 345.910156 C 322.730469 345.910156 322.925781 345.949219 323.117188 346.027344 C 323.304688 346.105469 323.46875 346.21875 323.613281 346.363281 C 323.757812 346.507812 323.871094 346.671875 323.949219 346.859375 C 324.027344 347.050781 324.066406 347.246094 324.066406 347.449219 Z M 324.066406 347.449219 " fill-opacity="1" fill-rule="nonzero"/><path fill="#737886" d="M 328.164062 347.449219 C 328.164062 347.65625 328.125 347.851562 328.046875 348.039062 C 327.96875 348.226562 327.859375 348.394531 327.714844 348.539062 C 327.570312 348.683594 327.402344 348.792969 327.214844 348.871094 C 327.027344 348.949219 326.832031 348.988281 326.628906 348.988281 C 326.421875 348.988281 326.226562 348.949219 326.039062 348.871094 C 325.851562 348.792969 325.683594 348.683594 325.539062 348.539062 C 325.394531 348.394531 325.285156 348.226562 325.207031 348.039062 C 325.128906 347.851562 325.089844 347.65625 325.089844 347.449219 C 325.089844 347.246094 325.128906 347.050781 325.207031 346.859375 C 325.285156 346.671875 325.394531 346.507812 325.539062 346.363281 C 325.683594 346.21875 325.851562 346.105469 326.039062 346.027344 C 326.226562 345.949219 326.421875 345.910156 326.628906 345.910156 C 326.832031 345.910156 327.027344 345.949219 327.214844 346.027344 C 327.402344 346.105469 327.570312 346.21875 327.714844 346.363281 C 327.859375 346.507812 327.96875 346.671875 328.046875 346.859375 C 328.125 347.050781 328.164062 347.246094 328.164062 347.449219 Z M 328.164062 347.449219 " fill-opacity="1" fill-rule="nonzero"/><path fill="#c6dade" d="M 332.265625 347.449219 C 332.265625 347.65625 332.226562 347.851562 332.148438 348.039062 C 332.070312 348.226562 331.960938 348.394531 331.816406 348.539062 C 331.671875 348.683594 331.507812 348.792969 331.316406 348.871094 C 331.128906 348.949219 330.933594 348.988281 330.730469 348.988281 C 330.523438 348.988281 330.328125 348.949219 330.140625 348.871094 C 329.953125 348.792969 329.785156 348.683594 329.640625 348.539062 C 329.496094 348.394531 329.386719 348.226562 329.308594 348.039062 C 329.230469 347.851562 329.191406 347.65625 329.191406 347.449219 C 329.191406 347.246094 329.230469 347.050781 329.308594 346.859375 C 329.386719 346.671875 329.496094 346.507812 329.640625 346.363281 C 329.785156 346.21875 329.953125 346.105469 330.140625 346.027344 C 330.328125 345.949219 330.523438 345.910156 330.730469 345.910156 C 330.933594 345.910156 331.128906 345.949219 331.316406 346.027344 C 331.507812 346.105469 331.671875 346.21875 331.816406 346.363281 C 331.960938 346.507812 332.070312 346.671875 332.148438 346.859375 C 332.226562 347.050781 332.265625 347.246094 332.265625 347.449219 Z M 332.265625 347.449219 " fill-opacity="1" fill-rule="nonzero"/><path fill="#f5b769" d="M 397.214844 406.519531 L 444.699219 406.519531 L 444.699219 445.75 L 397.214844 445.75 Z M 397.214844 406.519531 " fill-opacity="1" fill-rule="nonzero"/><path fill="#ffffff" d="M 403.5 414.910156 L 438.414062 414.910156 L 438.414062 416.367188 L 403.5 416.367188 Z M 403.5 414.910156 " fill-opacity="1" fill-rule="nonzero"/><path fill="#ffffff" d="M 403.5 418.410156 L 436.085938 418.410156 L 436.085938 419.867188 L 403.5 419.867188 Z M 403.5 418.410156 " fill-opacity="1" fill-rule="nonzero"/><path fill="#ffffff" d="M 403.5 421.90625 L 433.296875 421.90625 L 433.296875 423.367188 L 403.5 423.367188 Z M 403.5 421.90625 " fill-opacity="1" fill-rule="nonzero"/><path fill="#ffffff" d="M 403.5 425.40625 L 437.230469 425.40625 L 437.230469 426.863281 L 403.5 426.863281 Z M 403.5 425.40625 " fill-opacity="1" fill-rule="nonzero"/><path fill="#ffffff" d="M 403.5 428.90625 L 431.980469 428.90625 L 431.980469 430.363281 L 403.5 430.363281 Z M 403.5 428.90625 " fill-opacity="1" fill-rule="nonzero"/><path fill="#ffffff" d="M 403.5 432.402344 L 438.414062 432.402344 L 438.414062 433.863281 L 403.5 433.863281 Z M 403.5 432.402344 " fill-opacity="1" fill-rule="nonzero"/><path fill="#ffffff" d="M 403.5 435.902344 L 431.980469 435.902344 L 431.980469 437.359375 L 403.5 437.359375 Z M 403.5 435.902344 " fill-opacity="1" fill-rule="nonzero"/><path fill="#ffffff" d="M 331.886719 373.835938 L 385.855469 373.835938 L 385.855469 418.421875 L 331.886719 418.421875 Z M 331.886719 373.835938 " fill-opacity="1" fill-rule="nonzero"/><path fill="#53586a" d="M 339.03125 383.371094 L 378.714844 383.371094 L 378.714844 385.027344 L 339.03125 385.027344 Z M 339.03125 383.371094 " fill-opacity="1" fill-rule="nonzero"/><path fill="#53586a" d="M 339.03125 387.347656 L 376.066406 387.347656 L 376.066406 389.003906 L 339.03125 389.003906 Z M 339.03125 387.347656 " fill-opacity="1" fill-rule="nonzero"/><path fill="#53586a" d="M 339.03125 391.324219 L 372.898438 391.324219 L 372.898438 392.980469 L 339.03125 392.980469 Z M 339.03125 391.324219 " fill-opacity="1" fill-rule="nonzero"/><path fill="#53586a" d="M 339.03125 395.300781 L 377.367188 395.300781 L 377.367188 396.957031 L 339.03125 396.957031 Z M 339.03125 395.300781 " fill-opacity="1" fill-rule="nonzero"/><path fill="#53586a" d="M 339.03125 399.277344 L 371.398438 399.277344 L 371.398438 400.933594 L 339.03125 400.933594 Z M 339.03125 399.277344 " fill-opacity="1" fill-rule="nonzero"/><path fill="#53586a" d="M 339.03125 403.253906 L 378.714844 403.253906 L 378.714844 404.910156 L 339.03125 404.910156 Z M 339.03125 403.253906 " fill-opacity="1" fill-rule="nonzero"/><path fill="#53586a" d="M 339.03125 407.230469 L 371.398438 407.230469 L 371.398438 408.886719 L 339.03125 408.886719 Z M 339.03125 407.230469 " fill-opacity="1" fill-rule="nonzero"/><path fill="#414452" d="M 369.109375 411.953125 C 370.632812 415.003906 372.851562 417.414062 375.765625 419.183594 C 377.105469 419.996094 378.53125 420.617188 380.042969 421.039062 C 381.496094 421.445312 382.972656 421.664062 384.480469 421.691406 C 385.984375 421.722656 387.464844 421.5625 388.929688 421.210938 C 389.109375 421.167969 389.285156 421.121094 389.464844 421.074219 C 389.558594 421.039062 389.625 420.976562 389.667969 420.890625 C 389.710938 420.800781 389.714844 420.710938 389.679688 420.617188 C 389.644531 420.527344 389.585938 420.460938 389.496094 420.417969 C 389.40625 420.375 389.316406 420.371094 389.226562 420.402344 C 389.042969 420.449219 388.867188 420.492188 388.6875 420.539062 L 388.433594 420.597656 L 388.371094 420.609375 C 388.363281 420.609375 388.296875 420.628906 388.34375 420.617188 L 388.296875 420.628906 L 388.21875 420.644531 C 387.863281 420.714844 387.503906 420.777344 387.140625 420.824219 C 386.417969 420.925781 385.691406 420.976562 384.960938 420.984375 C 384.777344 420.984375 384.597656 420.984375 384.421875 420.984375 C 384.335938 420.984375 384.246094 420.980469 384.160156 420.976562 L 384.035156 420.96875 C 383.96875 420.96875 384.019531 420.96875 384.035156 420.96875 L 383.945312 420.964844 C 383.582031 420.945312 383.214844 420.914062 382.851562 420.875 C 382.132812 420.789062 381.417969 420.660156 380.714844 420.488281 C 380.53125 420.441406 380.355469 420.398438 380.179688 420.347656 L 379.941406 420.277344 L 379.808594 420.238281 L 379.734375 420.214844 C 379.78125 420.230469 379.746094 420.214844 379.71875 420.210938 C 379.371094 420.097656 379.027344 419.976562 378.6875 419.84375 C 377.96875 419.5625 377.273438 419.234375 376.597656 418.855469 C 376.425781 418.761719 376.253906 418.660156 376.085938 418.558594 L 375.957031 418.476562 L 375.882812 418.433594 C 375.898438 418.441406 375.9375 418.464844 375.875 418.425781 C 375.789062 418.371094 375.703125 418.316406 375.621094 418.261719 C 375.289062 418.042969 374.96875 417.8125 374.652344 417.574219 C 374.011719 417.085938 373.410156 416.554688 372.84375 415.984375 C 372.699219 415.839844 372.558594 415.691406 372.421875 415.542969 C 372.414062 415.535156 372.371094 415.488281 372.421875 415.539062 C 372.40625 415.519531 372.390625 415.503906 372.375 415.488281 L 372.285156 415.386719 C 372.210938 415.304688 372.140625 415.222656 372.070312 415.144531 C 371.808594 414.839844 371.558594 414.527344 371.316406 414.203125 C 370.839844 413.5625 370.410156 412.890625 370.027344 412.191406 C 369.980469 412.105469 369.933594 412.019531 369.890625 411.9375 L 369.859375 411.875 C 369.886719 411.929688 369.859375 411.875 369.859375 411.871094 C 369.832031 411.820312 369.808594 411.769531 369.78125 411.71875 C 369.699219 411.550781 369.523438 411.425781 369.328125 411.5 C 369.167969 411.566406 369.023438 411.773438 369.113281 411.957031 Z M 369.109375 411.953125 " fill-opacity="1" fill-rule="nonzero"/><path fill="#414452" d="M 393.066406 419.925781 L 387.917969 418.382812 L 389.15625 423.617188 Z M 393.066406 419.925781 " fill-opacity="1" fill-rule="nonzero"/><path fill="#bfcfd8" d="M 288.011719 540.636719 C 290.4375 540.921875 292.632812 539.132812 292.917969 536.640625 L 303.421875 444.203125 L 294.636719 443.164062 L 284.132812 535.601562 C 283.851562 538.09375 285.585938 540.347656 288.011719 540.636719 Z M 288.011719 540.636719 " fill-opacity="1" fill-rule="nonzero"/><path fill="#f7fffa" d="M 284.234375 535.886719 L 292.59375 536.859375 C 293.175781 536.925781 293.695312 536.609375 293.746094 536.152344 L 304.867188 439.230469 L 294.382812 438.011719 L 283.265625 534.9375 C 283.210938 535.394531 283.644531 535.820312 284.234375 535.886719 Z M 284.234375 535.886719 " fill-opacity="1" fill-rule="nonzero"/><path fill="#d09156" d="M 282.992188 531.074219 L 294.226562 433.785156 L 305.996094 435.144531 L 294.761719 532.433594 C 294.734375 532.683594 294.417969 532.851562 294.054688 532.8125 L 283.59375 531.605469 C 283.230469 531.5625 282.964844 531.324219 282.992188 531.074219 Z M 282.992188 531.074219 " fill-opacity="1" fill-rule="nonzero"/><path fill="#d79d59" d="M 286.558594 531.945312 L 297.632812 436.027344 C 298.585938 435.507812 299.488281 435.078125 300 435.402344 L 288.824219 532.210938 Z M 286.558594 531.945312 " fill-opacity="1" fill-rule="nonzero"/><path fill="#ddd4c4" d="M 305.996094 435.148438 C 305.996094 435.148438 303.9375 434.855469 302.933594 436.753906 C 302.835938 436.933594 302.5625 437.050781 302.28125 437 C 302.027344 436.953125 301.75 436.789062 301.570312 436.335938 C 301.261719 435.5625 300.019531 435.113281 299.070312 435.476562 C 298.917969 435.535156 298.769531 435.609375 298.628906 435.691406 C 297.464844 436.378906 295.566406 435.988281 294.894531 434.9375 C 294.683594 434.613281 294.40625 434.261719 294.230469 433.785156 L 299.5625 419.34375 L 304.242188 419.882812 Z M 305.996094 435.148438 " fill-opacity="1" fill-rule="nonzero"/><path fill="#95837b" d="M 304.238281 419.882812 L 303.410156 407.152344 L 299.558594 419.34375 C 299.558594 419.34375 301.75 420.296875 304.238281 419.882812 Z M 304.238281 419.882812 " fill-opacity="1" fill-rule="nonzero"/><path fill="#ca8f7a" d="M 292.203125 463.242188 C 292.5625 461.742188 292.246094 460.4375 293.34375 459.34375 C 294.695312 457.992188 296.507812 455.941406 297.261719 454.007812 C 297.324219 453.839844 297.347656 453.667969 297.324219 453.492188 C 297.304688 453.3125 297.246094 453.152344 297.144531 453.003906 C 297.046875 452.855469 296.917969 452.738281 296.761719 452.65625 C 296.605469 452.570312 296.4375 452.523438 296.261719 452.519531 C 293.734375 452.429688 288.355469 452.605469 288.15625 463.046875 Z M 292.203125 463.242188 " fill-opacity="1" fill-rule="nonzero"/><path fill="#94acb8" d="M 291.925781 461.894531 L 288.46875 460.492188 C 288.230469 460.394531 287.980469 460.351562 287.722656 460.371094 C 287.46875 460.390625 287.226562 460.46875 287.007812 460.601562 C 286.785156 460.734375 286.605469 460.910156 286.46875 461.128906 C 286.332031 461.347656 286.25 461.585938 286.226562 461.839844 C 285.769531 467.042969 283.605469 479.769531 273.171875 482.023438 L 272.214844 494.34375 C 272.214844 494.34375 289.28125 496.425781 292.925781 463.5625 C 292.960938 463.203125 292.886719 462.867188 292.703125 462.558594 C 292.519531 462.25 292.257812 462.03125 291.925781 461.894531 Z M 291.925781 461.894531 " fill-opacity="1" fill-rule="nonzero"/><path fill="#ff525a" d="M 423.007812 375.148438 L 422.59375 372.792969 C 422.582031 372.714844 422.542969 372.652344 422.476562 372.609375 C 422.414062 372.5625 422.339844 372.546875 422.261719 372.558594 L 421.289062 372.730469 C 421.210938 372.746094 421.136719 372.730469 421.074219 372.683594 C 421.007812 372.636719 420.96875 372.574219 420.953125 372.496094 C 420.941406 372.417969 420.902344 372.355469 420.835938 372.308594 C 420.773438 372.265625 420.699219 372.25 420.621094 372.261719 L 417.847656 372.75 L 420.007812 370.9375 C 420.066406 370.886719 420.101562 370.824219 420.109375 370.742188 C 420.113281 370.664062 420.09375 370.59375 420.042969 370.53125 C 419.992188 370.472656 419.96875 370.402344 419.976562 370.320312 C 419.980469 370.242188 420.015625 370.175781 420.078125 370.125 L 420.835938 369.488281 C 420.894531 369.4375 420.929688 369.371094 420.9375 369.292969 C 420.945312 369.210938 420.921875 369.140625 420.871094 369.082031 L 419.335938 367.246094 C 419.285156 367.1875 419.21875 367.152344 419.140625 367.144531 C 419.0625 367.140625 418.992188 367.160156 418.929688 367.210938 L 418.171875 367.851562 C 418.113281 367.902344 418.042969 367.925781 417.964844 367.917969 C 417.882812 367.910156 417.820312 367.875 417.765625 367.816406 C 417.714844 367.753906 417.652344 367.71875 417.570312 367.714844 C 417.492188 367.707031 417.421875 367.730469 417.359375 367.78125 L 415.203125 369.589844 L 416.167969 366.945312 C 416.195312 366.871094 416.191406 366.796875 416.15625 366.722656 C 416.125 366.652344 416.070312 366.601562 415.996094 366.574219 C 415.921875 366.546875 415.867188 366.5 415.835938 366.425781 C 415.800781 366.355469 415.796875 366.285156 415.824219 366.210938 L 416.164062 365.28125 C 416.1875 365.207031 416.183594 365.132812 416.152344 365.0625 C 416.117188 364.992188 416.0625 364.941406 415.988281 364.914062 L 413.746094 364.09375 C 413.671875 364.066406 413.597656 364.070312 413.527344 364.105469 C 413.457031 364.136719 413.410156 364.191406 413.382812 364.265625 L 413.042969 365.195312 C 413.015625 365.269531 412.964844 365.320312 412.894531 365.355469 C 412.824219 365.390625 412.753906 365.394531 412.679688 365.367188 C 412.601562 365.339844 412.53125 365.34375 412.457031 365.375 C 412.386719 365.410156 412.335938 365.464844 412.308594 365.539062 L 411.34375 368.1875 L 410.855469 365.410156 C 410.84375 365.328125 410.804688 365.269531 410.738281 365.222656 C 410.671875 365.175781 410.601562 365.160156 410.523438 365.175781 C 410.445312 365.1875 410.371094 365.171875 410.308594 365.125 C 410.242188 365.082031 410.203125 365.019531 410.1875 364.941406 L 410.015625 363.964844 C 410.003906 363.886719 409.964844 363.824219 409.898438 363.777344 C 409.835938 363.734375 409.761719 363.71875 409.683594 363.730469 L 407.332031 364.144531 C 407.253906 364.160156 407.191406 364.199219 407.144531 364.265625 C 407.101562 364.328125 407.085938 364.402344 407.097656 364.480469 L 407.269531 365.453125 C 407.28125 365.53125 407.265625 365.605469 407.222656 365.667969 C 407.175781 365.734375 407.113281 365.773438 407.035156 365.789062 C 406.957031 365.800781 406.894531 365.839844 406.847656 365.90625 C 406.804688 365.972656 406.785156 366.042969 406.800781 366.121094 L 407.289062 368.898438 L 405.480469 366.738281 C 405.429688 366.675781 405.363281 366.644531 405.285156 366.636719 C 405.203125 366.628906 405.132812 366.652344 405.074219 366.703125 C 405.011719 366.753906 404.941406 366.773438 404.863281 366.769531 C 404.78125 366.761719 404.71875 366.726562 404.667969 366.664062 L 404.027344 365.90625 C 403.976562 365.847656 403.914062 365.8125 403.832031 365.804688 C 403.753906 365.800781 403.683594 365.820312 403.625 365.871094 L 401.792969 367.40625 C 401.730469 367.457031 401.699219 367.523438 401.691406 367.605469 C 401.683594 367.683594 401.707031 367.753906 401.757812 367.816406 L 402.394531 368.574219 C 402.445312 368.632812 402.46875 368.703125 402.460938 368.785156 C 402.453125 368.863281 402.417969 368.925781 402.359375 368.980469 C 402.296875 369.03125 402.265625 369.09375 402.257812 369.175781 C 402.25 369.253906 402.273438 369.324219 402.324219 369.386719 L 404.132812 371.546875 L 401.488281 370.582031 C 401.414062 370.554688 401.339844 370.554688 401.269531 370.589844 C 401.195312 370.625 401.148438 370.679688 401.121094 370.753906 C 401.09375 370.828125 401.042969 370.882812 400.96875 370.914062 C 400.898438 370.949219 400.824219 370.953125 400.75 370.925781 L 399.820312 370.585938 C 399.746094 370.558594 399.671875 370.5625 399.601562 370.59375 C 399.527344 370.628906 399.480469 370.683594 399.453125 370.757812 L 398.632812 373.003906 C 398.605469 373.078125 398.605469 373.152344 398.640625 373.226562 C 398.675781 373.296875 398.730469 373.347656 398.804688 373.375 L 399.734375 373.714844 C 399.808594 373.742188 399.863281 373.789062 399.894531 373.863281 C 399.929688 373.933594 399.929688 374.007812 399.902344 374.082031 C 399.875 374.160156 399.878906 374.230469 399.914062 374.304688 C 399.949219 374.375 400 374.425781 400.074219 374.453125 L 402.71875 375.417969 L 399.945312 375.90625 C 399.867188 375.921875 399.804688 375.960938 399.757812 376.027344 C 399.714844 376.089844 399.699219 376.164062 399.710938 376.242188 C 399.726562 376.320312 399.710938 376.390625 399.664062 376.457031 C 399.617188 376.523438 399.554688 376.5625 399.476562 376.574219 L 398.503906 376.746094 C 398.425781 376.761719 398.363281 376.800781 398.316406 376.863281 C 398.273438 376.929688 398.257812 377.003906 398.269531 377.082031 L 398.683594 379.433594 C 398.695312 379.515625 398.738281 379.574219 398.800781 379.621094 C 398.867188 379.667969 398.9375 379.683594 399.015625 379.667969 L 399.992188 379.5 C 400.070312 379.484375 400.140625 379.5 400.207031 379.546875 C 400.269531 379.59375 400.308594 379.65625 400.324219 379.734375 C 400.335938 379.8125 400.378906 379.875 400.441406 379.917969 C 400.507812 379.964844 400.578125 379.980469 400.65625 379.96875 L 403.433594 379.480469 L 401.265625 381.28125 C 401.203125 381.335938 401.171875 381.398438 401.164062 381.480469 C 401.15625 381.558594 401.179688 381.628906 401.230469 381.6875 C 401.28125 381.75 401.304688 381.820312 401.296875 381.898438 C 401.289062 381.980469 401.253906 382.042969 401.195312 382.097656 L 400.4375 382.734375 C 400.375 382.785156 400.339844 382.851562 400.335938 382.929688 C 400.328125 383.011719 400.351562 383.082031 400.402344 383.140625 L 401.933594 384.972656 C 401.988281 385.035156 402.050781 385.070312 402.128906 385.078125 C 402.210938 385.082031 402.28125 385.0625 402.339844 385.011719 L 403.097656 384.371094 C 403.160156 384.320312 403.230469 384.296875 403.308594 384.304688 C 403.386719 384.3125 403.453125 384.34375 403.503906 384.40625 C 403.554688 384.46875 403.621094 384.5 403.699219 384.507812 C 403.78125 384.515625 403.847656 384.492188 403.910156 384.441406 L 406.070312 382.632812 L 405.105469 385.277344 C 405.078125 385.351562 405.078125 385.425781 405.113281 385.5 C 405.148438 385.570312 405.199219 385.621094 405.277344 385.648438 C 405.351562 385.675781 405.40625 385.726562 405.4375 385.796875 C 405.472656 385.871094 405.476562 385.941406 405.449219 386.019531 L 405.109375 386.945312 C 405.082031 387.023438 405.085938 387.09375 405.117188 387.167969 C 405.152344 387.238281 405.207031 387.289062 405.28125 387.316406 L 407.523438 388.140625 C 407.601562 388.167969 407.671875 388.164062 407.746094 388.128906 C 407.816406 388.097656 407.867188 388.042969 407.894531 387.96875 L 408.234375 387.039062 C 408.261719 386.960938 408.308594 386.910156 408.382812 386.875 C 408.453125 386.839844 408.527344 386.835938 408.601562 386.863281 C 408.675781 386.890625 408.75 386.890625 408.824219 386.855469 C 408.894531 386.824219 408.945312 386.769531 408.972656 386.691406 L 409.9375 384.046875 L 410.425781 386.824219 C 410.4375 386.902344 410.476562 386.964844 410.542969 387.011719 C 410.609375 387.054688 410.679688 387.070312 410.757812 387.058594 C 410.835938 387.042969 410.910156 387.0625 410.972656 387.105469 C 411.039062 387.152344 411.078125 387.214844 411.09375 387.292969 L 411.261719 388.265625 C 411.277344 388.34375 411.316406 388.40625 411.382812 388.453125 C 411.445312 388.5 411.519531 388.515625 411.597656 388.5 L 413.949219 388.085938 C 414.027344 388.074219 414.089844 388.035156 414.136719 387.96875 C 414.179688 387.902344 414.195312 387.832031 414.183594 387.753906 L 414.011719 386.777344 C 414 386.699219 414.015625 386.628906 414.058594 386.5625 C 414.105469 386.5 414.167969 386.457031 414.246094 386.445312 C 414.324219 386.429688 414.386719 386.390625 414.433594 386.328125 C 414.476562 386.261719 414.492188 386.1875 414.480469 386.109375 L 413.992188 383.332031 L 415.800781 385.496094 C 415.851562 385.554688 415.917969 385.589844 415.996094 385.597656 C 416.078125 385.605469 416.148438 385.582031 416.207031 385.53125 C 416.269531 385.480469 416.339844 385.457031 416.417969 385.464844 C 416.496094 385.472656 416.5625 385.503906 416.613281 385.566406 L 417.25 386.324219 C 417.300781 386.386719 417.367188 386.417969 417.445312 386.425781 C 417.527344 386.433594 417.597656 386.410156 417.65625 386.359375 L 419.488281 384.824219 C 419.546875 384.773438 419.582031 384.707031 419.589844 384.628906 C 419.597656 384.550781 419.574219 384.480469 419.523438 384.417969 L 418.886719 383.660156 C 418.835938 383.597656 418.8125 383.527344 418.820312 383.449219 C 418.828125 383.371094 418.859375 383.304688 418.921875 383.253906 C 418.984375 383.203125 419.015625 383.136719 419.023438 383.058594 C 419.03125 382.976562 419.007812 382.910156 418.957031 382.847656 L 417.148438 380.683594 L 419.792969 381.648438 C 419.867188 381.675781 419.941406 381.671875 420.011719 381.640625 C 420.085938 381.605469 420.132812 381.550781 420.160156 381.476562 C 420.1875 381.402344 420.238281 381.347656 420.3125 381.3125 C 420.382812 381.28125 420.457031 381.277344 420.53125 381.304688 L 421.460938 381.644531 C 421.535156 381.667969 421.605469 381.664062 421.675781 381.632812 C 421.75 381.597656 421.796875 381.542969 421.824219 381.472656 L 422.644531 379.222656 C 422.671875 379.148438 422.667969 379.078125 422.636719 379.003906 C 422.601562 378.933594 422.546875 378.882812 422.472656 378.855469 L 421.542969 378.515625 C 421.46875 378.488281 421.414062 378.4375 421.382812 378.367188 C 421.347656 378.292969 421.34375 378.21875 421.371094 378.144531 C 421.398438 378.070312 421.394531 377.996094 421.363281 377.925781 C 421.328125 377.851562 421.273438 377.804688 421.199219 377.777344 L 418.558594 376.808594 L 421.332031 376.320312 C 421.410156 376.308594 421.472656 376.269531 421.515625 376.203125 C 421.5625 376.136719 421.578125 376.066406 421.566406 375.988281 C 421.550781 375.910156 421.566406 375.835938 421.613281 375.773438 C 421.660156 375.707031 421.71875 375.667969 421.800781 375.652344 L 422.777344 375.480469 C 422.855469 375.46875 422.914062 375.429688 422.960938 375.363281 C 423.007812 375.296875 423.023438 375.226562 423.007812 375.148438 Z M 415.742188 377.976562 C 415.621094 378.3125 415.464844 378.632812 415.28125 378.941406 C 415.09375 379.246094 414.882812 379.527344 414.640625 379.792969 C 414.398438 380.054688 414.136719 380.292969 413.847656 380.503906 C 413.558594 380.714844 413.253906 380.894531 412.929688 381.046875 C 412.605469 381.199219 412.269531 381.316406 411.925781 381.398438 C 411.578125 381.484375 411.226562 381.535156 410.871094 381.550781 C 410.511719 381.566406 410.160156 381.546875 409.804688 381.492188 C 409.453125 381.4375 409.109375 381.347656 408.773438 381.226562 C 408.4375 381.101562 408.117188 380.949219 407.8125 380.765625 C 407.507812 380.578125 407.226562 380.363281 406.960938 380.125 C 406.699219 379.882812 406.460938 379.617188 406.25 379.328125 C 406.039062 379.039062 405.859375 378.734375 405.707031 378.410156 C 405.558594 378.085938 405.441406 377.75 405.355469 377.402344 C 405.269531 377.058594 405.222656 376.703125 405.207031 376.347656 C 405.191406 375.992188 405.210938 375.636719 405.265625 375.28125 C 405.320312 374.929688 405.40625 374.585938 405.53125 374.25 C 405.652344 373.914062 405.804688 373.59375 405.992188 373.289062 C 406.175781 372.984375 406.390625 372.699219 406.632812 372.433594 C 406.871094 372.171875 407.136719 371.933594 407.425781 371.722656 C 407.714844 371.511719 408.019531 371.332031 408.34375 371.179688 C 408.664062 371.03125 409 370.914062 409.347656 370.828125 C 409.695312 370.742188 410.046875 370.691406 410.402344 370.675781 C 410.757812 370.664062 411.113281 370.683594 411.464844 370.738281 C 411.820312 370.792969 412.164062 370.878906 412.5 371 C 412.832031 371.125 413.152344 371.277344 413.457031 371.464844 C 413.761719 371.648438 414.046875 371.863281 414.308594 372.105469 C 414.574219 372.347656 414.808594 372.609375 415.019531 372.898438 C 415.230469 373.1875 415.410156 373.492188 415.5625 373.816406 C 415.710938 374.140625 415.828125 374.476562 415.914062 374.824219 C 416 375.167969 416.050781 375.519531 416.066406 375.878906 C 416.082031 376.234375 416.0625 376.589844 416.007812 376.941406 C 415.953125 377.296875 415.863281 377.640625 415.742188 377.976562 Z M 415.742188 377.976562 " fill-opacity="1" fill-rule="nonzero"/><path fill="#ff525a" d="M 410.34375 369.15625 L 410.929688 369.15625 L 410.929688 383.066406 L 410.34375 383.066406 Z M 410.34375 369.15625 " fill-opacity="1" fill-rule="nonzero"/><path fill="#ff525a" d="M 406.910156 370.238281 L 407.417969 369.945312 L 414.363281 381.992188 L 413.855469 382.285156 Z M 406.910156 370.238281 " fill-opacity="1" fill-rule="nonzero"/><path fill="#ff525a" d="M 404.472656 372.890625 L 404.769531 372.382812 L 416.800781 379.335938 L 416.507812 379.84375 Z M 404.472656 372.890625 " fill-opacity="1" fill-rule="nonzero"/><path fill="#ff525a" d="M 403.691406 376.40625 L 403.691406 375.816406 L 417.582031 375.816406 L 417.582031 376.40625 Z M 403.691406 376.40625 " fill-opacity="1" fill-rule="nonzero"/><path fill="#ff525a" d="M 405.476562 378.707031 L 405.183594 378.195312 L 417.273438 371.242188 L 417.566406 371.75 Z M 405.476562 378.707031 " fill-opacity="1" fill-rule="nonzero"/><path fill="#ff525a" d="M 407.417969 382.28125 L 406.910156 381.988281 L 413.855469 369.941406 L 414.363281 370.234375 Z M 407.417969 382.28125 " fill-opacity="1" fill-rule="nonzero"/><path fill="#ff6e74" d="M 413.617188 375.878906 L 413.519531 375.3125 C 413.511719 375.265625 413.484375 375.246094 413.4375 375.253906 L 413.203125 375.296875 C 413.15625 375.304688 413.132812 375.285156 413.125 375.238281 C 413.117188 375.195312 413.089844 375.175781 413.042969 375.183594 L 412.375 375.300781 L 412.894531 374.863281 C 412.929688 374.835938 412.933594 374.800781 412.902344 374.765625 C 412.871094 374.730469 412.875 374.699219 412.914062 374.667969 L 413.09375 374.515625 C 413.128906 374.484375 413.132812 374.453125 413.105469 374.417969 L 412.734375 373.976562 C 412.703125 373.9375 412.671875 373.9375 412.636719 373.964844 L 412.453125 374.121094 C 412.417969 374.148438 412.386719 374.148438 412.355469 374.113281 C 412.324219 374.074219 412.292969 374.070312 412.257812 374.101562 L 411.738281 374.539062 L 411.96875 373.902344 C 411.988281 373.855469 411.972656 373.824219 411.929688 373.808594 C 411.882812 373.792969 411.867188 373.761719 411.886719 373.71875 L 411.96875 373.496094 C 411.984375 373.449219 411.972656 373.417969 411.925781 373.402344 L 411.386719 373.207031 C 411.339844 373.1875 411.308594 373.203125 411.292969 373.246094 L 411.210938 373.472656 C 411.195312 373.515625 411.164062 373.53125 411.121094 373.511719 C 411.074219 373.496094 411.046875 373.507812 411.03125 373.554688 L 410.796875 374.195312 L 410.679688 373.523438 C 410.671875 373.476562 410.644531 373.457031 410.597656 373.46875 C 410.554688 373.476562 410.527344 373.457031 410.519531 373.410156 L 410.476562 373.175781 C 410.46875 373.128906 410.441406 373.109375 410.398438 373.121094 L 409.828125 373.21875 C 409.785156 373.226562 409.765625 373.253906 409.773438 373.300781 L 409.816406 373.535156 C 409.824219 373.582031 409.804688 373.605469 409.757812 373.617188 C 409.710938 373.625 409.695312 373.648438 409.703125 373.695312 L 409.820312 374.367188 L 409.382812 373.84375 C 409.351562 373.808594 409.320312 373.804688 409.285156 373.835938 C 409.25 373.867188 409.21875 373.863281 409.1875 373.828125 L 409.035156 373.644531 C 409.003906 373.609375 408.972656 373.605469 408.9375 373.636719 L 408.496094 374.007812 C 408.460938 374.035156 408.457031 374.066406 408.488281 374.105469 L 408.640625 374.285156 C 408.667969 374.320312 408.667969 374.355469 408.632812 374.382812 C 408.597656 374.414062 408.59375 374.445312 408.621094 374.480469 L 409.058594 375.003906 L 408.421875 374.769531 C 408.375 374.753906 408.34375 374.765625 408.328125 374.8125 C 408.3125 374.859375 408.28125 374.871094 408.238281 374.851562 L 408.015625 374.773438 C 407.96875 374.753906 407.9375 374.769531 407.921875 374.8125 L 407.726562 375.355469 C 407.707031 375.398438 407.722656 375.429688 407.769531 375.445312 L 407.992188 375.527344 C 408.035156 375.542969 408.050781 375.574219 408.03125 375.621094 C 408.015625 375.664062 408.027344 375.695312 408.074219 375.710938 L 408.710938 375.945312 L 408.042969 376.0625 C 407.996094 376.070312 407.980469 376.097656 407.988281 376.140625 C 407.996094 376.1875 407.976562 376.214844 407.929688 376.222656 L 407.695312 376.261719 C 407.652344 376.273438 407.632812 376.296875 407.640625 376.34375 L 407.738281 376.914062 C 407.746094 376.957031 407.773438 376.976562 407.820312 376.96875 L 408.054688 376.925781 C 408.097656 376.917969 408.125 376.9375 408.132812 376.984375 C 408.140625 377.027344 408.167969 377.046875 408.214844 377.039062 L 408.882812 376.921875 L 408.363281 377.359375 C 408.328125 377.390625 408.324219 377.421875 408.355469 377.457031 C 408.386719 377.492188 408.382812 377.523438 408.34375 377.554688 L 408.164062 377.707031 C 408.128906 377.738281 408.125 377.769531 408.15625 377.804688 L 408.523438 378.25 C 408.554688 378.285156 408.585938 378.285156 408.621094 378.257812 L 408.804688 378.101562 C 408.839844 378.074219 408.875 378.074219 408.902344 378.113281 C 408.933594 378.148438 408.964844 378.148438 409 378.121094 L 409.519531 377.683594 L 409.289062 378.324219 C 409.269531 378.367188 409.285156 378.398438 409.328125 378.414062 C 409.375 378.429688 409.390625 378.460938 409.371094 378.503906 L 409.289062 378.730469 C 409.273438 378.773438 409.285156 378.804688 409.332031 378.820312 L 409.871094 379.019531 C 409.917969 379.035156 409.949219 379.023438 409.964844 378.976562 L 410.042969 378.753906 C 410.0625 378.707031 410.089844 378.695312 410.136719 378.710938 C 410.179688 378.730469 410.210938 378.714844 410.226562 378.671875 L 410.460938 378.03125 L 410.578125 378.703125 C 410.585938 378.746094 410.613281 378.765625 410.65625 378.757812 C 410.703125 378.75 410.730469 378.769531 410.738281 378.8125 L 410.777344 379.050781 C 410.785156 379.09375 410.8125 379.113281 410.859375 379.105469 L 411.425781 379.003906 C 411.472656 378.996094 411.492188 378.972656 411.484375 378.925781 L 411.441406 378.691406 C 411.433594 378.644531 411.453125 378.617188 411.496094 378.609375 C 411.542969 378.601562 411.5625 378.574219 411.554688 378.53125 L 411.4375 377.859375 L 411.871094 378.378906 C 411.902344 378.417969 411.933594 378.421875 411.96875 378.390625 C 412.007812 378.359375 412.039062 378.363281 412.070312 378.398438 L 412.222656 378.582031 C 412.25 378.617188 412.285156 378.617188 412.320312 378.589844 L 412.761719 378.21875 C 412.796875 378.1875 412.800781 378.15625 412.769531 378.121094 L 412.617188 377.9375 C 412.585938 377.902344 412.589844 377.871094 412.625 377.839844 C 412.660156 377.808594 412.664062 377.777344 412.632812 377.742188 L 412.203125 377.214844 L 412.839844 377.449219 C 412.886719 377.464844 412.917969 377.453125 412.933594 377.40625 C 412.949219 377.359375 412.976562 377.347656 413.023438 377.363281 L 413.246094 377.445312 C 413.292969 377.464844 413.324219 377.449219 413.339844 377.40625 L 413.535156 376.863281 C 413.554688 376.820312 413.539062 376.789062 413.496094 376.773438 L 413.269531 376.691406 C 413.226562 376.675781 413.210938 376.644531 413.230469 376.601562 C 413.246094 376.554688 413.230469 376.523438 413.1875 376.507812 L 412.550781 376.277344 L 413.21875 376.160156 C 413.261719 376.148438 413.28125 376.125 413.273438 376.078125 C 413.265625 376.03125 413.285156 376.003906 413.332031 375.996094 L 413.566406 375.957031 C 413.605469 375.945312 413.625 375.921875 413.617188 375.878906 Z M 411.867188 376.5625 C 411.808594 376.722656 411.71875 376.871094 411.601562 377 C 411.484375 377.125 411.347656 377.226562 411.1875 377.300781 C 411.03125 377.375 410.867188 377.414062 410.691406 377.421875 C 410.519531 377.429688 410.347656 377.402344 410.1875 377.34375 C 410.023438 377.285156 409.878906 377.195312 409.75 377.078125 C 409.621094 376.960938 409.519531 376.824219 409.445312 376.664062 C 409.375 376.507812 409.332031 376.34375 409.324219 376.167969 C 409.316406 375.996094 409.34375 375.824219 409.402344 375.660156 C 409.464844 375.5 409.550781 375.351562 409.667969 375.222656 C 409.785156 375.097656 409.925781 374.996094 410.082031 374.921875 C 410.238281 374.847656 410.40625 374.808594 410.578125 374.800781 C 410.753906 374.792969 410.921875 374.820312 411.085938 374.878906 C 411.246094 374.9375 411.394531 375.027344 411.523438 375.144531 C 411.648438 375.261719 411.75 375.398438 411.824219 375.558594 C 411.898438 375.714844 411.9375 375.882812 411.945312 376.054688 C 411.953125 376.230469 411.925781 376.398438 411.867188 376.5625 Z M 411.867188 376.5625 " fill-opacity="1" fill-rule="nonzero"/><path fill="#e3be5f" d="M 441.53125 391.109375 L 441.328125 389.949219 C 441.3125 389.855469 441.257812 389.816406 441.164062 389.832031 L 440.683594 389.917969 C 440.589844 389.933594 440.535156 389.894531 440.519531 389.800781 C 440.503906 389.707031 440.449219 389.667969 440.355469 389.683594 L 438.988281 389.925781 L 440.054688 389.03125 C 440.125 388.972656 440.132812 388.902344 440.070312 388.832031 C 440.011719 388.757812 440.015625 388.691406 440.089844 388.628906 L 440.460938 388.316406 C 440.535156 388.257812 440.539062 388.191406 440.480469 388.117188 L 439.722656 387.210938 C 439.660156 387.140625 439.59375 387.132812 439.523438 387.195312 L 439.148438 387.507812 C 439.074219 387.570312 439.007812 387.5625 438.949219 387.492188 C 438.886719 387.417969 438.820312 387.414062 438.746094 387.472656 L 437.683594 388.367188 L 438.160156 387.058594 C 438.191406 386.96875 438.160156 386.910156 438.074219 386.875 C 437.984375 386.84375 437.957031 386.785156 437.988281 386.695312 L 438.15625 386.238281 C 438.1875 386.148438 438.160156 386.089844 438.070312 386.054688 L 436.964844 385.652344 C 436.875 385.621094 436.8125 385.648438 436.78125 385.734375 L 436.613281 386.191406 C 436.582031 386.28125 436.519531 386.308594 436.433594 386.277344 C 436.34375 386.242188 436.28125 386.273438 436.25 386.363281 L 435.773438 387.667969 L 435.535156 386.300781 C 435.515625 386.207031 435.460938 386.167969 435.367188 386.183594 C 435.273438 386.203125 435.21875 386.164062 435.203125 386.070312 L 435.117188 385.589844 C 435.101562 385.496094 435.046875 385.457031 434.953125 385.472656 L 433.792969 385.675781 C 433.699219 385.691406 433.660156 385.75 433.679688 385.84375 L 433.761719 386.324219 C 433.78125 386.417969 433.742188 386.472656 433.648438 386.488281 C 433.554688 386.503906 433.515625 386.558594 433.53125 386.652344 L 433.773438 388.023438 L 432.878906 386.957031 C 432.820312 386.882812 432.75 386.875 432.679688 386.9375 C 432.605469 387 432.539062 386.992188 432.480469 386.917969 L 432.164062 386.546875 C 432.105469 386.472656 432.039062 386.46875 431.964844 386.527344 L 431.0625 387.285156 C 430.988281 387.347656 430.984375 387.414062 431.042969 387.488281 L 431.359375 387.859375 C 431.417969 387.933594 431.410156 388 431.339844 388.0625 C 431.265625 388.121094 431.261719 388.1875 431.320312 388.261719 L 432.214844 389.328125 L 430.910156 388.851562 C 430.820312 388.820312 430.757812 388.847656 430.726562 388.9375 C 430.695312 389.023438 430.632812 389.054688 430.542969 389.019531 L 430.089844 388.855469 C 430 388.820312 429.9375 388.851562 429.90625 388.9375 L 429.503906 390.046875 C 429.46875 390.136719 429.496094 390.199219 429.585938 390.230469 L 430.042969 390.398438 C 430.132812 390.429688 430.160156 390.492188 430.128906 390.582031 C 430.097656 390.667969 430.125 390.730469 430.214844 390.761719 L 431.519531 391.238281 L 430.152344 391.480469 C 430.058594 391.496094 430.019531 391.550781 430.035156 391.644531 C 430.054688 391.738281 430.015625 391.792969 429.921875 391.8125 L 429.441406 391.894531 C 429.347656 391.910156 429.308594 391.964844 429.324219 392.058594 L 429.527344 393.222656 C 429.546875 393.316406 429.601562 393.355469 429.695312 393.335938 L 430.175781 393.253906 C 430.269531 393.238281 430.324219 393.273438 430.339844 393.371094 C 430.355469 393.460938 430.410156 393.5 430.503906 393.484375 L 431.871094 393.242188 L 430.804688 394.136719 C 430.734375 394.199219 430.726562 394.265625 430.789062 394.339844 C 430.847656 394.410156 430.84375 394.476562 430.769531 394.539062 L 430.394531 394.851562 C 430.324219 394.914062 430.316406 394.980469 430.378906 395.054688 L 431.136719 395.957031 C 431.195312 396.03125 431.261719 396.035156 431.335938 395.976562 L 431.710938 395.660156 C 431.78125 395.601562 431.851562 395.605469 431.910156 395.679688 C 431.972656 395.753906 432.039062 395.757812 432.109375 395.695312 L 433.175781 394.800781 L 432.699219 396.109375 C 432.667969 396.199219 432.695312 396.261719 432.785156 396.292969 C 432.875 396.324219 432.902344 396.386719 432.871094 396.476562 L 432.703125 396.929688 C 432.667969 397.019531 432.699219 397.082031 432.789062 397.113281 L 433.894531 397.519531 C 433.984375 397.550781 434.042969 397.523438 434.078125 397.433594 L 434.242188 396.976562 C 434.277344 396.886719 434.335938 396.859375 434.425781 396.890625 C 434.515625 396.925781 434.578125 396.898438 434.609375 396.808594 L 435.085938 395.5 L 435.324219 396.867188 C 435.34375 396.960938 435.398438 397 435.492188 396.984375 C 435.585938 396.96875 435.640625 397.007812 435.65625 397.101562 L 435.738281 397.582031 C 435.757812 397.675781 435.8125 397.714844 435.90625 397.695312 L 437.066406 397.492188 C 437.160156 397.476562 437.199219 397.421875 437.179688 397.328125 L 437.097656 396.847656 C 437.078125 396.753906 437.117188 396.699219 437.210938 396.679688 C 437.304688 396.664062 437.34375 396.609375 437.328125 396.515625 L 437.085938 395.148438 L 437.980469 396.214844 C 438.039062 396.289062 438.105469 396.292969 438.179688 396.234375 C 438.253906 396.171875 438.320312 396.175781 438.378906 396.25 L 438.695312 396.625 C 438.753906 396.695312 438.820312 396.703125 438.894531 396.640625 L 439.796875 395.882812 C 439.871094 395.824219 439.875 395.757812 439.816406 395.683594 L 439.503906 395.308594 C 439.441406 395.238281 439.445312 395.167969 439.519531 395.109375 C 439.59375 395.046875 439.597656 394.980469 439.535156 394.90625 L 438.644531 393.839844 L 439.949219 394.316406 C 440.039062 394.351562 440.101562 394.324219 440.132812 394.234375 C 440.164062 394.144531 440.226562 394.113281 440.316406 394.148438 L 440.769531 394.316406 C 440.859375 394.347656 440.921875 394.320312 440.953125 394.230469 L 441.355469 393.121094 C 441.390625 393.03125 441.359375 392.972656 441.273438 392.9375 L 440.816406 392.773438 C 440.726562 392.738281 440.699219 392.679688 440.730469 392.589844 C 440.765625 392.5 440.734375 392.441406 440.648438 392.40625 L 439.339844 391.929688 L 440.707031 391.691406 C 440.800781 391.675781 440.839844 391.617188 440.824219 391.523438 C 440.808594 391.433594 440.84375 391.375 440.9375 391.359375 L 441.417969 391.277344 C 441.511719 391.257812 441.550781 391.203125 441.53125 391.109375 Z M 437.945312 392.503906 C 437.824219 392.839844 437.644531 393.136719 437.402344 393.402344 C 437.164062 393.664062 436.878906 393.871094 436.558594 394.019531 C 436.234375 394.167969 435.898438 394.253906 435.542969 394.269531 C 435.1875 394.285156 434.839844 394.230469 434.507812 394.109375 C 434.171875 393.984375 433.875 393.804688 433.613281 393.5625 C 433.351562 393.324219 433.144531 393.039062 432.996094 392.71875 C 432.84375 392.394531 432.761719 392.054688 432.746094 391.699219 C 432.730469 391.34375 432.785156 391 432.90625 390.664062 C 433.027344 390.328125 433.210938 390.03125 433.449219 389.769531 C 433.691406 389.507812 433.972656 389.300781 434.292969 389.148438 C 434.617188 389 434.957031 388.917969 435.3125 388.902344 C 435.667969 388.886719 436.011719 388.941406 436.347656 389.0625 C 436.679688 389.183594 436.976562 389.367188 437.238281 389.605469 C 437.503906 389.847656 437.707031 390.128906 437.859375 390.453125 C 438.007812 390.773438 438.089844 391.113281 438.105469 391.46875 C 438.121094 391.824219 438.066406 392.171875 437.945312 392.503906 Z M 437.945312 392.503906 " fill-opacity="1" fill-rule="nonzero"/><path fill="#e3be5f" d="M 435.28125 388.152344 L 435.570312 388.152344 L 435.570312 395.015625 L 435.28125 395.015625 Z M 435.28125 388.152344 " fill-opacity="1" fill-rule="nonzero"/><path fill="#e3be5f" d="M 433.585938 388.6875 L 433.835938 388.542969 L 437.265625 394.488281 L 437.015625 394.632812 Z M 433.585938 388.6875 " fill-opacity="1" fill-rule="nonzero"/><path fill="#e3be5f" d="M 432.382812 389.992188 L 432.527344 389.738281 L 438.464844 393.171875 L 438.320312 393.421875 Z M 432.382812 389.992188 " fill-opacity="1" fill-rule="nonzero"/><path fill="#e3be5f" d="M 432 391.730469 L 432 391.441406 L 438.855469 391.441406 L 438.855469 391.730469 Z M 432 391.730469 " fill-opacity="1" fill-rule="nonzero"/><path fill="#e3be5f" d="M 432.539062 393.425781 L 432.394531 393.175781 L 438.332031 389.746094 L 438.476562 389.996094 Z M 432.539062 393.425781 " fill-opacity="1" fill-rule="nonzero"/><path fill="#e3be5f" d="M 433.84375 394.625 L 433.59375 394.480469 L 437.023438 388.535156 L 437.273438 388.683594 Z M 433.84375 394.625 " fill-opacity="1" fill-rule="nonzero"/><path fill="#edd28c" d="M 436.898438 391.46875 L 436.847656 391.191406 C 436.84375 391.167969 436.832031 391.160156 436.808594 391.164062 L 436.695312 391.183594 C 436.671875 391.1875 436.65625 391.175781 436.652344 391.15625 C 436.648438 391.132812 436.636719 391.125 436.613281 391.128906 L 436.285156 391.183594 L 436.539062 390.96875 C 436.558594 390.953125 436.558594 390.9375 436.546875 390.921875 C 436.53125 390.90625 436.53125 390.886719 436.546875 390.871094 L 436.636719 390.796875 C 436.652344 390.78125 436.652344 390.765625 436.636719 390.75 L 436.453125 390.53125 C 436.4375 390.515625 436.421875 390.515625 436.40625 390.53125 L 436.316406 390.605469 C 436.296875 390.621094 436.28125 390.617188 436.265625 390.601562 C 436.25 390.585938 436.234375 390.585938 436.21875 390.601562 L 435.960938 390.816406 L 436.074219 390.503906 C 436.085938 390.480469 436.078125 390.464844 436.054688 390.457031 C 436.035156 390.449219 436.027344 390.4375 436.035156 390.414062 L 436.074219 390.304688 C 436.082031 390.28125 436.078125 390.265625 436.054688 390.257812 L 435.789062 390.160156 C 435.765625 390.15625 435.753906 390.160156 435.746094 390.183594 L 435.703125 390.292969 C 435.695312 390.316406 435.683594 390.320312 435.660156 390.3125 C 435.636719 390.304688 435.625 390.3125 435.617188 390.335938 L 435.5 390.648438 L 435.445312 390.320312 C 435.4375 390.296875 435.425781 390.289062 435.402344 390.292969 C 435.378906 390.296875 435.367188 390.285156 435.363281 390.261719 L 435.34375 390.148438 C 435.339844 390.125 435.328125 390.117188 435.304688 390.117188 L 435.023438 390.167969 C 435 390.171875 434.992188 390.183594 434.996094 390.207031 L 435.015625 390.324219 C 435.019531 390.347656 435.011719 390.359375 434.988281 390.363281 C 434.964844 390.367188 434.957031 390.378906 434.960938 390.402344 L 435.019531 390.734375 L 434.804688 390.476562 C 434.789062 390.460938 434.769531 390.460938 434.753906 390.476562 C 434.738281 390.492188 434.722656 390.492188 434.707031 390.476562 L 434.632812 390.386719 C 434.617188 390.367188 434.597656 390.367188 434.582031 390.386719 L 434.367188 390.566406 C 434.347656 390.582031 434.347656 390.601562 434.367188 390.617188 L 434.441406 390.707031 C 434.457031 390.722656 434.457031 390.738281 434.441406 390.753906 C 434.421875 390.769531 434.421875 390.785156 434.4375 390.804688 L 434.652344 391.058594 L 434.335938 390.945312 C 434.316406 390.9375 434.300781 390.945312 434.292969 390.964844 C 434.285156 390.988281 434.269531 390.996094 434.25 390.988281 L 434.136719 390.945312 C 434.117188 390.9375 434.101562 390.945312 434.09375 390.96875 L 433.996094 391.234375 C 433.988281 391.253906 433.996094 391.269531 434.015625 391.277344 L 434.128906 391.320312 C 434.148438 391.328125 434.15625 391.339844 434.148438 391.363281 C 434.140625 391.382812 434.148438 391.398438 434.167969 391.40625 L 434.484375 391.519531 L 434.152344 391.578125 C 434.132812 391.582031 434.121094 391.597656 434.125 391.621094 C 434.128906 391.640625 434.121094 391.65625 434.097656 391.660156 L 433.980469 391.679688 C 433.960938 391.683594 433.949219 391.695312 433.953125 391.71875 L 434.003906 392 C 434.007812 392.023438 434.019531 392.03125 434.042969 392.027344 L 434.160156 392.007812 C 434.183594 392.003906 434.195312 392.011719 434.199219 392.035156 C 434.203125 392.058594 434.214844 392.066406 434.238281 392.0625 L 434.570312 392.003906 L 434.3125 392.21875 C 434.296875 392.238281 434.296875 392.253906 434.3125 392.269531 C 434.328125 392.285156 434.328125 392.300781 434.3125 392.316406 L 434.21875 392.394531 C 434.203125 392.40625 434.203125 392.421875 434.214844 392.441406 L 434.398438 392.660156 C 434.414062 392.675781 434.429688 392.675781 434.445312 392.660156 L 434.539062 392.585938 C 434.554688 392.566406 434.570312 392.566406 434.585938 392.585938 C 434.601562 392.601562 434.617188 392.601562 434.632812 392.589844 L 434.890625 392.375 L 434.777344 392.6875 C 434.769531 392.710938 434.773438 392.726562 434.796875 392.730469 C 434.816406 392.742188 434.824219 392.753906 434.816406 392.777344 L 434.777344 392.886719 C 434.769531 392.910156 434.777344 392.921875 434.796875 392.929688 L 435.0625 393.027344 C 435.085938 393.035156 435.101562 393.03125 435.109375 393.007812 L 435.148438 392.898438 C 435.15625 392.875 435.171875 392.871094 435.191406 392.878906 C 435.214844 392.882812 435.230469 392.878906 435.238281 392.855469 L 435.351562 392.542969 L 435.410156 392.871094 C 435.414062 392.894531 435.425781 392.902344 435.449219 392.898438 C 435.472656 392.894531 435.484375 392.90625 435.488281 392.925781 L 435.507812 393.042969 C 435.511719 393.066406 435.527344 393.074219 435.550781 393.070312 L 435.828125 393.023438 C 435.851562 393.019531 435.859375 393.003906 435.855469 392.980469 L 435.835938 392.867188 C 435.832031 392.84375 435.839844 392.832031 435.863281 392.828125 C 435.886719 392.824219 435.894531 392.808594 435.890625 392.785156 L 435.832031 392.457031 L 436.050781 392.714844 C 436.066406 392.730469 436.082031 392.730469 436.097656 392.714844 C 436.117188 392.699219 436.132812 392.703125 436.144531 392.71875 L 436.222656 392.808594 C 436.234375 392.828125 436.25 392.828125 436.269531 392.8125 L 436.488281 392.632812 C 436.503906 392.617188 436.503906 392.601562 436.488281 392.582031 L 436.410156 392.492188 C 436.398438 392.472656 436.398438 392.457031 436.417969 392.441406 C 436.433594 392.425781 436.433594 392.410156 436.417969 392.394531 L 436.199219 392.136719 L 436.515625 392.253906 C 436.535156 392.261719 436.550781 392.253906 436.558594 392.230469 C 436.566406 392.210938 436.582031 392.203125 436.601562 392.210938 L 436.714844 392.253906 C 436.734375 392.257812 436.75 392.253906 436.757812 392.230469 L 436.855469 391.964844 C 436.863281 391.941406 436.855469 391.929688 436.835938 391.921875 L 436.722656 391.878906 C 436.703125 391.871094 436.695312 391.859375 436.703125 391.835938 C 436.710938 391.816406 436.703125 391.800781 436.683594 391.792969 L 436.367188 391.675781 L 436.699219 391.617188 C 436.722656 391.613281 436.730469 391.601562 436.726562 391.578125 C 436.722656 391.558594 436.730469 391.542969 436.753906 391.539062 L 436.871094 391.519531 C 436.902344 391.515625 436.914062 391.5 436.898438 391.46875 Z M 436.035156 391.808594 C 435.972656 391.976562 435.863281 392.097656 435.699219 392.171875 C 435.539062 392.25 435.371094 392.253906 435.203125 392.195312 C 435.035156 392.132812 434.914062 392.019531 434.839844 391.859375 C 434.765625 391.695312 434.757812 391.53125 434.816406 391.363281 C 434.878906 391.195312 434.992188 391.074219 435.152344 390.996094 C 435.316406 390.921875 435.480469 390.914062 435.648438 390.976562 C 435.816406 391.039062 435.9375 391.148438 436.011719 391.3125 C 436.089844 391.472656 436.09375 391.640625 436.035156 391.808594 Z M 436.035156 391.808594 " fill-opacity="1" fill-rule="nonzero"/></svg>