<svg xmlns="http://www.w3.org/2000/svg" xmlns:xlink="http://www.w3.org/1999/xlink" width="1000" zoomAndPan="magnify" viewBox="0 0 750 749.999995" height="1000" preserveAspectRatio="xMidYMid meet" version="1.0"><path fill="#6cc4d8" d="M 304.394531 533.855469 C 286.902344 533.855469 271.199219 522.828125 258.835938 501.863281 C 249.664062 486.253906 242.511719 465.207031 239.246094 444.085938 C 236.914062 429.097656 228.128906 426.378906 212.734375 422.730469 C 197.265625 419.078125 176.121094 414.109375 174.640625 383.589844 C 172.855469 345.617188 194.15625 334.199219 218.878906 321 C 229.527344 315.328125 241.578125 308.882812 253.785156 299.410156 C 270.5 286.519531 269.722656 277.199219 268.632812 265.394531 C 267.464844 251.960938 265.988281 235.34375 294.519531 220.121094 C 306.027344 213.988281 317.921875 210.882812 329.738281 210.882812 C 357.800781 210.882812 377.472656 228.199219 383.300781 233.945312 C 388.820312 235.34375 394.109375 236.042969 399.316406 236.042969 C 410.046875 236.042969 418.90625 233.011719 427.535156 230.0625 C 435.777344 227.265625 444.328125 224.394531 453.8125 224.394531 C 465.785156 224.394531 477.292969 228.898438 489.808594 238.605469 C 505.746094 250.875 503.722656 267.570312 502.089844 281.003906 C 500.148438 297.15625 499.992188 303.914062 515.074219 308.652344 C 532.644531 314.085938 544.226562 328.84375 546.871094 349.1875 C 548.660156 362.699219 546.328125 377.765625 540.339844 391.511719 C 534.042969 405.957031 524.09375 417.992188 512.355469 425.371094 C 486.933594 441.210938 485.921875 449.832031 483.511719 468.78125 C 482.8125 474.371094 482.035156 480.664062 480.558594 488.039062 C 477.136719 504.8125 469.441406 527.179688 442.230469 527.179688 C 433.445312 527.179688 422.792969 524.773438 409.734375 519.878906 C 406.3125 518.558594 403.046875 517.316406 400.25 516.230469 C 387.8125 511.414062 380.269531 508.464844 372.730469 508.464844 C 363.476562 508.464844 352.28125 513.121094 330.046875 526.167969 C 321.574219 531.21875 312.867188 533.855469 304.394531 533.855469 Z M 304.394531 533.855469 " fill-opacity="1" fill-rule="nonzero"/><path fill="#8fd4ef" d="M 379.257812 240.933594 C 379.257812 240.933594 345.054688 202.183594 298.40625 227.035156 C 251.761719 251.882812 300.117188 273.785156 258.757812 305.621094 C 217.398438 337.460938 180.394531 335.519531 182.648438 383.125 C 184.902344 430.730469 240.488281 399.511719 247.097656 442.84375 C 253.707031 486.175781 280.683594 545.972656 326.238281 519.257812 C 371.796875 492.464844 375.0625 498.136719 412.6875 512.347656 C 450.394531 526.480469 466.332031 518.871094 472.9375 486.410156 C 479.546875 453.949219 471.773438 441.445312 508.3125 418.613281 C 544.851562 395.78125 553.402344 328.765625 512.898438 316.183594 C 472.394531 303.605469 512.199219 265.785156 485.144531 244.894531 C 442.851562 212.277344 428.9375 255.144531 379.257812 240.933594 Z M 379.257812 240.933594 " fill-opacity="1" fill-rule="nonzero"/><path fill="#f26119" d="M 362.3125 299.875 C 362.3125 299.875 280.683594 308.339844 274.152344 368.992188 C 267.621094 429.640625 358.269531 429.953125 386.257812 378.929688 C 414.242188 327.910156 399.859375 302.4375 362.3125 299.875 Z M 362.3125 299.875 " fill-opacity="1" fill-rule="nonzero"/><path fill="#ffa87d" d="M 331.371094 331.949219 C 331.371094 331.949219 301.207031 335.054688 298.875 357.421875 C 296.542969 379.785156 329.894531 379.863281 340.234375 361.070312 C 350.574219 342.355469 345.285156 332.878906 331.371094 331.949219 Z M 331.371094 331.949219 " fill-opacity="1" fill-rule="nonzero"/><path fill="#6cc4d8" d="M 577.8125 301.195312 C 562.417969 301.195312 547.027344 293.585938 537.542969 281.316406 C 528.523438 269.589844 525.726562 255.144531 529.613281 240.546875 C 540.183594 201.019531 575.636719 196.359375 590.40625 196.203125 L 590.871094 196.203125 C 603.234375 196.203125 614.816406 201.71875 621.96875 210.957031 C 629.355469 220.511719 635.730469 237.984375 623.914062 267.027344 C 615.128906 288.695312 598.335938 301.195312 577.8125 301.195312 Z M 577.8125 301.195312 " fill-opacity="1" fill-rule="nonzero"/><path fill="#8fd4ef" d="M 615.285156 216.160156 C 609.453125 208.628906 600.125 204.589844 590.5625 204.746094 C 575.636719 204.902344 546.792969 209.636719 537.929688 242.71875 C 525.878906 287.917969 594.292969 317.425781 616.0625 263.84375 C 626.011719 239.382812 621.890625 224.703125 615.285156 216.160156 Z M 615.285156 216.160156 " fill-opacity="1" fill-rule="nonzero"/><path fill="#6cc4d8" d="M 167.414062 310.050781 C 162.359375 310.050781 156.683594 309.660156 150.699219 308.882812 C 128.386719 306.089844 111.050781 290.945312 106.617188 270.289062 C 102.03125 249.011719 112.214844 228.355469 133.984375 214.996094 C 146.1875 207.542969 160.183594 203.738281 175.574219 203.738281 C 185.605469 203.738281 196.332031 205.367188 207.292969 208.550781 C 221.132812 212.589844 232.40625 223.152344 237.300781 236.742188 C 242.121094 249.941406 240.410156 264.074219 232.714844 275.570312 C 230.617188 278.753906 228.128906 281.550781 225.328125 283.878906 C 224.085938 284.964844 222.84375 286.054688 221.597656 287.0625 C 207.839844 298.867188 194.855469 310.050781 167.414062 310.050781 Z M 167.414062 310.050781 " fill-opacity="1" fill-rule="nonzero"/><path fill="#8fd4ef" d="M 225.40625 270.753906 C 238.78125 250.875 227.894531 223.695312 204.804688 216.9375 C 186.070312 211.425781 160.882812 208.707031 138.492188 222.453125 C 97.289062 247.691406 113.148438 295.371094 151.785156 300.1875 C 190.425781 305 201.464844 292.652344 219.65625 277.277344 C 221.910156 275.414062 223.851562 273.160156 225.40625 270.753906 Z M 225.40625 270.753906 " fill-opacity="1" fill-rule="nonzero"/><path fill="#13888e" d="M 209.59375 246.78125 C 209.742188 247.519531 209.824219 248.269531 209.84375 249.03125 C 209.859375 249.789062 209.8125 250.558594 209.695312 251.335938 C 209.582031 252.113281 209.402344 252.890625 209.160156 253.675781 C 208.914062 254.457031 208.605469 255.242188 208.234375 256.027344 C 207.863281 256.8125 207.425781 257.589844 206.929688 258.367188 C 206.433594 259.144531 205.878906 259.914062 205.261719 260.675781 C 204.644531 261.4375 203.972656 262.1875 203.242188 262.929688 C 202.515625 263.667969 201.730469 264.394531 200.894531 265.105469 C 200.058594 265.8125 199.171875 266.507812 198.238281 267.179688 C 197.304688 267.855469 196.324219 268.507812 195.300781 269.140625 C 194.277344 269.773438 193.214844 270.378906 192.109375 270.960938 C 191.007812 271.546875 189.867188 272.101562 188.695312 272.628906 C 187.523438 273.160156 186.320312 273.660156 185.089844 274.128906 C 183.859375 274.597656 182.609375 275.035156 181.332031 275.441406 C 180.054688 275.847656 178.761719 276.21875 177.453125 276.554688 C 176.144531 276.894531 174.824219 277.195312 173.492188 277.460938 C 172.160156 277.730469 170.828125 277.957031 169.488281 278.152344 C 168.148438 278.34375 166.8125 278.5 165.480469 278.617188 C 164.144531 278.734375 162.820312 278.8125 161.503906 278.855469 C 160.1875 278.894531 158.886719 278.898438 157.601562 278.863281 C 156.3125 278.824219 155.050781 278.75 153.804688 278.636719 C 152.5625 278.527344 151.347656 278.375 150.15625 278.1875 C 148.96875 278 147.8125 277.773438 146.691406 277.511719 C 145.566406 277.25 144.484375 276.949219 143.4375 276.617188 C 142.390625 276.285156 141.390625 275.917969 140.429688 275.515625 C 139.472656 275.113281 138.5625 274.679688 137.699219 274.214844 C 136.835938 273.75 136.027344 273.253906 135.269531 272.726562 C 134.511719 272.203125 133.808594 271.652344 133.160156 271.070312 C 132.515625 270.492188 131.929688 269.886719 131.402344 269.257812 C 130.871094 268.628906 130.40625 267.976562 130 267.304688 C 129.597656 266.632812 129.253906 265.945312 128.976562 265.234375 C 128.699219 264.527344 128.484375 263.804688 128.335938 263.066406 C 128.1875 262.328125 128.105469 261.578125 128.089844 260.816406 C 128.070312 260.054688 128.121094 259.289062 128.234375 258.511719 C 128.347656 257.734375 128.527344 256.957031 128.773438 256.171875 C 129.015625 255.386719 129.324219 254.605469 129.699219 253.820312 C 130.070312 253.035156 130.503906 252.257812 131 251.480469 C 131.496094 250.703125 132.054688 249.933594 132.667969 249.171875 C 133.285156 248.410156 133.957031 247.660156 134.6875 246.917969 C 135.417969 246.179688 136.199219 245.453125 137.035156 244.742188 C 137.871094 244.03125 138.757812 243.339844 139.691406 242.667969 C 140.625 241.992188 141.605469 241.339844 142.628906 240.707031 C 143.652344 240.074219 144.71875 239.46875 145.820312 238.882812 C 146.925781 238.300781 148.0625 237.746094 149.234375 237.214844 C 150.410156 236.6875 151.609375 236.1875 152.839844 235.71875 C 154.070312 235.25 155.324219 234.8125 156.601562 234.40625 C 157.875 234 159.167969 233.628906 160.480469 233.292969 C 161.789062 232.953125 163.109375 232.652344 164.4375 232.386719 C 165.769531 232.117188 167.105469 231.890625 168.445312 231.695312 C 169.78125 231.503906 171.117188 231.347656 172.453125 231.230469 C 173.785156 231.113281 175.113281 231.035156 176.429688 230.992188 C 177.746094 230.953125 179.046875 230.949219 180.332031 230.984375 C 181.617188 231.019531 182.882812 231.097656 184.125 231.207031 C 185.371094 231.320312 186.585938 231.472656 187.773438 231.660156 C 188.960938 231.847656 190.117188 232.074219 191.242188 232.335938 C 192.363281 232.597656 193.449219 232.894531 194.492188 233.230469 C 195.539062 233.5625 196.542969 233.929688 197.5 234.332031 C 198.460938 234.734375 199.371094 235.167969 200.230469 235.632812 C 201.09375 236.097656 201.90625 236.59375 202.664062 237.117188 C 203.421875 237.644531 204.125 238.195312 204.769531 238.777344 C 205.414062 239.355469 206.003906 239.960938 206.53125 240.589844 C 207.058594 241.21875 207.527344 241.871094 207.929688 242.542969 C 208.335938 243.214844 208.675781 243.902344 208.953125 244.613281 C 209.234375 245.320312 209.445312 246.042969 209.59375 246.78125 Z M 209.59375 246.78125 " fill-opacity="1" fill-rule="nonzero"/><path fill="#ea961c" d="M 306.285156 484.492188 C 306.761719 484.808594 307.195312 485.175781 307.589844 485.597656 C 307.984375 486.015625 308.328125 486.480469 308.625 486.984375 C 308.921875 487.492188 309.164062 488.035156 309.351562 488.609375 C 309.539062 489.183594 309.671875 489.78125 309.742188 490.398438 C 309.816406 491.019531 309.828125 491.648438 309.78125 492.292969 C 309.738281 492.933594 309.632812 493.574219 309.46875 494.210938 C 309.304688 494.851562 309.089844 495.476562 308.816406 496.085938 C 308.542969 496.699219 308.21875 497.285156 307.84375 497.84375 C 307.472656 498.40625 307.054688 498.929688 306.597656 499.417969 C 306.136719 499.90625 305.644531 500.347656 305.117188 500.742188 C 304.589844 501.140625 304.039062 501.484375 303.464844 501.773438 C 302.886719 502.0625 302.300781 502.292969 301.699219 502.464844 C 301.101562 502.640625 300.496094 502.75 299.894531 502.796875 C 299.292969 502.84375 298.699219 502.832031 298.117188 502.753906 C 297.535156 502.675781 296.972656 502.535156 296.433594 502.332031 C 295.894531 502.132812 295.386719 501.875 294.910156 501.558594 C 294.433594 501.242188 294 500.871094 293.605469 500.453125 C 293.210938 500.03125 292.867188 499.570312 292.570312 499.0625 C 292.273438 498.554688 292.03125 498.015625 291.839844 497.441406 C 291.652344 496.867188 291.523438 496.269531 291.449219 495.648438 C 291.378906 495.03125 291.363281 494.398438 291.410156 493.757812 C 291.457031 493.117188 291.5625 492.476562 291.722656 491.835938 C 291.886719 491.199219 292.105469 490.574219 292.378906 489.960938 C 292.652344 489.351562 292.976562 488.765625 293.347656 488.203125 C 293.722656 487.644531 294.136719 487.121094 294.597656 486.632812 C 295.058594 486.144531 295.550781 485.703125 296.078125 485.304688 C 296.605469 484.910156 297.15625 484.566406 297.730469 484.277344 C 298.304688 483.984375 298.894531 483.753906 299.492188 483.582031 C 300.09375 483.410156 300.695312 483.300781 301.296875 483.25 C 301.902344 483.203125 302.496094 483.21875 303.078125 483.296875 C 303.660156 483.375 304.222656 483.515625 304.761719 483.714844 C 305.300781 483.917969 305.808594 484.175781 306.285156 484.492188 Z M 306.285156 484.492188 " fill-opacity="1" fill-rule="nonzero"/><path fill="#13888e" d="M 341.386719 478.628906 C 341.476562 479.074219 341.515625 479.527344 341.5 479.984375 C 341.484375 480.441406 341.417969 480.894531 341.300781 481.347656 C 341.179688 481.796875 341.011719 482.238281 340.792969 482.664062 C 340.578125 483.09375 340.3125 483.503906 340.003906 483.890625 C 339.695312 484.28125 339.347656 484.644531 338.960938 484.976562 C 338.574219 485.3125 338.15625 485.613281 337.703125 485.882812 C 337.253906 486.148438 336.777344 486.378906 336.28125 486.566406 C 335.78125 486.757812 335.269531 486.90625 334.746094 487.011719 C 334.21875 487.117188 333.691406 487.175781 333.15625 487.195312 C 332.625 487.210938 332.097656 487.183594 331.578125 487.109375 C 331.058594 487.035156 330.554688 486.917969 330.070312 486.761719 C 329.582031 486.601562 329.121094 486.402344 328.6875 486.160156 C 328.25 485.921875 327.851562 485.644531 327.484375 485.332031 C 327.117188 485.019531 326.792969 484.679688 326.511719 484.308594 C 326.226562 483.9375 325.988281 483.546875 325.800781 483.128906 C 325.609375 482.714844 325.46875 482.285156 325.378906 481.839844 C 325.289062 481.394531 325.253906 480.941406 325.269531 480.484375 C 325.28125 480.027344 325.351562 479.574219 325.46875 479.121094 C 325.585938 478.671875 325.753906 478.230469 325.972656 477.804688 C 326.191406 477.375 326.453125 476.964844 326.761719 476.578125 C 327.070312 476.1875 327.417969 475.824219 327.804688 475.492188 C 328.191406 475.15625 328.613281 474.855469 329.0625 474.585938 C 329.515625 474.320312 329.988281 474.089844 330.488281 473.902344 C 330.984375 473.710938 331.496094 473.5625 332.023438 473.457031 C 332.546875 473.351562 333.078125 473.292969 333.609375 473.273438 C 334.144531 473.257812 334.667969 473.285156 335.1875 473.359375 C 335.707031 473.433594 336.210938 473.550781 336.699219 473.707031 C 337.183594 473.867188 337.644531 474.066406 338.082031 474.308594 C 338.515625 474.546875 338.917969 474.824219 339.28125 475.136719 C 339.648438 475.449219 339.972656 475.789062 340.257812 476.160156 C 340.539062 476.53125 340.777344 476.921875 340.96875 477.339844 C 341.160156 477.753906 341.296875 478.183594 341.386719 478.628906 Z M 341.386719 478.628906 " fill-opacity="1" fill-rule="nonzero"/><path fill="#02a6b7" d="M 417.429688 413.253906 C 416.886719 413.101562 416.34375 412.867188 415.875 412.480469 C 413.855469 411.003906 413.386719 408.363281 414.863281 406.578125 C 449.460938 363.789062 440.132812 322.550781 440.054688 322.164062 C 439.507812 319.835938 441.0625 317.660156 443.472656 317.269531 C 445.882812 316.882812 448.371094 318.359375 448.917969 320.6875 C 449.382812 322.550781 459.179688 366.117188 422.171875 411.859375 C 421.085938 413.179688 419.21875 413.722656 417.429688 413.253906 Z M 417.429688 413.253906 " fill-opacity="1" fill-rule="nonzero"/><path fill="#02a6b7" d="M 453.035156 386.308594 C 452.726562 386.230469 452.414062 386.074219 452.105469 385.996094 C 449.847656 384.910156 448.917969 382.347656 450.082031 380.25 C 468.351562 346.703125 457.855469 305.3125 457.699219 304.921875 C 457.078125 302.671875 458.554688 300.417969 461.042969 299.953125 C 463.453125 299.488281 465.941406 300.964844 466.484375 303.214844 C 466.953125 305 477.835938 348.023438 458.167969 384.289062 C 457.234375 386.074219 455.058594 386.851562 453.035156 386.308594 Z M 453.035156 386.308594 " fill-opacity="1" fill-rule="nonzero"/><path fill="#02a6b7" d="M 443.628906 428.320312 C 443.085938 428.164062 442.542969 427.933594 441.996094 427.542969 C 439.976562 426.070312 439.585938 423.429688 441.0625 421.644531 C 479.15625 375.515625 475.113281 329.152344 475.039062 328.6875 C 474.804688 326.355469 476.671875 324.339844 479.15625 324.261719 C 481.644531 324.183594 483.820312 325.890625 484.054688 328.296875 C 484.289062 330.316406 488.488281 378.386719 448.292969 427 C 447.285156 428.320312 445.339844 428.785156 443.628906 428.320312 Z M 443.628906 428.320312 " fill-opacity="1" fill-rule="nonzero"/><path fill="#6cc4d8" d="M 188.714844 544.261719 C 171.53125 544.261719 153.261719 537.816406 137.25 526.015625 C 121.933594 514.753906 110.503906 500 105.0625 484.3125 C 99.234375 467.460938 100.863281 451.539062 109.726562 439.503906 C 118.203125 428.011719 132.195312 421.644531 149.144531 421.644531 C 166.324219 421.644531 184.59375 428.089844 200.609375 439.890625 C 215.921875 451.152344 227.351562 465.90625 232.792969 481.515625 C 238.625 498.367188 236.992188 514.289062 228.128906 526.324219 C 219.65625 537.894531 205.660156 544.261719 188.714844 544.261719 Z M 188.714844 544.261719 " fill-opacity="1" fill-rule="nonzero"/><path fill="#8fd4ef" d="M 195.101562 447.421875 C 196.792969 448.664062 198.4375 449.957031 200.035156 451.304688 C 201.632812 452.652344 203.179688 454.050781 204.671875 455.496094 C 206.164062 456.9375 207.59375 458.421875 208.964844 459.949219 C 210.332031 461.472656 211.636719 463.03125 212.871094 464.621094 C 214.105469 466.214844 215.265625 467.832031 216.355469 469.472656 C 217.441406 471.117188 218.449219 472.777344 219.382812 474.457031 C 220.3125 476.132812 221.160156 477.824219 221.921875 479.519531 C 222.6875 481.21875 223.363281 482.917969 223.953125 484.617188 C 224.546875 486.316406 225.046875 488.011719 225.457031 489.699219 C 225.867188 491.386719 226.1875 493.058594 226.414062 494.714844 C 226.644531 496.371094 226.777344 498.007812 226.820312 499.617188 C 226.863281 501.230469 226.8125 502.8125 226.667969 504.359375 C 226.523438 505.910156 226.289062 507.425781 225.960938 508.898438 C 225.632812 510.371094 225.210938 511.800781 224.703125 513.1875 C 224.191406 514.570312 223.59375 515.902344 222.910156 517.183594 C 222.222656 518.460938 221.453125 519.683594 220.597656 520.847656 C 219.738281 522.015625 218.804688 523.113281 217.785156 524.152344 C 216.769531 525.1875 215.675781 526.15625 214.503906 527.058594 C 213.335938 527.957031 212.09375 528.785156 210.785156 529.539062 C 209.476562 530.292969 208.101562 530.96875 206.664062 531.570312 C 205.226562 532.171875 203.730469 532.695312 202.179688 533.136719 C 200.625 533.578125 199.023438 533.9375 197.375 534.21875 C 195.722656 534.496094 194.03125 534.691406 192.292969 534.804688 C 190.558594 534.917969 188.792969 534.949219 186.992188 534.894531 C 185.191406 534.839844 183.363281 534.703125 181.515625 534.484375 C 179.664062 534.265625 177.796875 533.960938 175.917969 533.578125 C 174.035156 533.191406 172.148438 532.726562 170.253906 532.183594 C 168.359375 531.636719 166.464844 531.015625 164.574219 530.3125 C 162.683594 529.613281 160.808594 528.839844 158.941406 527.988281 C 157.074219 527.140625 155.226562 526.222656 153.402344 525.230469 C 151.578125 524.242188 149.78125 523.1875 148.015625 522.066406 C 146.246094 520.945312 144.519531 519.765625 142.828125 518.527344 C 141.136719 517.285156 139.492188 515.992188 137.890625 514.640625 C 136.292969 513.292969 134.746094 511.898438 133.257812 510.453125 C 131.765625 509.011719 130.335938 507.527344 128.964844 506 C 127.59375 504.476562 126.292969 502.917969 125.058594 501.324219 C 123.824219 499.734375 122.660156 498.117188 121.574219 496.472656 C 120.488281 494.832031 119.476562 493.171875 118.546875 491.492188 C 117.617188 489.8125 116.769531 488.125 116.003906 486.429688 C 115.242188 484.730469 114.5625 483.03125 113.972656 481.332031 C 113.382812 479.628906 112.882812 477.9375 112.472656 476.25 C 112.058594 474.5625 111.742188 472.890625 111.511719 471.234375 C 111.285156 469.578125 111.148438 467.941406 111.109375 466.332031 C 111.066406 464.71875 111.117188 463.136719 111.261719 461.585938 C 111.402344 460.035156 111.640625 458.523438 111.96875 457.050781 C 112.296875 455.574219 112.714844 454.144531 113.226562 452.761719 C 113.734375 451.378906 114.332031 450.046875 115.019531 448.765625 C 115.703125 447.484375 116.476562 446.261719 117.332031 445.097656 C 118.1875 443.933594 119.125 442.832031 120.140625 441.796875 C 121.160156 440.757812 122.253906 439.789062 123.421875 438.890625 C 124.59375 437.992188 125.832031 437.164062 127.140625 436.410156 C 128.453125 435.65625 129.828125 434.976562 131.265625 434.375 C 132.703125 433.777344 134.199219 433.253906 135.75 432.8125 C 137.300781 432.371094 138.902344 432.007812 140.554688 431.730469 C 142.207031 431.449219 143.898438 431.253906 145.632812 431.140625 C 147.367188 431.027344 149.136719 431 150.9375 431.054688 C 152.738281 431.105469 154.5625 431.242188 156.414062 431.464844 C 158.261719 431.683594 160.128906 431.988281 162.011719 432.371094 C 163.890625 432.753906 165.78125 433.21875 167.675781 433.765625 C 169.570312 434.3125 171.460938 434.933594 173.351562 435.632812 C 175.242188 436.335938 177.121094 437.109375 178.988281 437.957031 C 180.855469 438.808594 182.699219 439.726562 184.527344 440.714844 C 186.351562 441.707031 188.148438 442.761719 189.914062 443.878906 C 191.679688 445 193.410156 446.179688 195.101562 447.421875 Z M 195.101562 447.421875 " fill-opacity="1" fill-rule="nonzero"/><path fill="#02a6b7" d="M 141.992188 450.21875 C 142.222656 449.832031 142.535156 449.445312 142.921875 449.054688 C 144.476562 447.65625 146.421875 447.734375 147.277344 449.210938 C 167.957031 483.457031 199.132812 482.292969 199.441406 482.292969 C 201.152344 482.214844 202.320312 483.769531 201.929688 485.789062 C 201.617188 487.804688 199.910156 489.515625 198.121094 489.59375 C 196.722656 489.671875 163.757812 490.914062 141.601562 454.257812 C 141.058594 453.171875 141.214844 451.539062 141.992188 450.21875 Z M 141.992188 450.21875 " fill-opacity="1" fill-rule="nonzero"/><path fill="#02a6b7" d="M 151.320312 482.914062 C 151.476562 482.679688 151.628906 482.449219 151.785156 482.214844 C 153.183594 480.585938 155.207031 480.273438 156.296875 481.4375 C 174.875 501.164062 206.4375 499.066406 206.75 499.066406 C 208.539062 498.910156 209.625 500.464844 209.316406 502.484375 C 209.003906 504.503906 207.292969 506.210938 205.582031 506.367188 C 204.183594 506.445312 171.378906 508.617188 151.320312 487.261719 C 150.386719 486.253906 150.464844 484.390625 151.320312 482.914062 Z M 151.320312 482.914062 " fill-opacity="1" fill-rule="nonzero"/><path fill="#02a6b7" d="M 124.578125 468.9375 C 124.808594 468.46875 125.121094 468.082031 125.507812 467.769531 C 127.0625 466.375 129.007812 466.449219 129.863281 467.925781 C 152.019531 505.511719 185.371094 509.316406 185.679688 509.394531 C 187.390625 509.550781 188.246094 511.335938 187.703125 513.355469 C 187.160156 515.375 185.292969 516.851562 183.660156 516.695312 C 182.183594 516.539062 147.589844 512.578125 124.265625 472.972656 C 123.644531 471.808594 123.800781 470.257812 124.578125 468.9375 Z M 124.578125 468.9375 " fill-opacity="1" fill-rule="nonzero"/><path fill="#8fd4ef" d="M 186.847656 238.449219 C 185.527344 237.59375 183.894531 237.207031 182.261719 237.363281 L 180.316406 237.515625 C 176.898438 237.828125 174.253906 240.703125 174.175781 244.195312 L 173.941406 264.386719 C 173.941406 265.085938 173.320312 265.707031 172.621094 265.785156 C 172.078125 265.785156 171.765625 265.550781 171.609375 265.394531 C 171.453125 265.242188 171.144531 264.929688 171.222656 264.386719 L 171.53125 248.3125 C 171.609375 246.371094 170.753906 244.507812 169.355469 243.1875 C 167.878906 241.867188 166.011719 241.246094 164.070312 241.476562 L 162.125 241.710938 C 158.78125 242.097656 156.21875 244.894531 156.140625 248.3125 L 155.828125 265.320312 C 155.828125 266.09375 155.207031 266.714844 154.429688 266.714844 L 153.339844 266.714844 C 152.796875 266.714844 152.484375 266.484375 152.332031 266.25 C 152.175781 266.09375 151.941406 265.785156 151.941406 265.242188 L 152.484375 250.640625 C 152.5625 249.164062 151.398438 247.921875 149.921875 247.847656 C 148.441406 247.769531 147.199219 248.933594 147.121094 250.410156 L 146.578125 265.007812 C 146.5 267.105469 147.433594 269.125 149.066406 270.523438 C 150.308594 271.53125 151.863281 271.996094 153.496094 271.996094 L 154.351562 271.996094 C 158.003906 271.996094 161.113281 269.046875 161.191406 265.394531 L 161.425781 248.46875 C 161.425781 247.769531 161.96875 247.222656 162.671875 247.148438 L 164.613281 246.914062 C 165.15625 246.835938 165.546875 247.148438 165.703125 247.300781 C 165.855469 247.457031 166.167969 247.847656 166.167969 248.390625 L 165.855469 264.464844 C 165.855469 266.328125 166.558594 268.113281 167.878906 269.433594 C 170.132812 271.609375 173.785156 272.074219 176.664062 269.976562 C 178.375 268.65625 179.308594 266.484375 179.382812 264.308594 L 179.617188 244.429688 C 179.617188 243.730469 180.160156 243.109375 180.863281 243.03125 L 183.039062 242.796875 C 183.582031 242.71875 183.894531 242.953125 184.050781 243.109375 C 184.203125 243.265625 184.515625 243.574219 184.515625 244.039062 L 185.605469 262.132812 C 185.683594 263.609375 187.003906 264.773438 188.480469 264.621094 C 189.957031 264.542969 191.125 263.222656 190.96875 261.746094 L 189.878906 243.652344 C 189.800781 241.554688 188.714844 239.691406 186.847656 238.449219 Z M 186.847656 238.449219 " fill-opacity="1" fill-rule="nonzero"/><path fill="#6cc4d8" d="M 550.992188 541.390625 C 545.9375 541.390625 540.574219 541 534.585938 540.304688 C 512.664062 537.585938 495.640625 522.675781 491.285156 502.40625 C 486.777344 481.515625 496.804688 461.246094 518.183594 448.125 C 530.15625 440.746094 543.917969 437.019531 559.078125 437.019531 C 568.949219 437.019531 579.445312 438.648438 590.25 441.757812 C 603.855469 445.714844 614.894531 456.042969 619.714844 469.402344 C 624.378906 482.371094 622.746094 496.269531 615.207031 507.53125 C 613.105469 510.636719 610.695312 513.355469 607.976562 515.683594 C 606.734375 516.773438 605.488281 517.78125 604.324219 518.792969 C 590.71875 530.441406 578.046875 541.390625 550.992188 541.390625 Z M 550.992188 541.390625 " fill-opacity="1" fill-rule="nonzero"/><path fill="#8fd4ef" d="M 607.976562 502.871094 C 621.113281 483.300781 610.386719 456.667969 587.761719 450.066406 C 569.339844 444.707031 544.617188 441.988281 522.617188 455.5 C 482.191406 480.273438 497.738281 527.101562 535.675781 531.839844 C 573.613281 536.574219 584.5 524.382812 602.300781 509.316406 C 604.554688 507.375 606.421875 505.203125 607.976562 502.871094 Z M 607.976562 502.871094 " fill-opacity="1" fill-rule="nonzero"/><path fill="#13888e" d="M 597.765625 480.101562 C 597.914062 480.839844 597.996094 481.589844 598.015625 482.351562 C 598.03125 483.113281 597.984375 483.878906 597.867188 484.65625 C 597.753906 485.433594 597.574219 486.210938 597.332031 486.996094 C 597.085938 487.78125 596.777344 488.5625 596.40625 489.347656 C 596.035156 490.132812 595.597656 490.914062 595.101562 491.6875 C 594.605469 492.464844 594.050781 493.234375 593.433594 493.996094 C 592.816406 494.757812 592.144531 495.507812 591.414062 496.25 C 590.6875 496.988281 589.902344 497.714844 589.066406 498.425781 C 588.230469 499.136719 587.34375 499.828125 586.410156 500.5 C 585.476562 501.175781 584.496094 501.828125 583.472656 502.460938 C 582.449219 503.09375 581.386719 503.699219 580.28125 504.285156 C 579.179688 504.867188 578.039062 505.421875 576.867188 505.953125 C 575.695312 506.480469 574.492188 506.980469 573.261719 507.449219 C 572.03125 507.917969 570.78125 508.355469 569.503906 508.761719 C 568.226562 509.167969 566.933594 509.539062 565.625 509.875 C 564.316406 510.214844 562.996094 510.515625 561.664062 510.78125 C 560.332031 511.050781 559 511.28125 557.660156 511.472656 C 556.320312 511.664062 554.984375 511.820312 553.652344 511.9375 C 552.316406 512.054688 550.992188 512.136719 549.675781 512.175781 C 548.359375 512.214844 547.058594 512.21875 545.773438 512.183594 C 544.484375 512.148438 543.222656 512.074219 541.976562 511.960938 C 540.734375 511.847656 539.519531 511.695312 538.328125 511.507812 C 537.140625 511.320312 535.984375 511.09375 534.863281 510.832031 C 533.738281 510.570312 532.65625 510.273438 531.609375 509.9375 C 530.5625 509.605469 529.5625 509.238281 528.601562 508.835938 C 527.644531 508.433594 526.734375 508 525.871094 507.535156 C 525.007812 507.070312 524.199219 506.574219 523.441406 506.050781 C 522.683594 505.523438 521.980469 504.972656 521.332031 504.390625 C 520.6875 503.8125 520.101562 503.207031 519.574219 502.578125 C 519.042969 501.949219 518.578125 501.296875 518.171875 500.625 C 517.769531 499.953125 517.425781 499.265625 517.148438 498.554688 C 516.871094 497.847656 516.65625 497.125 516.507812 496.386719 C 516.359375 495.648438 516.277344 494.898438 516.261719 494.136719 C 516.242188 493.378906 516.292969 492.609375 516.40625 491.832031 C 516.519531 491.058594 516.699219 490.277344 516.945312 489.492188 C 517.1875 488.710938 517.496094 487.925781 517.871094 487.140625 C 518.242188 486.359375 518.675781 485.578125 519.171875 484.800781 C 519.667969 484.023438 520.226562 483.253906 520.839844 482.492188 C 521.457031 481.730469 522.128906 480.980469 522.859375 480.238281 C 523.589844 479.5 524.371094 478.773438 525.207031 478.066406 C 526.042969 477.355469 526.929688 476.660156 527.863281 475.988281 C 528.796875 475.3125 529.777344 474.660156 530.800781 474.027344 C 531.824219 473.394531 532.890625 472.789062 533.992188 472.207031 C 535.097656 471.621094 536.234375 471.066406 537.40625 470.539062 C 538.582031 470.007812 539.78125 469.507812 541.011719 469.039062 C 542.242188 468.570312 543.496094 468.132812 544.773438 467.726562 C 546.046875 467.320312 547.339844 466.949219 548.652344 466.613281 C 549.960938 466.273438 551.28125 465.972656 552.609375 465.707031 C 553.941406 465.441406 555.277344 465.210938 556.617188 465.015625 C 557.953125 464.824219 559.289062 464.667969 560.625 464.550781 C 561.957031 464.433594 563.285156 464.355469 564.601562 464.3125 C 565.917969 464.273438 567.21875 464.269531 568.503906 464.304688 C 569.789062 464.34375 571.054688 464.417969 572.296875 464.53125 C 573.542969 464.640625 574.757812 464.792969 575.945312 464.980469 C 577.136719 465.167969 578.289062 465.394531 579.414062 465.65625 C 580.535156 465.917969 581.621094 466.21875 582.664062 466.550781 C 583.710938 466.882812 584.714844 467.25 585.671875 467.652344 C 586.632812 468.054688 587.542969 468.488281 588.402344 468.953125 C 589.265625 469.417969 590.078125 469.914062 590.835938 470.441406 C 591.59375 470.964844 592.296875 471.519531 592.941406 472.097656 C 593.585938 472.675781 594.175781 473.28125 594.703125 473.910156 C 595.230469 474.539062 595.699219 475.191406 596.101562 475.863281 C 596.507812 476.535156 596.847656 477.222656 597.125 477.933594 C 597.40625 478.640625 597.617188 479.363281 597.765625 480.101562 Z M 597.765625 480.101562 " fill-opacity="1" fill-rule="nonzero"/><path fill="#8fd4ef" d="M 575.089844 471.730469 C 573.769531 470.878906 572.136719 470.488281 570.503906 470.644531 L 568.5625 470.800781 C 565.140625 471.109375 562.496094 473.984375 562.417969 477.476562 L 562.1875 497.667969 C 562.1875 498.367188 561.5625 498.988281 560.863281 499.066406 C 560.320312 499.066406 560.007812 498.832031 559.855469 498.679688 C 559.699219 498.523438 559.386719 498.210938 559.464844 497.667969 L 559.777344 481.59375 C 559.855469 479.652344 559 477.789062 557.597656 476.46875 C 556.121094 475.148438 554.257812 474.527344 552.3125 474.761719 L 550.371094 474.992188 C 547.027344 475.382812 544.460938 478.175781 544.382812 481.59375 L 544.074219 498.601562 C 544.074219 499.378906 543.449219 500 542.671875 500 L 541.585938 500 C 541.039062 500 540.730469 499.765625 540.574219 499.53125 C 540.417969 499.378906 540.183594 499.066406 540.183594 498.523438 L 540.730469 483.921875 C 540.808594 482.449219 539.640625 481.207031 538.164062 481.128906 C 536.6875 481.050781 535.441406 482.214844 535.367188 483.691406 L 534.820312 498.289062 C 534.742188 500.386719 535.675781 502.40625 537.308594 503.804688 C 538.550781 504.8125 540.109375 505.28125 541.738281 505.28125 L 542.59375 505.28125 C 546.25 505.28125 549.359375 502.328125 549.4375 498.679688 L 549.746094 481.671875 C 549.746094 480.972656 550.292969 480.429688 550.992188 480.351562 L 552.933594 480.117188 C 553.480469 480.039062 553.867188 480.351562 554.023438 480.507812 C 554.179688 480.664062 554.488281 481.050781 554.488281 481.59375 L 554.179688 497.667969 C 554.179688 499.53125 554.878906 501.320312 556.199219 502.640625 C 558.453125 504.8125 562.109375 505.28125 564.984375 503.183594 C 566.695312 501.863281 567.628906 499.6875 567.707031 497.515625 L 567.9375 477.632812 C 567.9375 476.933594 568.484375 476.3125 569.183594 476.234375 L 571.359375 476.003906 C 571.902344 475.925781 572.214844 476.15625 572.371094 476.3125 C 572.527344 476.46875 572.835938 476.78125 572.835938 477.246094 L 573.925781 495.339844 C 574.003906 496.816406 575.324219 497.980469 576.800781 497.824219 C 578.277344 497.746094 579.445312 496.425781 579.289062 494.953125 L 578.199219 476.855469 C 577.96875 474.835938 576.878906 472.972656 575.089844 471.730469 Z M 575.089844 471.730469 " fill-opacity="1" fill-rule="nonzero"/><path fill="#13888e" d="M 600.980469 224.859375 C 599.582031 223.925781 597.792969 223.539062 596.082031 223.773438 L 594.058594 223.925781 C 590.40625 224.238281 587.609375 227.34375 587.53125 230.992188 L 587.296875 252.503906 C 587.296875 253.28125 586.675781 253.902344 585.898438 253.980469 C 585.351562 253.980469 584.964844 253.746094 584.808594 253.59375 C 584.652344 253.4375 584.34375 253.046875 584.34375 252.503906 L 584.652344 235.421875 C 584.730469 233.324219 583.875 231.382812 582.320312 229.984375 C 580.765625 228.585938 578.746094 227.886719 576.644531 228.121094 L 574.546875 228.355469 C 570.972656 228.742188 568.25 231.769531 568.171875 235.34375 L 567.863281 253.4375 C 567.863281 254.214844 567.160156 254.914062 566.382812 254.914062 L 565.21875 254.914062 C 564.675781 254.914062 564.285156 254.601562 564.128906 254.445312 C 563.972656 254.292969 563.664062 253.902344 563.742188 253.359375 L 564.285156 237.828125 C 564.363281 236.273438 563.121094 234.953125 561.5625 234.878906 C 560.007812 234.800781 558.6875 236.042969 558.609375 237.59375 L 558.066406 253.125 C 557.988281 255.378906 558.921875 257.476562 560.710938 258.949219 C 562.03125 260.039062 563.742188 260.503906 565.453125 260.582031 L 566.382812 260.582031 C 570.347656 260.582031 573.535156 257.476562 573.613281 253.515625 L 573.925781 235.421875 C 573.925781 234.644531 574.46875 234.023438 575.246094 233.945312 L 577.347656 233.710938 C 577.890625 233.632812 578.355469 233.945312 578.511719 234.101562 C 578.667969 234.253906 578.980469 234.644531 578.980469 235.1875 L 578.667969 252.273438 C 578.589844 254.292969 579.445312 256.234375 580.84375 257.554688 C 583.253906 259.882812 587.140625 260.347656 590.171875 258.097656 C 592.039062 256.699219 593.050781 254.445312 593.050781 252.117188 L 593.28125 230.992188 C 593.28125 230.21875 593.828125 229.597656 594.605469 229.519531 L 596.9375 229.285156 C 597.480469 229.207031 597.871094 229.519531 598.023438 229.597656 C 598.179688 229.75 598.492188 230.0625 598.570312 230.605469 L 599.734375 249.863281 C 599.8125 251.417969 601.210938 252.660156 602.769531 252.503906 C 604.324219 252.425781 605.566406 251.03125 605.410156 249.476562 L 604.246094 230.21875 C 604.089844 228.199219 602.921875 226.179688 600.980469 224.859375 Z M 600.980469 224.859375 " fill-opacity="1" fill-rule="nonzero"/><path fill="#6cc4d8" d="M 393.175781 208.707031 C 369.308594 208.707031 340 198.535156 330.125 179.117188 C 324.527344 168.089844 326.007812 155.746094 334.402344 144.328125 C 340.078125 136.5625 351.273438 127.242188 372.183594 127.242188 C 395.585938 127.242188 421.863281 138.816406 435.390625 145.648438 C 443.863281 149.921875 449.769531 157.375 451.636719 166.074219 C 457.15625 191.699219 426.214844 201.871094 416.03125 205.210938 C 409.191406 207.542969 401.492188 208.707031 393.175781 208.707031 Z M 393.175781 208.707031 " fill-opacity="1" fill-rule="nonzero"/><path fill="#8fd4ef" d="M 442.542969 168.089844 C 441.21875 161.957031 436.789062 156.832031 431.191406 154.035156 C 412.300781 144.484375 362 122.507812 341.941406 149.84375 C 317.066406 183.777344 377.859375 208.085938 413.15625 196.4375 C 439.585938 187.738281 444.640625 178.109375 442.542969 168.089844 Z M 442.542969 168.089844 " fill-opacity="1" fill-rule="nonzero"/><path fill="#ea961c" d="M 380.96875 164.597656 C 380.96875 165.3125 380.898438 166.019531 380.761719 166.71875 C 380.621094 167.417969 380.414062 168.097656 380.140625 168.757812 C 379.867188 169.417969 379.53125 170.042969 379.136719 170.636719 C 378.738281 171.230469 378.285156 171.78125 377.78125 172.285156 C 377.277344 172.789062 376.726562 173.242188 376.132812 173.636719 C 375.539062 174.035156 374.910156 174.367188 374.25 174.640625 C 373.589844 174.914062 372.910156 175.121094 372.210938 175.261719 C 371.507812 175.398438 370.800781 175.46875 370.085938 175.46875 C 369.371094 175.46875 368.664062 175.398438 367.960938 175.261719 C 367.261719 175.121094 366.582031 174.914062 365.921875 174.640625 C 365.261719 174.367188 364.632812 174.035156 364.039062 173.636719 C 363.445312 173.242188 362.894531 172.789062 362.390625 172.285156 C 361.882812 171.78125 361.433594 171.230469 361.035156 170.636719 C 360.640625 170.042969 360.304688 169.417969 360.03125 168.757812 C 359.757812 168.097656 359.550781 167.417969 359.410156 166.71875 C 359.273438 166.019531 359.203125 165.3125 359.203125 164.597656 C 359.203125 163.882812 359.273438 163.175781 359.410156 162.476562 C 359.550781 161.777344 359.757812 161.097656 360.03125 160.4375 C 360.304688 159.777344 360.640625 159.152344 361.035156 158.558594 C 361.433594 157.964844 361.882812 157.414062 362.390625 156.910156 C 362.894531 156.40625 363.445312 155.953125 364.039062 155.558594 C 364.632812 155.160156 365.261719 154.824219 365.921875 154.550781 C 366.582031 154.28125 367.261719 154.074219 367.960938 153.933594 C 368.664062 153.792969 369.371094 153.726562 370.085938 153.726562 C 370.800781 153.726562 371.507812 153.792969 372.210938 153.933594 C 372.910156 154.074219 373.589844 154.28125 374.25 154.550781 C 374.910156 154.824219 375.539062 155.160156 376.132812 155.558594 C 376.726562 155.953125 377.277344 156.40625 377.78125 156.910156 C 378.285156 157.414062 378.738281 157.964844 379.136719 158.558594 C 379.53125 159.152344 379.867188 159.777344 380.140625 160.4375 C 380.414062 161.097656 380.621094 161.777344 380.761719 162.476562 C 380.898438 163.175781 380.96875 163.882812 380.96875 164.597656 Z M 380.96875 164.597656 " fill-opacity="1" fill-rule="nonzero"/><path fill="#13888e" d="M 409.269531 170.578125 C 409.269531 171.144531 409.210938 171.703125 409.101562 172.257812 C 408.992188 172.8125 408.828125 173.351562 408.609375 173.875 C 408.394531 174.398438 408.128906 174.894531 407.8125 175.367188 C 407.5 175.835938 407.140625 176.273438 406.738281 176.671875 C 406.339844 177.070312 405.902344 177.429688 405.433594 177.742188 C 404.960938 178.058594 404.464844 178.324219 403.941406 178.539062 C 403.417969 178.757812 402.878906 178.921875 402.320312 179.03125 C 401.765625 179.140625 401.203125 179.195312 400.636719 179.195312 C 400.070312 179.195312 399.511719 179.140625 398.953125 179.03125 C 398.398438 178.921875 397.859375 178.757812 397.335938 178.539062 C 396.8125 178.324219 396.316406 178.058594 395.84375 177.742188 C 395.371094 177.429688 394.9375 177.070312 394.535156 176.671875 C 394.136719 176.273438 393.777344 175.835938 393.464844 175.367188 C 393.148438 174.894531 392.882812 174.398438 392.664062 173.875 C 392.449219 173.351562 392.285156 172.8125 392.175781 172.257812 C 392.0625 171.703125 392.007812 171.144531 392.007812 170.578125 C 392.007812 170.011719 392.0625 169.449219 392.175781 168.894531 C 392.285156 168.339844 392.449219 167.800781 392.664062 167.277344 C 392.882812 166.753906 393.148438 166.257812 393.464844 165.789062 C 393.777344 165.316406 394.136719 164.882812 394.535156 164.480469 C 394.9375 164.082031 395.371094 163.722656 395.84375 163.410156 C 396.316406 163.09375 396.8125 162.828125 397.335938 162.613281 C 397.859375 162.394531 398.398438 162.234375 398.953125 162.121094 C 399.511719 162.011719 400.070312 161.957031 400.636719 161.957031 C 401.203125 161.957031 401.765625 162.011719 402.320312 162.121094 C 402.878906 162.234375 403.417969 162.394531 403.941406 162.613281 C 404.464844 162.828125 404.960938 163.09375 405.433594 163.410156 C 405.902344 163.722656 406.339844 164.082031 406.738281 164.480469 C 407.140625 164.882812 407.5 165.316406 407.8125 165.789062 C 408.128906 166.257812 408.394531 166.753906 408.609375 167.277344 C 408.828125 167.800781 408.992188 168.339844 409.101562 168.894531 C 409.210938 169.449219 409.269531 170.011719 409.269531 170.578125 Z M 409.269531 170.578125 " fill-opacity="1" fill-rule="nonzero"/><path fill="#6cc4d8" d="M 383.457031 625.804688 C 368.917969 625.804688 354.382812 621.378906 344.820312 617.570312 C 337.277344 614.621094 331.527344 608.097656 329.195312 599.632812 C 323.519531 579.210938 339.765625 565.074219 352.4375 556.300781 C 361.378906 550.085938 372.882812 546.671875 384.703125 546.671875 C 401.492188 546.671875 415.953125 553.347656 423.417969 564.453125 C 428.082031 571.445312 432.203125 583.246094 425.203125 600.175781 C 420.386719 611.902344 409.269531 625.804688 383.457031 625.804688 Z M 383.457031 625.804688 " fill-opacity="1" fill-rule="nonzero"/><path fill="#8fd4ef" d="M 338.132812 597.148438 C 339.765625 602.972656 343.574219 607.089844 348.164062 608.875 C 363.476562 614.855469 403.980469 627.125 416.496094 596.683594 C 432.125 558.863281 383.378906 546.128906 357.726562 563.988281 C 338.445312 577.34375 335.492188 587.671875 338.132812 597.148438 Z M 338.132812 597.148438 " fill-opacity="1" fill-rule="nonzero"/><path fill="#ea961c" d="M 394.832031 576.4375 C 395.375 576.496094 395.90625 576.621094 396.421875 576.816406 C 396.941406 577.011719 397.4375 577.269531 397.910156 577.59375 C 398.382812 577.917969 398.828125 578.300781 399.238281 578.742188 C 399.648438 579.183594 400.019531 579.675781 400.347656 580.21875 C 400.679688 580.761719 400.964844 581.34375 401.207031 581.964844 C 401.445312 582.585938 401.636719 583.234375 401.773438 583.914062 C 401.914062 584.589844 402 585.285156 402.035156 585.992188 C 402.066406 586.699219 402.046875 587.40625 401.972656 588.117188 C 401.898438 588.828125 401.769531 589.523438 401.589844 590.210938 C 401.414062 590.894531 401.183594 591.554688 400.90625 592.191406 C 400.632812 592.824219 400.3125 593.421875 399.949219 593.980469 C 399.585938 594.539062 399.183594 595.046875 398.746094 595.511719 C 398.308594 595.972656 397.84375 596.375 397.351562 596.722656 C 396.859375 597.070312 396.347656 597.355469 395.816406 597.574219 C 395.285156 597.792969 394.75 597.945312 394.199219 598.027344 C 393.652344 598.109375 393.109375 598.121094 392.566406 598.066406 C 392.023438 598.007812 391.492188 597.882812 390.972656 597.6875 C 390.453125 597.496094 389.957031 597.234375 389.484375 596.910156 C 389.011719 596.585938 388.570312 596.203125 388.160156 595.761719 C 387.75 595.320312 387.378906 594.828125 387.046875 594.289062 C 386.714844 593.746094 386.429688 593.164062 386.191406 592.539062 C 385.949219 591.917969 385.761719 591.269531 385.621094 590.589844 C 385.480469 589.914062 385.394531 589.222656 385.363281 588.515625 C 385.328125 587.804688 385.351562 587.097656 385.425781 586.386719 C 385.5 585.675781 385.625 584.980469 385.804688 584.292969 C 385.984375 583.609375 386.210938 582.949219 386.488281 582.316406 C 386.765625 581.679688 387.085938 581.085938 387.449219 580.527344 C 387.8125 579.96875 388.210938 579.457031 388.648438 578.996094 C 389.085938 578.53125 389.550781 578.128906 390.042969 577.78125 C 390.535156 577.433594 391.046875 577.152344 391.578125 576.929688 C 392.109375 576.710938 392.648438 576.5625 393.195312 576.476562 C 393.742188 576.394531 394.289062 576.382812 394.832031 576.4375 Z M 394.832031 576.4375 " fill-opacity="1" fill-rule="nonzero"/><path fill="#13888e" d="M 370.726562 578.480469 C 371.160156 578.527344 371.582031 578.625 371.992188 578.78125 C 372.402344 578.933594 372.796875 579.140625 373.175781 579.398438 C 373.550781 579.652344 373.902344 579.957031 374.226562 580.308594 C 374.554688 580.660156 374.847656 581.046875 375.113281 581.480469 C 375.375 581.910156 375.601562 582.371094 375.792969 582.863281 C 375.984375 583.355469 376.132812 583.871094 376.246094 584.410156 C 376.355469 584.945312 376.421875 585.496094 376.449219 586.054688 C 376.476562 586.617188 376.460938 587.179688 376.402344 587.742188 C 376.34375 588.304688 376.242188 588.859375 376.101562 589.402344 C 375.957031 589.945312 375.777344 590.46875 375.558594 590.972656 C 375.335938 591.472656 375.082031 591.945312 374.792969 592.390625 C 374.503906 592.832031 374.1875 593.238281 373.839844 593.601562 C 373.496094 593.96875 373.125 594.289062 372.734375 594.566406 C 372.339844 594.839844 371.933594 595.066406 371.515625 595.238281 C 371.09375 595.414062 370.664062 595.53125 370.230469 595.597656 C 369.796875 595.664062 369.363281 595.671875 368.929688 595.628906 C 368.5 595.582031 368.078125 595.484375 367.664062 595.328125 C 367.253906 595.175781 366.859375 594.96875 366.484375 594.710938 C 366.109375 594.457031 365.757812 594.152344 365.429688 593.800781 C 365.105469 593.453125 364.808594 593.0625 364.546875 592.632812 C 364.28125 592.203125 364.054688 591.738281 363.863281 591.246094 C 363.675781 590.753906 363.523438 590.238281 363.414062 589.699219 C 363.300781 589.164062 363.234375 588.613281 363.207031 588.054688 C 363.179688 587.492188 363.199219 586.929688 363.257812 586.367188 C 363.316406 585.804688 363.414062 585.25 363.558594 584.707031 C 363.699219 584.164062 363.882812 583.640625 364.101562 583.140625 C 364.320312 582.636719 364.574219 582.164062 364.863281 581.71875 C 365.152344 581.277344 365.46875 580.871094 365.816406 580.507812 C 366.164062 580.140625 366.53125 579.820312 366.925781 579.542969 C 367.316406 579.269531 367.722656 579.046875 368.144531 578.871094 C 368.566406 578.699219 368.992188 578.578125 369.425781 578.511719 C 369.863281 578.445312 370.296875 578.4375 370.726562 578.480469 Z M 370.726562 578.480469 " fill-opacity="1" fill-rule="nonzero"/><path fill="#6cc4d8" d="M 613.105469 372.253906 C 609.917969 372.253906 606.578125 372.019531 602.84375 371.554688 C 589.085938 369.84375 578.433594 360.527344 575.714844 347.867188 C 572.914062 334.820312 579.132812 322.085938 592.503906 313.855469 C 600.046875 309.273438 608.597656 306.941406 618.082031 306.941406 C 624.300781 306.941406 630.832031 307.953125 637.597656 309.894531 C 646.148438 312.378906 652.988281 318.824219 656.019531 327.210938 C 658.976562 335.367188 657.964844 344.0625 653.144531 351.128906 C 651.824219 353.070312 650.34375 354.78125 648.636719 356.253906 C 647.859375 356.953125 647.082031 357.574219 646.304688 358.195312 C 637.984375 365.417969 630.054688 372.253906 613.105469 372.253906 Z M 613.105469 372.253906 " fill-opacity="1" fill-rule="nonzero"/><path fill="#8fd4ef" d="M 643.425781 346.78125 C 650.734375 335.910156 644.75 321.078125 632.152344 317.347656 C 621.890625 314.320312 608.132812 312.84375 595.925781 320.378906 C 573.457031 334.199219 582.089844 360.214844 603.15625 362.855469 C 624.222656 365.496094 630.289062 358.742188 640.238281 350.351562 C 641.484375 349.265625 642.492188 348.101562 643.425781 346.78125 Z M 643.425781 346.78125 " fill-opacity="1" fill-rule="nonzero"/><path fill="#6cc4d8" d="M 493.460938 225.015625 C 490.585938 224.394531 487.632812 223.539062 484.289062 222.375 C 472.238281 218.101562 464.464844 207.621094 464.464844 195.582031 C 464.464844 183.234375 472.707031 172.984375 486.386719 168.167969 C 494.085938 165.453125 502.324219 165.0625 510.875 166.925781 C 516.472656 168.167969 522.226562 170.34375 527.902344 173.449219 C 535.132812 177.410156 540.109375 184.632812 541.195312 192.710938 C 542.285156 200.628906 539.5625 208.316406 533.886719 213.753906 C 532.332031 215.230469 530.621094 216.472656 528.757812 217.480469 C 527.902344 217.949219 527.125 218.335938 526.269531 218.800781 C 517.25 223.773438 508.699219 228.355469 493.460938 225.015625 Z M 493.460938 225.015625 " fill-opacity="1" fill-rule="nonzero"/><path fill="#8fd4ef" d="M 528.445312 209.328125 C 537.699219 200.476562 535.054688 185.097656 523.859375 178.964844 C 514.761719 173.992188 501.9375 169.722656 488.71875 174.304688 C 464.464844 182.769531 467.261719 209.328125 486.777344 216.238281 C 506.289062 223.152344 513.519531 217.949219 524.714844 211.96875 C 526.113281 211.269531 527.359375 210.335938 528.445312 209.328125 Z M 528.445312 209.328125 " fill-opacity="1" fill-rule="nonzero"/><path fill="#6cc4d8" d="M 250.75 204.511719 C 247.875 203.890625 244.921875 203.039062 241.578125 201.871094 C 229.527344 197.601562 221.753906 187.117188 221.753906 175.082031 C 221.753906 162.734375 229.996094 152.484375 243.675781 147.667969 C 251.375 144.949219 259.613281 144.5625 268.164062 146.425781 C 273.761719 147.667969 279.515625 149.84375 285.191406 152.949219 C 292.421875 156.910156 297.398438 164.132812 298.484375 172.207031 C 299.574219 180.128906 296.851562 187.816406 291.175781 193.253906 C 289.621094 194.726562 287.914062 195.96875 286.046875 196.980469 C 285.191406 197.445312 284.414062 197.835938 283.558594 198.300781 C 274.617188 203.269531 266.066406 207.851562 250.75 204.511719 Z M 250.75 204.511719 " fill-opacity="1" fill-rule="nonzero"/><path fill="#8fd4ef" d="M 285.8125 188.828125 C 295.066406 179.972656 292.421875 164.597656 281.226562 158.460938 C 272.128906 153.492188 259.304688 149.222656 246.085938 153.804688 C 221.832031 162.265625 224.628906 188.828125 244.144531 195.738281 C 263.65625 202.648438 270.886719 197.445312 282.082031 191.464844 C 283.480469 190.84375 284.726562 189.914062 285.8125 188.828125 Z M 285.8125 188.828125 " fill-opacity="1" fill-rule="nonzero"/><path fill="#6cc4d8" d="M 146.421875 392.289062 C 143.546875 391.667969 140.589844 390.8125 137.25 389.648438 C 125.199219 385.375 117.425781 374.894531 117.425781 362.855469 C 117.425781 350.507812 125.664062 340.257812 139.347656 335.441406 C 147.042969 332.726562 155.285156 332.335938 163.835938 334.199219 C 169.433594 335.441406 175.1875 337.617188 180.863281 340.722656 C 188.089844 344.683594 193.066406 351.90625 194.15625 359.984375 C 195.242188 367.902344 192.523438 375.59375 186.847656 381.027344 C 185.292969 382.503906 183.582031 383.746094 181.714844 384.753906 C 180.863281 385.222656 180.085938 385.609375 179.230469 386.074219 C 170.210938 391.046875 161.660156 395.628906 146.421875 392.289062 Z M 146.421875 392.289062 " fill-opacity="1" fill-rule="nonzero"/><path fill="#8fd4ef" d="M 181.40625 376.601562 C 190.65625 367.75 188.015625 352.371094 176.820312 346.238281 C 167.722656 341.265625 154.894531 336.996094 141.679688 341.578125 C 117.425781 350.042969 120.222656 376.601562 139.734375 383.511719 C 159.25 390.425781 166.480469 385.222656 177.675781 379.242188 C 179.074219 378.542969 180.316406 377.609375 181.40625 376.601562 Z M 181.40625 376.601562 " fill-opacity="1" fill-rule="nonzero"/><path fill="#6cc4d8" d="M 285.96875 569.347656 C 283.402344 570.746094 280.605469 572.066406 277.339844 573.308594 C 265.445312 577.964844 252.617188 575.171875 244.765625 566.085938 C 236.679688 556.765625 236.136719 543.640625 243.289062 531.0625 C 247.332031 523.996094 253.316406 518.25 260.9375 514.054688 C 265.988281 511.335938 271.742188 509.238281 278.117188 507.84375 C 286.125 506.054688 294.597656 508.308594 300.816406 513.742188 C 306.804688 519.023438 309.835938 526.558594 309.136719 534.402344 C 308.902344 536.574219 308.4375 538.59375 307.738281 540.535156 C 307.425781 541.390625 307.035156 542.320312 306.726562 543.175781 C 303.148438 552.726562 299.730469 561.8125 285.96875 569.347656 Z M 285.96875 569.347656 " fill-opacity="1" fill-rule="nonzero"/><path fill="#8fd4ef" d="M 298.796875 535.023438 C 299.882812 523.375 288.84375 514.367188 277.417969 516.851562 C 268.164062 518.871094 256.738281 523.605469 250.363281 534.710938 C 238.703125 555.136719 256.582031 571.753906 274.230469 564.84375 C 291.878906 557.929688 293.664062 550.011719 297.863281 539.214844 C 298.328125 537.816406 298.640625 536.421875 298.796875 535.023438 Z M 298.796875 535.023438 " fill-opacity="1" fill-rule="nonzero"/><path fill="#6cc4d8" d="M 502.402344 603.4375 C 499.835938 604.835938 497.039062 606.15625 493.773438 607.398438 C 481.878906 612.058594 469.050781 609.261719 461.199219 600.175781 C 453.113281 590.859375 452.570312 577.734375 459.722656 565.152344 C 463.765625 558.085938 469.75 552.339844 477.371094 548.144531 C 482.421875 545.429688 488.175781 543.332031 494.550781 541.933594 C 502.558594 540.148438 511.03125 542.398438 517.25 547.835938 C 523.238281 553.117188 526.269531 560.648438 525.570312 568.492188 C 525.335938 570.667969 524.871094 572.6875 524.171875 574.628906 C 523.859375 575.480469 523.46875 576.414062 523.160156 577.269531 C 519.582031 586.898438 516.164062 595.984375 502.402344 603.4375 Z M 502.402344 603.4375 " fill-opacity="1" fill-rule="nonzero"/><path fill="#8fd4ef" d="M 514.296875 569.425781 C 515.308594 558.320312 504.734375 549.621094 493.851562 552.027344 C 484.988281 553.96875 474.027344 558.476562 467.964844 569.113281 C 456.769531 588.605469 473.949219 604.601562 490.820312 597.925781 C 507.6875 591.246094 509.476562 583.714844 513.441406 573.386719 C 513.910156 572.066406 514.140625 570.746094 514.296875 569.425781 Z M 514.296875 569.425781 " fill-opacity="1" fill-rule="nonzero"/><path fill="#6cc4d8" d="M 582.632812 428.089844 C 580.6875 429.175781 578.589844 430.105469 576.179688 431.039062 C 567.316406 434.535156 557.753906 432.4375 551.925781 425.679688 C 545.859375 418.691406 545.472656 408.90625 550.835938 399.589844 C 553.867188 394.308594 558.300781 390.035156 564.050781 386.929688 C 567.785156 384.910156 572.058594 383.359375 576.800781 382.269531 C 582.789062 380.949219 589.085938 382.582031 593.671875 386.621094 C 598.101562 390.578125 600.433594 396.171875 599.890625 401.996094 C 599.734375 403.625 599.425781 405.179688 598.804688 406.578125 C 598.570312 407.277344 598.335938 407.898438 598.023438 408.519531 C 595.460938 415.664062 592.894531 422.496094 582.632812 428.089844 Z M 582.632812 428.089844 " fill-opacity="1" fill-rule="nonzero"/><path fill="#8fd4ef" d="M 590.171875 402.460938 C 590.875 394.539062 583.410156 388.40625 575.636719 390.113281 C 569.339844 391.511719 561.5625 394.695312 557.289062 402.226562 C 549.359375 416.050781 561.488281 427.390625 573.457031 422.652344 C 585.429688 417.914062 586.675781 412.558594 589.472656 405.257812 C 589.941406 404.324219 590.09375 403.394531 590.171875 402.460938 Z M 590.171875 402.460938 " fill-opacity="1" fill-rule="nonzero"/><path fill="#6cc4d8" d="M 196.097656 186.652344 C 194.15625 187.738281 192.054688 188.671875 189.644531 189.601562 C 180.785156 193.097656 171.222656 191 165.390625 184.246094 C 159.328125 177.253906 158.9375 167.46875 164.300781 158.152344 C 167.335938 152.871094 171.765625 148.601562 177.519531 145.492188 C 181.25 143.472656 185.527344 141.921875 190.269531 140.835938 C 196.253906 139.515625 202.550781 141.144531 207.136719 145.183594 C 211.570312 149.144531 213.902344 154.734375 213.359375 160.558594 C 213.203125 162.191406 212.890625 163.742188 212.269531 165.140625 C 212.035156 165.839844 211.804688 166.460938 211.492188 167.082031 C 208.925781 174.304688 206.359375 181.058594 196.097656 186.652344 Z M 196.097656 186.652344 " fill-opacity="1" fill-rule="nonzero"/><path fill="#8fd4ef" d="M 208.148438 160.714844 C 209.003906 151.238281 200.0625 143.863281 190.734375 145.882812 C 183.195312 147.511719 173.863281 151.394531 168.65625 160.402344 C 159.171875 177.023438 173.710938 190.613281 188.089844 184.941406 C 202.472656 179.273438 203.949219 172.828125 207.371094 164.054688 C 207.839844 162.964844 208.070312 161.800781 208.148438 160.714844 Z M 208.148438 160.714844 " fill-opacity="1" fill-rule="nonzero"/><path fill="#6cc4d8" d="M 282.859375 306.863281 C 280.914062 307.953125 278.816406 308.882812 276.40625 309.816406 C 267.542969 313.3125 257.980469 311.214844 252.152344 304.457031 C 246.085938 297.46875 245.699219 287.683594 251.0625 278.363281 C 254.09375 273.085938 258.527344 268.8125 264.277344 265.707031 C 268.011719 263.6875 272.285156 262.132812 277.027344 261.046875 C 283.015625 259.726562 289.3125 261.359375 293.898438 265.394531 C 298.328125 269.355469 300.664062 274.949219 300.117188 280.773438 C 299.960938 282.402344 299.652344 283.957031 299.03125 285.355469 C 298.796875 286.054688 298.5625 286.675781 298.253906 287.296875 C 295.6875 294.519531 293.121094 301.273438 282.859375 306.863281 Z M 282.859375 306.863281 " fill-opacity="1" fill-rule="nonzero"/><path fill="#8fd4ef" d="M 292.65625 281.316406 C 293.433594 272.695312 285.269531 265.941406 276.796875 267.804688 C 269.875 269.277344 261.402344 272.773438 256.738281 281.082031 C 248.03125 296.226562 261.324219 308.652344 274.464844 303.449219 C 287.523438 298.324219 288.921875 292.421875 292.03125 284.421875 C 292.34375 283.414062 292.578125 282.324219 292.65625 281.316406 Z M 292.65625 281.316406 " fill-opacity="1" fill-rule="nonzero"/><path fill="#6cc4d8" d="M 411.675781 258.175781 C 409.734375 259.261719 407.636719 260.191406 405.226562 261.125 C 396.363281 264.621094 386.800781 262.523438 380.96875 255.765625 C 374.90625 248.777344 374.515625 238.992188 379.882812 229.675781 C 382.914062 224.394531 387.34375 220.121094 393.097656 217.015625 C 396.828125 214.996094 401.105469 213.445312 405.847656 212.355469 C 411.832031 211.035156 418.128906 212.667969 422.71875 216.707031 C 427.148438 220.664062 429.480469 226.257812 428.9375 232.082031 C 428.78125 233.710938 428.46875 235.265625 427.847656 236.664062 C 427.613281 237.363281 427.382812 237.984375 427.070312 238.605469 C 424.425781 245.828125 421.941406 252.582031 411.675781 258.175781 Z M 411.675781 258.175781 " fill-opacity="1" fill-rule="nonzero"/><path fill="#8fd4ef" d="M 419.605469 230.140625 C 420.308594 222.140625 412.765625 216.007812 404.992188 217.714844 C 398.617188 219.113281 390.84375 222.296875 386.488281 229.90625 C 378.480469 243.886719 390.765625 255.300781 402.816406 250.5625 C 414.863281 245.828125 416.109375 240.390625 418.984375 233.011719 C 419.296875 232.082031 419.53125 231.148438 419.605469 230.140625 Z M 419.605469 230.140625 " fill-opacity="1" fill-rule="nonzero"/></svg>