<svg xmlns="http://www.w3.org/2000/svg" xmlns:xlink="http://www.w3.org/1999/xlink" width="1000" zoomAndPan="magnify" viewBox="0 0 750 749.999995" height="1000" preserveAspectRatio="xMidYMid meet" version="1.0"><defs><clipPath id="10343019fb"><path d="M 334 121.585938 L 475 121.585938 L 475 620 L 334 620 Z M 334 121.585938 " clip-rule="nonzero"/></clipPath><clipPath id="b17d870ce2"><path d="M 263 254 L 562.90625 254 L 562.90625 554 L 263 554 Z M 263 254 " clip-rule="nonzero"/></clipPath><clipPath id="fe185df8dc"><path d="M 187.15625 489 L 327 489 L 327 628.585938 L 187.15625 628.585938 Z M 187.15625 489 " clip-rule="nonzero"/></clipPath></defs><g clip-path="url(#10343019fb)"><path fill="#ebf5fd" d="M 474.515625 140.664062 C 474.515625 146.171875 472.179688 151.136719 468.445312 154.617188 L 468.445312 555.179688 C 468.445312 590.621094 439.71875 619.347656 404.285156 619.347656 C 386.566406 619.347656 370.527344 612.167969 358.914062 600.554688 C 347.304688 588.941406 340.121094 572.898438 340.121094 555.179688 L 340.121094 154.617188 C 336.386719 151.136719 334.054688 146.171875 334.054688 140.664062 C 334.054688 135.394531 336.1875 130.625 339.640625 127.175781 C 343.09375 123.71875 347.859375 121.585938 353.128906 121.585938 L 455.441406 121.585938 C 465.972656 121.585938 474.515625 130.125 474.515625 140.664062 Z M 474.515625 140.664062 " fill-opacity="1" fill-rule="nonzero"/><path fill="#ebf5fd" d="M 474.515625 140.664062 C 474.515625 146.171875 472.179688 151.136719 468.445312 154.617188 L 468.445312 555.179688 C 468.445312 590.621094 439.71875 619.347656 404.285156 619.347656 C 386.566406 619.347656 370.527344 612.167969 358.914062 600.554688 C 347.304688 588.941406 340.121094 572.898438 340.121094 555.179688 L 340.121094 154.617188 C 336.386719 151.136719 334.054688 146.171875 334.054688 140.664062 C 334.054688 135.394531 336.1875 130.625 339.640625 127.175781 C 343.09375 123.71875 347.859375 121.585938 353.128906 121.585938 L 455.441406 121.585938 C 465.972656 121.585938 474.515625 130.125 474.515625 140.664062 Z M 474.515625 140.664062 " fill-opacity="1" fill-rule="nonzero"/></g><path fill="#ce1817" d="M 464.109375 247.164062 L 464.109375 556.046875 C 464.109375 589.09375 437.324219 615.878906 404.285156 615.878906 C 387.761719 615.878906 372.808594 609.183594 361.980469 598.355469 C 351.152344 587.527344 344.457031 572.570312 344.457031 556.046875 L 344.457031 247.164062 Z M 464.109375 247.164062 " fill-opacity="0.8" fill-rule="nonzero"/><path fill="#a6dbf8" d="M 549.511719 402.324219 C 549.511719 404.625 549.453125 406.921875 549.339844 409.21875 C 549.226562 411.515625 549.058594 413.808594 548.832031 416.09375 C 548.609375 418.382812 548.328125 420.664062 547.988281 422.9375 C 547.652344 425.214844 547.257812 427.476562 546.8125 429.734375 C 546.363281 431.988281 545.859375 434.230469 545.300781 436.460938 C 544.742188 438.691406 544.128906 440.90625 543.460938 443.105469 C 542.792969 445.304688 542.074219 447.488281 541.300781 449.652344 C 540.523438 451.816406 539.699219 453.960938 538.816406 456.085938 C 537.9375 458.210938 537.007812 460.3125 536.023438 462.390625 C 535.042969 464.46875 534.007812 466.523438 532.925781 468.550781 C 531.839844 470.578125 530.707031 472.578125 529.527344 474.550781 C 528.34375 476.519531 527.113281 478.460938 525.839844 480.375 C 524.5625 482.285156 523.238281 484.164062 521.867188 486.011719 C 520.5 487.859375 519.085938 489.671875 517.625 491.449219 C 516.167969 493.226562 514.667969 494.964844 513.125 496.667969 C 511.578125 498.371094 509.996094 500.039062 508.371094 501.664062 C 506.746094 503.289062 505.078125 504.875 503.375 506.417969 C 501.671875 507.960938 499.933594 509.460938 498.15625 510.921875 C 496.378906 512.378906 494.566406 513.792969 492.722656 515.164062 C 490.875 516.53125 488.996094 517.855469 487.085938 519.132812 C 485.171875 520.410156 483.230469 521.640625 481.261719 522.824219 C 479.289062 524.003906 477.289062 525.136719 475.261719 526.222656 C 473.234375 527.304688 471.179688 528.339844 469.101562 529.320312 C 467.027344 530.304688 464.925781 531.234375 462.800781 532.117188 C 460.675781 532.996094 458.53125 533.824219 456.367188 534.597656 C 454.203125 535.371094 452.023438 536.09375 449.820312 536.761719 C 447.621094 537.429688 445.40625 538.039062 443.179688 538.601562 C 440.949219 539.160156 438.707031 539.660156 436.449219 540.109375 C 434.195312 540.558594 431.933594 540.953125 429.660156 541.289062 C 427.382812 541.625 425.105469 541.90625 422.816406 542.132812 C 420.527344 542.359375 418.238281 542.527344 415.941406 542.640625 C 413.644531 542.753906 411.347656 542.808594 409.046875 542.808594 C 406.75 542.808594 404.453125 542.753906 402.15625 542.640625 C 399.859375 542.527344 397.570312 542.359375 395.28125 542.132812 C 392.992188 541.90625 390.710938 541.625 388.4375 541.289062 C 386.164062 540.953125 383.898438 540.558594 381.644531 540.109375 C 379.390625 539.660156 377.148438 539.160156 374.917969 538.601562 C 372.6875 538.039062 370.472656 537.429688 368.273438 536.761719 C 366.074219 536.09375 363.894531 535.371094 361.726562 534.597656 C 359.5625 533.824219 357.417969 532.996094 355.296875 532.117188 C 353.171875 531.234375 351.070312 530.304688 348.992188 529.320312 C 346.914062 528.339844 344.863281 527.304688 342.835938 526.222656 C 340.808594 525.136719 338.808594 524.003906 336.835938 522.824219 C 334.863281 521.640625 332.921875 520.410156 331.011719 519.132812 C 329.101562 517.855469 327.222656 516.53125 325.375 515.164062 C 323.527344 513.792969 321.71875 512.378906 319.941406 510.921875 C 318.164062 509.460938 316.421875 507.960938 314.71875 506.417969 C 313.015625 504.875 311.351562 503.289062 309.726562 501.664062 C 308.101562 500.039062 306.515625 498.371094 304.972656 496.667969 C 303.429688 494.964844 301.929688 493.226562 300.46875 491.449219 C 299.011719 489.671875 297.597656 487.859375 296.230469 486.011719 C 294.859375 484.164062 293.535156 482.285156 292.257812 480.375 C 290.980469 478.460938 289.753906 476.519531 288.570312 474.550781 C 287.390625 472.578125 286.257812 470.578125 285.171875 468.550781 C 284.089844 466.523438 283.054688 464.46875 282.074219 462.390625 C 281.089844 460.3125 280.160156 458.210938 279.277344 456.085938 C 278.398438 453.960938 277.570312 451.816406 276.796875 449.652344 C 276.023438 447.488281 275.300781 445.304688 274.636719 443.105469 C 273.96875 440.90625 273.355469 438.691406 272.796875 436.460938 C 272.238281 434.230469 271.734375 431.988281 271.285156 429.734375 C 270.835938 427.476562 270.445312 425.214844 270.105469 422.9375 C 269.769531 420.664062 269.488281 418.382812 269.261719 416.09375 C 269.039062 413.808594 268.867188 411.515625 268.757812 409.21875 C 268.644531 406.921875 268.585938 404.625 268.585938 402.324219 C 268.585938 400.027344 268.644531 397.730469 268.757812 395.433594 C 268.867188 393.136719 269.039062 390.84375 269.261719 388.554688 C 269.488281 386.269531 269.769531 383.988281 270.105469 381.710938 C 270.445312 379.4375 270.835938 377.171875 271.285156 374.917969 C 271.734375 372.664062 272.238281 370.421875 272.796875 368.191406 C 273.355469 365.960938 273.96875 363.746094 274.636719 361.546875 C 275.300781 359.34375 276.023438 357.164062 276.796875 355 C 277.570312 352.832031 278.398438 350.6875 279.277344 348.566406 C 280.160156 346.441406 281.089844 344.339844 282.074219 342.261719 C 283.054688 340.183594 284.089844 338.128906 285.171875 336.101562 C 286.257812 334.074219 287.386719 332.074219 288.570312 330.101562 C 289.753906 328.128906 290.980469 326.1875 292.257812 324.277344 C 293.535156 322.367188 294.859375 320.484375 296.230469 318.640625 C 297.597656 316.792969 299.011719 314.980469 300.46875 313.203125 C 301.929688 311.425781 303.429688 309.6875 304.972656 307.984375 C 306.515625 306.277344 308.101562 304.613281 309.726562 302.988281 C 311.351562 301.363281 313.015625 299.777344 314.71875 298.234375 C 316.421875 296.691406 318.164062 295.1875 319.941406 293.730469 C 321.71875 292.273438 323.527344 290.859375 325.375 289.488281 C 327.222656 288.117188 329.101562 286.792969 331.011719 285.515625 C 332.921875 284.238281 334.863281 283.011719 336.835938 281.828125 C 338.808594 280.648438 340.808594 279.515625 342.835938 278.429688 C 344.863281 277.347656 346.914062 276.3125 348.992188 275.328125 C 351.070312 274.347656 353.171875 273.414062 355.296875 272.535156 C 357.417969 271.65625 359.5625 270.828125 361.726562 270.054688 C 363.894531 269.277344 366.074219 268.558594 368.273438 267.890625 C 370.472656 267.222656 372.6875 266.609375 374.917969 266.050781 C 377.148438 265.492188 379.390625 264.988281 381.644531 264.542969 C 383.898438 264.09375 386.164062 263.699219 388.4375 263.363281 C 390.710938 263.023438 392.992188 262.742188 395.28125 262.519531 C 397.570312 262.292969 399.859375 262.125 402.15625 262.011719 C 404.453125 261.898438 406.75 261.839844 409.046875 261.839844 C 411.347656 261.839844 413.644531 261.898438 415.941406 262.011719 C 418.238281 262.125 420.527344 262.292969 422.816406 262.519531 C 425.105469 262.742188 427.382812 263.023438 429.660156 263.363281 C 431.933594 263.699219 434.195312 264.09375 436.449219 264.542969 C 438.707031 264.988281 440.949219 265.492188 443.179688 266.050781 C 445.40625 266.609375 447.621094 267.222656 449.820312 267.890625 C 452.023438 268.558594 454.203125 269.277344 456.367188 270.054688 C 458.53125 270.828125 460.675781 271.65625 462.800781 272.535156 C 464.925781 273.414062 467.027344 274.347656 469.101562 275.328125 C 471.179688 276.3125 473.234375 277.347656 475.261719 278.429688 C 477.289062 279.515625 479.289062 280.648438 481.261719 281.828125 C 483.230469 283.011719 485.171875 284.238281 487.085938 285.515625 C 488.996094 286.792969 490.875 288.117188 492.722656 289.488281 C 494.566406 290.859375 496.378906 292.273438 498.15625 293.730469 C 499.933594 295.1875 501.671875 296.691406 503.375 298.234375 C 505.078125 299.777344 506.746094 301.363281 508.371094 302.988281 C 509.996094 304.613281 511.578125 306.277344 513.125 307.984375 C 514.667969 309.6875 516.167969 311.425781 517.625 313.203125 C 519.085938 314.980469 520.5 316.792969 521.867188 318.640625 C 523.238281 320.484375 524.5625 322.367188 525.839844 324.277344 C 527.113281 326.1875 528.34375 328.128906 529.527344 330.101562 C 530.707031 332.074219 531.839844 334.074219 532.925781 336.101562 C 534.007812 338.128906 535.042969 340.183594 536.023438 342.261719 C 537.007812 344.339844 537.9375 346.441406 538.816406 348.566406 C 539.699219 350.6875 540.523438 352.832031 541.300781 355 C 542.074219 357.164062 542.792969 359.34375 543.460938 361.546875 C 544.128906 363.746094 544.742188 365.960938 545.300781 368.191406 C 545.859375 370.421875 546.363281 372.664062 546.8125 374.917969 C 547.257812 377.171875 547.652344 379.4375 547.988281 381.710938 C 548.328125 383.988281 548.609375 386.269531 548.832031 388.554688 C 549.058594 390.84375 549.226562 393.136719 549.339844 395.433594 C 549.453125 397.730469 549.511719 400.027344 549.511719 402.324219 Z M 549.511719 402.324219 " fill-opacity="0.1" fill-rule="nonzero"/><g clip-path="url(#b17d870ce2)"><path fill="#000000" d="M 412.976562 553.957031 C 393.511719 553.957031 374.539062 550.261719 356.578125 542.976562 C 337.980469 535.433594 321.296875 524.355469 306.988281 510.046875 C 292.683594 495.738281 281.605469 479.050781 274.0625 460.449219 C 266.78125 442.488281 263.089844 423.507812 263.089844 404.042969 C 263.089844 384.574219 266.78125 365.597656 274.0625 347.632812 C 281.605469 329.03125 292.683594 312.347656 306.988281 298.039062 C 321.296875 283.730469 337.980469 272.652344 356.578125 265.109375 C 374.539062 257.824219 393.511719 254.128906 412.976562 254.128906 C 432.441406 254.128906 451.414062 257.824219 469.375 265.109375 C 487.976562 272.652344 504.660156 283.730469 518.964844 298.039062 C 533.269531 312.347656 544.347656 329.03125 551.890625 347.632812 C 559.171875 365.597656 562.867188 384.574219 562.867188 404.042969 C 562.867188 423.507812 559.171875 442.488281 551.890625 460.449219 C 544.347656 479.050781 533.269531 495.738281 518.964844 510.046875 C 504.660156 524.355469 487.976562 535.433594 469.375 542.976562 C 451.414062 550.261719 432.441406 553.957031 412.976562 553.957031 Z M 412.976562 271.472656 C 377.570312 271.472656 344.285156 285.261719 319.25 310.300781 C 267.570312 361.992188 267.570312 446.09375 319.25 497.78125 C 344.285156 522.820312 377.570312 536.613281 412.976562 536.613281 C 448.382812 536.613281 481.667969 522.820312 506.703125 497.78125 C 558.382812 446.09375 558.382812 361.992188 506.703125 310.300781 C 481.667969 285.261719 448.382812 271.472656 412.976562 271.472656 Z M 412.976562 271.472656 " fill-opacity="1" fill-rule="nonzero"/></g><g clip-path="url(#fe185df8dc)"><path fill="#000000" d="M 299.277344 489.523438 L 326.25 516.503906 L 214.183594 628.585938 L 187.207031 601.605469 Z M 299.277344 489.523438 " fill-opacity="1" fill-rule="nonzero"/></g><path fill="#ce1817" d="M 472.003906 460.097656 C 472.003906 461.574219 471.933594 463.050781 471.789062 464.519531 C 471.644531 465.988281 471.425781 467.445312 471.140625 468.894531 C 470.851562 470.34375 470.492188 471.773438 470.0625 473.1875 C 469.636719 474.601562 469.136719 475.988281 468.574219 477.351562 C 468.007812 478.71875 467.378906 480.050781 466.683594 481.351562 C 465.984375 482.65625 465.226562 483.917969 464.40625 485.148438 C 463.585938 486.375 462.710938 487.558594 461.773438 488.703125 C 460.835938 489.84375 459.847656 490.9375 458.800781 491.980469 C 457.757812 493.023438 456.664062 494.015625 455.523438 494.949219 C 454.382812 495.886719 453.199219 496.765625 451.96875 497.585938 C 450.742188 498.40625 449.476562 499.164062 448.175781 499.863281 C 446.875 500.558594 445.542969 501.1875 444.175781 501.753906 C 442.8125 502.320312 441.425781 502.816406 440.011719 503.242188 C 438.597656 503.671875 437.167969 504.03125 435.71875 504.320312 C 434.273438 504.605469 432.8125 504.824219 431.34375 504.96875 C 429.875 505.113281 428.402344 505.183594 426.925781 505.183594 C 425.449219 505.183594 423.976562 505.113281 422.507812 504.96875 C 421.039062 504.824219 419.578125 504.605469 418.132812 504.320312 C 416.683594 504.03125 415.253906 503.671875 413.839844 503.242188 C 412.429688 502.816406 411.039062 502.316406 409.675781 501.753906 C 408.3125 501.1875 406.976562 500.558594 405.675781 499.863281 C 404.375 499.164062 403.109375 498.40625 401.882812 497.585938 C 400.652344 496.765625 399.46875 495.886719 398.328125 494.949219 C 397.1875 494.015625 396.09375 493.023438 395.050781 491.980469 C 394.007812 490.9375 393.015625 489.84375 392.078125 488.703125 C 391.144531 487.558594 390.265625 486.375 389.445312 485.148438 C 388.625 483.917969 387.867188 482.65625 387.171875 481.351562 C 386.472656 480.050781 385.84375 478.71875 385.277344 477.351562 C 384.714844 475.988281 384.21875 474.601562 383.789062 473.1875 C 383.359375 471.773438 383 470.34375 382.714844 468.894531 C 382.425781 467.445312 382.210938 465.988281 382.066406 464.519531 C 381.917969 463.050781 381.847656 461.574219 381.847656 460.097656 C 381.847656 458.621094 381.917969 457.148438 382.066406 455.679688 C 382.210938 454.210938 382.425781 452.75 382.714844 451.304688 C 383 449.855469 383.359375 448.425781 383.789062 447.011719 C 384.21875 445.597656 384.714844 444.210938 385.277344 442.84375 C 385.84375 441.480469 386.472656 440.148438 387.171875 438.847656 C 387.867188 437.542969 388.625 436.277344 389.445312 435.050781 C 390.265625 433.824219 391.144531 432.636719 392.078125 431.496094 C 393.015625 430.355469 394.007812 429.261719 395.050781 428.21875 C 396.09375 427.175781 397.1875 426.183594 398.328125 425.246094 C 399.46875 424.308594 400.652344 423.433594 401.882812 422.613281 C 403.109375 421.792969 404.375 421.03125 405.675781 420.335938 C 406.976562 419.640625 408.3125 419.011719 409.675781 418.445312 C 411.039062 417.878906 412.429688 417.382812 413.839844 416.953125 C 415.253906 416.527344 416.683594 416.167969 418.132812 415.878906 C 419.578125 415.589844 421.039062 415.375 422.507812 415.230469 C 423.976562 415.085938 425.449219 415.011719 426.925781 415.011719 C 428.402344 415.011719 429.875 415.085938 431.34375 415.230469 C 432.8125 415.375 434.273438 415.589844 435.71875 415.878906 C 437.167969 416.167969 438.597656 416.527344 440.011719 416.953125 C 441.425781 417.382812 442.8125 417.878906 444.175781 418.445312 C 445.542969 419.011719 446.875 419.640625 448.175781 420.335938 C 449.476562 421.03125 450.742188 421.792969 451.96875 422.613281 C 453.199219 423.433594 454.382812 424.308594 455.523438 425.246094 C 456.664062 426.183594 457.757812 427.175781 458.800781 428.21875 C 459.847656 429.261719 460.835938 430.355469 461.773438 431.496094 C 462.710938 432.636719 463.585938 433.824219 464.40625 435.050781 C 465.226562 436.277344 465.984375 437.542969 466.683594 438.847656 C 467.378906 440.148438 468.007812 441.480469 468.574219 442.84375 C 469.136719 444.210938 469.636719 445.597656 470.0625 447.011719 C 470.492188 448.425781 470.851562 449.855469 471.140625 451.304688 C 471.425781 452.75 471.644531 454.210938 471.789062 455.679688 C 471.933594 457.148438 472.003906 458.621094 472.003906 460.097656 Z M 472.003906 460.097656 " fill-opacity="1" fill-rule="nonzero"/><path fill="#a81916" d="M 404.789062 482.238281 C 398.878906 476.324219 395.621094 468.460938 395.621094 460.097656 C 395.621094 451.734375 398.878906 443.875 404.789062 437.960938 C 410.703125 432.046875 418.566406 428.789062 426.925781 428.789062 C 435.289062 428.789062 443.148438 432.046875 449.0625 437.960938 C 454.976562 443.875 458.230469 451.734375 458.230469 460.097656 C 458.230469 468.460938 454.976562 476.324219 449.0625 482.238281 C 443.148438 488.152344 435.289062 491.410156 426.925781 491.410156 C 418.5625 491.410156 410.703125 488.152344 404.789062 482.238281 Z M 443.75 443.273438 C 434.472656 433.996094 419.378906 433.996094 410.101562 443.273438 C 400.828125 452.550781 400.828125 467.648438 410.101562 476.925781 C 419.378906 486.203125 434.472656 486.203125 443.75 476.925781 C 453.027344 467.648438 453.027344 452.550781 443.75 443.273438 Z M 443.75 443.273438 " fill-opacity="1" fill-rule="nonzero"/><path fill="#ce1817" d="M 395.121094 397.339844 C 393.953125 398.132812 392.757812 398.878906 391.527344 399.570312 C 390.300781 400.265625 389.050781 400.902344 387.773438 401.488281 C 386.5 402.074219 385.203125 402.601562 383.894531 403.074219 C 382.582031 403.546875 381.257812 403.960938 379.921875 404.316406 C 378.585938 404.671875 377.246094 404.964844 375.898438 405.199219 C 374.554688 405.433594 373.210938 405.605469 371.867188 405.714844 C 370.523438 405.828125 369.183594 405.875 367.855469 405.859375 C 366.527344 405.847656 365.214844 405.769531 363.914062 405.632812 C 362.613281 405.496094 361.332031 405.296875 360.074219 405.035156 C 358.8125 404.773438 357.578125 404.453125 356.371094 404.070312 C 355.164062 403.691406 353.988281 403.25 352.847656 402.753906 C 351.703125 402.253906 350.597656 401.699219 349.53125 401.089844 C 348.460938 400.480469 347.4375 399.820312 346.457031 399.101562 C 345.472656 398.386719 344.539062 397.621094 343.652344 396.804688 C 342.765625 395.992188 341.929688 395.132812 341.144531 394.226562 C 340.363281 393.320312 339.632812 392.371094 338.960938 391.382812 C 338.289062 390.394531 337.675781 389.367188 337.121094 388.304688 C 336.566406 387.246094 336.074219 386.152344 335.640625 385.027344 C 335.210938 383.902344 334.84375 382.75 334.539062 381.574219 C 334.234375 380.398438 333.992188 379.199219 333.820312 377.984375 C 333.644531 376.765625 333.535156 375.535156 333.492188 374.289062 C 333.449219 373.042969 333.472656 371.789062 333.5625 370.523438 C 333.652344 369.261719 333.808594 367.996094 334.027344 366.726562 C 334.25 365.460938 334.535156 364.195312 334.882812 362.9375 C 335.234375 361.675781 335.644531 360.425781 336.121094 359.183594 C 336.597656 357.941406 337.132812 356.71875 337.730469 355.507812 C 338.328125 354.300781 338.980469 353.113281 339.691406 351.945312 C 340.40625 350.78125 341.171875 349.640625 341.992188 348.527344 C 342.8125 347.417969 343.683594 346.339844 344.605469 345.292969 C 345.527344 344.246094 346.496094 343.238281 347.507812 342.265625 C 348.523438 341.292969 349.578125 340.363281 350.671875 339.476562 C 351.765625 338.589844 352.898438 337.75 354.066406 336.957031 C 355.230469 336.164062 356.429688 335.421875 357.65625 334.726562 C 358.882812 334.035156 360.136719 333.394531 361.410156 332.808594 C 362.6875 332.222656 363.980469 331.695312 365.292969 331.222656 C 366.605469 330.75 367.925781 330.335938 369.261719 329.980469 C 370.597656 329.628906 371.9375 329.332031 373.285156 329.097656 C 374.632812 328.867188 375.976562 328.691406 377.320312 328.582031 C 378.664062 328.472656 380 328.421875 381.328125 328.4375 C 382.65625 328.453125 383.972656 328.527344 385.273438 328.664062 C 386.574219 328.804688 387.851562 329.003906 389.113281 329.261719 C 390.371094 329.523438 391.605469 329.84375 392.8125 330.226562 C 394.019531 330.609375 395.195312 331.046875 396.339844 331.546875 C 397.480469 332.042969 398.585938 332.597656 399.65625 333.207031 C 400.722656 333.816406 401.746094 334.480469 402.730469 335.195312 C 403.710938 335.910156 404.648438 336.675781 405.535156 337.492188 C 406.421875 338.308594 407.257812 339.167969 408.039062 340.074219 C 408.824219 340.980469 409.550781 341.925781 410.222656 342.917969 C 410.894531 343.90625 411.507812 344.929688 412.0625 345.992188 C 412.617188 347.054688 413.113281 348.148438 413.542969 349.273438 C 413.976562 350.398438 414.34375 351.546875 414.648438 352.722656 C 414.953125 353.902344 415.191406 355.097656 415.367188 356.316406 C 415.539062 357.53125 415.648438 358.765625 415.691406 360.011719 C 415.734375 361.257812 415.710938 362.511719 415.621094 363.773438 C 415.535156 365.035156 415.378906 366.300781 415.15625 367.570312 C 414.9375 368.839844 414.652344 370.101562 414.300781 371.363281 C 413.953125 372.625 413.539062 373.875 413.0625 375.113281 C 412.589844 376.355469 412.050781 377.582031 411.457031 378.789062 C 410.859375 380 410.203125 381.1875 409.492188 382.351562 C 408.78125 383.519531 408.011719 384.65625 407.191406 385.769531 C 406.371094 386.882812 405.5 387.960938 404.578125 389.007812 C 403.65625 390.054688 402.691406 391.0625 401.675781 392.035156 C 400.664062 393.003906 399.609375 393.933594 398.511719 394.820312 C 397.417969 395.707031 396.285156 396.546875 395.121094 397.339844 Z M 395.121094 397.339844 " fill-opacity="1" fill-rule="nonzero"/><path fill="#a81916" d="M 349.847656 383.980469 C 346.039062 378.378906 345.03125 371.363281 347.011719 364.226562 C 348.992188 357.089844 353.726562 350.679688 360.332031 346.1875 C 366.941406 341.691406 374.640625 339.644531 382.003906 340.425781 C 389.371094 341.207031 395.523438 344.722656 399.332031 350.324219 C 403.140625 355.921875 404.144531 362.9375 402.164062 370.078125 C 400.183594 377.214844 395.453125 383.625 388.84375 388.117188 C 382.234375 392.613281 374.539062 394.660156 367.171875 393.878906 C 359.808594 393.09375 353.652344 389.582031 349.847656 383.980469 Z M 393.394531 354.363281 C 387.421875 345.574219 374.125 344.164062 363.753906 351.21875 C 353.386719 358.269531 349.8125 371.15625 355.785156 379.941406 C 361.757812 388.726562 375.054688 390.136719 385.421875 383.085938 C 395.792969 376.035156 399.367188 363.148438 393.394531 354.363281 Z M 393.394531 354.363281 " fill-opacity="1" fill-rule="nonzero"/><path fill="#ce1817" d="M 357.445312 445.132812 C 357.445312 445.941406 357.40625 446.75 357.328125 447.554688 C 357.25 448.363281 357.128906 449.160156 356.972656 449.957031 C 356.8125 450.75 356.617188 451.535156 356.382812 452.308594 C 356.148438 453.082031 355.875 453.84375 355.566406 454.59375 C 355.257812 455.339844 354.910156 456.070312 354.527344 456.785156 C 354.148438 457.5 353.730469 458.195312 353.28125 458.867188 C 352.832031 459.539062 352.351562 460.1875 351.835938 460.816406 C 351.324219 461.441406 350.78125 462.039062 350.207031 462.613281 C 349.636719 463.183594 349.035156 463.726562 348.410156 464.242188 C 347.785156 464.753906 347.136719 465.238281 346.460938 465.6875 C 345.789062 466.136719 345.097656 466.550781 344.382812 466.933594 C 343.667969 467.316406 342.9375 467.660156 342.191406 467.972656 C 341.441406 468.28125 340.679688 468.554688 339.90625 468.789062 C 339.132812 469.023438 338.347656 469.21875 337.554688 469.378906 C 336.757812 469.535156 335.960938 469.65625 335.152344 469.734375 C 334.347656 469.8125 333.539062 469.851562 332.730469 469.851562 C 331.921875 469.851562 331.113281 469.8125 330.308594 469.734375 C 329.503906 469.65625 328.703125 469.535156 327.910156 469.378906 C 327.117188 469.21875 326.332031 469.023438 325.554688 468.789062 C 324.78125 468.554688 324.019531 468.28125 323.273438 467.972656 C 322.523438 467.660156 321.792969 467.316406 321.078125 466.933594 C 320.367188 466.550781 319.671875 466.136719 319 465.6875 C 318.328125 465.238281 317.675781 464.753906 317.050781 464.242188 C 316.425781 463.726562 315.828125 463.183594 315.253906 462.613281 C 314.683594 462.039062 314.140625 461.441406 313.625 460.816406 C 313.113281 460.1875 312.628906 459.539062 312.179688 458.867188 C 311.730469 458.195312 311.316406 457.5 310.933594 456.785156 C 310.550781 456.070312 310.207031 455.339844 309.898438 454.59375 C 309.585938 453.84375 309.3125 453.082031 309.078125 452.308594 C 308.84375 451.535156 308.648438 450.75 308.488281 449.957031 C 308.332031 449.160156 308.214844 448.363281 308.132812 447.554688 C 308.054688 446.75 308.015625 445.941406 308.015625 445.132812 C 308.015625 444.324219 308.054688 443.515625 308.132812 442.710938 C 308.214844 441.902344 308.332031 441.105469 308.488281 440.308594 C 308.648438 439.515625 308.84375 438.730469 309.078125 437.957031 C 309.3125 437.183594 309.585938 436.421875 309.894531 435.671875 C 310.207031 434.925781 310.550781 434.195312 310.933594 433.480469 C 311.316406 432.765625 311.730469 432.074219 312.179688 431.398438 C 312.628906 430.726562 313.113281 430.078125 313.625 429.449219 C 314.140625 428.824219 314.683594 428.226562 315.253906 427.652344 C 315.828125 427.082031 316.425781 426.539062 317.050781 426.023438 C 317.675781 425.511719 318.328125 425.027344 319 424.578125 C 319.671875 424.128906 320.367188 423.714844 321.078125 423.332031 C 321.792969 422.949219 322.523438 422.605469 323.273438 422.292969 C 324.019531 421.984375 324.78125 421.710938 325.554688 421.476562 C 326.332031 421.242188 327.117188 421.046875 327.910156 420.886719 C 328.703125 420.730469 329.503906 420.609375 330.308594 420.53125 C 331.113281 420.453125 331.921875 420.414062 332.730469 420.414062 C 333.539062 420.414062 334.347656 420.453125 335.152344 420.53125 C 335.960938 420.609375 336.757812 420.730469 337.554688 420.886719 C 338.347656 421.046875 339.132812 421.242188 339.90625 421.476562 C 340.679688 421.710938 341.441406 421.984375 342.191406 422.292969 C 342.9375 422.605469 343.667969 422.949219 344.382812 423.332031 C 345.097656 423.714844 345.789062 424.128906 346.460938 424.578125 C 347.136719 425.027344 347.785156 425.511719 348.410156 426.023438 C 349.035156 426.539062 349.636719 427.082031 350.207031 427.652344 C 350.78125 428.226562 351.324219 428.824219 351.835938 429.449219 C 352.351562 430.078125 352.832031 430.726562 353.28125 431.398438 C 353.730469 432.074219 354.148438 432.765625 354.527344 433.480469 C 354.910156 434.195312 355.257812 434.925781 355.566406 435.671875 C 355.875 436.421875 356.148438 437.183594 356.382812 437.957031 C 356.617188 438.730469 356.8125 439.515625 356.972656 440.308594 C 357.128906 441.105469 357.25 441.902344 357.328125 442.710938 C 357.40625 443.515625 357.445312 444.324219 357.445312 445.132812 Z M 357.445312 445.132812 " fill-opacity="1" fill-rule="nonzero"/><path fill="#a81916" d="M 337.101562 461.734375 C 332.667969 462.902344 328.046875 462.273438 324.085938 459.964844 C 320.125 457.652344 317.300781 453.941406 316.132812 449.503906 C 314.964844 445.070312 315.59375 440.449219 317.902344 436.488281 C 320.210938 432.523438 323.925781 429.699219 328.359375 428.53125 C 332.792969 427.363281 337.414062 427.992188 341.375 430.304688 C 345.335938 432.613281 348.160156 436.328125 349.328125 440.761719 C 350.496094 445.195312 349.867188 449.816406 347.558594 453.78125 C 345.25 457.742188 341.535156 460.566406 337.101562 461.734375 Z M 329.410156 432.515625 C 322.453125 434.347656 318.285156 441.5 320.117188 448.457031 C 321.949219 455.414062 329.097656 459.582031 336.054688 457.75 C 343.007812 455.917969 347.175781 448.765625 345.34375 441.808594 C 343.515625 434.851562 336.363281 430.683594 329.410156 432.515625 Z M 329.410156 432.515625 " fill-opacity="1" fill-rule="nonzero"/><path fill="#ce1817" d="M 499.800781 366.320312 C 499.867188 367.292969 499.894531 368.265625 499.882812 369.238281 C 499.867188 370.210938 499.8125 371.175781 499.71875 372.140625 C 499.625 373.105469 499.492188 374.058594 499.316406 375.007812 C 499.140625 375.953125 498.929688 376.886719 498.675781 377.804688 C 498.421875 378.722656 498.132812 379.625 497.804688 380.507812 C 497.476562 381.394531 497.109375 382.253906 496.710938 383.09375 C 496.308594 383.933594 495.875 384.746094 495.402344 385.535156 C 494.933594 386.320312 494.429688 387.078125 493.898438 387.804688 C 493.363281 388.53125 492.800781 389.226562 492.207031 389.886719 C 491.613281 390.546875 490.992188 391.171875 490.34375 391.757812 C 489.699219 392.347656 489.027344 392.894531 488.335938 393.402344 C 487.640625 393.910156 486.925781 394.375 486.191406 394.800781 C 485.457031 395.226562 484.707031 395.605469 483.9375 395.941406 C 483.171875 396.28125 482.390625 396.570312 481.59375 396.816406 C 480.800781 397.0625 480 397.261719 479.1875 397.414062 C 478.375 397.566406 477.554688 397.667969 476.734375 397.726562 C 475.910156 397.785156 475.085938 397.792969 474.261719 397.753906 C 473.433594 397.714844 472.613281 397.628906 471.792969 397.496094 C 470.972656 397.363281 470.15625 397.183594 469.351562 396.957031 C 468.542969 396.726562 467.746094 396.457031 466.960938 396.136719 C 466.175781 395.816406 465.402344 395.453125 464.644531 395.046875 C 463.886719 394.640625 463.148438 394.1875 462.425781 393.695312 C 461.707031 393.203125 461.003906 392.671875 460.324219 392.101562 C 459.648438 391.527344 458.992188 390.917969 458.363281 390.273438 C 457.734375 389.625 457.132812 388.945312 456.558594 388.230469 C 455.984375 387.515625 455.441406 386.769531 454.925781 385.996094 C 454.414062 385.21875 453.933594 384.414062 453.484375 383.585938 C 453.039062 382.753906 452.625 381.902344 452.25 381.027344 C 451.871094 380.152344 451.53125 379.257812 451.226562 378.34375 C 450.925781 377.429688 450.660156 376.503906 450.433594 375.5625 C 450.207031 374.621094 450.019531 373.667969 449.871094 372.707031 C 449.722656 371.746094 449.617188 370.78125 449.550781 369.808594 C 449.480469 368.835938 449.453125 367.867188 449.46875 366.894531 C 449.480469 365.921875 449.535156 364.953125 449.628906 363.988281 C 449.722656 363.023438 449.859375 362.070312 450.035156 361.125 C 450.207031 360.175781 450.421875 359.246094 450.671875 358.324219 C 450.925781 357.40625 451.21875 356.503906 451.546875 355.621094 C 451.875 354.738281 452.238281 353.875 452.640625 353.035156 C 453.039062 352.195312 453.476562 351.382812 453.945312 350.597656 C 454.417969 349.808594 454.917969 349.050781 455.453125 348.324219 C 455.988281 347.597656 456.550781 346.902344 457.144531 346.242188 C 457.738281 345.582031 458.359375 344.957031 459.003906 344.371094 C 459.652344 343.785156 460.320312 343.234375 461.015625 342.726562 C 461.710938 342.21875 462.421875 341.753906 463.15625 341.328125 C 463.890625 340.902344 464.644531 340.523438 465.410156 340.1875 C 466.179688 339.851562 466.960938 339.558594 467.753906 339.3125 C 468.546875 339.066406 469.351562 338.871094 470.164062 338.71875 C 470.976562 338.566406 471.792969 338.460938 472.617188 338.402344 C 473.441406 338.347656 474.265625 338.335938 475.089844 338.375 C 475.914062 338.414062 476.738281 338.5 477.558594 338.632812 C 478.378906 338.765625 479.191406 338.945312 480 339.175781 C 480.804688 339.402344 481.601562 339.675781 482.386719 339.992188 C 483.175781 340.3125 483.945312 340.675781 484.703125 341.082031 C 485.460938 341.492188 486.199219 341.941406 486.921875 342.433594 C 487.644531 342.925781 488.34375 343.457031 489.023438 344.03125 C 489.703125 344.601562 490.355469 345.210938 490.984375 345.859375 C 491.617188 346.503906 492.21875 347.183594 492.792969 347.898438 C 493.367188 348.613281 493.910156 349.359375 494.421875 350.136719 C 494.9375 350.910156 495.417969 351.714844 495.863281 352.542969 C 496.3125 353.375 496.722656 354.226562 497.101562 355.101562 C 497.476562 355.976562 497.816406 356.871094 498.121094 357.785156 C 498.425781 358.699219 498.691406 359.625 498.917969 360.566406 C 499.144531 361.507812 499.332031 362.460938 499.476562 363.421875 C 499.625 364.382812 499.734375 365.351562 499.800781 366.320312 Z M 499.800781 366.320312 " fill-opacity="1" fill-rule="nonzero"/><path fill="#a81916" d="M 476.097656 388.667969 C 471.4375 388.992188 466.90625 387.152344 463.34375 383.492188 C 459.777344 379.832031 457.601562 374.785156 457.21875 369.28125 C 456.839844 363.78125 458.292969 358.480469 461.320312 354.363281 C 464.34375 350.242188 468.578125 347.796875 473.238281 347.472656 C 477.898438 347.148438 482.429688 348.988281 485.996094 352.648438 C 489.5625 356.308594 491.734375 361.355469 492.117188 366.859375 C 492.5 372.359375 491.042969 377.660156 488.019531 381.777344 C 484.992188 385.898438 480.757812 388.34375 476.097656 388.667969 Z M 473.582031 352.414062 C 466.269531 352.921875 460.808594 360.359375 461.40625 368.992188 C 462.007812 377.625 468.445312 384.234375 475.753906 383.726562 C 483.066406 383.21875 488.527344 375.78125 487.929688 367.148438 C 487.332031 358.515625 480.894531 351.90625 473.582031 352.414062 Z M 473.582031 352.414062 " fill-opacity="1" fill-rule="nonzero"/><path fill="#ce1817" d="M 508.617188 475.53125 C 507.78125 476.101562 506.933594 476.652344 506.074219 477.183594 C 505.214844 477.714844 504.351562 478.222656 503.480469 478.707031 C 502.609375 479.195312 501.734375 479.65625 500.859375 480.097656 C 499.984375 480.535156 499.113281 480.945312 498.242188 481.328125 C 497.371094 481.714844 496.507812 482.070312 495.648438 482.398438 C 494.792969 482.726562 493.945312 483.023438 493.109375 483.292969 C 492.273438 483.5625 491.449219 483.796875 490.644531 484.003906 C 489.835938 484.207031 489.046875 484.382812 488.277344 484.523438 C 487.503906 484.664062 486.757812 484.773438 486.03125 484.847656 C 485.304688 484.921875 484.605469 484.964844 483.929688 484.972656 C 483.253906 484.980469 482.609375 484.957031 481.992188 484.898438 C 481.375 484.839844 480.789062 484.75 480.234375 484.625 C 479.683594 484.503906 479.164062 484.34375 478.679688 484.15625 C 478.195312 483.96875 477.746094 483.746094 477.335938 483.496094 C 476.925781 483.242188 476.554688 482.960938 476.222656 482.648438 C 475.890625 482.335938 475.597656 481.992188 475.34375 481.621094 C 475.09375 481.253906 474.882812 480.855469 474.714844 480.429688 C 474.546875 480.007812 474.421875 479.554688 474.335938 479.082031 C 474.253906 478.609375 474.210938 478.109375 474.214844 477.589844 C 474.21875 477.070312 474.261719 476.53125 474.351562 475.96875 C 474.4375 475.410156 474.570312 474.832031 474.742188 474.238281 C 474.914062 473.640625 475.128906 473.03125 475.386719 472.40625 C 475.640625 471.78125 475.9375 471.144531 476.273438 470.5 C 476.613281 469.851562 476.988281 469.195312 477.402344 468.53125 C 477.816406 467.863281 478.265625 467.195312 478.753906 466.519531 C 479.242188 465.84375 479.765625 465.164062 480.320312 464.484375 C 480.878906 463.804688 481.46875 463.128906 482.085938 462.449219 C 482.707031 461.773438 483.355469 461.101562 484.035156 460.433594 C 484.710938 459.765625 485.414062 459.105469 486.144531 458.449219 C 486.875 457.796875 487.625 457.15625 488.398438 456.523438 C 489.167969 455.894531 489.960938 455.277344 490.769531 454.671875 C 491.578125 454.070312 492.402344 453.484375 493.242188 452.914062 C 494.078125 452.34375 494.925781 451.792969 495.785156 451.261719 C 496.644531 450.730469 497.507812 450.222656 498.378906 449.734375 C 499.25 449.25 500.125 448.785156 501 448.347656 C 501.875 447.910156 502.746094 447.5 503.617188 447.113281 C 504.488281 446.730469 505.351562 446.375 506.207031 446.046875 C 507.066406 445.71875 507.914062 445.417969 508.75 445.152344 C 509.585938 444.882812 510.410156 444.648438 511.214844 444.441406 C 512.023438 444.234375 512.8125 444.0625 513.582031 443.921875 C 514.355469 443.78125 515.101562 443.671875 515.828125 443.597656 C 516.554688 443.523438 517.253906 443.480469 517.929688 443.472656 C 518.605469 443.460938 519.25 443.488281 519.867188 443.546875 C 520.484375 443.601562 521.070312 443.695312 521.625 443.820312 C 522.175781 443.941406 522.695312 444.097656 523.179688 444.289062 C 523.664062 444.476562 524.113281 444.699219 524.523438 444.949219 C 524.933594 445.203125 525.304688 445.484375 525.636719 445.796875 C 525.96875 446.109375 526.261719 446.453125 526.515625 446.820312 C 526.765625 447.191406 526.976562 447.589844 527.144531 448.015625 C 527.3125 448.4375 527.4375 448.886719 527.523438 449.363281 C 527.605469 449.835938 527.648438 450.335938 527.644531 450.855469 C 527.640625 451.375 527.597656 451.914062 527.507812 452.472656 C 527.421875 453.035156 527.289062 453.613281 527.117188 454.207031 C 526.945312 454.804688 526.730469 455.414062 526.472656 456.039062 C 526.21875 456.660156 525.921875 457.296875 525.585938 457.945312 C 525.246094 458.59375 524.871094 459.25 524.457031 459.914062 C 524.042969 460.578125 523.59375 461.25 523.105469 461.925781 C 522.617188 462.601562 522.09375 463.277344 521.535156 463.957031 C 520.980469 464.636719 520.390625 465.316406 519.769531 465.992188 C 519.152344 466.671875 518.503906 467.34375 517.824219 468.011719 C 517.148438 468.679688 516.441406 469.339844 515.714844 469.992188 C 514.984375 470.644531 514.234375 471.289062 513.460938 471.917969 C 512.691406 472.550781 511.898438 473.167969 511.089844 473.773438 C 510.28125 474.375 509.457031 474.960938 508.617188 475.53125 Z M 508.617188 475.53125 " fill-opacity="1" fill-rule="nonzero"/><path fill="#a81916" d="M 483.15625 476.3125 C 481.730469 474.214844 482.238281 470.984375 484.585938 467.21875 C 486.929688 463.453125 490.839844 459.601562 495.582031 456.375 C 500.328125 453.144531 505.347656 450.929688 509.710938 450.128906 C 514.074219 449.328125 517.265625 450.042969 518.691406 452.144531 C 520.117188 454.242188 519.609375 457.46875 517.261719 461.234375 C 514.914062 465 511.007812 468.851562 506.261719 472.082031 C 501.515625 475.308594 496.5 477.527344 492.136719 478.324219 C 487.773438 479.125 484.582031 478.410156 483.15625 476.3125 Z M 514.425781 455.042969 C 512.1875 451.75 504.3125 453.195312 496.863281 458.257812 C 489.417969 463.320312 485.183594 470.121094 487.421875 473.410156 C 489.65625 476.703125 497.535156 475.257812 504.980469 470.195312 C 512.425781 465.132812 516.664062 458.335938 514.425781 455.042969 Z M 514.425781 455.042969 " fill-opacity="1" fill-rule="nonzero"/><path fill="#ce1817" d="M 469.742188 290.320312 C 449.691406 293.367188 431.742188 302.71875 414.09375 312.214844 C 411.492188 313.613281 410.625 317.085938 412.058594 319.605469 C 413.542969 322.21875 416.847656 323.042969 419.449219 321.644531 C 428.007812 317.035156 436.578125 312.40625 445.519531 308.5625 C 446.058594 308.332031 446.601562 308.101562 447.144531 307.878906 C 447.359375 307.789062 447.578125 307.699219 447.796875 307.609375 C 446.355469 308.199219 447.511719 307.726562 447.800781 307.609375 C 448.894531 307.175781 449.992188 306.757812 451.097656 306.351562 C 453.316406 305.53125 455.5625 304.785156 457.824219 304.101562 C 462.625 302.652344 467.53125 301.558594 472.488281 300.804688 C 475.417969 300.363281 477.046875 296.820312 476.359375 294.1875 C 475.550781 291.101562 472.65625 289.875 469.742188 290.320312 Z M 469.742188 290.320312 " fill-opacity="1" fill-rule="nonzero"/><path fill="#ce1817" d="M 331.347656 503.277344 C 339.804688 508.8125 349.019531 512.988281 358.5625 516.269531 C 367.988281 519.515625 377.707031 521.816406 387.386719 524.152344 C 390.25 524.84375 393.246094 523.183594 394.003906 520.285156 C 394.738281 517.472656 393.007812 514.359375 390.132812 513.667969 C 380.6875 511.386719 371.21875 509.117188 361.996094 506.019531 C 359.824219 505.289062 357.675781 504.5 355.539062 503.667969 C 355.316406 503.578125 355.09375 503.488281 354.867188 503.402344 C 353.683594 502.929688 356.007812 503.871094 354.828125 503.382812 C 354.269531 503.152344 353.710938 502.917969 353.15625 502.679688 C 352.039062 502.199219 350.929688 501.695312 349.828125 501.183594 C 345.28125 499.058594 340.898438 496.597656 336.703125 493.851562 C 334.230469 492.230469 330.703125 493.445312 329.3125 495.886719 C 327.785156 498.574219 328.878906 501.664062 331.347656 503.277344 Z M 331.347656 503.277344 " fill-opacity="1" fill-rule="nonzero"/><path fill="#ce1817" d="M 300.433594 335.9375 C 298.515625 343.773438 297.933594 351.867188 298.535156 359.902344 C 299.132812 367.898438 300.695312 375.785156 302.25 383.636719 C 302.824219 386.539062 306.140625 388.214844 308.867188 387.503906 C 311.855469 386.722656 313.304688 383.777344 312.734375 380.886719 C 312 377.160156 311.261719 373.4375 310.625 369.691406 C 310.328125 367.9375 310.0625 366.179688 309.824219 364.417969 C 309.75 363.851562 309.765625 363.980469 309.875 364.808594 C 309.84375 364.589844 309.820312 364.375 309.792969 364.15625 C 309.742188 363.71875 309.691406 363.28125 309.644531 362.847656 C 309.539062 361.867188 309.449219 360.886719 309.375 359.902344 C 309.089844 356.28125 309.046875 352.640625 309.273438 349.015625 C 309.332031 348.113281 309.414062 347.21875 309.503906 346.320312 C 309.539062 345.992188 309.742188 344.378906 309.53125 345.996094 C 309.589844 345.539062 309.65625 345.082031 309.726562 344.625 C 310.027344 342.628906 310.4375 340.648438 310.917969 338.6875 C 311.617188 335.824219 309.941406 332.824219 307.046875 332.070312 C 304.226562 331.332031 301.132812 333.066406 300.433594 335.9375 Z M 300.433594 335.9375 " fill-opacity="1" fill-rule="nonzero"/><path fill="#ffffff" d="M 380.070312 303.683594 C 365.171875 304.003906 350.222656 308.152344 338.105469 317.019531 C 326.644531 325.40625 317.878906 336.828125 312.097656 349.769531 C 305.867188 363.710938 302.632812 378.59375 301.589844 393.804688 C 300.558594 408.859375 301.90625 424.160156 305.230469 438.871094 C 308.378906 452.816406 313.597656 466.601562 321.234375 478.722656 C 325.902344 486.132812 331.554688 493.117188 338.289062 498.746094 C 339.890625 500.082031 341.5 500.96875 343.65625 500.96875 C 345.660156 500.96875 347.601562 500.164062 349.019531 498.746094 C 351.746094 496.019531 352.195312 490.671875 349.019531 488.015625 C 344.933594 484.601562 341.277344 480.703125 338.019531 476.496094 C 338.414062 477.007812 338.808594 477.519531 339.203125 478.03125 C 333.859375 471.105469 329.597656 463.398438 326.199219 455.347656 C 326.453125 455.953125 326.707031 456.558594 326.964844 457.160156 C 322.222656 445.882812 319.15625 433.929688 317.515625 421.816406 C 317.609375 422.488281 317.699219 423.160156 317.789062 423.832031 C 316.058594 410.902344 315.945312 397.738281 317.667969 384.800781 C 317.578125 385.472656 317.488281 386.144531 317.398438 386.816406 C 318.765625 376.695312 321.265625 366.703125 325.238281 357.277344 C 324.984375 357.882812 324.730469 358.488281 324.476562 359.089844 C 327.300781 352.433594 330.863281 346.089844 335.285156 340.363281 C 334.890625 340.875 334.496094 341.386719 334.097656 341.898438 C 337.585938 337.410156 341.582031 333.339844 346.078125 329.855469 C 345.566406 330.25 345.054688 330.648438 344.542969 331.042969 C 348.746094 327.804688 353.339844 325.117188 358.222656 323.046875 C 357.621094 323.300781 357.015625 323.554688 356.410156 323.8125 C 361.828125 321.535156 367.535156 320.039062 373.351562 319.25 C 372.679688 319.339844 372.007812 319.429688 371.335938 319.519531 C 374.234375 319.136719 377.148438 318.921875 380.070312 318.859375 C 384.203125 318.769531 387.65625 315.472656 387.65625 311.269531 C 387.65625 307.203125 384.207031 303.59375 380.070312 303.683594 Z M 380.070312 303.683594 " fill-opacity="0.5" fill-rule="nonzero"/></svg>