<svg xmlns="http://www.w3.org/2000/svg" xmlns:xlink="http://www.w3.org/1999/xlink" width="1000" zoomAndPan="magnify" viewBox="0 0 750 749.999995" height="1000" preserveAspectRatio="xMidYMid meet" version="1.0"><defs><clipPath id="1cb84c907e"><path d="M 146.699219 200 L 603.449219 200 L 603.449219 658 L 146.699219 658 Z M 146.699219 200 " clip-rule="nonzero"/></clipPath></defs><g clip-path="url(#1cb84c907e)"><path fill="#afb0cc" d="M 603.449219 428.636719 C 603.449219 432.375 603.359375 436.109375 603.175781 439.839844 C 602.992188 443.574219 602.714844 447.300781 602.351562 451.019531 C 601.984375 454.738281 601.527344 458.449219 600.976562 462.144531 C 600.429688 465.84375 599.789062 469.523438 599.0625 473.1875 C 598.332031 476.855469 597.511719 480.5 596.605469 484.125 C 595.699219 487.75 594.699219 491.351562 593.617188 494.929688 C 592.53125 498.503906 591.359375 502.054688 590.101562 505.574219 C 588.839844 509.089844 587.496094 512.578125 586.066406 516.03125 C 584.636719 519.484375 583.121094 522.898438 581.523438 526.277344 C 579.925781 529.65625 578.246094 532.996094 576.484375 536.289062 C 574.722656 539.585938 572.878906 542.835938 570.957031 546.042969 C 569.035156 549.25 567.039062 552.40625 564.960938 555.511719 C 562.886719 558.621094 560.734375 561.675781 558.507812 564.679688 C 556.28125 567.679688 553.980469 570.625 551.609375 573.515625 C 549.238281 576.402344 546.800781 579.234375 544.289062 582.003906 C 541.78125 584.769531 539.203125 587.476562 536.558594 590.121094 C 533.917969 592.761719 531.210938 595.339844 528.441406 597.847656 C 525.671875 600.359375 522.84375 602.800781 519.953125 605.171875 C 517.066406 607.542969 514.121094 609.839844 511.117188 612.066406 C 508.117188 614.292969 505.0625 616.445312 501.953125 618.523438 C 498.84375 620.597656 495.6875 622.597656 492.484375 624.519531 C 489.277344 626.441406 486.027344 628.28125 482.730469 630.042969 C 479.433594 631.804688 476.097656 633.484375 472.71875 635.082031 C 469.339844 636.679688 465.921875 638.195312 462.46875 639.625 C 459.015625 641.054688 455.53125 642.402344 452.011719 643.660156 C 448.492188 644.917969 444.945312 646.089844 441.367188 647.175781 C 437.792969 648.261719 434.191406 649.257812 430.566406 650.164062 C 426.941406 651.074219 423.292969 651.890625 419.628906 652.621094 C 415.960938 653.351562 412.28125 653.988281 408.585938 654.539062 C 404.886719 655.085938 401.179688 655.542969 397.460938 655.910156 C 393.738281 656.277344 390.011719 656.550781 386.28125 656.734375 C 382.546875 656.917969 378.8125 657.007812 375.074219 657.007812 C 371.335938 657.007812 367.601562 656.917969 363.867188 656.734375 C 360.136719 656.550781 356.410156 656.277344 352.691406 655.910156 C 348.96875 655.542969 345.261719 655.085938 341.566406 654.539062 C 337.867188 653.988281 334.1875 653.351562 330.519531 652.621094 C 326.855469 651.890625 323.210938 651.074219 319.585938 650.164062 C 315.957031 649.257812 312.359375 648.261719 308.78125 647.175781 C 305.203125 646.089844 301.65625 644.917969 298.136719 643.660156 C 294.617188 642.402344 291.132812 641.054688 287.679688 639.625 C 284.226562 638.195312 280.808594 636.679688 277.433594 635.082031 C 274.054688 633.484375 270.714844 631.804688 267.417969 630.042969 C 264.125 628.28125 260.871094 626.441406 257.667969 624.519531 C 254.460938 622.597656 251.304688 620.597656 248.195312 618.519531 C 245.089844 616.445312 242.035156 614.292969 239.03125 612.066406 C 236.03125 609.839844 233.085938 607.542969 230.195312 605.171875 C 227.304688 602.800781 224.476562 600.359375 221.707031 597.847656 C 218.9375 595.339844 216.230469 592.761719 213.589844 590.121094 C 210.945312 587.476562 208.371094 584.769531 205.859375 582.003906 C 203.351562 579.234375 200.910156 576.402344 198.539062 573.515625 C 196.167969 570.625 193.867188 567.679688 191.640625 564.679688 C 189.414062 561.675781 187.265625 558.621094 185.1875 555.511719 C 183.113281 552.40625 181.113281 549.25 179.191406 546.042969 C 177.269531 542.835938 175.429688 539.585938 173.664062 536.289062 C 171.902344 532.996094 170.222656 529.65625 168.625 526.277344 C 167.027344 522.898438 165.515625 519.484375 164.082031 516.03125 C 162.652344 512.578125 161.308594 509.089844 160.050781 505.574219 C 158.789062 502.054688 157.617188 498.503906 156.535156 494.929688 C 155.449219 491.351562 154.453125 487.75 153.542969 484.125 C 152.636719 480.5 151.816406 476.855469 151.085938 473.1875 C 150.359375 469.523438 149.71875 465.84375 149.171875 462.144531 C 148.625 458.449219 148.164062 454.738281 147.800781 451.019531 C 147.433594 447.300781 147.15625 443.574219 146.976562 439.839844 C 146.792969 436.109375 146.699219 432.375 146.699219 428.636719 C 146.699219 424.898438 146.792969 421.164062 146.976562 417.429688 C 147.15625 413.695312 147.433594 409.972656 147.800781 406.25 C 148.164062 402.53125 148.625 398.824219 149.171875 395.125 C 149.71875 391.429688 150.359375 387.75 151.085938 384.082031 C 151.816406 380.417969 152.636719 376.769531 153.542969 373.144531 C 154.453125 369.519531 155.449219 365.917969 156.535156 362.34375 C 157.617188 358.765625 158.789062 355.21875 160.050781 351.699219 C 161.308594 348.179688 162.652344 344.695312 164.082031 341.242188 C 165.515625 337.789062 167.027344 334.371094 168.625 330.992188 C 170.222656 327.613281 171.902344 324.277344 173.664062 320.980469 C 175.429688 317.683594 177.269531 314.433594 179.191406 311.226562 C 181.113281 308.023438 183.113281 304.867188 185.1875 301.757812 C 187.265625 298.652344 189.414062 295.597656 191.640625 292.59375 C 193.867188 289.59375 196.167969 286.644531 198.539062 283.757812 C 200.910156 280.867188 203.351562 278.039062 205.859375 275.269531 C 208.371094 272.5 210.945312 269.792969 213.589844 267.152344 C 216.230469 264.507812 218.9375 261.933594 221.707031 259.421875 C 224.476562 256.914062 227.304688 254.472656 230.195312 252.101562 C 233.085938 249.730469 236.03125 247.429688 239.03125 245.203125 C 242.035156 242.976562 245.089844 240.828125 248.195312 238.75 C 251.304688 236.671875 254.460938 234.675781 257.667969 232.753906 C 260.871094 230.832031 264.125 228.992188 267.417969 227.226562 C 270.714844 225.464844 274.054688 223.785156 277.433594 222.1875 C 280.808594 220.589844 284.226562 219.078125 287.679688 217.644531 C 291.132812 216.214844 294.617188 214.871094 298.136719 213.613281 C 301.65625 212.351562 305.203125 211.179688 308.78125 210.097656 C 312.359375 209.011719 315.957031 208.015625 319.585938 207.105469 C 323.210938 206.199219 326.855469 205.378906 330.519531 204.652344 C 334.1875 203.921875 337.867188 203.28125 341.566406 202.734375 C 345.261719 202.1875 348.96875 201.726562 352.691406 201.363281 C 356.410156 200.996094 360.136719 200.722656 363.867188 200.539062 C 367.601562 200.355469 371.335938 200.261719 375.074219 200.261719 C 378.8125 200.261719 382.546875 200.355469 386.28125 200.539062 C 390.011719 200.722656 393.738281 200.996094 397.460938 201.363281 C 401.179688 201.726562 404.886719 202.1875 408.585938 202.734375 C 412.28125 203.28125 415.960938 203.921875 419.628906 204.652344 C 423.292969 205.378906 426.941406 206.199219 430.566406 207.105469 C 434.191406 208.015625 437.792969 209.011719 441.367188 210.097656 C 444.945312 211.179688 448.492188 212.351562 452.011719 213.613281 C 455.53125 214.871094 459.015625 216.214844 462.46875 217.644531 C 465.921875 219.078125 469.339844 220.589844 472.71875 222.1875 C 476.097656 223.785156 479.433594 225.464844 482.730469 227.226562 C 486.027344 228.992188 489.277344 230.832031 492.484375 232.753906 C 495.6875 234.675781 498.84375 236.671875 501.953125 238.75 C 505.0625 240.828125 508.117188 242.976562 511.117188 245.203125 C 514.121094 247.429688 517.066406 249.730469 519.953125 252.101562 C 522.84375 254.472656 525.671875 256.914062 528.441406 259.421875 C 531.210938 261.933594 533.917969 264.507812 536.558594 267.152344 C 539.203125 269.792969 541.78125 272.5 544.289062 275.269531 C 546.800781 278.039062 549.238281 280.867188 551.609375 283.757812 C 553.980469 286.644531 556.28125 289.59375 558.507812 292.59375 C 560.734375 295.597656 562.886719 298.652344 564.960938 301.757812 C 567.039062 304.867188 569.035156 308.023438 570.957031 311.226562 C 572.878906 314.433594 574.722656 317.683594 576.484375 320.980469 C 578.246094 324.277344 579.925781 327.613281 581.523438 330.992188 C 583.121094 334.371094 584.636719 337.789062 586.066406 341.242188 C 587.496094 344.695312 588.839844 348.179688 590.101562 351.699219 C 591.359375 355.21875 592.53125 358.765625 593.617188 362.34375 C 594.699219 365.917969 595.699219 369.519531 596.605469 373.144531 C 597.511719 376.769531 598.332031 380.417969 599.0625 384.082031 C 599.789062 387.75 600.429688 391.429688 600.976562 395.125 C 601.527344 398.824219 601.984375 402.53125 602.351562 406.25 C 602.714844 409.972656 602.992188 413.695312 603.175781 417.429688 C 603.359375 421.164062 603.449219 424.898438 603.449219 428.636719 Z M 603.449219 428.636719 " fill-opacity="1" fill-rule="nonzero"/></g><path fill="#ffffff" d="M 459.910156 325.441406 C 459.039062 324.933594 455.535156 325.808594 452.832031 327.203125 C 452.132812 327.5625 451.308594 327.609375 450.570312 327.324219 C 449.832031 327.039062 449.25 326.457031 448.972656 325.714844 C 447.65625 322.207031 446.015625 318.085938 445.273438 316.503906 C 444.523438 316.289062 443.21875 315.980469 442.011719 315.75 C 441.089844 315.570312 440.324219 314.941406 439.96875 314.074219 C 438.410156 310.246094 436.375 306.28125 435.535156 305.421875 C 434.515625 304.933594 430.449219 304.824219 426.878906 305.199219 C 425.917969 305.300781 424.984375 304.898438 424.398438 304.136719 C 424.316406 304.03125 422.316406 301.421875 419.761719 296.53125 C 419.296875 295.640625 418.058594 293.265625 413.132812 295.035156 C 413 295.082031 399.453125 299.769531 396.992188 299.027344 C 395.722656 298.632812 394.929688 297.589844 393.355469 295.507812 C 392.328125 294.152344 390.925781 292.296875 389.917969 291.523438 C 389.464844 291.179688 385.359375 288.246094 380.640625 291.585938 C 377.660156 293.695312 377.984375 298.359375 378.167969 299.796875 C 379.855469 302.382812 383.90625 304.757812 386.546875 306.054688 C 390.023438 302.859375 396.0625 301.542969 397.425781 301.28125 L 398.472656 306.71875 C 395.554688 307.28125 390.75 308.972656 389.695312 310.808594 L 389.6875 310.804688 C 389.664062 310.839844 389.652344 310.882812 389.628906 310.917969 C 389.300781 311.4375 381.507812 323.664062 378.941406 327.15625 C 377.003906 329.792969 377.03125 334.820312 378.464844 336.648438 C 379.296875 337.703125 381.050781 338.101562 382.316406 338.226562 C 386.816406 332.527344 400.871094 314.996094 405.414062 312.449219 C 409.980469 309.886719 415.03125 306.875 415.082031 306.84375 L 417.921875 311.597656 C 417.871094 311.628906 412.757812 314.679688 408.121094 317.277344 C 405.273438 318.875 393.597656 332.835938 386.050781 342.433594 C 385.753906 343.265625 384.933594 346.082031 386.566406 348.054688 C 387.40625 349.058594 389.625 349.460938 392.65625 349.148438 C 395.765625 348.828125 401.074219 343.492188 404.691406 338.671875 C 406.03125 336.882812 413.480469 330.910156 416.617188 328.425781 C 416.8125 328.273438 417.027344 328.179688 417.242188 328.085938 L 417.234375 328.058594 C 417.265625 328.042969 421.332031 326.222656 423.160156 323.175781 C 425.855469 318.683594 430.539062 316.1875 430.734375 316.082031 L 432.023438 318.53125 L 433.320312 320.980469 C 433.285156 320.996094 429.789062 322.886719 427.90625 326.023438 C 425.683594 329.730469 421.679688 332.019531 420.101562 332.820312 L 412.453125 342.347656 C 412.128906 342.800781 411.179688 344.539062 411.507812 346.058594 C 411.726562 347.078125 412.539062 348 413.929688 348.796875 C 417.640625 350.929688 421.925781 347.679688 426.003906 343.851562 C 426.652344 343.242188 427.125 342.800781 427.554688 342.480469 C 429.035156 341.382812 436.59375 335.042969 439.554688 332.546875 C 440.027344 332.035156 441.625 330.355469 444.824219 327.613281 L 448.429688 331.816406 C 445.992188 333.90625 444.589844 335.292969 443.960938 335.945312 C 443.320312 338.324219 443.03125 341.011719 443.355469 341.820312 C 444.832031 343.246094 446.566406 344.789062 451.398438 343.328125 C 456.15625 341.890625 461.859375 333.945312 462.339844 331.886719 C 462.242188 329.378906 461.445312 326.335938 459.910156 325.441406 Z M 459.910156 325.441406 " fill-opacity="1" fill-rule="nonzero"/><path fill="#ffffff" d="M 534.460938 550.101562 C 529.347656 551.847656 524.121094 553.675781 519.109375 555.496094 C 499.953125 562.464844 474.886719 562.460938 465.453125 562.171875 C 468.234375 573.363281 476.421875 607.003906 477.324219 618.71875 C 478.304688 631.464844 486.105469 664.511719 486.917969 667.925781 C 497.832031 668.261719 536.203125 669.015625 567.214844 664.339844 C 561.988281 646.355469 555.21875 625.757812 552.414062 618.675781 C 548.507812 608.8125 537.535156 563.054688 534.460938 550.101562 Z M 534.460938 550.101562 " fill-opacity="1" fill-rule="nonzero"/><path fill="#ffffff" d="M 365.988281 231.089844 L 371.488281 230.453125 C 371.523438 230.738281 373.457031 247.359375 375.535156 263.421875 C 379.527344 254.316406 384.277344 236.25 383.339844 227.027344 C 383.289062 226.523438 383.242188 225.941406 383.199219 225.316406 C 382.503906 225.28125 381.8125 225.183594 381.128906 224.984375 C 379.800781 224.589844 378.363281 224.605469 378.347656 224.609375 L 378.234375 219.074219 C 378.46875 219.070312 380.554688 219.042969 382.695312 219.675781 C 383.808594 220 384.949219 219.757812 385.832031 219.007812 C 386.683594 218.285156 387.097656 217.238281 386.960938 216.136719 C 386.117188 209.339844 387.855469 201.585938 389.539062 194.089844 C 392.839844 179.386719 394.351562 170.183594 384.148438 167.523438 C 381.675781 167.75 378.152344 171.460938 376.367188 174.132812 L 371.757812 171.066406 C 372.320312 170.21875 377.011719 163.410156 382.675781 162.183594 C 382.644531 158.105469 382.582031 155.351562 382.484375 153.679688 C 382.089844 146.933594 375.460938 115.292969 352.269531 95.070312 C 337.242188 81.96875 318.21875 76.21875 295.726562 77.96875 C 227.835938 83.269531 229.46875 131.78125 230.445312 160.765625 L 230.550781 164.019531 C 231.328125 190.136719 269.332031 240.960938 274.535156 244.699219 C 276.238281 245.273438 280.554688 248.125 287.203125 277.570312 C 288.292969 282.394531 285.546875 287.511719 283.054688 290.949219 C 289.59375 291.746094 300.054688 292.414062 311.023438 290.683594 C 328.535156 287.917969 358.15625 292.089844 372.570312 296.730469 C 372.6875 295.015625 373.078125 293.039062 373.992188 291.179688 C 371.488281 278.339844 366.21875 233.066406 365.988281 231.089844 Z M 365.988281 231.089844 " fill-opacity="1" fill-rule="nonzero"/><path fill="#ffffff" d="M 261.984375 243.664062 C 264.136719 245.125 266.402344 246.039062 268.566406 246.394531 C 262.28125 239.683594 250.992188 224.363281 241.476562 207.761719 C 240.734375 209.871094 240.550781 213.527344 243.398438 219.40625 C 249.554688 232.128906 257.886719 240.882812 261.984375 243.664062 Z M 261.984375 243.664062 " fill-opacity="1" fill-rule="nonzero"/><path fill="#ffffff" d="M 459.101562 618.359375 C 459.957031 602.0625 457.324219 518.34375 455.714844 494.242188 L 461.242188 493.875 C 462.019531 505.570312 463.039062 531.273438 463.789062 556.566406 C 470.820312 556.84375 497.75 557.375 517.214844 550.292969 C 535.878906 543.507812 557.472656 536.652344 565.207031 534.234375 C 558.925781 519.503906 530.042969 451.117188 521.207031 418.589844 C 512.03125 384.816406 503.769531 365.5 495.953125 359.535156 C 489.390625 354.527344 469.625 343.765625 463.46875 340.449219 C 460.542969 344.074219 456.601562 347.539062 453 348.625 C 445.910156 350.769531 442.152344 348.355469 439.410156 345.710938 C 438.292969 344.632812 437.824219 343.03125 437.714844 341.316406 C 434.886719 343.679688 431.835938 346.199219 430.847656 346.929688 C 430.675781 347.058594 430.207031 347.5 429.792969 347.886719 C 426.550781 350.933594 418.953125 358.066406 411.171875 353.597656 C 407.640625 351.570312 406.453125 348.972656 406.078125 347.152344 C 405.992188 346.738281 405.941406 346.328125 405.917969 345.925781 C 402.546875 349.738281 397.707031 354.195312 393.21875 354.65625 C 388.105469 355.179688 384.429688 354.148438 382.304688 351.589844 C 380.082031 348.90625 379.855469 345.828125 380.148438 343.5 C 378.144531 343.089844 375.75 342.152344 374.113281 340.066406 C 370.996094 336.101562 371.171875 328.382812 374.480469 323.878906 C 376.230469 321.496094 380.761719 314.492188 383.253906 310.609375 C 380.304688 309.097656 375.984375 306.449219 373.632812 302.972656 C 361.738281 298.269531 329.652344 293.347656 311.886719 296.152344 C 295.285156 298.773438 280.183594 296.285156 276.082031 295.492188 C 270.167969 298.835938 238.402344 316.429688 217.992188 320.265625 C 199.933594 323.660156 185.496094 336.003906 181.210938 351.714844 C 176.574219 368.71875 181.027344 399.339844 192.554688 429.722656 C 204.65625 461.613281 220.398438 554.203125 221.519531 584.398438 C 222.101562 600.058594 223.210938 638.023438 221.476562 663.75 C 238.835938 666.207031 342.230469 679.550781 468.210938 668.5625 C 465.371094 658.359375 458.398438 631.714844 459.101562 618.359375 Z M 459.101562 618.359375 " fill-opacity="1" fill-rule="nonzero"/><path fill="#000000" d="M 215.6875 666.972656 L 221.203125 667.429688 C 221.300781 666.238281 221.390625 665.003906 221.476562 663.75 C 223.210938 638.023438 222.101562 600.058594 221.519531 584.398438 C 220.394531 554.203125 204.65625 461.613281 192.554688 429.722656 C 181.027344 399.339844 176.574219 368.71875 181.210938 351.714844 C 185.492188 336.003906 199.933594 323.660156 217.992188 320.265625 C 238.402344 316.429688 270.167969 298.835938 276.082031 295.492188 C 280.183594 296.285156 295.285156 298.773438 311.886719 296.152344 C 329.652344 293.347656 361.738281 298.269531 373.632812 302.972656 C 375.984375 306.449219 380.304688 309.097656 383.253906 310.609375 C 380.761719 314.492188 376.230469 321.496094 374.480469 323.878906 C 371.171875 328.382812 370.996094 336.101562 374.113281 340.066406 C 375.75 342.152344 378.144531 343.089844 380.148438 343.5 C 379.855469 345.828125 380.082031 348.90625 382.304688 351.589844 C 384.429688 354.148438 388.105469 355.179688 393.21875 354.65625 C 397.707031 354.195312 402.546875 349.738281 405.917969 345.929688 C 405.941406 346.328125 405.992188 346.738281 406.078125 347.152344 C 406.453125 348.972656 407.640625 351.570312 411.171875 353.597656 C 418.953125 358.066406 426.550781 350.933594 429.792969 347.886719 C 430.207031 347.5 430.675781 347.058594 430.847656 346.929688 C 431.835938 346.199219 434.886719 343.679688 437.714844 341.316406 C 437.824219 343.03125 438.292969 344.632812 439.410156 345.710938 C 442.152344 348.355469 445.910156 350.769531 453 348.625 C 456.601562 347.539062 460.542969 344.074219 463.46875 340.453125 C 469.625 343.765625 489.390625 354.527344 495.953125 359.535156 C 503.769531 365.5 512.03125 384.816406 521.207031 418.589844 C 530.042969 451.117188 558.925781 519.503906 565.207031 534.234375 C 557.472656 536.652344 535.878906 543.507812 517.214844 550.292969 C 497.75 557.375 470.820312 556.84375 463.789062 556.566406 C 463.039062 531.273438 462.019531 505.570312 461.238281 493.875 L 455.714844 494.242188 C 457.324219 518.34375 459.957031 602.0625 459.101562 618.359375 C 458.398438 631.714844 465.371094 658.359375 468.210938 668.5625 C 468.851562 670.867188 469.285156 672.339844 469.367188 672.625 L 474.679688 671.058594 C 474.570312 670.6875 463.816406 634.085938 464.628906 618.652344 C 464.933594 612.859375 464.800781 598.644531 464.433594 581.609375 C 467.648438 595.382812 471.25 611.925781 471.804688 619.140625 C 472.867188 632.960938 481.25 668.039062 481.605469 669.523438 L 486.992188 668.234375 C 486.988281 668.214844 486.957031 668.097656 486.917969 667.925781 C 486.105469 664.511719 478.304688 631.464844 477.324219 618.71875 C 476.421875 607.003906 468.234375 573.363281 465.453125 562.171875 C 474.886719 562.460938 499.953125 562.464844 519.109375 555.5 C 524.121094 553.675781 529.347656 551.847656 534.460938 550.101562 C 537.535156 563.054688 548.507812 608.8125 552.417969 618.679688 C 555.21875 625.757812 561.988281 646.359375 567.214844 664.339844 C 567.433594 665.097656 567.652344 665.847656 567.863281 666.59375 L 573.1875 665.066406 C 567.84375 646.4375 560.53125 624.132812 557.5625 616.640625 C 553.789062 607.113281 542.585938 560.355469 539.726562 548.316406 C 555.851562 542.902344 569.578125 538.667969 569.773438 538.609375 C 570.523438 538.378906 571.140625 537.839844 571.472656 537.125 C 571.800781 536.410156 571.8125 535.589844 571.5 534.867188 C 571.148438 534.054688 536.332031 453.144531 526.546875 417.140625 C 516.777344 381.175781 508.378906 362.050781 499.3125 355.132812 C 492.519531 349.949219 473.34375 339.480469 466.585938 335.839844 C 467.425781 334.257812 467.90625 332.851562 467.878906 331.855469 C 467.820312 329.902344 467.273438 323.320312 462.691406 320.65625 C 459.894531 319.027344 455.917969 319.972656 453.117188 321.03125 C 450.027344 313 449.472656 312.570312 448.890625 312.117188 C 448.558594 311.855469 447.90625 311.347656 444.523438 310.613281 C 443.335938 307.84375 441.050781 302.917969 439.15625 301.230469 C 436.980469 299.285156 431.722656 299.265625 427.9375 299.546875 C 427.191406 298.429688 426.019531 296.550781 424.667969 293.96875 C 422.164062 289.175781 417.273438 287.667969 411.261719 289.824219 C 408.621094 290.773438 401.5 292.890625 398.78125 293.480469 C 398.464844 293.085938 398.082031 292.582031 397.769531 292.167969 C 396.417969 290.378906 394.886719 288.355469 393.28125 287.125 C 389.757812 284.433594 384.050781 283.257812 378.742188 286.25 C 378.132812 282.511719 377.421875 277.578125 376.6875 272.160156 C 382.800781 265.273438 390.089844 238.679688 388.847656 226.46875 C 388.773438 225.742188 388.707031 224.828125 388.644531 223.773438 C 388.902344 223.597656 389.171875 223.4375 389.414062 223.230469 C 391.683594 221.304688 392.820312 218.398438 392.453125 215.457031 C 391.730469 209.613281 393.363281 202.335938 394.941406 195.300781 C 397.808594 182.519531 401.027344 168.152344 388.21875 163.042969 C 388.191406 158.351562 388.121094 155.242188 388.011719 153.355469 C 387.558594 145.683594 380.789062 112.589844 355.910156 90.898438 C 339.71875 76.78125 319.324219 70.574219 295.292969 72.449219 C 222.125 78.160156 223.9375 132.015625 224.910156 160.953125 L 225.015625 164.183594 C 225.324219 174.511719 231.015625 188.519531 238.390625 202.222656 C 236.160156 204.785156 233.085938 210.808594 238.414062 221.816406 C 244.621094 234.648438 253.371094 244.511719 258.875 248.246094 C 262.613281 250.785156 266.71875 252.105469 270.5625 252.105469 C 271.621094 252.105469 272.65625 251.992188 273.664062 251.789062 C 275.859375 256.277344 279.160156 267.074219 281.804688 278.789062 C 282.601562 282.316406 278.972656 287.414062 276.746094 289.976562 C 276.417969 289.914062 276.234375 289.871094 276.214844 289.867188 C 275.539062 289.71875 274.835938 289.828125 274.234375 290.171875 C 273.875 290.378906 238.152344 310.84375 216.96875 314.824219 C 196.839844 318.609375 180.707031 332.515625 175.867188 350.257812 C 170.945312 368.316406 175.460938 400.28125 187.378906 431.6875 C 199.328125 463.179688 214.875 554.722656 215.984375 584.605469 C 216.460938 597.339844 217.835938 640.917969 215.6875 666.972656 Z M 241.476562 207.761719 C 250.992188 224.363281 262.28125 239.683594 268.566406 246.394531 C 266.402344 246.039062 264.136719 245.125 261.984375 243.664062 C 257.886719 240.882812 249.554688 232.128906 243.398438 219.40625 C 240.550781 213.527344 240.734375 209.871094 241.476562 207.761719 Z M 372.570312 296.730469 C 358.15625 292.089844 328.535156 287.917969 311.023438 290.683594 C 300.054688 292.414062 289.59375 291.746094 283.054688 290.949219 C 285.542969 287.511719 288.292969 282.394531 287.203125 277.570312 C 280.554688 248.125 276.238281 245.273438 274.535156 244.699219 C 269.332031 240.960938 231.328125 190.136719 230.550781 164.019531 L 230.445312 160.765625 C 229.46875 131.78125 227.835938 83.269531 295.726562 77.96875 C 318.21875 76.21875 337.242188 81.96875 352.269531 95.070312 C 375.460938 115.292969 382.085938 146.933594 382.484375 153.679688 C 382.582031 155.351562 382.644531 158.105469 382.675781 162.183594 C 377.011719 163.410156 372.320312 170.21875 371.757812 171.066406 L 376.367188 174.132812 C 378.148438 171.460938 381.675781 167.75 384.148438 167.523438 C 394.351562 170.183594 392.839844 179.386719 389.539062 194.089844 C 387.855469 201.585938 386.117188 209.339844 386.960938 216.136719 C 387.097656 217.238281 386.683594 218.285156 385.832031 219.007812 C 384.949219 219.757812 383.808594 220 382.695312 219.675781 C 380.554688 219.042969 378.46875 219.070312 378.234375 219.074219 L 378.347656 224.609375 C 378.363281 224.605469 379.800781 224.589844 381.128906 224.984375 C 381.8125 225.183594 382.503906 225.28125 383.195312 225.316406 C 383.242188 225.941406 383.289062 226.523438 383.339844 227.027344 C 384.277344 236.25 379.523438 254.316406 375.535156 263.421875 C 373.457031 247.359375 371.523438 230.738281 371.488281 230.453125 L 365.988281 231.089844 C 366.21875 233.066406 371.488281 278.339844 373.988281 291.179688 C 373.078125 293.039062 372.6875 295.015625 372.570312 296.730469 Z M 451.398438 343.328125 C 446.566406 344.789062 444.832031 343.246094 443.355469 341.820312 C 443.03125 341.011719 443.320312 338.324219 443.960938 335.945312 C 444.589844 335.292969 445.992188 333.90625 448.429688 331.816406 L 444.824219 327.613281 C 441.625 330.355469 440.027344 332.035156 439.554688 332.546875 C 436.59375 335.042969 429.035156 341.382812 427.554688 342.484375 C 427.121094 342.800781 426.652344 343.242188 426.003906 343.851562 C 421.925781 347.679688 417.640625 350.929688 413.929688 348.796875 C 412.539062 348 411.726562 347.078125 411.507812 346.058594 C 411.179688 344.539062 412.128906 342.800781 412.453125 342.347656 L 420.101562 332.820312 C 421.679688 332.019531 425.683594 329.730469 427.90625 326.023438 C 429.789062 322.886719 433.285156 321 433.316406 320.980469 L 432.023438 318.53125 L 430.734375 316.082031 C 430.539062 316.1875 425.855469 318.683594 423.160156 323.175781 C 421.328125 326.222656 417.265625 328.042969 417.230469 328.058594 L 417.242188 328.085938 C 417.027344 328.179688 416.8125 328.273438 416.617188 328.425781 C 413.480469 330.910156 406.03125 336.882812 404.691406 338.671875 C 401.074219 343.492188 395.765625 348.828125 392.65625 349.148438 C 389.625 349.464844 387.402344 349.0625 386.566406 348.054688 C 384.929688 346.082031 385.753906 343.269531 386.050781 342.433594 C 393.597656 332.835938 405.273438 318.875 408.121094 317.277344 C 412.753906 314.679688 417.871094 311.628906 417.921875 311.597656 L 415.082031 306.84375 C 415.03125 306.875 409.980469 309.890625 405.414062 312.449219 C 400.871094 314.996094 386.816406 332.527344 382.316406 338.226562 C 381.050781 338.105469 379.296875 337.703125 378.464844 336.648438 C 377.03125 334.820312 377.003906 329.792969 378.941406 327.15625 C 381.507812 323.664062 389.300781 311.4375 389.628906 310.917969 C 389.652344 310.882812 389.664062 310.839844 389.683594 310.804688 L 389.695312 310.808594 C 390.75 308.972656 395.554688 307.28125 398.472656 306.71875 L 397.425781 301.28125 C 396.0625 301.542969 390.023438 302.859375 386.546875 306.054688 C 383.90625 304.757812 379.855469 302.382812 378.167969 299.796875 C 377.984375 298.359375 377.660156 293.695312 380.640625 291.585938 C 385.359375 288.246094 389.464844 291.179688 389.917969 291.523438 C 390.925781 292.296875 392.328125 294.152344 393.355469 295.507812 C 394.929688 297.589844 395.71875 298.632812 396.992188 299.027344 C 399.453125 299.769531 413 295.082031 413.132812 295.035156 C 418.058594 293.265625 419.296875 295.640625 419.761719 296.535156 C 422.316406 301.421875 424.316406 304.03125 424.398438 304.136719 C 424.984375 304.898438 425.917969 305.300781 426.878906 305.199219 C 430.449219 304.828125 434.515625 304.933594 435.535156 305.421875 C 436.375 306.28125 438.410156 310.246094 439.96875 314.074219 C 440.324219 314.941406 441.089844 315.570312 442.007812 315.75 C 443.21875 315.980469 444.523438 316.289062 445.273438 316.503906 C 446.015625 318.085938 447.65625 322.207031 448.972656 325.714844 C 449.25 326.457031 449.832031 327.039062 450.570312 327.324219 C 451.308594 327.609375 452.132812 327.566406 452.832031 327.203125 C 455.535156 325.808594 459.039062 324.933594 459.910156 325.441406 C 461.445312 326.335938 462.242188 329.378906 462.339844 331.886719 C 461.859375 333.945312 456.152344 341.890625 451.398438 343.328125 Z M 451.398438 343.328125 " fill-opacity="1" fill-rule="nonzero"/><path fill="#ff0000" d="M 530.222656 324.753906 C 530.222656 326.558594 530.175781 328.363281 530.089844 330.167969 C 530 331.972656 529.867188 333.773438 529.691406 335.570312 C 529.511719 337.367188 529.292969 339.160156 529.027344 340.945312 C 528.761719 342.734375 528.453125 344.511719 528.101562 346.285156 C 527.75 348.054688 527.351562 349.816406 526.914062 351.570312 C 526.476562 353.320312 525.992188 355.0625 525.46875 356.789062 C 524.945312 358.515625 524.378906 360.230469 523.769531 361.933594 C 523.160156 363.632812 522.511719 365.316406 521.820312 366.984375 C 521.128906 368.65625 520.398438 370.304688 519.625 371.9375 C 518.855469 373.570312 518.042969 375.183594 517.191406 376.777344 C 516.339844 378.367188 515.449219 379.941406 514.519531 381.488281 C 513.59375 383.039062 512.625 384.5625 511.621094 386.066406 C 510.621094 387.566406 509.578125 389.042969 508.503906 390.492188 C 507.429688 391.945312 506.316406 393.367188 505.171875 394.765625 C 504.027344 396.160156 502.847656 397.527344 501.632812 398.867188 C 500.421875 400.203125 499.175781 401.511719 497.898438 402.789062 C 496.621094 404.066406 495.3125 405.3125 493.976562 406.523438 C 492.636719 407.738281 491.269531 408.914062 489.875 410.0625 C 488.476562 411.207031 487.054688 412.320312 485.601562 413.394531 C 484.152344 414.46875 482.675781 415.511719 481.175781 416.511719 C 479.671875 417.515625 478.148438 418.484375 476.597656 419.410156 C 475.050781 420.339844 473.476562 421.230469 471.886719 422.082031 C 470.292969 422.933594 468.679688 423.746094 467.046875 424.515625 C 465.414062 425.289062 463.761719 426.019531 462.09375 426.710938 C 460.425781 427.402344 458.742188 428.050781 457.042969 428.660156 C 455.339844 429.269531 453.625 429.835938 451.898438 430.359375 C 450.167969 430.882812 448.429688 431.367188 446.675781 431.804688 C 444.925781 432.242188 443.164062 432.640625 441.390625 432.992188 C 439.621094 433.34375 437.84375 433.652344 436.054688 433.917969 C 434.269531 434.183594 432.476562 434.402344 430.679688 434.582031 C 428.882812 434.757812 427.082031 434.890625 425.277344 434.980469 C 423.472656 435.066406 421.667969 435.113281 419.863281 435.113281 C 418.054688 435.113281 416.25 435.066406 414.449219 434.980469 C 412.644531 434.890625 410.84375 434.757812 409.046875 434.582031 C 407.246094 434.402344 405.457031 434.183594 403.667969 433.917969 C 401.882812 433.652344 400.105469 433.34375 398.332031 432.992188 C 396.5625 432.640625 394.800781 432.242188 393.046875 431.804688 C 391.296875 431.367188 389.554688 430.882812 387.828125 430.359375 C 386.097656 429.835938 384.382812 429.269531 382.683594 428.660156 C 380.984375 428.050781 379.296875 427.402344 377.628906 426.710938 C 375.960938 426.019531 374.3125 425.289062 372.679688 424.515625 C 371.046875 423.746094 369.433594 422.933594 367.839844 422.082031 C 366.246094 421.230469 364.675781 420.339844 363.125 419.410156 C 361.578125 418.484375 360.050781 417.515625 358.550781 416.511719 C 357.046875 415.511719 355.574219 414.46875 354.121094 413.394531 C 352.671875 412.316406 351.246094 411.207031 349.851562 410.0625 C 348.457031 408.914062 347.089844 407.738281 345.75 406.523438 C 344.410156 405.3125 343.105469 404.066406 341.828125 402.789062 C 340.550781 401.511719 339.304688 400.203125 338.089844 398.867188 C 336.878906 397.527344 335.699219 396.160156 334.554688 394.765625 C 333.40625 393.367188 332.296875 391.945312 331.222656 390.492188 C 330.144531 389.042969 329.105469 387.566406 328.101562 386.066406 C 327.097656 384.5625 326.132812 383.039062 325.203125 381.488281 C 324.277344 379.941406 323.386719 378.367188 322.535156 376.777344 C 321.683594 375.183594 320.871094 373.570312 320.097656 371.9375 C 319.328125 370.304688 318.59375 368.65625 317.902344 366.984375 C 317.210938 365.316406 316.5625 363.632812 315.953125 361.933594 C 315.347656 360.230469 314.78125 358.515625 314.253906 356.789062 C 313.730469 355.0625 313.25 353.320312 312.8125 351.570312 C 312.371094 349.816406 311.976562 348.054688 311.625 346.285156 C 311.273438 344.511719 310.960938 342.734375 310.699219 340.945312 C 310.433594 339.160156 310.210938 337.367188 310.035156 335.570312 C 309.859375 333.773438 309.726562 331.972656 309.636719 330.167969 C 309.546875 328.363281 309.503906 326.558594 309.503906 324.753906 C 309.503906 322.949219 309.546875 321.140625 309.636719 319.339844 C 309.726562 317.535156 309.859375 315.734375 310.035156 313.9375 C 310.210938 312.140625 310.433594 310.347656 310.699219 308.5625 C 310.960938 306.773438 311.273438 304.996094 311.625 303.222656 C 311.976562 301.453125 312.371094 299.691406 312.8125 297.9375 C 313.25 296.1875 313.730469 294.445312 314.253906 292.71875 C 314.78125 290.988281 315.347656 289.277344 315.953125 287.574219 C 316.5625 285.875 317.210938 284.191406 317.902344 282.519531 C 318.59375 280.851562 319.328125 279.203125 320.097656 277.570312 C 320.871094 275.9375 321.683594 274.324219 322.535156 272.730469 C 323.386719 271.136719 324.277344 269.566406 325.203125 268.019531 C 326.132812 266.46875 327.097656 264.945312 328.101562 263.441406 C 329.105469 261.941406 330.144531 260.464844 331.222656 259.011719 C 332.296875 257.5625 333.40625 256.140625 334.554688 254.742188 C 335.699219 253.347656 336.878906 251.980469 338.089844 250.640625 C 339.304688 249.304688 340.550781 247.996094 341.828125 246.71875 C 343.105469 245.441406 344.410156 244.195312 345.75 242.984375 C 347.089844 241.769531 348.457031 240.589844 349.851562 239.445312 C 351.246094 238.300781 352.671875 237.1875 354.121094 236.113281 C 355.574219 235.035156 357.046875 233.996094 358.550781 232.992188 C 360.050781 231.992188 361.578125 231.023438 363.125 230.097656 C 364.675781 229.167969 366.246094 228.277344 367.839844 227.425781 C 369.433594 226.574219 371.046875 225.761719 372.679688 224.992188 C 374.3125 224.21875 375.960938 223.488281 377.628906 222.796875 C 379.296875 222.105469 380.984375 221.453125 382.683594 220.847656 C 384.382812 220.238281 386.097656 219.671875 387.828125 219.148438 C 389.554688 218.621094 391.296875 218.140625 393.046875 217.703125 C 394.800781 217.265625 396.5625 216.867188 398.332031 216.515625 C 400.105469 216.164062 401.882812 215.855469 403.667969 215.589844 C 405.457031 215.324219 407.246094 215.105469 409.046875 214.925781 C 410.84375 214.75 412.644531 214.617188 414.449219 214.527344 C 416.25 214.441406 418.054688 214.394531 419.863281 214.394531 C 421.667969 214.394531 423.472656 214.441406 425.277344 214.527344 C 427.082031 214.617188 428.882812 214.75 430.679688 214.925781 C 432.476562 215.105469 434.269531 215.324219 436.054688 215.589844 C 437.84375 215.855469 439.621094 216.164062 441.390625 216.515625 C 443.164062 216.867188 444.925781 217.265625 446.675781 217.703125 C 448.429688 218.140625 450.167969 218.621094 451.898438 219.148438 C 453.625 219.671875 455.339844 220.238281 457.042969 220.847656 C 458.742188 221.453125 460.425781 222.105469 462.09375 222.796875 C 463.761719 223.488281 465.414062 224.21875 467.046875 224.992188 C 468.679688 225.761719 470.292969 226.574219 471.886719 227.425781 C 473.476562 228.277344 475.050781 229.167969 476.597656 230.097656 C 478.148438 231.023438 479.671875 231.992188 481.175781 232.992188 C 482.675781 233.996094 484.152344 235.035156 485.601562 236.113281 C 487.054688 237.1875 488.476562 238.300781 489.875 239.445312 C 491.269531 240.589844 492.636719 241.769531 493.976562 242.984375 C 495.3125 244.195312 496.621094 245.441406 497.898438 246.71875 C 499.175781 247.996094 500.421875 249.304688 501.632812 250.640625 C 502.847656 251.980469 504.027344 253.347656 505.171875 254.742188 C 506.316406 256.140625 507.429688 257.5625 508.503906 259.011719 C 509.578125 260.464844 510.621094 261.941406 511.621094 263.441406 C 512.625 264.945312 513.59375 266.46875 514.519531 268.019531 C 515.449219 269.566406 516.339844 271.136719 517.191406 272.730469 C 518.042969 274.324219 518.855469 275.9375 519.625 277.570312 C 520.398438 279.203125 521.128906 280.851562 521.820312 282.519531 C 522.511719 284.191406 523.160156 285.875 523.769531 287.574219 C 524.378906 289.277344 524.945312 290.988281 525.46875 292.71875 C 525.992188 294.445312 526.476562 296.1875 526.914062 297.9375 C 527.351562 299.691406 527.75 301.453125 528.101562 303.222656 C 528.453125 304.996094 528.761719 306.773438 529.027344 308.5625 C 529.292969 310.347656 529.511719 312.140625 529.691406 313.9375 C 529.867188 315.734375 530 317.535156 530.089844 319.339844 C 530.175781 321.140625 530.222656 322.949219 530.222656 324.753906 Z M 530.222656 324.753906 " fill-opacity="0.5" fill-rule="nonzero"/></svg>