<svg xmlns="http://www.w3.org/2000/svg" xmlns:xlink="http://www.w3.org/1999/xlink" width="1000" zoomAndPan="magnify" viewBox="0 0 750 749.999995" height="1000" preserveAspectRatio="xMidYMid meet" version="1.0"><defs><clipPath id="ed51f7cc60"><path d="M 146 96 L 616 96 L 616 668.246094 L 146 668.246094 Z M 146 96 " clip-rule="nonzero"/></clipPath></defs><g clip-path="url(#ed51f7cc60)"><path fill="#fed2a4" d="M 462.035156 668.246094 L 229.375 668.246094 C 227.367188 668.246094 225.691406 667.242188 224.355469 665.566406 C 223.015625 664.226562 222.679688 661.886719 223.015625 660.210938 L 236.738281 593.929688 C 253.8125 512.917969 252.472656 511.578125 217.992188 471.40625 C 209.957031 462.035156 199.917969 450.316406 187.863281 435.253906 C 131.289062 362.945312 133.632812 247.785156 193.554688 172.800781 C 244.773438 108.527344 331.8125 81.746094 415.835938 105.179688 C 498.523438 127.941406 556.769531 193.890625 567.816406 277.582031 C 572.503906 311.726562 586.230469 342.523438 600.625 375.332031 L 606.984375 389.390625 C 614.015625 405.457031 618.699219 416.171875 613.679688 425.210938 C 609.996094 432.238281 601.628906 435.921875 584.890625 438.601562 C 562.460938 441.949219 561.792969 445.628906 559.449219 465.714844 L 552.753906 526.308594 C 547.398438 570.496094 524.632812 574.179688 489.820312 574.847656 C 487.140625 574.847656 483.792969 574.847656 480.445312 574.847656 L 468.730469 662.21875 C 468.394531 665.566406 465.382812 668.246094 462.035156 668.246094 Z M 462.035156 668.246094 " fill-opacity="1" fill-rule="evenodd"/></g><path fill="#ffbd86" d="M 440.945312 554.09375 C 424.207031 552.082031 379.683594 542.039062 372.652344 516.597656 C 371.648438 512.917969 367.964844 510.910156 364.285156 511.914062 C 360.601562 512.917969 358.59375 516.597656 359.597656 520.28125 C 369.640625 556.4375 426.546875 565.808594 437.597656 567.148438 C 450.316406 576.1875 465.046875 581.542969 479.105469 584.890625 L 480.445312 574.847656 C 483.792969 574.847656 487.140625 574.847656 489.820312 574.847656 C 492.832031 574.847656 495.507812 574.511719 498.1875 574.511719 C 480.78125 572.503906 460.359375 567.148438 443.957031 555.097656 C 442.953125 554.425781 441.949219 554.09375 440.945312 554.09375 Z M 440.945312 554.09375 " fill-opacity="1" fill-rule="evenodd"/><path fill="#2069a2" d="M 289.964844 354.910156 C 278.585938 354.910156 268.875 347.210938 265.863281 336.5 L 244.773438 336.5 C 241.089844 336.5 238.078125 333.484375 238.078125 329.804688 L 238.078125 303.355469 C 238.078125 299.675781 241.089844 296.660156 244.773438 296.660156 C 251.46875 296.660156 256.492188 291.304688 256.492188 284.945312 C 256.492188 278.585938 251.46875 273.226562 244.773438 273.226562 C 241.089844 273.226562 238.078125 270.214844 238.078125 266.535156 L 238.078125 239.753906 C 238.078125 236.070312 241.089844 233.058594 244.773438 233.058594 L 265.863281 233.058594 C 268.875 222.679688 278.585938 214.644531 289.964844 214.644531 C 301.347656 214.644531 311.054688 222.679688 314.070312 233.058594 L 334.824219 233.058594 C 338.507812 233.058594 341.519531 236.070312 341.519531 239.753906 L 341.519531 266.535156 C 341.519531 270.214844 338.507812 273.226562 334.824219 273.226562 C 328.464844 273.226562 323.441406 278.585938 323.441406 284.945312 C 323.441406 291.304688 328.464844 296.660156 334.824219 296.660156 C 338.507812 296.660156 341.519531 299.675781 341.519531 303.355469 L 341.519531 329.804688 C 341.519531 333.484375 338.507812 336.5 334.824219 336.5 L 314.070312 336.5 C 311.054688 347.210938 301.347656 354.910156 289.964844 354.910156 Z M 289.964844 354.910156 " fill-opacity="1" fill-rule="evenodd"/><path fill="#b739a4" d="M 402.445312 443.621094 C 390.730469 443.621094 381.019531 435.585938 378.007812 425.210938 L 357.253906 425.210938 C 353.570312 425.210938 350.558594 422.195312 350.558594 418.515625 L 350.558594 391.734375 C 350.558594 388.050781 353.570312 385.039062 357.253906 385.039062 C 363.613281 385.039062 368.96875 380.015625 368.96875 373.320312 C 368.96875 366.960938 363.613281 361.605469 357.253906 361.605469 C 353.570312 361.605469 350.558594 358.925781 350.558594 354.910156 L 350.558594 328.464844 C 350.558594 324.78125 353.570312 321.769531 357.253906 321.769531 L 378.007812 321.769531 C 381.019531 311.054688 390.730469 303.355469 402.445312 303.355469 C 413.828125 303.355469 423.535156 311.054688 426.546875 321.769531 L 447.304688 321.769531 C 450.984375 321.769531 454 324.78125 454 328.464844 L 454 354.910156 C 454 358.925781 450.984375 361.605469 447.304688 361.605469 C 440.945312 361.605469 435.585938 366.960938 435.585938 373.320312 C 435.585938 380.015625 440.945312 385.039062 447.304688 385.039062 C 450.984375 385.039062 454 388.050781 454 391.734375 L 454 418.515625 C 454 422.195312 450.984375 425.210938 447.304688 425.210938 L 426.546875 425.210938 C 423.535156 435.585938 413.828125 443.621094 402.445312 443.621094 Z M 402.445312 443.621094 " fill-opacity="1" fill-rule="evenodd"/><path fill="#da4a54" d="M 436.589844 298 C 435.585938 298 434.582031 297.664062 433.242188 296.996094 L 415.167969 286.617188 C 410.816406 290.972656 404.453125 293.648438 397.757812 293.648438 C 393.40625 293.648438 389.054688 292.644531 385.375 290.300781 C 375.332031 284.609375 370.644531 272.894531 373.65625 262.515625 L 355.246094 251.804688 C 352.230469 250.128906 351.226562 246.113281 352.902344 242.765625 L 366.292969 219.667969 C 367.296875 218.328125 368.636719 216.988281 370.308594 216.652344 C 371.984375 215.984375 373.992188 216.320312 375.332031 217.324219 C 380.6875 220.335938 388.386719 218.328125 391.398438 212.972656 C 393.074219 210.292969 393.40625 207.28125 392.402344 204.269531 C 391.734375 201.253906 389.726562 198.578125 387.046875 197.238281 C 385.707031 196.234375 384.367188 194.894531 384.035156 192.886719 C 383.363281 191.210938 383.699219 189.539062 384.703125 187.863281 L 398.09375 164.765625 C 398.761719 163.425781 400.4375 162.089844 402.109375 161.753906 C 403.785156 161.417969 405.457031 161.417969 407.132812 162.421875 L 425.210938 172.800781 C 429.894531 168.449219 436.257812 165.769531 442.953125 165.769531 C 447.304688 165.769531 451.65625 166.773438 455.339844 169.117188 C 461.027344 172.464844 465.382812 177.820312 467.054688 184.183594 C 468.058594 188.535156 468.058594 192.886719 467.054688 196.902344 L 485.132812 207.28125 C 488.480469 209.289062 489.484375 213.304688 487.476562 216.652344 L 474.085938 239.753906 C 472.410156 242.765625 468.394531 244.105469 465.046875 242.097656 C 459.691406 239.082031 452.324219 241.089844 449.3125 246.449219 C 445.964844 251.804688 447.972656 259.167969 453.328125 262.179688 C 455.003906 263.1875 456.007812 264.523438 456.675781 266.535156 C 457.011719 268.207031 456.675781 269.878906 456.007812 271.554688 L 442.617188 294.652344 C 441.277344 296.660156 438.933594 298 436.589844 298 Z M 436.589844 298 " fill-opacity="1" fill-rule="evenodd"/></svg>